<svg xmlns="http://www.w3.org/2000/svg" xmlns:xlink="http://www.w3.org/1999/xlink" viewBox="0 0 35.75 35.75"><defs><style>.cls-1{fill:url(#linear-gradient);}.cls-2{fill:url(#linear-gradient-2);}</style><linearGradient id="linear-gradient" x1="6.88" y1="6.88" x2="27.59" y2="27.59" gradientUnits="userSpaceOnUse"><stop offset="0" stop-color="#2a868f"/><stop offset="1" stop-color="#06bfa0"/></linearGradient><linearGradient id="linear-gradient-2" x1="6.88" y1="6.88" x2="27.59" y2="27.59" xlink:href="#linear-gradient"/></defs><g id="Layer_2" data-name="Layer 2"><g id="Layer_1-2" data-name="Layer 1"><path class="cls-1" d="M17.88,35.75A17.88,17.88,0,1,1,35.75,17.88,17.9,17.9,0,0,1,17.88,35.75Zm0-33A15.13,15.13,0,1,0,33,17.88,15.15,15.15,0,0,0,17.88,2.75Z"/><path class="cls-2" d="M21.54,22.92a1.37,1.37,0,0,1-1-.41l-2.69-2.69-2.7,2.69a1.37,1.37,0,0,1-1.94-1.94l2.69-2.69-2.69-2.7a1.37,1.37,0,0,1,1.94-1.94l2.7,2.69,2.69-2.69a1.37,1.37,0,0,1,1.94,1.94l-2.69,2.7,2.69,2.69a1.38,1.38,0,0,1-1,2.35Z"/></g></g></svg>