<svg xmlns="http://www.w3.org/2000/svg" viewBox="0 0 51.76 50.53"><defs><style>.cls-1{opacity:0.8;}.cls-2{fill:#909398;}.cls-3{fill:#427f59;}</style></defs><g id="Layer_2" data-name="Layer 2"><g id="Layer_3" data-name="Layer 3"><g class="cls-1"><path class="cls-2" d="M40.23,45.59a.84.84,0,0,0,.05-.29.74.74,0,0,0-.07-.33.33.33,0,0,0-.19-.16h-.77v1h.38a1.27,1.27,0,0,0,.45-.05A.32.32,0,0,0,40.23,45.59Z"/><path class="cls-2" d="M25.35,45a.42.42,0,0,0-.23-.19,1.3,1.3,0,0,0-.42,0h-.23v2.64h.38a.74.74,0,0,0,.3,0,.39.39,0,0,0,.21-.17.94.94,0,0,0,.14-.38,4.53,4.53,0,0,0,.05-.73,4.08,4.08,0,0,0-.05-.71A1.25,1.25,0,0,0,25.35,45Z"/><path class="cls-2" d="M26.62.84h0Z"/><path class="cls-2" d="M26.62.84h0Z"/><path class="cls-2" d="M26.63,1.78h0Z"/><path class="cls-2" d="M26.62,1.76v0h0Z"/><polygon class="cls-2" points="26.52 1.61 26.52 1.61 26.52 1.6 26.52 1.61"/><rect class="cls-2" x="26.52" y="1.6" width="0.01" height="0.01"/><path class="cls-2" d="M27.13,1.53h0a0,0,0,0,1,0,0s0,0,0,.05Z"/><path class="cls-2" d="M27.1,1.5a.08.08,0,0,1,0,.05v0h0S27.11,1.51,27.1,1.5Z"/><path class="cls-2" d="M26.5,2.3v0h0S26.49,2.29,26.5,2.3Z"/><path class="cls-2" d="M26.49,2.27v0Z"/><polygon class="cls-2" points="26.78 0.94 26.77 0.94 26.78 0.94 26.78 0.94"/><rect class="cls-2" x="26.77" y="0.93" width="0.01"/><path class="cls-2" d="M27,1.37l0,0s0,0,0,0S27,1.37,27,1.37Z"/><path class="cls-2" d="M27,1.35s0,0,0,0,0,0,0,0Z"/><path class="cls-2" d="M26.29,1.85l0,0a.13.13,0,0,1,0,.06S26.28,1.86,26.29,1.85Z"/><path class="cls-2" d="M26.27,1.83a.13.13,0,0,1,0,.06s0,0,0,0Z"/><path class="cls-2" d="M26.33,2.24h0a0,0,0,0,0,0,0S26.32,2.25,26.33,2.24Z"/><path class="cls-2" d="M26.32,2.23a0,0,0,0,0,0,0h0Z"/><polygon class="cls-2" points="27.19 1.64 27.18 1.64 27.19 1.65 27.19 1.64"/><polygon class="cls-2" points="27.18 1.64 27.19 1.65 27.19 1.64 27.18 1.64"/><path class="cls-2" d="M26.74,1a.18.18,0,0,1,0-.07l0,0h-.1V.94l-.07,0,0,0V1a1.16,1.16,0,0,1,.28.05Z"/><path class="cls-2" d="M26.67.88h-.1V.94L26.5.9h0V1l.28,0h0a.18.18,0,0,1,0-.07Z"/><polygon class="cls-2" points="26.41 0.88 26.4 0.88 26.41 0.88 26.41 0.88"/><rect class="cls-2" x="26.4" y="0.87" width="0.01"/><polygon class="cls-2" points="26.26 2.04 26.25 2.03 26.26 2.04 26.26 2.04"/><rect class="cls-2" x="26.25" y="2.03" width="0.01" height="0.01" transform="translate(10.45 23.1) rotate(-57.55)"/><path class="cls-2" d="M26.32,2.45a0,0,0,0,1,0,0h0Z"/><path class="cls-2" d="M26.32,2.45a0,0,0,0,1,0,0h0Z"/><polygon class="cls-2" points="26.38 1.94 26.37 1.93 26.38 1.94 26.38 1.94"/><rect class="cls-2" x="26.38" y="1.93" height="0.01"/><polygon class="cls-2" points="25.23 6.13 25.24 6.12 25.23 6.13 25.23 6.13"/><polygon class="cls-2" points="25.24 6.12 25.23 6.13 25.23 6.13 25.24 6.12"/><polygon class="cls-2" points="24.24 2.47 24.24 2.46 24.24 2.46 24.24 2.47"/><polygon class="cls-2" points="24.24 2.46 24.24 2.47 24.24 2.46 24.24 2.46"/><polygon class="cls-2" points="24.48 2.06 24.48 2.06 24.48 2.05 24.48 2.06"/><rect class="cls-2" x="24.48" y="2.05" height="0.01"/><polygon class="cls-2" points="24.29 2.27 24.29 2.27 24.29 2.26 24.29 2.27"/><rect class="cls-2" x="24.29" y="2.26" height="0.01"/><path class="cls-2" d="M24.11,2.56V2.51s0,0,0,0A.31.31,0,0,0,24.11,2.56Z"/><path class="cls-2" d="M24.1,2.46a.31.31,0,0,0,0,.1V2.51S24.1,2.48,24.1,2.46Z"/><polygon class="cls-2" points="24.16 2.51 24.16 2.5 24.15 2.5 24.16 2.51"/><polygon class="cls-2" points="24.15 2.5 24.16 2.51 24.16 2.5 24.15 2.5"/><polygon class="cls-2" points="27.17 2.51 27.17 2.5 27.17 2.51 27.17 2.51"/><polygon class="cls-2" points="27.17 2.5 27.17 2.51 27.17 2.51 27.17 2.51 27.17 2.5"/><path class="cls-2" d="M27.21,2.54h0v0Z"/><path class="cls-2" d="M27.21,2.54v0Z"/><polygon class="cls-2" points="26.72 3 26.71 3.01 26.72 3 26.72 3"/><polygon class="cls-2" points="26.72 3 26.72 3 26.71 3.01 26.72 3"/><path class="cls-2" d="M26.91,2.12h0v0h0Z"/><path class="cls-2" d="M26.91,2.12v0h0Z"/><path class="cls-2" d="M26.84,2h0V2Z"/><path class="cls-2" d="M26.84,2V2Z"/><polygon class="cls-2" points="27 2.27 27 2.25 27 2.27 27 2.27"/><rect class="cls-2" x="27" y="2.25" height="0.01"/><path class="cls-2" d="M26.67,2.89v0Z"/><path class="cls-2" d="M26.67,2.86v0h0Z"/><polygon class="cls-2" points="24.55 1.84 24.55 1.84 24.55 1.84 24.55 1.84"/><rect class="cls-2" x="24.55" y="1.84"/><path class="cls-2" d="M24.76,2.26v0h0Z"/><path class="cls-2" d="M24.76,2.23v0Z"/><polygon class="cls-2" points="24.82 1.63 24.82 1.63 24.82 1.63 24.82 1.63"/><rect class="cls-2" x="24.82" y="1.63"/><path class="cls-2" d="M24.67,2.63a.13.13,0,0,0,0-.06v.06Z"/><path class="cls-2" d="M24.67,2.55v.08a.13.13,0,0,0,0-.06Z"/><path class="cls-2" d="M24.82,2.3h0Z"/><path class="cls-2" d="M24.82,2.28h0Z"/><polygon class="cls-2" points="24.76 1.62 24.77 1.61 24.76 1.61 24.76 1.62"/><polygon class="cls-2" points="24.76 1.61 24.76 1.62 24.77 1.61 24.76 1.61"/><polygon class="cls-2" points="24.69 1.78 24.7 1.77 24.69 1.76 24.69 1.78"/><polygon class="cls-2" points="24.69 1.76 24.69 1.78 24.7 1.77 24.69 1.76"/><polygon class="cls-2" points="24.41 1.35 24.41 1.35 24.41 1.35 24.41 1.35"/><rect class="cls-2" x="24.41" y="1.35"/><path class="cls-2" d="M24.23,1.46h0v0S24.22,1.45,24.23,1.46Z"/><path class="cls-2" d="M24.22,1.43s0,0,0,0h0Z"/><polygon class="cls-2" points="24.35 1.33 24.35 1.33 24.35 1.33 24.35 1.33"/><path class="cls-2" d="M24.35,1.33Z"/><path class="cls-2" d="M24.54.94h0v0Z"/><path class="cls-2" d="M24.54.91v0h0Z"/><polygon class="cls-2" points="24.58 1.89 24.59 1.87 24.58 1.87 24.58 1.89"/><polygon class="cls-2" points="24.58 1.87 24.58 1.89 24.59 1.87 24.58 1.87"/><polygon class="cls-2" points="24.65 2.9 24.65 2.9 24.64 2.89 24.65 2.9"/><rect class="cls-2" x="24.64" y="2.89"/><path class="cls-2" d="M25.34,7l-.12-.09.12.1Z"/><path class="cls-2" d="M25.22,6.9l.12.1h0Z"/><path class="cls-2" d="M26,7l0,0Z"/><path class="cls-2" d="M26,7l0,0Z"/><path class="cls-2" d="M30.13,5.47l-.78.09c.3,0,.6-.06.89-.07Z"/><path class="cls-2" d="M30.13,5.47l-.78.09c.3,0,.6-.06.89-.07Z"/><path class="cls-2" d="M0,50.5,0,0,51.76,0l0,50.47Zm41.22-3.72a1.9,1.9,0,0,0,.28,1.07.89.89,0,0,0,.76.36,1,1,0,0,0,.57-.15.93.93,0,0,0,.35-.46A1.75,1.75,0,0,0,43.3,47a1.69,1.69,0,0,0-.1-.64.93.93,0,0,0-.29-.42,1.69,1.69,0,0,0-.56-.3,1.15,1.15,0,0,1-.45-.25.35.35,0,0,1-.07-.23.36.36,0,0,1,.07-.22.42.42,0,0,1,.33-.14.35.35,0,0,1,.3.13.86.86,0,0,1,.13.42h.54a1.36,1.36,0,0,0-.23-.93.84.84,0,0,0-.74-.34.87.87,0,0,0-.51.14,1,1,0,0,0-.33.42,1.54,1.54,0,0,0-.11.58,1.41,1.41,0,0,0,.24.82,1.18,1.18,0,0,0,.59.4,2.39,2.39,0,0,1,.4.18.36.36,0,0,1,.17.15.43.43,0,0,1,0,.23.61.61,0,0,1-.12.37.44.44,0,0,1-.68,0,1.13,1.13,0,0,1-.18-.57v0Zm-13.63-.53a8,8,0,0,0,.05,1,1.59,1.59,0,0,0,.15.45.86.86,0,0,0,.87.49.87.87,0,0,0,.5-.13.8.8,0,0,0,.3-.33,1.61,1.61,0,0,0,.16-.51,7.63,7.63,0,0,0,0-1v-2.1l-.54,0,0,2.24c0,.31,0,.54,0,.67a.61.61,0,0,1-.13.33.37.37,0,0,1-.3.13.38.38,0,0,1-.31-.14.69.69,0,0,1-.15-.38c0-.1,0-.32,0-.66V44.12l-.57,0v2.16ZM10.16,44a1,1,0,0,0-.62.2,1.6,1.6,0,0,0-.49.76,3.2,3.2,0,0,0-.17,1.11A4.07,4.07,0,0,0,9,47.17a1.67,1.67,0,0,0,.46.77,1,1,0,0,0,.71.27,1.16,1.16,0,0,0,.63-.19,1.43,1.43,0,0,0,.47-.44V46l-1.12,0,0,.71.61,0,0,.47a1.4,1.4,0,0,1-.26.21.57.57,0,0,1-.31.1.58.58,0,0,1-.5-.34,2.34,2.34,0,0,1-.19-1,2,2,0,0,1,.19-1,.57.57,0,0,1,.51-.32.41.41,0,0,1,.34.16.78.78,0,0,1,.19.44l.55-.12a1.54,1.54,0,0,0-.32-.91A.94.94,0,0,0,10.16,44Zm37.51,2.41v1.67l.54,0,0-1.7.93-2.3-.62,0-.61,1.6-.53-1.58-.68,0ZM44.61,44.8l.78,0,0,3.28.53,0,0-3.34.71,0,0-.71-2.06,0Zm-.88,3.31.53,0,0-4-.57,0Zm-4.38-1.63a.45.45,0,0,1,.24,0,.41.41,0,0,1,.14.15,6.22,6.22,0,0,1,.27.58l.37.87.64,0-.28-.82a5.1,5.1,0,0,0-.29-.65,1.81,1.81,0,0,0-.28-.34h0a.57.57,0,0,0,.5-.33,1.47,1.47,0,0,0,.18-.76,1.66,1.66,0,0,0-.12-.64.73.73,0,0,0-.3-.39,1.19,1.19,0,0,0-.61-.12H38.74l0,4,.54,0,0-1.66Zm-3.06,1.63,2,0,0-.7-1.44,0,0-1.06,1.24,0,0-.71-1.3,0,0-.85,1.33,0,0-.71-1.93,0v4Zm-1.78,0,.58,0,.93-4-.57,0-.65,3-.57-3-.63,0Zm-1.71,0,.55,0,0-4-.58,0Zm-1.1,0,.54,0,0-4-.51,0,0,2.7-1-2.68-.53,0,0,4,.51,0,0-2.47Zm-7.77,0,1,0a1,1,0,0,0,.46-.09.91.91,0,0,0,.37-.33A2.14,2.14,0,0,0,26,47a4.81,4.81,0,0,0,0-1.8,2.4,2.4,0,0,0-.24-.66,1,1,0,0,0-.4-.38,1.21,1.21,0,0,0-.49-.08h-1Zm-1.06,0,.54,0,0-4-.57,0Zm-2.19,0,1.8,0,0-.7-1.29,0,0-3.25-.57,0Zm-1.1-.87.19.88.58,0-1-4-.56,0-1,4,.57,0,.24-.9ZM17,46.4l0,1.71.54,0,0-4-.55,0,0,1.6-1,0,0-1.53-.54,0,0,4,.54,0,0-1.74Zm-2.52,1.72.68,0-1-2.47.95-1.53-.71,0-1.06,1.79.06-1.76-.54,0,0,4,.54,0,0-1.23.38-.6Zm-6.6,0,.54,0,0-4-.51,0,0,2.7-1-2.68-.52,0,0,4,.5,0,0-2.47Zm-2.56,0,.54,0,0-4-.57,0Zm-1,0,.69,0L4,45.67,5,44.14l-.71,0-1,1.79.06-1.76-.54,0,0,4,.53,0,0-1.23.37-.6ZM9.42,41.3l32.89,0,0-32.1L9.42,9.2ZM45.87,10.69l1.18,1.22-1.9,1.87L47,15.71l-1.89,1.84,1.9,1.95-1.9,1.86,1.9,1.95-1.9,1.87,1.9,1.95L45.15,29l1.9,2-1.9,1.86,1.9,2-1.9,1.87,1.9,2L45.87,39.7l1.18,1.23,1.23-1.18L47.1,38.52,49,36.66l-1.9-1.95L49,32.85l-1.9-2L49,29l-1.9-2L49,25.22l-1.9-1.95L49,21.41l-1.9-1.95L49,17.6l-1.88-1.94L49,13.82l-1.9-2,1.18-1.14-1.2-1.24Zm-42.6,0,1.18,1.22L2.54,13.78l1.89,1.93L2.54,17.55,4.45,19.5,2.54,21.36l1.91,1.95L2.54,25.18l1.91,1.95L2.54,29l1.91,2L2.54,32.8l1.91,2L2.54,36.62l1.91,2L3.27,39.7l1.18,1.23,1.22-1.18L4.49,38.52,6.4,36.66,4.49,34.71,6.4,32.85l-1.91-2L6.4,29l-1.91-2L6.4,25.22,4.49,23.27,6.4,21.41,4.49,19.46,6.4,17.6,4.51,15.67,6.4,13.82l-1.91-2,1.18-1.14L4.47,9.49ZM48.08,34.76l1,1,0-2Zm-42.61,0,1,1,0-2Zm-2.94,1,1-.92-1-1.05Zm42.61,0,1-.92-1-1.05ZM48.08,31l1,1,0-2ZM5.47,31l1,1,0-2Zm-2.94,1,1-.93-1-1Zm42.61,0,1-.93-1-1Zm2.94-4.78,1,1,0-2Zm-42.61,0,1,1,0-2Zm-2.94,1,1-.92-1-1Zm42.61,0,1-.92-1-1Zm2.94-4.78,1,1,0-2Zm-42.61,0,1,1,0-2Zm-2.94,1,1-.92-1-1.05Zm42.61,0,1-.92-1-1.05Zm2.94-4.78,1,1,0-2Zm-42.61,0,1,1,0-2Zm-2.94,1,1-.93-1-1Zm42.61,0,1-.93-1-1Zm2.94-4.78,1,1,0-2Zm-42.61,0,1,1,0-2Zm-2.94,1,1-.92-1-1Zm42.61,0,1-.92-1-1ZM23.5,8.07a.54.54,0,0,0-.21,0,.44.44,0,0,0-.14.57.41.41,0,0,0,.27.2h.12a1.64,1.64,0,0,0,1-.42.82.82,0,0,0,.56.39h0c.28,0,.51-.11.56-.35a.47.47,0,0,0-.24-.46.35.35,0,0,0-.17,0,.8.8,0,0,0-.23.05l0,0a2.48,2.48,0,0,1,.44-.41l.28-.24a1.33,1.33,0,0,0,.24.23,2.44,2.44,0,0,1,.5.46.45.45,0,0,0-.21-.1h0a.44.44,0,0,0-.47.32.37.37,0,0,0,.05.31.53.53,0,0,0,.42.21,1,1,0,0,0,.71-.4,1.3,1.3,0,0,0,.86.41.8.8,0,0,0,.3-.06.34.34,0,0,0,.19-.24.4.4,0,0,0-.05-.32.42.42,0,0,0-.35-.19.41.41,0,0,0-.32.15A.84.84,0,0,1,27.22,8h0l.21,0a.41.41,0,0,0,.41-.32.37.37,0,0,0-.05-.29.45.45,0,0,0-.28-.2h0a.59.59,0,0,0-.48.2.75.75,0,0,0-.13.27l0,.11-.25-.28L26.11,7a6.48,6.48,0,0,1,4.14-1.41l.51,0-.5-.16a6.12,6.12,0,0,0-1.05-.1,5.51,5.51,0,0,0-3,.89l0-.11a3.23,3.23,0,0,1-.22-.41c0-.14.06-.2,0-.27a.35.35,0,0,1-.06-.17l0-.12a.47.47,0,0,0,0-.24.52.52,0,0,1,0-.11,15,15,0,0,1,0-2l0,.14a.75.75,0,0,1,0,.16.93.93,0,0,1,0,.23l0,.1h.14l.09-.15,0,.1.1-.14.11-.36a.59.59,0,0,0,0-.36c.07-.06.05-.14,0-.21l0,0a.26.26,0,0,1,0,.11l0,.17a.36.36,0,0,0,0,.23l.1.24,0,0V3l0,.07.12,0a1.11,1.11,0,0,0,.19-.6l.17.47,0-.23,0,.08.07,0,.05-.17a1,1,0,0,0-.18-.88.76.76,0,0,0,.09.09l.07-.12a.86.86,0,0,0-.05-.42A.68.68,0,0,0,26.91,1a.74.74,0,0,0-.13-.33.69.69,0,0,0-.46-.16l-.16,0a.64.64,0,0,0-.33.2s0-.08,0-.14L25.72.07l-.06.26a.31.31,0,0,0-.12.2c-.06.14-.07.19-.09.24S25.38.6,25.26.56a.77.77,0,0,0-.25,0,.78.78,0,0,0-.43.14.25.25,0,0,0-.12.3.6.6,0,0,0-.41.71l0,.15.14-.13,0-.1,0,0,0,.06a1.12,1.12,0,0,0-.16.27,1.07,1.07,0,0,0,0,.62l0,.18.11-.12.07-.1v.1l.09-.15V2.38l.08,0,0,.12.07.13a.57.57,0,0,0,.07.46l.14,0,.07-.12.12-.18a.42.42,0,0,0,0-.29l0-.11a1,1,0,0,0,0,.17v.1a.85.85,0,0,0,0,.22L25,3l.05.11,0,.1.08.25,0-.12a.07.07,0,0,0,.06.07l.09,0,0-.13a.62.62,0,0,1,0-.23,1.11,1.11,0,0,0,0-.17l.07,0-.05-.15,0,0,.09,0c0,.73,0,1.17,0,2l0,.1a1.74,1.74,0,0,0,0,.23.4.4,0,0,1,0,.27.24.24,0,0,0,0,.19.52.52,0,0,1-.11.38l-.09.15,0,0v0a5.21,5.21,0,0,0-1.32-.63,6.23,6.23,0,0,0-1.69-.25,5.78,5.78,0,0,0-1,.1l-.49.1.5.07A6.32,6.32,0,0,1,25.25,7l-.27.2-.53.5s0-.07,0-.11a.68.68,0,0,0-.12-.26.88.88,0,0,0-.32-.2h-.12a.4.4,0,0,0-.4.33.44.44,0,0,0,.24.46.28.28,0,0,0,.13,0,.77.77,0,0,0,.26-.07.47.47,0,0,1-.33.3.32.32,0,0,0-.29-.14Zm2.18-1.49a5.2,5.2,0,0,0-.49-.36h1A5.32,5.32,0,0,0,25.68,6.58Z"/><path class="cls-2" d="M51.7.06V50.47H.06V.06H25.63V.21l0,0-.05.1a.41.41,0,0,0,0,.18v0h0v.1a.78.78,0,0,0-.18-.11.87.87,0,0,0-.26,0,.78.78,0,0,0-.44.13.31.31,0,0,0-.15.35h0a.57.57,0,0,0-.38.69l0,.15v.07l0,.05a1.14,1.14,0,0,0,0,.64l0,.18,0,.21.07-.17,0,.08,0-.18v0l.06.11,0-.16,0-.13v.08h0a1.12,1.12,0,0,0,.14.48l0,0,0,0,.08,0v.21l.08-.19h0V3l0,0,.1-.25h0a.28.28,0,0,0,0,.09v.05h0v.24l0,0v0a.29.29,0,0,0,0,.09l0,.16.05.18.05-.14,0,0,.09,0,.11.05,0-.12v-.1a.65.65,0,0,1,0-.23V3h0c0,.62,0,1.05,0,1.79a.23.23,0,0,1,0,.09v0h0a1.61,1.61,0,0,0,0,.22.38.38,0,0,1,0,.26.23.23,0,0,0,0,.2v0a.46.46,0,0,1-.12.3l-.09.16v0a5.1,5.1,0,0,0-1.29-.6,6.3,6.3,0,0,0-1.7-.25,5.69,5.69,0,0,0-1,.1l-.49.1-.55.11h.56l.49,0A6.25,6.25,0,0,1,25.18,7h0l-.69.64v0a.88.88,0,0,0-.13-.28A.76.76,0,0,0,24,7.14h-.13a.43.43,0,0,0-.43.36.48.48,0,0,0,.26.5l.14,0A.71.71,0,0,0,24.11,8h0a.73.73,0,0,1-.3.22.46.46,0,0,0-.55-.07.48.48,0,0,0-.15.61.46.46,0,0,0,.3.21h.12a1.53,1.53,0,0,0,.93-.39,1,1,0,0,0,.59.36h.08a.5.5,0,0,0,.53-.38A.48.48,0,0,0,25.41,8a.39.39,0,0,0-.18,0l-.16,0c.11-.11.24-.21.37-.32l.24-.2.24.19A3.11,3.11,0,0,1,26.3,8l-.07,0h-.1a.48.48,0,0,0-.44.35.45.45,0,0,0,.07.34.54.54,0,0,0,.44.22,1,1,0,0,0,.69-.36,1.53,1.53,0,0,0,.87.37.87.87,0,0,0,.32-.06.42.42,0,0,0,.21-.26.43.43,0,0,0-.06-.35.46.46,0,0,0-.38-.2.44.44,0,0,0-.31.13.59.59,0,0,1-.28-.2.52.52,0,0,0,.21,0,.43.43,0,0,0,.43-.34.4.4,0,0,0,0-.32.48.48,0,0,0-.3-.21h-.08a.58.58,0,0,0-.46.22,1,1,0,0,0-.13.27l.06,0h-.07v0l-.23-.22-.36-.33-.1-.1A6.36,6.36,0,0,1,30.25,5.6h.51l.58,0-.57-.1-.51-.1a6,6,0,0,0-1.05-.1,5.46,5.46,0,0,0-3,.86l-.05-.07A2.67,2.67,0,0,1,26,5.65a.14.14,0,0,0,0-.06.28.28,0,0,0,0-.21v0h0a.2.2,0,0,1,0-.13v0h0a.23.23,0,0,1,0-.07.54.54,0,0,0,0-.26.36.36,0,0,1,0-.1v0h0A17.41,17.41,0,0,1,25.9,3h0v.08a.52.52,0,0,1,0,.21l0,.11v.11l.1-.05.09,0,.08.23v0l0,.1V3.52l.08-.3.11-.4a.28.28,0,0,0,0-.09h0l.11.24v.11h0l.08.17V3.06l.08,0,.05,0,0,0A1.42,1.42,0,0,0,27,2.5l.1.43.13.49V2.88l0,.06.05-.18.05-.17a1,1,0,0,0-.07-.72l0,0,0-.12v-.1a.68.68,0,0,0-.06-.44A.68.68,0,0,0,26.92,1h0V1A.38.38,0,0,0,26.8.66a.72.72,0,0,0-.48-.17.47.47,0,0,0-.17,0,.62.62,0,0,0-.28.14V.6L25.75.07h26M9.39,41.36h33V9.16h-33v32.2m-5-29.47L2.52,13.76l0,0,0,0,1.84,1.85L2.52,17.53l0,0,0,.05,1.86,1.86L2.52,21.34l0,0,0,.05,1.86,1.86L2.52,25.16l0,0,0,0L4.38,27.1,2.52,29l0,0,0,0,1.86,1.86L2.52,32.78l0,0,0,0,1.86,1.86L2.52,36.6l0,0,0,0,1.86,1.87L3.24,39.68l0,0,0,0L4.42,41l0,0,0,0,1.18-1.18,0,0,0,0L4.56,38.55l1.86-1.87,0,0,0,0L4.56,34.73l1.86-1.86,0,0,0,0L4.56,30.92l1.86-1.86,0,0,0,0L4.56,27.1l1.86-1.86,0,0,0,0L4.56,23.29l1.86-1.86,0-.05,0,0L4.56,19.48l1.86-1.86,0-.05,0,0L4.58,15.69l1.84-1.85,0,0,0,0L4.56,11.89l1.13-1.14,0,0,0,0L4.51,9.49l0-.05,0,.05L3.24,10.67l0,0,0,0,1.14,1.14m42.61,0-1.87,1.87,0,0,0,0L47,15.69l-1.85,1.84,0,0,0,.05L47,19.48l-1.87,1.86,0,0,0,.05L47,23.29l-1.87,1.87,0,0,0,0L47,27.1,45.12,29l0,0,0,0L47,30.92l-1.87,1.86,0,0,0,0L47,34.73,45.12,36.6l0,0,0,0L47,38.55l-1.14,1.13,0,0,0,0L47,41l0,0,0,0,1.18-1.18,0,0,0,0-1.14-1.13L49,36.68l0,0,0,0-1.86-1.87L49,32.87l0,0,0,0-1.86-1.86L49,29.06l0,0,0,0L47.16,27.1,49,25.24l0,0,0,0-1.86-1.87L49,21.43l0-.05,0,0-1.86-1.86L49,17.62l0-.05,0,0-1.84-1.84L49,13.84l0,0,0,0-1.86-1.87,1.14-1.14,0,0,0,0L47.12,9.49l0-.05,0,.05-1.18,1.18,0,0,0,0L47,11.89m-1.88,4.92.1-.1.95-1,0,0,0,0-.95-.95-.1-.11v2.19m-42.61,0,.11-.1.94-1,0,0,0,0-.94-.95-.11-.11v2.19m4,0V14.62l-.11.11-.94.94,0,.05,0,0,.94,1,.11.1m42.61,0V14.62l-.11.11-.94.94-.05.05.05,0,.94,1,.11.1m-4,3.82.1-.11.95-.94,0,0,0,0-.95-.95-.1-.1v2.19m-42.61,0,.11-.11.94-.94,0,0,0,0-.94-.95-.11-.1v2.19m4,0V18.44l-.11.1-.94.95,0,0,0,0,.94.94.11.11m42.61,0V18.44l-.11.1-.94.95-.05,0,.05,0,.94.94.11.11m-4,3.81.1-.11.95-.94,0,0,0-.05-.95-.94-.1-.11v2.19m-42.61,0,.11-.11.94-.94,0,0,0-.05-.94-.95-.11-.1v2.19m4,0V22.25l-.11.1-.94.95,0,.05,0,0,.94.94.11.11m42.61,0V22.25l-.11.1-.94.95-.05.05.05,0,.94.94.11.11m-4,3.81.1-.1.95-.95,0,0,0-.05-.95-.94-.1-.11v2.19m-42.61,0,.11-.1.94-.95,0,0,0-.05-.94-.94-.11-.11v2.19m4,0V26.06l-.11.11-.94.94,0,.05,0,0,.94.95.11.1m42.61,0V26.06l-.11.11-.94.94-.05.05.05,0,.94.95.11.1m-4,3.82.1-.11.95-.94,0-.05,0,0L45.21,30l-.1-.1v2.19m-42.61,0L2.61,32,3.55,31l0-.05,0,0L2.61,30l-.11-.1v2.19m4,0V29.88l-.11.1-.94.95,0,0,0,.05.94.94.11.11m42.61,0V29.88L49,30l-.94.95L48,31l.05,0L49,32l.11.11m-4,3.81.1-.11.95-.94,0,0,0,0-.95-.94-.1-.11v2.19m-42.61,0,.11-.11.94-.94,0,0,0,0-.94-.94-.11-.11v2.19m4,0V33.69l-.11.11-.94.94,0,0,0,0,.94.94.11.11m42.61,0V33.69l-.11.1-.94,1-.05,0,.05,0,.94.94.11.11M42.27,47.44a.36.36,0,0,1-.32-.16,1.15,1.15,0,0,1-.17-.55v-.06h-.06l-.5.07h-.05v.06a2,2,0,0,0,.32,1,.9.9,0,0,0,.78.37,1.1,1.1,0,0,0,.59-.15,1.16,1.16,0,0,0,.36-.47,1.85,1.85,0,0,0,.12-.67,1.74,1.74,0,0,0-.1-.65,1.08,1.08,0,0,0-.3-.44,2,2,0,0,0-.57-.29,1,1,0,0,1-.43-.25.3.3,0,0,1-.07-.21.27.27,0,0,1,.07-.2.38.38,0,0,1,.3-.12.31.31,0,0,1,.27.11.78.78,0,0,1,.13.41v.06h.06l.5,0h.06v-.07a1.66,1.66,0,0,0-.26-.91.9.9,0,0,0-.77-.35,1,1,0,0,0-.53.14,1,1,0,0,0-.34.44,1.59,1.59,0,0,0-.11.59,1.46,1.46,0,0,0,.24.84,1.48,1.48,0,0,0,.61.42,2,2,0,0,1,.4.17.34.34,0,0,1,.15.14.46.46,0,0,1,.05.21.61.61,0,0,1-.11.35.39.39,0,0,1-.32.14m-32.08.8a1.18,1.18,0,0,0,.64-.2,1.42,1.42,0,0,0,.49-.45h0V45.91H10.1v.8h.59v.41a.72.72,0,0,1-.25.21.48.48,0,0,1-.29.1.55.55,0,0,1-.47-.33,2.24,2.24,0,0,1-.19-1,2,2,0,0,1,.19-1,.52.52,0,0,1,.48-.3.4.4,0,0,1,.32.14.89.89,0,0,1,.18.44l0,.06.06,0,.51-.14.05,0v-.05a1.74,1.74,0,0,0-.35-.9,1.08,1.08,0,0,0-1.42-.12A1.64,1.64,0,0,0,9,45a3.31,3.31,0,0,0-.18,1.13A3.81,3.81,0,0,0,9,47.18a1.67,1.67,0,0,0,.46.78,1,1,0,0,0,.73.28M48,45.52l-.53-1.42,0,0H44.58v.8h.75v3.31H46V44.86h.74v-.75l0,0,.92,2.29v1.73h.63V46.45l.92-2.3,0-.09H48.5v0L48,45.52M43.7,48.17h.63V44.06H43.7v4.11m-5,0h.63V46.51h0a.66.66,0,0,1,.23,0,.5.5,0,0,1,.13.15c0,.07.12.25.26.58l.37.86,0,0h.74l0-.08-.31-.78a5.16,5.16,0,0,0-.3-.66,1.78,1.78,0,0,0-.21-.27.76.76,0,0,0,.44-.37,1.49,1.49,0,0,0,.17-.77,1.67,1.67,0,0,0-.11-.65.86.86,0,0,0-.32-.41,1.23,1.23,0,0,0-.62-.12H38.68v4.11m-2.42,0h2v-.79H36.89v-1h1.27v-.8H36.89v-.76h1.36v-.8h-2v4.11m-1.43-1.4-.57-2.66,0,0h-.68l0,.08.9,4v.05h.65v-.05l.9-4,0-.08H35.4v0l-.56,2.66m-2.06,1.4h.64V44.06h-.64v4.11m-1.06-1.72L30.8,44.1l0,0h-.6v4.11h.6V45.84l.89,2.29,0,0h.62V44.06h-.6v2.39m-3.07,1a.35.35,0,0,1-.29-.13.74.74,0,0,1-.14-.36,6,6,0,0,1,0-.66V44.06h-.63v2.19a8,8,0,0,0,.05,1,1.55,1.55,0,0,0,.15.46.87.87,0,0,0,.9.51.93.93,0,0,0,.52-.13.88.88,0,0,0,.31-.35,1.38,1.38,0,0,0,.16-.52,7.63,7.63,0,0,0,0-1V44.06h-.63v2.27c0,.33,0,.54,0,.67a.51.51,0,0,1-.12.31.32.32,0,0,1-.28.12m-4.74.74h1a1.14,1.14,0,0,0,.48-.09,1,1,0,0,0,.38-.34,2.21,2.21,0,0,0,.28-.72,4.3,4.3,0,0,0,.08-.87,4.13,4.13,0,0,0-.09-.95,1.82,1.82,0,0,0-.25-.66.91.91,0,0,0-.4-.4,1.36,1.36,0,0,0-.51-.08h-1v4.11m-1.06,0h.63V44.06h-.63v4.11m-5.1,0h.67v-.05l.2-.85h.91l.21.85v.05h.68l0-.08-1-4v0h-.63v0l-1,4,0,.08m-.83-2.54H16V44.06h-.63v4.11H16V46.43h.87v1.74h.64V44.06h-.64v1.57m-3.48,0v-1.6H12.8v4.11h.63V46.92l.34-.54.65,1.75v0h.8l0-.08-1-2.41.93-1.52.06-.1h-.83l0,0-.91,1.57m-5.58.79L6.94,44.1v0H6.32v4.11h.6V45.84l.9,2.29v0h.62V44.06h-.6v2.39M5.26,48.17h.63V44.06H5.26v4.11m-2-2.51v-1.6H2.66v4.11H3.3V46.92l.33-.54.65,1.75,0,0h.79l0-.08-1-2.41L5,44.16l.06-.1H4.23l0,0L3.3,45.66m17.35,2.51h1.89v-.79H21.28V44.1h-.63v4.07m5.4-41.92-.35.27-.39-.27h.74M51.76,0H0V50.53H51.76ZM25.69.33V.08l.11.53a.75.75,0,0,0,0,.16.6.6,0,0,1,.33-.2l.15,0a.66.66,0,0,1,.43.15.31.31,0,0,1,.08.24V1l.07,0a.61.61,0,0,1,.3.23.65.65,0,0,1,0,.39v.1l-.08-.07a.13.13,0,0,1,0-.11v0h0A.15.15,0,0,0,27,1.44l0-.05h0l-.09.09V1.43l-.09-.08,0,0v0h0a.11.11,0,0,1-.06,0h0v.06l0,0a1.12,1.12,0,0,1,.41.32,1,1,0,0,1,.17.86l0,.17,0-.09v0l0-.1v.33L27,2.48s0-.06,0-.09v0h0l-.08,0V2.28a.24.24,0,0,0,0-.13v.18a1.25,1.25,0,0,1-.13.7l-.11,0V3h0l-.05,0V2.9s0-.09,0-.14V3l-.11-.24a.45.45,0,0,1,0-.23l0-.17a.45.45,0,0,1,0-.11l0-.06a.16.16,0,0,1,0-.09l0,0a.2.2,0,0,1,.06.2h-.05a.27.27,0,0,1,.05.22h-.06a.55.55,0,0,1,0,.34l-.11.39v0l-.05.15,0-.09h0v.15l0-.08a.08.08,0,0,1-.05,0l-.09,0v-.1A.65.65,0,0,0,26,3a.88.88,0,0,1,0-.16h0V2.72l0,0h-.06a15,15,0,0,0,0,2,.35.35,0,0,0,0,.13.52.52,0,0,1,0,.22c0,.06,0,.09,0,.1v0h0a.25.25,0,0,0,.05.16h0a.41.41,0,0,1,0,.16.23.23,0,0,0,0,.09h0a1.63,1.63,0,0,0,.23.43l.06.09H25.14l0-.08A1.09,1.09,0,0,1,25.26,6a.58.58,0,0,0,.13-.35.35.35,0,0,1,0-.06.21.21,0,0,1,0-.16.39.39,0,0,0,0-.28,1.47,1.47,0,0,1,0-.21h0a.45.45,0,0,0,0-.11,17.22,17.22,0,0,0,0-2h0a.14.14,0,0,1-.09,0,.13.13,0,0,0,0,.06l0,.14-.07,0a.88.88,0,0,1,0,.17,1,1,0,0,0,0,.24l0,.1-.1,0a.11.11,0,0,1,0-.11h0l0,.09,0-.16,0-.08A.29.29,0,0,0,25,3v0l0,0V2.81h0a.55.55,0,0,1,0-.22l0-.1A.28.28,0,0,1,25,2.26h-.06A.24.24,0,0,1,25,2.07l0,0a.11.11,0,0,1,0,.08l0,.06s0,.08,0,.12l0,.13a.34.34,0,0,1,0,.26L24.72,3V2.64h0a1.27,1.27,0,0,0,0,.28V3l-.06,0h0V3l-.1,0a1.06,1.06,0,0,1-.13-.46h0V2.15a.24.24,0,0,0,0,.13v.13l-.08,0h0v0s0,.06,0,.09l0,.14-.05-.1h0l-.05.16,0-.06-.05.12,0-.18a1.2,1.2,0,0,1,0-.6,1.91,1.91,0,0,1,.16-.27,1,1,0,0,1,.24-.22l.09-.06V1.33h0l-.09.11v0l-.1-.1h0v.16l0-.11v.14l-.06-.06v0h0v.08l0,0h0a.29.29,0,0,1,0,.09l-.08.13,0-.15A.5.5,0,0,1,24.41,1l.09,0,0-.06A.23.23,0,0,1,24.6.68.69.69,0,0,1,25,.55a.75.75,0,0,1,.24,0,.48.48,0,0,1,.23.19c0-.05,0-.11,0-.17h0a.17.17,0,0,0,0-.07.75.75,0,0,1,0-.16l.06-.11ZM24.47,7.76l.75-.69L25.27,7a6.36,6.36,0,0,0-4.16-1.47h-.49l.48-.1a5.78,5.78,0,0,1,1-.1A5.62,5.62,0,0,1,25.7,6.6a5.35,5.35,0,0,1,3.51-1.27,6,6,0,0,1,1,.1l.51.1h-.52A6.41,6.41,0,0,0,26.08,7l.51.48.3.27a.36.36,0,0,0,0-.11.71.71,0,0,1,.13-.26.54.54,0,0,1,.41-.2h.07a.4.4,0,0,1,.26.18.33.33,0,0,1,0,.27.37.37,0,0,1-.37.3.59.59,0,0,1-.26-.07.12.12,0,0,0,0,.1.7.7,0,0,0,.37.26.37.37,0,0,1,.29-.14.4.4,0,0,1,.33.17.36.36,0,0,1,.05.3.31.31,0,0,1-.18.22.69.69,0,0,1-.28.05,1.54,1.54,0,0,1-.89-.39.94.94,0,0,1-.68.39.49.49,0,0,1-.39-.2.32.32,0,0,1,0-.28.39.39,0,0,1,.37-.31h.09a.32.32,0,0,1,.24.15.14.14,0,0,1,0,.12h0a.2.2,0,0,0,.09-.07A2.28,2.28,0,0,0,26,7.64l-.28-.23a3,3,0,0,1-.28.24,3,3,0,0,0-.62.62s.07.07.1.07l0-.06A.21.21,0,0,1,25,8.1a.63.63,0,0,1,.22,0,.35.35,0,0,1,.14,0,.42.42,0,0,1,.23.43.45.45,0,0,1-.47.33h-.07a1,1,0,0,1-.59-.39,1.53,1.53,0,0,1-.94.41h-.11a.41.41,0,0,1-.25-.18.4.4,0,0,1,.13-.53.4.4,0,0,1,.5.09A.68.68,0,0,0,24.17,8a.06.06,0,0,0,0-.06l0-.06,0,0a.66.66,0,0,1-.25.07l-.12,0a.4.4,0,0,1-.22-.42.38.38,0,0,1,.38-.31H24a.81.81,0,0,1,.31.19,1,1,0,0,1,.12.25.34.34,0,0,0,0,.12ZM9.45,41.3V9.23H42.31V41.3Zm37.63-.39-1.19-1.18,1.19-1.18-1.91-1.91,1.91-1.91-1.91-1.9,1.91-1.91L45.17,29l1.91-1.91-1.91-1.9,1.91-1.91-1.91-1.91,1.91-1.9-1.91-1.91,1.89-1.88L45.17,13.8l1.91-1.91-1.19-1.18,1.19-1.18,1.18,1.18-1.18,1.18L49,13.8,47.1,15.69,49,17.57l-1.9,1.91,1.9,1.9-1.9,1.91L49,25.2l-1.9,1.9L49,29l-1.9,1.91L49,32.83l-1.9,1.9L49,36.64l-1.9,1.91,1.18,1.18Zm-42.61,0L3.29,39.73l1.18-1.18L2.56,36.64l1.91-1.91-1.91-1.9,1.91-1.91L2.56,29,4.47,27.1,2.56,25.2l1.91-1.91L2.56,21.38l1.91-1.9L2.56,17.57l1.89-1.88L2.56,13.8l1.91-1.91L3.29,10.71,4.47,9.53l1.18,1.18L4.47,11.89l1.9,1.91L4.49,15.68l1.88,1.89-1.9,1.91,1.9,1.9-1.9,1.91,1.9,1.91-1.9,1.9L6.37,29l-1.9,1.91,1.9,1.91-1.9,1.9,1.9,1.91-1.9,1.9,1.18,1.18ZM49.05,16.66l-.95-.94.95-1Zm-3.88,0V14.77l.94,1Zm-38.73,0-1-.94,1-1Zm-3.88,0V14.77l.95,1Zm46.49,3.82-.95-.95.95-1Zm-3.88,0v-1.9l.94,1Zm-38.73,0-1-.95,1-1Zm-3.88,0v-1.9l.95,1Zm46.49,3.81-.95-.95.95-.94Zm-3.88,0V22.4l.94.94Zm-38.73,0-1-.95,1-.94Zm-3.88,0V22.4l.95.94ZM49.05,28.1l-.95-.94.95-.95Zm-3.88,0V26.21l.94.95Zm-38.73,0-1-.94,1-.95Zm-3.88,0V26.21l.95.95Zm46.49,3.82-.95-1,.95-.94Zm-3.88,0V30l.94.95Zm-38.73,0-1-1,1-.94Zm-3.88,0V30l.95.95Zm46.49,3.81-.95-.95.95-.94Zm-3.88,0V33.84l.94.94Zm-38.73,0-1-.95,1-.94Zm-3.88,0V33.84l.95.94ZM42.27,47.5a.44.44,0,0,0,.37-.17.6.6,0,0,0,.13-.38.48.48,0,0,0-.06-.24.37.37,0,0,0-.18-.17,4.29,4.29,0,0,0-.41-.18,1.31,1.31,0,0,1-.58-.39,1.39,1.39,0,0,1-.22-.8,1.52,1.52,0,0,1,.1-.57,1,1,0,0,1,.32-.41.88.88,0,0,1,.49-.13.83.83,0,0,1,.72.33,1.53,1.53,0,0,1,.25.88l-.51,0a.79.79,0,0,0-.14-.44.39.39,0,0,0-.32-.14.44.44,0,0,0-.35.15.36.36,0,0,0-.08.24.41.41,0,0,0,.08.25,1.12,1.12,0,0,0,.46.26,1.91,1.91,0,0,1,.56.29,1,1,0,0,1,.27.41,1.67,1.67,0,0,1,.1.63,1.69,1.69,0,0,1-.12.64.86.86,0,0,1-.34.44.94.94,0,0,1-.55.15.87.87,0,0,1-.73-.35,1.93,1.93,0,0,1-.3-1l.49-.07a1.28,1.28,0,0,0,.18.58A.43.43,0,0,0,42.27,47.5Zm-32.08.68a1,1,0,0,1-.69-.27,1.54,1.54,0,0,1-.45-.75,3.89,3.89,0,0,1-.14-1.06A3.14,3.14,0,0,1,9.08,45a1.48,1.48,0,0,1,.48-.75.92.92,0,0,1,.6-.19.9.9,0,0,1,.73.31,1.61,1.61,0,0,1,.34.86l-.51.15a.92.92,0,0,0-.19-.47.48.48,0,0,0-.37-.17.61.61,0,0,0-.53.34,2,2,0,0,0-.2,1,2.31,2.31,0,0,0,.2,1.07.61.61,0,0,0,.52.35.7.7,0,0,0,.33-.1,1.55,1.55,0,0,0,.27-.24v-.51h-.58V46h1.09v1.59a1.37,1.37,0,0,1-.46.43A1.12,1.12,0,0,1,10.19,48.18ZM48,45.7l.58-1.58h.59l-.93,2.32v1.67H47.7V46.43l-.92-2.31h.6Zm-3.33-.9v-.68h2v.68H45.9v3.31h-.51V44.8Zm-.88,3.31v-4h.5v4Zm-5,0v-4h1.07a1.23,1.23,0,0,1,.59.11.73.73,0,0,1,.29.38,1.57,1.57,0,0,1,.11.63,1.48,1.48,0,0,1-.16.74.75.75,0,0,1-.5.37,1.4,1.4,0,0,1,.27.33,5.1,5.1,0,0,1,.29.65l.31.78H40.4L40,47.24a5.12,5.12,0,0,0-.27-.58.43.43,0,0,0-.15-.17.54.54,0,0,0-.26-.05h-.1v1.67Zm-2.42,0v-4h1.87v.68H36.83v.88H38.1v.67H36.83v1.09h1.41v.67Zm-1.49-1,.62-3H36l-.9,4h-.55l-.9-4h.55Zm-2,1v-4h.51v4Zm-1.07-1.32V44.12h.47v4h-.51l-1-2.6v2.6h-.47v-4h.5Zm-3.13.7a.42.42,0,0,0,.33-.14A.64.64,0,0,0,29.1,47a6,6,0,0,0,0-.68V44.12h.51v2.1a8,8,0,0,1,0,1,1.64,1.64,0,0,1-.15.5.8.8,0,0,1-.3.33.85.85,0,0,1-.48.12,1,1,0,0,1-.55-.13,1.14,1.14,0,0,1-.3-.35,1.32,1.32,0,0,1-.13-.44,6.37,6.37,0,0,1-.06-1V44.12h.51v2.16c0,.34,0,.57,0,.67a.69.69,0,0,0,.16.39A.4.4,0,0,0,28.64,47.49ZM24,48.11v-4h.93a1.19,1.19,0,0,1,.48.08.84.84,0,0,1,.38.37,1.86,1.86,0,0,1,.24.64,4.22,4.22,0,0,1,.09.94A4.09,4.09,0,0,1,26,47a2,2,0,0,1-.27.71,1,1,0,0,1-.36.32,1.1,1.1,0,0,1-.45.08Zm-1.06,0v-4h.51v4Zm-5.08,0,1-4h.53l1,4H19.8l-.22-.91h-1l-.21.91ZM16,45.69h1V44.12h.51v4H17V46.37H16v1.74h-.51v-4H16Zm-2.61.2,1-1.77h.69l-.95,1.56,1,2.43h-.65l-.7-1.87-.41.67v1.2h-.51v-4h.51Zm-5.46.9V44.12h.48v4H7.88l-1-2.6v2.6H6.39v-4h.49ZM5.32,48.11v-4h.51v4ZM3.23,45.89l1-1.77H5L4,45.68l1,2.43H4.34l-.69-1.87-.42.67v1.2h-.5v-4h.5Zm17.48,2.22v-4h.51v3.28h1.26v.67Z"/><path class="cls-2" d="M21.29,5.46l-.17,0h.07Z"/><path class="cls-2" d="M21.29,5.46l-.17,0h.07Z"/><polygon class="cls-2" points="24.9 1.25 24.91 1.25 24.9 1.25 24.9 1.25"/><rect class="cls-2" x="24.9" y="1.25" width="0.01" transform="translate(4.38 15.41) rotate(-37.5)"/><path class="cls-2" d="M24.71.84h0Z"/><path class="cls-2" d="M24.71.84h0Z"/><path class="cls-2" d="M26.93,7.81v0h0Z"/><path class="cls-2" d="M26.93,7.81v0h0Z"/><path class="cls-2" d="M25,1v0h-.2l0,0h-.06l.07,0h-.1l0,0a.18.18,0,0,1-.05.07h0a1,1,0,0,1,.3-.05Z"/><path class="cls-2" d="M24.67.86h0l.07,0h-.1l0,0L24.58,1h0a1,1,0,0,1,.3-.05H25v0h-.2l0,0h-.07Z"/><path class="cls-2" d="M24.48,7.84l.11-.11-.12.1Z"/><path class="cls-2" d="M24.59,7.73l-.12.1h0Z"/><path class="cls-2" d="M26.2,3.13h0v0Z"/><path class="cls-2" d="M26.2,3.12v0h0Z"/><path class="cls-2" d="M24.45,8.41l0,0h0Z"/><path class="cls-2" d="M24.47,8.39l0,0,0,0Z"/><path class="cls-2" d="M25.75.64v0h0s0,0,0,0Z"/><path class="cls-2" d="M25.74.62h0s0,0,0,0V.62Z"/><path class="cls-2" d="M25.66.4h0S25.66.41,25.66.4Z"/><path class="cls-2" d="M25.66.4h0S25.66.41,25.66.4Z"/><path class="cls-2" d="M25.87.85l0,0s0,0,0,0A.08.08,0,0,1,25.87.85Z"/><path class="cls-2" d="M25.87.85l0,0v0A.08.08,0,0,1,25.87.85Z"/><path class="cls-2" d="M25.51.84v0h0Z"/><path class="cls-2" d="M25.51.84v0h0Z"/><path class="cls-2" d="M25.58.64a0,0,0,0,0,0,0v0h0Z"/><path class="cls-2" d="M25.57.63v0h0v0A0,0,0,0,0,25.57.63Z"/><path class="cls-2" d="M26.19,1.72Z"/><polygon class="cls-2" points="26.19 1.72 26.19 1.72 26.19 1.72 26.19 1.72"/><polygon class="cls-2" points="25.39 2.63 25.39 2.64 25.39 2.63 25.39 2.63"/><polygon class="cls-2" points="25.39 2.63 25.39 2.64 25.39 2.63 25.39 2.63"/><path class="cls-2" d="M26,2.79v0Z"/><path class="cls-2" d="M26,2.77v0h0Z"/><path class="cls-2" d="M26.16,3a0,0,0,0,0,0,0s0,0,0,.06Z"/><path class="cls-2" d="M26.15,2.94s0,0,0,.06V3A0,0,0,0,0,26.15,2.94Z"/><polygon class="cls-2" points="26.12 1.06 26.11 1.07 26.13 1.06 26.12 1.06"/><rect class="cls-2" x="26.12" y="1.06" width="0.02" height="0.01"/><path class="cls-2" d="M26.07,3.26v0h0Z"/><path class="cls-2" d="M26.07,3.26v0h0Z"/><path class="cls-2" d="M25.19,3.19v0S25.19,3.2,25.19,3.19Z"/><path class="cls-2" d="M25.18,3.17v.05s0,0,0,0Z"/><path class="cls-2" d="M25,1.89v0h0Z"/><path class="cls-2" d="M25,1.86v0Z"/><path class="cls-2" d="M25.1,2a.25.25,0,0,0,0,.07s0,0,0,0A.09.09,0,0,1,25.1,2Z"/><path class="cls-2" d="M25.1,2a.25.25,0,0,0,0,.07s0,0,0,0A.09.09,0,0,1,25.1,2Z"/><polygon class="cls-2" points="25.04 0.83 25.03 0.84 25.03 0.84 25.04 0.83"/><rect class="cls-2" x="25.03" y="0.84" width="0.01"/><polygon class="cls-2" points="25.12 3.13 25.12 3.13 25.12 3.14 25.12 3.13"/><polygon class="cls-2" points="25.12 3.13 25.12 3.14 25.12 3.13 25.12 3.13"/><path class="cls-2" d="M25,2.22a.11.11,0,0,1,0-.05.13.13,0,0,0,0,.09A.05.05,0,0,1,25,2.22Z"/><path class="cls-2" d="M25,2.17a.13.13,0,0,0,0,.09.05.05,0,0,1,0,0A.11.11,0,0,1,25,2.17Z"/><path class="cls-2" d="M25,2.79V2.72a.06.06,0,0,0,0,0S25,2.76,25,2.79Z"/><path class="cls-2" d="M25,2.68s0,.08,0,.11V2.72A.06.06,0,0,0,25,2.68Z"/><polygon class="cls-2" points="25.25 3.29 25.25 3.28 25.25 3.29 25.25 3.29"/><rect class="cls-2" x="25.25" y="3.28"/><path class="cls-2" d="M24.13,1.65a.13.13,0,0,0,0-.06s0-.07,0-.1A.43.43,0,0,0,24.13,1.65Z"/><path class="cls-2" d="M24.13,1.49a.43.43,0,0,0,0,.16.13.13,0,0,0,0-.06S24.13,1.52,24.13,1.49Z"/><polygon class="cls-2" points="25.31 2.79 25.31 2.79 25.31 2.79 25.31 2.79"/><polygon class="cls-2" points="25.31 2.79 25.31 2.79 25.31 2.79 25.31 2.79"/><polygon class="cls-2" points="25.21 1.8 25.2 1.81 25.2 1.81 25.21 1.8"/><rect class="cls-2" x="25.2" y="1.81" width="0.01"/><polygon class="cls-2" points="18.73 46.53 19.41 46.53 19.07 45.05 18.73 46.53"/><rect class="cls-2" x="3.8" y="13.13" width="1.34" height="1.34" transform="translate(-8.45 7.21) rotate(-45.05)"/><rect class="cls-2" x="3.8" y="16.9" width="1.34" height="1.34" transform="translate(-11.12 8.32) rotate(-45.04)"/><polygon class="cls-2" points="4.47 20.44 3.52 21.38 4.47 22.33 5.42 21.38 4.47 20.44"/><rect class="cls-2" x="3.8" y="24.53" width="1.34" height="1.34" transform="translate(-16.51 10.54) rotate(-44.99)"/><rect class="cls-2" x="3.8" y="28.34" width="1.34" height="1.34" transform="translate(-19.21 11.66) rotate(-45.01)"/><rect class="cls-2" x="3.8" y="32.16" width="1.34" height="1.33" transform="translate(-21.9 12.77) rotate(-45)"/><rect class="cls-2" x="3.8" y="35.97" width="1.34" height="1.33" transform="translate(-24.63 13.93) rotate(-45.07)"/><rect class="cls-2" x="46.41" y="13.13" width="1.34" height="1.34" transform="translate(4.02 37.3) rotate(-44.97)"/><rect class="cls-2" x="46.41" y="16.9" width="1.34" height="1.34" transform="translate(1.37 38.46) rotate(-45.03)"/><rect class="cls-2" x="46.41" y="20.72" width="1.34" height="1.33" transform="translate(-1.34 39.54) rotate(-44.98)"/><rect class="cls-2" x="46.41" y="24.53" width="1.33" height="1.34" transform="translate(-4.04 40.62) rotate(-44.94)"/><rect class="cls-2" x="46.41" y="28.34" width="1.34" height="1.34" transform="translate(-6.73 41.75) rotate(-44.96)"/><rect class="cls-2" x="46.41" y="32.16" width="1.33" height="1.34" transform="translate(-9.44 42.82) rotate(-44.92)"/><rect class="cls-2" x="46.41" y="35.97" width="1.33" height="1.34" transform="translate(-12.13 43.95) rotate(-44.94)"/><path class="cls-3" d="M40.13,38.42a.83.83,0,0,1-.41.15c-.39,0-.71-.28-1-.84a12.62,12.62,0,0,0-.83-1.57A2.25,2.25,0,0,0,36,35.31a3.27,3.27,0,0,0-.87.14l.5,1.35a.86.86,0,0,1,.54-.24A.91.91,0,0,1,37,37a6.64,6.64,0,0,1,.4.85,2,2,0,0,0,.51.77H31.05v0H29.87v-11H28.64c0,4.19,0,7.65,0,8,0,.63,0,1.48,0,2.56V39.8h12a1.8,1.8,0,0,1-.43-.64A3.33,3.33,0,0,1,40.13,38.42Z"/><path class="cls-3" d="M26.11,37.63a3,3,0,0,1-.82-.53l-1,.63a1.6,1.6,0,0,0-.76.82H20.87c-.28-.35-.5-.61-.65-.78a1.76,1.76,0,0,1,.61-.16l.64-.07c.09-.55-.28-1-1.11-1.51A1.51,1.51,0,0,0,20,35a2.75,2.75,0,0,0-.91-.57c-.84.4-1.25.91-1.25,1.54q-1.11.72-1.11,1.44l0,.13a3.09,3.09,0,0,1,1.2.2v0a4.43,4.43,0,0,0-.65.76H14.68V34.81l-.11-.08a3,3,0,0,0-.55.4l-.61.5,0,.13a.75.75,0,0,1,.11.47v.28l0,0a2.37,2.37,0,0,0-1.78.49,2.19,2.19,0,0,0-.35,1.23A3.89,3.89,0,0,1,11,39.8h7a3.36,3.36,0,0,1,1.09-1.38A2.51,2.51,0,0,1,20.2,39.8h3.34A1.73,1.73,0,0,0,25.3,41a1.8,1.8,0,0,0,1.32-.51,1.73,1.73,0,0,0,.53-1.3,1.7,1.7,0,0,0-.32-1.12A1.85,1.85,0,0,0,26.11,37.63Zm-12.62,1h-1v-.41a.42.42,0,0,1,.2-.34.67.67,0,0,1,.41-.15h.4Zm5.88-1.54a1.49,1.49,0,0,1-.28.11,1.1,1.1,0,0,1-.25-.13.65.65,0,0,0-.29-.11,1.4,1.4,0,0,1,.27-.32.66.66,0,0,0,.07-.22.69.69,0,0,1,.19-.31.43.43,0,0,1,.21.23c0,.11.06.21.08.3l.12.1a.59.59,0,0,1,.16.21Zm5.92,2.79a.59.59,0,0,1-.43-.19.6.6,0,0,1-.19-.43.55.55,0,0,1,.2-.43.6.6,0,0,1,.43-.2c.41,0,.62.22.62.65S25.7,39.85,25.29,39.85Z"/><path class="cls-3" d="M29.87,26V10.57l-.13-.12a3.79,3.79,0,0,0-.61.48,3.4,3.4,0,0,0-.56.57s.05,7.77.07,14.47Z"/><path class="cls-3" d="M12.46,30.22a.57.57,0,0,0-.17.41.5.5,0,0,0,.18.39.59.59,0,0,0,.41.15.53.53,0,0,0,.39-.16.57.57,0,0,0-.41-1A.55.55,0,0,0,12.46,30.22Z"/><path class="cls-3" d="M37.26,40.13a.55.55,0,0,0-.57.57.54.54,0,0,0,.17.41.56.56,0,0,0,.4.17.59.59,0,0,0,.37-.17.46.46,0,0,0,.18-.34C37.81,40.34,37.63,40.13,37.26,40.13Z"/><path class="cls-3" d="M11.17,30.22a.54.54,0,0,0-.17.39.55.55,0,0,0,.18.4.52.52,0,0,0,.38.16.56.56,0,0,0,.41-1,.58.58,0,0,0-.8,0Z"/><path class="cls-3" d="M20,10.62l-.06-.13-.08,0c0,.05-.24.2-.59.48a3.79,3.79,0,0,0-.56.49v.08a.24.24,0,0,0,.05.13.28.28,0,0,1,.05.12V26.14H17.1c0-.85.06-2.36-.26-2.65a3,3,0,0,0-1.66-.36H12.4c-.1,0-.27-.13-.52-.38a5.76,5.76,0,0,1-.9,1.6h4.46a.4.4,0,0,1,.36.25.94.94,0,0,1,.11.45l0,1.17h-5v1.17H20V10.62Z"/><path class="cls-3" d="M21.15,25.7v1.69h2.29V26.14h-1.1V10.57l-.13-.12a3.79,3.79,0,0,0-.61.48,3.4,3.4,0,0,0-.56.57,6.7,6.7,0,0,1,.1,1.46C21.15,13.59,21.16,24.63,21.15,25.7Z"/><rect class="cls-3" x="25.14" y="26.14" width="0.78" height="1.25"/><path class="cls-3" d="M32.3,22.18a.49.49,0,0,0,.55-.56.5.5,0,0,0-.56-.56.61.61,0,0,0-.41.15.54.54,0,0,0-.16.4.51.51,0,0,0,.17.4A.58.58,0,0,0,32.3,22.18Z"/><path class="cls-3" d="M35.43,26a1,1,0,0,1-.39.15c-.39,0-.72-.28-1-.86a12.88,12.88,0,0,0-.84-1.6,2.31,2.31,0,0,0-1.91-.85,2.39,2.39,0,0,0-.84.13,11.81,11.81,0,0,0,.45,1.3l.06,0a.62.62,0,0,1,.24-.15.71.71,0,0,1,.29-.09.91.91,0,0,1,.76.4,5,5,0,0,1,.43.86,2.55,2.55,0,0,0,.46.78H27.63v1.25H36A2.08,2.08,0,0,1,35.43,26Z"/><path class="cls-3" d="M16.17,31.25h3.42a2.38,2.38,0,0,1-.36-1.08.88.88,0,0,0-.18.1.52.52,0,0,1-.25.08q-.69,0-.69-.57a.59.59,0,0,1,.2-.44.63.63,0,0,1,.43-.18,2.75,2.75,0,0,1,.42.15v-.18a5.29,5.29,0,0,1-.38-1c0-.13-.34.13-.45.18a3.42,3.42,0,0,0-.77.41,1.4,1.4,0,0,0-.38,1.08.76.76,0,0,0,.22.54Q16.17,30.37,16.17,31.25Z"/><path class="cls-3" d="M36.9,31.07c0,1.06,0,1.5,0,1.32H35.34a2.2,2.2,0,0,0-.85-1,3.72,3.72,0,0,1-.92-.53,2.36,2.36,0,0,1-.74.49,3.15,3.15,0,0,0-1,1H30.12v1.24h1.69a1.7,1.7,0,0,0,.68.88,1.92,1.92,0,0,0,1.09.33,1.62,1.62,0,0,0,1.08-.33,4,4,0,0,0,.68-.88h2.75V10.69L38,10.57a3,3,0,0,0-.56.43c-.34.28-.54.46-.62.54v.08a3.27,3.27,0,0,1,.1,1.09C36.91,13.19,36.91,30.24,36.9,31.07ZM34,33.43a.58.58,0,0,1-.44.19.59.59,0,0,1-.43-.19A.63.63,0,0,1,33,33a.61.61,0,0,1,.18-.45.6.6,0,0,1,.44-.17.6.6,0,0,1,.45.17.57.57,0,0,1,.18.44A.61.61,0,0,1,34,33.43Z"/><path class="cls-3" d="M27.36,10.57l-.09-.12a4.19,4.19,0,0,0-.65.5c-.37.32-.56.51-.56.57a.21.21,0,0,0,.05.1.24.24,0,0,1,0,.11V32.34H24.86V10.54l-.1-.09a3.5,3.5,0,0,0-.64.49,2.68,2.68,0,0,0-.55.54l.13.32V32.39H13a2.07,2.07,0,0,1-.87-.32A3.11,3.11,0,0,1,11,33.58H28.41V32.33H27.36Z"/><path class="cls-3" d="M39.37,32.08v5.14h1.2V10.8l-.14-.12a5.49,5.49,0,0,0-.6.49,2.5,2.5,0,0,0-.56.56,5.49,5.49,0,0,1,.1,1.41C39.39,13.77,39.39,31,39.37,32.08Z"/></g></g></g></svg>