<svg xmlns="http://www.w3.org/2000/svg" xmlns:xlink="http://www.w3.org/1999/xlink" viewBox="0 0 459.58 437.9"><defs><style>.cls-1{fill:#c4c4c4;}.cls-2{fill:url(#linear-gradient);}.cls-3{fill:url(#linear-gradient-2);}.cls-4{fill:url(#linear-gradient-3);}.cls-5{fill:url(#linear-gradient-4);}.cls-6{fill:url(#linear-gradient-5);}.cls-7{fill:url(#linear-gradient-6);}.cls-8{fill:url(#linear-gradient-7);}.cls-9{fill:url(#linear-gradient-8);}.cls-10{fill:url(#linear-gradient-9);}.cls-11{fill:url(#linear-gradient-10);}.cls-12{fill:url(#linear-gradient-11);}.cls-13{fill:url(#linear-gradient-12);}.cls-14{fill:url(#linear-gradient-13);}.cls-15{fill:url(#linear-gradient-14);}.cls-16{fill:url(#linear-gradient-15);}.cls-17{fill:url(#linear-gradient-16);}.cls-18{fill:url(#linear-gradient-17);}.cls-19{fill:url(#linear-gradient-18);}.cls-20{fill:url(#linear-gradient-19);}.cls-21{fill:url(#linear-gradient-20);}.cls-22{fill:url(#linear-gradient-21);}.cls-23{fill:url(#linear-gradient-22);}.cls-24{fill:url(#linear-gradient-23);}.cls-25{fill:url(#linear-gradient-24);}.cls-26{fill:url(#linear-gradient-25);}.cls-27{fill:url(#linear-gradient-26);}.cls-28{fill:url(#linear-gradient-27);}.cls-29{fill:url(#linear-gradient-28);}.cls-30{fill:url(#linear-gradient-29);}.cls-31{fill:url(#linear-gradient-30);}.cls-32{fill:url(#linear-gradient-31);}.cls-33{fill:url(#linear-gradient-32);}.cls-34{fill:url(#linear-gradient-33);}.cls-35{fill:url(#linear-gradient-34);}.cls-36{fill:url(#linear-gradient-35);}.cls-37{fill:url(#linear-gradient-36);}</style><linearGradient id="linear-gradient" x1="415.01" y1="3.39" x2="421.78" y2="3.39" gradientUnits="userSpaceOnUse"><stop offset="0" stop-color="#06d6a0"/><stop offset="1" stop-color="#2a9d8f"/></linearGradient><linearGradient id="linear-gradient-2" x1="31.86" y1="401.97" x2="36.76" y2="401.97" xlink:href="#linear-gradient"/><linearGradient id="linear-gradient-3" x1="59.58" y1="420.02" x2="65.64" y2="420.02" xlink:href="#linear-gradient"/><linearGradient id="linear-gradient-4" x1="445.34" y1="171.94" x2="450.84" y2="171.94" xlink:href="#linear-gradient"/><linearGradient id="linear-gradient-5" x1="323.76" y1="217.85" x2="331.86" y2="217.85" xlink:href="#linear-gradient"/><linearGradient id="linear-gradient-6" x1="366.68" y1="199.45" x2="371.22" y2="199.45" xlink:href="#linear-gradient"/><linearGradient id="linear-gradient-7" x1="399.06" y1="166.83" x2="407.06" y2="166.83" xlink:href="#linear-gradient"/><linearGradient id="linear-gradient-8" x1="400.05" y1="17.26" x2="405.75" y2="17.26" xlink:href="#linear-gradient"/><linearGradient id="linear-gradient-9" x1="260.14" y1="293.58" x2="267.55" y2="293.58" xlink:href="#linear-gradient"/><linearGradient id="linear-gradient-10" x1="302.87" y1="402.66" x2="309.5" y2="402.66" xlink:href="#linear-gradient"/><linearGradient id="linear-gradient-11" x1="331.43" y1="413.04" x2="339.47" y2="413.04" xlink:href="#linear-gradient"/><linearGradient id="linear-gradient-12" x1="346.68" y1="352.63" x2="352" y2="352.63" xlink:href="#linear-gradient"/><linearGradient id="linear-gradient-13" x1="403.23" y1="322.69" x2="411.79" y2="322.69" xlink:href="#linear-gradient"/><linearGradient id="linear-gradient-14" x1="0" y1="382.5" x2="4.63" y2="382.5" xlink:href="#linear-gradient"/><linearGradient id="linear-gradient-15" x1="65.7" y1="343.53" x2="72.02" y2="343.53" xlink:href="#linear-gradient"/><linearGradient id="linear-gradient-16" x1="196.61" y1="203" x2="201.17" y2="203" xlink:href="#linear-gradient"/><linearGradient id="linear-gradient-17" x1="273.61" y1="259.23" x2="281.6" y2="259.23" xlink:href="#linear-gradient"/><linearGradient id="linear-gradient-18" x1="215.54" y1="266.13" x2="220.47" y2="266.13" xlink:href="#linear-gradient"/><linearGradient id="linear-gradient-19" x1="217.75" y1="277.78" x2="223.08" y2="277.78" xlink:href="#linear-gradient"/><linearGradient id="linear-gradient-20" x1="245.49" y1="298.39" x2="250.06" y2="298.39" xlink:href="#linear-gradient"/><linearGradient id="linear-gradient-21" x1="373.49" y1="299.04" x2="380.06" y2="299.04" xlink:href="#linear-gradient"/><linearGradient id="linear-gradient-22" x1="399.57" y1="199.16" x2="406.84" y2="199.16" xlink:href="#linear-gradient"/><linearGradient id="linear-gradient-23" x1="78.76" y1="368.02" x2="86.49" y2="368.02" xlink:href="#linear-gradient"/><linearGradient id="linear-gradient-24" x1="107.33" y1="335.36" x2="112.57" y2="335.36" xlink:href="#linear-gradient"/><linearGradient id="linear-gradient-25" x1="144.81" y1="421.39" x2="151.98" y2="421.39" xlink:href="#linear-gradient"/><linearGradient id="linear-gradient-26" x1="160.25" y1="335.17" x2="167.66" y2="335.17" xlink:href="#linear-gradient"/><linearGradient id="linear-gradient-27" x1="240.34" y1="372.33" x2="247.05" y2="372.33" xlink:href="#linear-gradient"/><linearGradient id="linear-gradient-28" x1="174.33" y1="310.35" x2="179.75" y2="310.35" xlink:href="#linear-gradient"/><linearGradient id="linear-gradient-29" x1="208.73" y1="153.29" x2="214.85" y2="153.29" xlink:href="#linear-gradient"/><linearGradient id="linear-gradient-30" x1="263.51" y1="169.62" x2="268.54" y2="169.62" xlink:href="#linear-gradient"/><linearGradient id="linear-gradient-31" x1="268.23" y1="31.71" x2="275.11" y2="31.71" xlink:href="#linear-gradient"/><linearGradient id="linear-gradient-32" x1="261.66" y1="117.05" x2="270.31" y2="117.05" xlink:href="#linear-gradient"/><linearGradient id="linear-gradient-33" x1="317.18" y1="145.47" x2="322.51" y2="145.47" xlink:href="#linear-gradient"/><linearGradient id="linear-gradient-34" x1="291.3" y1="38.81" x2="297.02" y2="38.81" xlink:href="#linear-gradient"/><linearGradient id="linear-gradient-35" x1="402.8" y1="406.89" x2="408.27" y2="406.89" xlink:href="#linear-gradient"/><linearGradient id="linear-gradient-36" x1="426.53" y1="328.62" x2="432.88" y2="328.62" xlink:href="#linear-gradient"/></defs><g id="Layer_2" data-name="Layer 2"><g id="Layer_1-2" data-name="Layer 1"><g id="triangle36"><path class="cls-1" d="M459.34,48.19l-56-31L418.41,3.69l41,30.14v-.58l-40.88-30a.24.24,0,0,0-.3,0l-15.5,13.88a.24.24,0,0,0-.07.2.23.23,0,0,0,.11.18l56.56,31.26Z"/></g><g id="triangle36-2" data-name="triangle36"><path class="cls-1" d="M459.13,90.57,403.76,18l55.58,30.72v-.54L403,17.06a.22.22,0,0,0-.29.05.24.24,0,0,0,0,.3l56.41,73.93Z"/></g><g id="triangle36-3" data-name="triangle36"><path class="cls-1" d="M230.63,437,306,403l7.39,34.42h.48l-7.47-34.8a.23.23,0,0,0-.13-.16.2.2,0,0,0-.2,0L229.5,437Z"/></g><g id="triangle36-4" data-name="triangle36"><polygon class="cls-1" points="457.44 422.09 407.98 437.89 409.5 437.9 457.43 422.58 457.44 422.09"/></g><g id="triangle36-5" data-name="triangle36"><path class="cls-1" d="M459.42,33.25,419.08,3.6l40.5-1.35V1.78L418.39,3.15a.23.23,0,0,0-.22.17.24.24,0,0,0,.09.25l41.16,30.26Z"/></g><g id="triangle36-6" data-name="triangle36"><path class="cls-1" d="M458.56,202.19,404,199l44.1-26.74,10.6,8.25v-.6l-10.44-8.12a.23.23,0,0,0-.26,0L403.08,199a.22.22,0,0,0-.1.26.21.21,0,0,0,.21.17l55.37,3.27Z"/></g><g id="triangle36-7" data-name="triangle36"><path class="cls-1" d="M53.47,436.08l9-15.34,1.81,15.39h.47L62.84,420a.22.22,0,0,0-.18-.2.24.24,0,0,0-.25.11l-9.49,16.18Z"/></g><g id="triangle36-8" data-name="triangle36"><polygon class="cls-1" points="457.44 422.09 407.98 437.89 409.5 437.9 457.43 422.58 457.44 422.09"/><path class="cls-1" d="M457.45,419.54,405.6,406.66a.24.24,0,0,0-.29.17l-7.85,31H398l7.76-30.67L457.45,420Z"/></g><g id="triangle36-9" data-name="triangle36"><path class="cls-1" d="M458,312.11l-28.33,16.26-21.4-5.72,49.77-19v-.51l-50.61,19.38a.23.23,0,0,0-.15.24.22.22,0,0,0,.17.21l22.19,5.93h.06a.27.27,0,0,0,.12,0L458,312.65Z"/></g><g id="triangle36-10" data-name="triangle36"><path class="cls-1" d="M313.89,437.41,306.51,403l28.61,10.15-12.36,24.28h.53l12.37-24.31a.23.23,0,0,0,0-.2.2.2,0,0,0-.14-.13l-29.26-10.38a.24.24,0,0,0-.24,0,.24.24,0,0,0-.07.23l7.45,34.7Z"/></g><g id="triangle36-11" data-name="triangle36"><path class="cls-1" d="M323.29,437.46l12.18-23.94,15.17,24.08h.55l-15.54-24.68a.19.19,0,0,0-.21-.11.24.24,0,0,0-.2.12l-12.48,24.52Z"/></g><g id="triangle36-12" data-name="triangle36"><path class="cls-1" d="M350.64,437.6h.55l-15.11-24,51.66,24.19h1.12l-53.31-25a.22.22,0,0,0-.27.06.24.24,0,0,0,0,.28Z"/></g><g id="triangle36-13" data-name="triangle36"><path class="cls-1" d="M335.35,413.25l52.39,24.53h1.12L336.34,413.2l68.89-6.05-7.77,30.68H398l7.82-30.9a.27.27,0,0,0,0-.21.3.3,0,0,0-.2-.08l-70.09,6.16a.23.23,0,0,0-.08.44Z"/></g><g id="triangle36-14" data-name="triangle36"><path class="cls-1" d="M64.74,436.14,62.9,420.49l24.37,15.76h.87l-25.4-16.44a.27.27,0,0,0-.26,0,.23.23,0,0,0-.1.23l1.89,16.08Z"/></g><g id="triangle36-15" data-name="triangle36"><path class="cls-1" d="M220.41,278a.2.2,0,0,1-.11,0,.21.21,0,0,1-.11-.16l-2.41-11.64a.24.24,0,0,1,.2-.28l59.6-6.91a.23.23,0,0,1,.25.19.23.23,0,0,1-.16.27L220.49,278Zm-2.12-11.67,2.3,11.13,54.7-17.74Z"/></g><g id="triangle36-16" data-name="triangle36"><path class="cls-1" d="M31.43,436l3.08-33.6L62.29,420.1l-9.37,16h.55l9.34-15.94a.24.24,0,0,0-.08-.32l-28.3-18.05a.23.23,0,0,0-.23,0,.23.23,0,0,0-.13.19L31,436Z"/></g><g id="triangle36-17" data-name="triangle36"><path class="cls-1" d="M62.61,420.26a.28.28,0,0,1-.13,0l-28.3-18.06a.27.27,0,0,1-.11-.19.26.26,0,0,1,.1-.2l48.32-33.94a.23.23,0,0,1,.28,0,.22.22,0,0,1,.07.26l-20,52a.24.24,0,0,1-.15.13ZM34.73,402l27.76,17.71,19.64-51Z"/></g><g id="triangle36-18" data-name="triangle36"><path class="cls-1" d="M148.39,421.62h0L62.6,420.26a.27.27,0,0,1-.19-.11.22.22,0,0,1,0-.21l20-52a.22.22,0,0,1,.36-.1l65.77,53.37a.22.22,0,0,1,.07.26A.23.23,0,0,1,148.39,421.62ZM63,419.79l84.77,1.35-65-52.73Z"/></g><g id="triangle36-19" data-name="triangle36"><path class="cls-1" d="M87.27,436.25h.87l-24.72-16,84.09,1.34-26.89,14.81h1l26.93-14.83a.24.24,0,0,0,.11-.27.23.23,0,0,0-.22-.17l-85.79-1.37h0a.24.24,0,0,0-.23.16.24.24,0,0,0,.1.27Z"/></g><g id="triangle36-20" data-name="triangle36"><path class="cls-1" d="M121.58,436.43,147.73,422l-8.9,14.49h.55l9.21-15a.21.21,0,0,0,0-.28.23.23,0,0,0-.28-.05l-27.66,15.24Z"/></g><g id="triangle36-21" data-name="triangle36"><path class="cls-1" d="M139.38,436.52l9.12-14.85,51.95,15.16h1.71l-53.7-15.68a.25.25,0,0,0-.27.11l-9.36,15.24Z"/></g><g id="triangle36-22" data-name="triangle36"><path class="cls-1" d="M376.77,299.28l-.09,0-99.16-39.81a.24.24,0,0,1-.15-.19.24.24,0,0,1,.08-.21l50.21-41.38a.19.19,0,0,1,.19,0,.23.23,0,0,1,.16.11l49,81.19a.24.24,0,0,1,0,.28A.25.25,0,0,1,376.77,299.28Zm-98.71-40.12,98.15,39.41L327.75,218.2Z"/></g><g id="triangle36-23" data-name="triangle36"><path class="cls-1" d="M376.77,299.28a.22.22,0,0,1-.2-.12l-49-81.19a.22.22,0,0,1,0-.19.24.24,0,0,1,.13-.15l41.14-18.39a.22.22,0,0,1,.22,0,.27.27,0,0,1,.11.18L377,299a.23.23,0,0,1-.16.24ZM328.15,218l48.31,80.12-7.72-98.27Z"/></g><g id="triangle36-24" data-name="triangle36"><path class="cls-1" d="M376.77,299.28h0a.24.24,0,0,1-.21-.22l-7.83-99.59a.28.28,0,0,1,.06-.18.24.24,0,0,1,.18-.07l34.25-.3a.44.44,0,0,1,.19.1.23.23,0,0,1,0,.2L377,299.1A.23.23,0,0,1,376.77,299.28Zm-7.57-99.6,7.7,98,26-98.25Z"/></g><g id="triangle36-25" data-name="triangle36"><path class="cls-1" d="M458,303.09l-50.49,19.34-30.17-23.22,80.73-8.65v-.47l-81.36,8.72a.24.24,0,0,0-.12.42l30.74,23.65a.24.24,0,0,0,.14.05l.09,0L458,303.6Z"/></g><g id="triangle36-26" data-name="triangle36"><path class="cls-1" d="M369,199.68a.23.23,0,0,1-.22-.14.25.25,0,0,1,0-.26l34.12-32.62a.22.22,0,0,1,.25,0,.26.26,0,0,1,.15.22l.14,32.33a.23.23,0,0,1-.23.23l-34.26.29Zm33.88-32.31-33.29,31.84,33.43-.28Z"/></g><g id="triangle36-27" data-name="triangle36"><path class="cls-1" d="M458.88,139.55l-55.59,26.9L403.13,18l56,73.38v-.77L403.08,17.12a.23.23,0,0,0-.26-.08.24.24,0,0,0-.16.22l.17,149.57a.24.24,0,0,0,.11.2.24.24,0,0,0,.12,0l.1,0,55.72-27Z"/></g><g id="triangle36-28" data-name="triangle36"><path class="cls-1" d="M403.2,199.39a.2.2,0,0,1-.11,0,.23.23,0,0,1-.12-.2l-.14-32.33a.24.24,0,0,1,.07-.18.31.31,0,0,1,.19-.06l45,5.12a.22.22,0,0,1,.2.18.23.23,0,0,1-.11.25l-44.88,27.22A.28.28,0,0,1,403.2,199.39Zm.1-32.3.14,31.65,43.94-26.64Z"/></g><g id="triangle36-29" data-name="triangle36"><path class="cls-1" d="M458.78,158.87,448,171.69l-44.1-5,55-26.62v-.52L403,166.62a.22.22,0,0,0-.13.25.23.23,0,0,0,.2.19l45,5.11h0a.21.21,0,0,0,.18-.09l10.51-12.48Z"/></g><g id="triangle36-30" data-name="triangle36"><path class="cls-1" d="M458.69,177l-10.23-5.09,10.32-12.25v-.74l-10.87,12.92a.29.29,0,0,0-.05.2.23.23,0,0,0,.13.16l10.69,5.32Z"/></g><g id="triangle36-31" data-name="triangle36"><path class="cls-1" d="M458.67,179.88l-8.59-6.69,8.6,4.28V177l-10.49-5.22a.24.24,0,0,0-.31.09.24.24,0,0,0,.06.31l10.72,8.34Z"/></g><g id="triangle36-32" data-name="triangle36"><path class="cls-1" d="M148.33,421.61l52.12,15.22h1.71L149,421.33l94.26-48.52-22.77,64.12H221l22.92-64.52a.23.23,0,0,0-.07-.25.23.23,0,0,0-.26,0l-95.3,49.06a.24.24,0,0,0-.13.23A.22.22,0,0,0,148.33,421.61Z"/></g><g id="triangle36-33" data-name="triangle36"><path class="cls-1" d="M221,436.93l22.83-64.27,61.8,30L229.5,437h1.13l75.66-34.11a.23.23,0,0,0,0-.42L243.8,372.12a.25.25,0,0,0-.19,0,.32.32,0,0,0-.14.14l-23,64.68Z"/></g><g id="triangle36-34" data-name="triangle36"><path class="cls-1" d="M247.78,298.62a.24.24,0,0,1-.14-.05L220.27,278a.23.23,0,0,1-.06-.3.23.23,0,0,1,.29-.1l43.43,15.8a.24.24,0,0,1,0,.45l-16.08,4.8Zm-26-20.09,26,19.6,15.28-4.57Z"/></g><g id="triangle36-35" data-name="triangle36"><path class="cls-1" d="M263.85,293.82l-.08,0L220.33,278a.25.25,0,0,1-.15-.23.24.24,0,0,1,.16-.22L277.53,259a.22.22,0,0,1,.24.07.23.23,0,0,1,.05.25l-13.75,34.35A.25.25,0,0,1,263.85,293.82Zm-42.71-16,42.58,15.49,13.48-33.67Z"/></g><g id="triangle36-36" data-name="triangle36"><path class="cls-1" d="M243.69,372.57h0a.22.22,0,0,1-.2-.24l4.08-73.95a.23.23,0,0,1,.17-.21l16.07-4.8a.22.22,0,0,1,.23.05.25.25,0,0,1,.07.23l-20.16,78.75A.23.23,0,0,1,243.69,372.57Zm4.31-74L244.06,370l19.46-76Z"/></g><g id="triangle36-37" data-name="triangle36"><path class="cls-1" d="M376.77,299.28h0l-112.92-5.46a.27.27,0,0,1-.19-.11.22.22,0,0,1,0-.21l13.75-34.36a.27.27,0,0,1,.13-.13.28.28,0,0,1,.18,0l99.17,39.82a.23.23,0,0,1-.09.45Zm-112.58-5.92,111.2,5.38-97.66-39.21Z"/></g><g id="triangle36-38" data-name="triangle36"><path class="cls-1" d="M277.6,259.46h-.08a.26.26,0,0,1-.15-.19l-11.58-89.61a.25.25,0,0,1,.12-.24.25.25,0,0,1,.26,0L328,217.66a.23.23,0,0,1,.09.18.26.26,0,0,1-.08.19l-50.21,41.38A.25.25,0,0,1,277.6,259.46Zm-11.27-89.31,11.45,88.63,49.65-40.93Z"/></g><g id="triangle36-39" data-name="triangle36"><path class="cls-1" d="M327.81,218.08a.23.23,0,0,1-.15-.05L265.88,169.8a.24.24,0,0,1-.09-.21.25.25,0,0,1,.14-.19l53.82-24.15a.26.26,0,0,1,.21,0,.25.25,0,0,1,.12.18l8,72.38a.21.21,0,0,1-.12.23A.2.2,0,0,1,327.81,218.08Zm-61.33-48.41,61,47.65-7.86-71.51Z"/></g><g id="triangle36-40" data-name="triangle36"><path class="cls-1" d="M319.84,145.7h0a.24.24,0,0,1-.19-.18L293.93,38.86a.23.23,0,0,1,0-.18.24.24,0,0,1,.15-.11L402.85,17a.23.23,0,0,1,.24.1.21.21,0,0,1,0,.26L320,145.6A.25.25,0,0,1,319.84,145.7ZM294.44,39,320,144.88,402.4,17.6Z"/></g><g id="triangle36-41" data-name="triangle36"><path class="cls-1" d="M327.81,218.08a.27.27,0,0,1-.12,0,.26.26,0,0,1-.12-.18l-8-72.38a.24.24,0,0,1,.41-.18l49.1,54a.26.26,0,0,1,.06.21.25.25,0,0,1-.14.16l-41.14,18.4A.15.15,0,0,1,327.81,218.08Zm-7.65-71.92L328,217.5l40.55-18.13Z"/></g><g id="triangle36-42" data-name="triangle36"><path class="cls-1" d="M369,199.68h0a.28.28,0,0,1-.17-.07l-49.1-54a.24.24,0,0,1,0-.28.23.23,0,0,1,.26-.11l83.22,21.36a.24.24,0,0,1,.17.17.25.25,0,0,1-.07.23l-34.11,32.62A.23.23,0,0,1,369,199.68Zm-48.4-53.79L369,199.11,402.59,167Z"/></g><g id="triangle36-43" data-name="triangle36"><path class="cls-1" d="M403.06,167.06H403L319.79,145.7a.24.24,0,0,1-.14-.36L402.7,17.14A.23.23,0,0,1,403,17a.23.23,0,0,1,.17.22l.17,149.57a.22.22,0,0,1-.1.18A.24.24,0,0,1,403.06,167.06Zm-82.84-21.74,82.61,21.2-.17-148.46Z"/></g><g id="triangle36-44" data-name="triangle36"><path class="cls-1" d="M243.69,372.57a.24.24,0,0,1-.22-.3l20.15-78.75a.24.24,0,0,1,.15-.16.26.26,0,0,1,.21,0l85.49,59.05a.24.24,0,0,1-.09.43L243.74,372.56ZM264,294,244,372l104.73-19.52Z"/></g><g id="triangle36-45" data-name="triangle36"><path class="cls-1" d="M306.19,402.89l-.1,0-62.5-30.33a.23.23,0,0,1-.13-.24.25.25,0,0,1,.19-.2L349.3,352.4a.24.24,0,0,1,.24.12.24.24,0,0,1,0,.27l-43.15,50A.27.27,0,0,1,306.19,402.89Zm-61.75-30.46,61.69,29.94L348.73,353Z"/></g><g id="triangle36-46" data-name="triangle36"><path class="cls-1" d="M349.34,352.87a.28.28,0,0,1-.13,0l-85.49-59.05a.22.22,0,0,1-.09-.27.24.24,0,0,1,.23-.16l112.92,5.46a.22.22,0,0,1,.19.12.22.22,0,0,1,0,.22l-27.43,53.59a.22.22,0,0,1-.15.12Zm-84.68-59,84.59,58.43,27.15-53Z"/></g><g id="triangle36-47" data-name="triangle36"><path class="cls-1" d="M335.45,413.28l-.08,0-29.26-10.38a.26.26,0,0,1-.15-.16.25.25,0,0,1,.05-.22l43.15-50a.24.24,0,0,1,.29-.05.24.24,0,0,1,.12.26l-13.89,60.4a.26.26,0,0,1-.11.16Zm-28.86-10.73,28.69,10.18,13.62-59.22Z"/></g><g id="triangle36-48" data-name="triangle36"><path class="cls-1" d="M335.45,413.28a.26.26,0,0,1-.23-.29l13.89-60.41a.23.23,0,0,1,.16-.17.24.24,0,0,1,.23.06l56.2,54.25a.22.22,0,0,1,.06.24.24.24,0,0,1-.2.16l-70.09,6.15Zm14-60.19-13.73,59.69L405,406.7Z"/></g><g id="triangle36-49" data-name="triangle36"><path class="cls-1" d="M349.34,352.87a.23.23,0,0,1-.17-.07.24.24,0,0,1,0-.27l27.43-53.59a.23.23,0,0,1,.16-.13.25.25,0,0,1,.19.05l30.74,23.65a.23.23,0,0,1,.1.2.26.26,0,0,1-.13.19l-58.17,29.94A.23.23,0,0,1,349.34,352.87Zm27.51-53.47-27,52.69,57.2-29.44Z"/></g><g id="triangle36-50" data-name="triangle36"><path class="cls-1" d="M405.54,407.12a.2.2,0,0,1-.16-.07l-56.2-54.25a.22.22,0,0,1-.07-.22.23.23,0,0,1,.16-.17l80.36-24a.22.22,0,0,1,.24.06.22.22,0,0,1,.05.23L405.76,407a.22.22,0,0,1-.16.16Zm-55.75-54.38,55.64,53.71L429.35,329Z"/></g><g id="triangle36-51" data-name="triangle36"><path class="cls-1" d="M349.34,352.87a.25.25,0,0,1-.22-.15.24.24,0,0,1,.11-.29l58.17-29.95a.25.25,0,0,1,.17,0l22.19,5.92a.26.26,0,0,1,.18.23.25.25,0,0,1-.17.23l-80.36,24Zm58.2-29.93L351.7,351.69l77.14-23.06Z"/></g><g id="triangle36-52" data-name="triangle36"><path class="cls-1" d="M2.31,382.73a.24.24,0,0,1-.22-.15.23.23,0,0,1,.1-.28l66.55-39a.23.23,0,0,1,.18,0,.28.28,0,0,1,.15.11l13.76,24.5a.22.22,0,0,1,0,.21.24.24,0,0,1-.17.13L2.35,382.73Zm66.46-38.88L3.57,382l78.69-14.18Z"/></g><g id="triangle36-53" data-name="triangle36"><path class="cls-1" d="M82.62,368.26h0a.23.23,0,0,1-.18-.11l-13.76-24.5a.22.22,0,0,1,0-.21.21.21,0,0,1,.17-.13l41.08-8.17a.24.24,0,0,1,.25.11.24.24,0,0,1,0,.27L82.8,368.17A.21.21,0,0,1,82.62,368.26Zm-13.4-24.57,13.44,23.92,26.68-31.89Z"/></g><g id="triangle36-54" data-name="triangle36"><path class="cls-1" d="M198.88,203.24h0a.24.24,0,0,1-.17-.29l12.91-49.71a.23.23,0,0,1,.28-.17.24.24,0,0,1,.17.29l-12.91,49.71A.23.23,0,0,1,198.88,203.24Z"/></g><g id="triangle36-55" data-name="triangle36"><path class="cls-1" d="M198.88,203.24a.2.2,0,0,1-.14-.06.24.24,0,0,1-.08-.24l12.91-49.71a.19.19,0,0,1,.11-.14.19.19,0,0,1,.18,0l54.23,16.32a.25.25,0,0,1,.17.21.24.24,0,0,1-.13.23L199,203.21A.2.2,0,0,1,198.88,203.24ZM212,153.59l-12.72,49,66.15-32.89Z"/></g><g id="triangle36-56" data-name="triangle36"><path class="cls-1" d="M218,266.37a.24.24,0,0,1-.23-.17l-19.12-63.13a.24.24,0,0,1,.09-.26.23.23,0,0,1,.27,0L277.74,259a.23.23,0,0,1,.09.25.22.22,0,0,1-.2.17L218,266.37Zm-18.7-62.78,18.86,62.29,58.8-6.82Z"/></g><g id="triangle36-57" data-name="triangle36"><path class="cls-1" d="M277.6,259.46a.2.2,0,0,1-.13,0l-78.72-56.23a.25.25,0,0,1-.1-.21.26.26,0,0,1,.13-.19l67.14-33.38a.2.2,0,0,1,.21,0,.24.24,0,0,1,.13.18l11.58,89.61a.25.25,0,0,1-.12.23A.24.24,0,0,1,277.6,259.46ZM199.34,203l78,55.68L265.83,170Z"/></g><g id="triangle36-58" data-name="triangle36"><path class="cls-1" d="M177,310.59a.25.25,0,0,1-.17-.08.24.24,0,0,1,0-.32l41-44.22a.23.23,0,0,1,.24-.06.24.24,0,0,1,.17.18l2.41,11.64a.24.24,0,0,1-.09.23l-43.37,32.58A.3.3,0,0,1,177,310.59Zm40.83-44L179,308.6l41.17-30.92Z"/></g><g id="triangle36-59" data-name="triangle36"><path class="cls-1" d="M177,310.59a.24.24,0,0,1-.21-.14.26.26,0,0,1,.07-.29l43.37-32.57a.26.26,0,0,1,.29,0l27.36,20.61a.22.22,0,0,1,.08.24.24.24,0,0,1-.18.18l-70.74,12Zm43.38-32.52L178,310l69.24-11.72Z"/></g><g id="triangle36-60" data-name="triangle36"><path class="cls-1" d="M243.69,372.57a.23.23,0,0,1-.15-.07l-66.66-62a.22.22,0,0,1-.06-.23.26.26,0,0,1,.18-.17l70.74-12a.22.22,0,0,1,.19.06.24.24,0,0,1,.08.19l-4.08,74a.23.23,0,0,1-.15.2ZM177.55,310.5l65.94,61.32,4-73.15Z"/></g><g id="triangle36-61" data-name="triangle36"><path class="cls-1" d="M458.33,247.43l-81.18,51.1,26.21-99,55.09,23.27v-.5L403.3,198.94a.27.27,0,0,0-.2,0,.2.2,0,0,0-.12.15L376.54,299a.23.23,0,0,0,.09.25.24.24,0,0,0,.14,0,.22.22,0,0,0,.13,0L458.32,248Z"/></g><g id="triangle36-62" data-name="triangle36"><path class="cls-1" d="M458.11,290.09l-80.36,8.61L458.32,248v-.56l-81.68,51.42a.21.21,0,0,0-.1.27.22.22,0,0,0,.22.16h0l81.31-8.72Z"/></g><g id="triangle36-63" data-name="triangle36"><path class="cls-1" d="M458.46,222.25l-53.91-22.78,54,3.19v-.47l-55.34-3.26a.21.21,0,0,0-.24.18.24.24,0,0,0,.13.27l55.34,23.37Z"/></g><g id="triangle36-64" data-name="triangle36"><path class="cls-1" d="M82.62,368.26a.24.24,0,0,1-.18-.39l27.33-32.66a.23.23,0,0,1,.18-.08l54-.19h0a.24.24,0,0,1,.23.19.23.23,0,0,1-.15.26L82.71,368.24Zm27.44-32.66L83.41,367.45l79.33-32Z"/></g><g id="triangle36-65" data-name="triangle36"><path class="cls-1" d="M148.39,421.62a.19.19,0,0,1-.14-.05L82.48,368.2a.22.22,0,0,1-.09-.21.23.23,0,0,1,.15-.19L163.87,335a.23.23,0,0,1,.23,0,.25.25,0,0,1,.09.23l-15.56,86.21a.27.27,0,0,1-.15.18ZM83.08,368.09,148.23,421l15.42-85.41Z"/></g><g id="triangle36-66" data-name="triangle36"><path class="cls-1" d="M110,335.6a.23.23,0,0,1-.23-.19.24.24,0,0,1,.15-.27l67.09-25a.23.23,0,0,1,.26.07.23.23,0,0,1,0,.26l-13.09,24.82a.23.23,0,0,1-.2.13l-54,.19Zm66.6-24.81-65.29,24.33,52.55-.18Z"/></g><g id="triangle36-67" data-name="triangle36"><path class="cls-1" d="M148.39,421.62a.25.25,0,0,1-.14,0,.24.24,0,0,1-.09-.23l15.57-86.22a.2.2,0,0,1,.12-.16.22.22,0,0,1,.21,0l79.73,37.16a.23.23,0,0,1,.14.21.23.23,0,0,1-.13.21L148.5,421.6A.2.2,0,0,1,148.39,421.62Zm15.74-86.1L148.71,421l94.45-48.62Z"/></g><g id="triangle36-68" data-name="triangle36"><path class="cls-1" d="M243.69,372.57l-.09,0-79.74-37.15a.23.23,0,0,1-.11-.33l13.09-24.82a.22.22,0,0,1,.16-.12.23.23,0,0,1,.2.06l66.66,62a.24.24,0,0,1-.17.41Zm-79.41-37.51,78.17,36.43-65.34-60.76Z"/></g><g id="triangle36-69" data-name="triangle36"><path class="cls-1" d="M457.86,338.86l-27.61-10.28L458,312.65v-.54l-28.42,16.31a.22.22,0,0,0-.11.22.21.21,0,0,0,.15.2l28.24,10.52Z"/></g><g id="triangle36-70" data-name="triangle36"><path class="cls-1" d="M211.79,153.52a.22.22,0,0,1-.19-.1.23.23,0,0,1,.06-.32l54.19-36.25a.24.24,0,0,1,.33.07.23.23,0,0,1-.07.32l-54.19,36.25A.19.19,0,0,1,211.79,153.52Z"/></g><g id="triangle36-71" data-name="triangle36"><path class="cls-1" d="M266,169.85H266l-54.24-16.33a.23.23,0,0,1-.16-.19.24.24,0,0,1,.1-.22l54.19-36.25a.26.26,0,0,1,.24,0,.23.23,0,0,1,.13.21l0,52.57a.22.22,0,0,1-.1.18A.19.19,0,0,1,266,169.85Zm-53.68-16.64,53.45,16.09,0-51.81Z"/></g><g id="triangle36-72" data-name="triangle36"><path class="cls-1" d="M266,169.85a.19.19,0,0,1-.12,0,.21.21,0,0,1-.11-.19l0-52.57a.23.23,0,0,1,.11-.2.21.21,0,0,1,.23,0L320,145.26a.26.26,0,0,1,.12.22.22.22,0,0,1-.14.2l-53.82,24.15Zm.2-52.41,0,51.81,53.05-23.8Z"/></g><g id="triangle36-73" data-name="triangle36"><path class="cls-1" d="M319.84,145.7l-.1,0-53.87-28.42a.24.24,0,0,1-.11-.29l28.18-78.24a.23.23,0,0,1,.23-.16.26.26,0,0,1,.22.18l25.68,106.66a.22.22,0,0,1-.08.24A.2.2,0,0,1,319.84,145.7Zm-53.57-28.76L319.5,145,294.11,39.62Z"/></g><g id="triangle36-74" data-name="triangle36"><path class="cls-1" d="M457.69,371.39,406,406.32l23.83-77.2,27.94,35.95v-.76l-27.84-35.83a.25.25,0,0,0-.23-.09.23.23,0,0,0-.18.16l-24.17,78.27a.25.25,0,0,0,.09.25.24.24,0,0,0,.14.05.22.22,0,0,0,.13,0l52-35.12Z"/></g><g id="triangle36-75" data-name="triangle36"><path class="cls-1" d="M457.45,419.54l-51.34-12.76L457.69,372v-.57l-52.28,35.3a.23.23,0,0,0-.1.24.21.21,0,0,0,.17.18l52,12.91Z"/></g><g id="triangle36-76" data-name="triangle36"><path class="cls-1" d="M457.73,364.31l-27.34-35.18,27.47,10.23v-.5L429.78,328.4a.23.23,0,0,0-.27.08.24.24,0,0,0,0,.29l28.21,36.3Z"/></g><path class="cls-1" d="M418.41.94a2.45,2.45,0,1,0,2.44,2.46A2.45,2.45,0,0,0,418.41.94Z"/><path class="cls-2" d="M418.41.94A2.45,2.45,0,1,1,416,3.37,2.46,2.46,0,0,1,418.41.94m0-.94a3.39,3.39,0,1,0,3.36,3.4A3.39,3.39,0,0,0,418.42,0Z"/><path class="cls-1" d="M34.32,400.46a1.51,1.51,0,0,0,0,3A1.52,1.52,0,0,0,35.82,402,1.51,1.51,0,0,0,34.32,400.46Z"/><path class="cls-3" d="M34.32,400.46a1.51,1.51,0,0,1,1.5,1.51,1.51,1.51,0,1,1-3,0,1.5,1.5,0,0,1,1.52-1.5m0-.94A2.45,2.45,0,1,0,36.76,402a2.45,2.45,0,0,0-2.44-2.46Z"/><path class="cls-1" d="M62.62,417.93A2.09,2.09,0,1,0,64.7,420,2.09,2.09,0,0,0,62.62,417.93Z"/><path class="cls-4" d="M62.62,417.93a2.09,2.09,0,1,1,0,4.18,2.09,2.09,0,1,1,0-4.18m0-.94a3,3,0,1,0,3,3.05,3,3,0,0,0-3-3.05Z"/><path class="cls-1" d="M448.1,170.13a1.81,1.81,0,1,0,1.8,1.82A1.8,1.8,0,0,0,448.1,170.13Z"/><path class="cls-5" d="M448.1,170.13a1.81,1.81,0,1,1-1.82,1.8,1.8,1.8,0,0,1,1.82-1.8m0-.94a2.75,2.75,0,1,0,2.73,2.77,2.76,2.76,0,0,0-2.73-2.77Z"/><circle class="cls-1" cx="327.81" cy="217.85" r="3.11"/><path class="cls-6" d="M327.82,214.74a3.11,3.11,0,1,1-3.12,3.09,3.11,3.11,0,0,1,3.12-3.09m0-.94a4.05,4.05,0,1,0,4,4.07,4.06,4.06,0,0,0-4-4.07Z"/><path class="cls-1" d="M370.28,199.46a1.33,1.33,0,0,0-2.66,0,1.32,1.32,0,0,0,1.32,1.34A1.34,1.34,0,0,0,370.28,199.46Z"/><path class="cls-7" d="M369,198.12a1.33,1.33,0,1,1,0,2.66,1.33,1.33,0,0,1,0-2.66m0-.94a2.27,2.27,0,1,0,2.26,2.28,2.27,2.27,0,0,0-2.26-2.28Z"/><path class="cls-1" d="M403,169.89a3.07,3.07,0,1,0-3-3.08A3.06,3.06,0,0,0,403,169.89Z"/><path class="cls-8" d="M403.08,163.76a3.07,3.07,0,1,1-3.08,3.05,3.06,3.06,0,0,1,3.08-3.05m0-.93a4,4,0,1,0,4,4,4,4,0,0,0-4-4Z"/><path class="cls-1" d="M404.81,17.27a1.92,1.92,0,1,0-1.92,1.91A1.92,1.92,0,0,0,404.81,17.27Z"/><path class="cls-9" d="M402.91,15.35a1.92,1.92,0,1,1-1.93,1.9,1.92,1.92,0,0,1,1.93-1.9m0-.94a2.85,2.85,0,1,0,2.84,2.87,2.85,2.85,0,0,0-2.84-2.87Z"/><path class="cls-1" d="M263.86,290.82a2.77,2.77,0,1,0,2.76,2.78A2.76,2.76,0,0,0,263.86,290.82Z"/><path class="cls-10" d="M263.86,290.82a2.77,2.77,0,1,1-2.78,2.75,2.77,2.77,0,0,1,2.78-2.75m0-.94a3.71,3.71,0,1,0,3.68,3.72,3.71,3.71,0,0,0-3.68-3.72Z"/><path class="cls-1" d="M306.2,400.28a2.38,2.38,0,1,0,2.37,2.39A2.38,2.38,0,0,0,306.2,400.28Z"/><path class="cls-11" d="M306.2,400.28a2.38,2.38,0,1,1,0,4.75,2.38,2.38,0,1,1,0-4.75m0-.94a3.32,3.32,0,1,0,3.29,3.33,3.32,3.32,0,0,0-3.29-3.33Z"/><path class="cls-1" d="M335.47,410a3.08,3.08,0,1,0,3.07,3.1A3.08,3.08,0,0,0,335.47,410Z"/><path class="cls-12" d="M335.47,410a3.08,3.08,0,1,1-3.1,3.06,3.09,3.09,0,0,1,3.1-3.06m0-.94a4,4,0,1,0,4,4,4,4,0,0,0-4-4Z"/><path class="cls-1" d="M349.35,350.91a1.73,1.73,0,1,0,1.72,1.73A1.73,1.73,0,0,0,349.35,350.91Z"/><path class="cls-13" d="M349.35,350.91a1.73,1.73,0,1,1-1.74,1.72,1.73,1.73,0,0,1,1.74-1.72m0-.94a2.67,2.67,0,1,0,2.65,2.68,2.65,2.65,0,0,0-2.65-2.68Z"/><path class="cls-1" d="M407.53,319.35a3.34,3.34,0,1,0,3.32,3.36A3.34,3.34,0,0,0,407.53,319.35Z"/><path class="cls-14" d="M407.53,319.35a3.34,3.34,0,1,1-3.36,3.33,3.35,3.35,0,0,1,3.36-3.33m0-.94a4.28,4.28,0,1,0,4.26,4.31,4.28,4.28,0,0,0-4.26-4.31Z"/><path class="cls-1" d="M2.32,381.12a1.38,1.38,0,1,0,1.37,1.38A1.37,1.37,0,0,0,2.32,381.12Z"/><path class="cls-15" d="M2.32,381.12a1.38,1.38,0,0,1,0,2.75,1.38,1.38,0,1,1,0-2.75m0-.93a2.31,2.31,0,1,0,2.31,2.32,2.31,2.31,0,0,0-2.31-2.32Z"/><path class="cls-1" d="M68.87,341.31a2.22,2.22,0,1,0,2.21,2.23A2.22,2.22,0,0,0,68.87,341.31Z"/><path class="cls-16" d="M68.87,341.31a2.22,2.22,0,1,1-2.23,2.21,2.21,2.21,0,0,1,2.23-2.21m0-.94A3.16,3.16,0,1,0,72,343.54a3.17,3.17,0,0,0-3.14-3.17Z"/><path class="cls-1" d="M198.89,201.66a1.34,1.34,0,1,0,1.34,1.35A1.35,1.35,0,0,0,198.89,201.66Z"/><path class="cls-17" d="M198.89,201.66a1.34,1.34,0,1,1-1.35,1.33,1.35,1.35,0,0,1,1.35-1.33m0-.94a2.28,2.28,0,1,0,2.27,2.29,2.28,2.28,0,0,0-2.27-2.29Z"/><path class="cls-1" d="M277.62,256.17a3.06,3.06,0,1,0,3,3.07A3.06,3.06,0,0,0,277.62,256.17Z"/><path class="cls-18" d="M277.62,256.17a3.06,3.06,0,1,1-3.08,3,3.05,3.05,0,0,1,3.08-3m0-.94a4,4,0,1,0,4,4,4,4,0,0,0-4-4Z"/><path class="cls-1" d="M218,267.66a1.53,1.53,0,1,0-1.52-1.53A1.53,1.53,0,0,0,218,267.66Z"/><path class="cls-19" d="M218,264.61a1.53,1.53,0,1,1-1.53,1.52,1.52,1.52,0,0,1,1.53-1.52m0-.94a2.47,2.47,0,1,0,2.45,2.48,2.47,2.47,0,0,0-2.45-2.48Z"/><path class="cls-1" d="M220.42,276.05a1.73,1.73,0,1,0,1.72,1.74A1.73,1.73,0,0,0,220.42,276.05Z"/><path class="cls-20" d="M220.42,276.05a1.73,1.73,0,1,1-1.73,1.72,1.73,1.73,0,0,1,1.73-1.72m0-.94a2.67,2.67,0,1,0,2.65,2.68,2.67,2.67,0,0,0-2.65-2.68Z"/><path class="cls-1" d="M247.78,297a1.35,1.35,0,1,0,0,2.69,1.35,1.35,0,1,0,0-2.69Z"/><path class="cls-21" d="M247.78,297a1.35,1.35,0,1,1,0,2.69,1.35,1.35,0,1,1,0-2.69m0-.94a2.29,2.29,0,1,0,2.27,2.3,2.28,2.28,0,0,0-2.27-2.3Z"/><path class="cls-1" d="M376.78,296.7a2.35,2.35,0,1,0,2.34,2.36A2.35,2.35,0,0,0,376.78,296.7Z"/><path class="cls-22" d="M376.78,296.7a2.35,2.35,0,1,1-2.36,2.33,2.35,2.35,0,0,1,2.36-2.33m0-.94a3.29,3.29,0,1,0,3.27,3.3,3.29,3.29,0,0,0-3.27-3.3Z"/><path class="cls-1" d="M403.22,196.46a2.7,2.7,0,1,0,2.68,2.71A2.7,2.7,0,0,0,403.22,196.46Z"/><path class="cls-23" d="M403.22,196.46a2.7,2.7,0,1,1-2.71,2.69,2.69,2.69,0,0,1,2.71-2.69m0-.94a3.64,3.64,0,1,0,3.62,3.66,3.64,3.64,0,0,0-3.62-3.66Z"/><path class="cls-1" d="M82.64,365.1A2.93,2.93,0,1,0,85.55,368,2.92,2.92,0,0,0,82.64,365.1Z"/><path class="cls-24" d="M82.64,365.1A2.93,2.93,0,1,1,79.7,368a2.92,2.92,0,0,1,2.94-2.91m0-.94A3.86,3.86,0,1,0,86.49,368a3.86,3.86,0,0,0-3.85-3.88Z"/><path class="cls-1" d="M111.63,335.37a1.69,1.69,0,0,0-3.37,0,1.69,1.69,0,1,0,3.37,0Z"/><path class="cls-25" d="M110,333.68a1.69,1.69,0,0,1,0,3.37,1.69,1.69,0,1,1,0-3.37m0-.94a2.63,2.63,0,1,0,2.61,2.64,2.62,2.62,0,0,0-2.61-2.64Z"/><path class="cls-1" d="M148.41,418.74A2.65,2.65,0,1,0,151,421.4,2.65,2.65,0,0,0,148.41,418.74Z"/><path class="cls-26" d="M148.41,418.74a2.65,2.65,0,1,1-2.66,2.64,2.65,2.65,0,0,1,2.66-2.64m0-.94a3.59,3.59,0,1,0,3.57,3.61,3.59,3.59,0,0,0-3.57-3.61Z"/><path class="cls-1" d="M164,332.41a2.77,2.77,0,1,0,2.75,2.78A2.76,2.76,0,0,0,164,332.41Z"/><path class="cls-27" d="M164,332.41a2.77,2.77,0,1,1-2.78,2.75,2.75,2.75,0,0,1,2.78-2.75m0-.94a3.71,3.71,0,1,0,3.69,3.72,3.7,3.7,0,0,0-3.69-3.72Z"/><path class="cls-1" d="M243.71,369.92a2.42,2.42,0,1,0,2.4,2.42A2.41,2.41,0,0,0,243.71,369.92Z"/><path class="cls-28" d="M243.71,369.92a2.42,2.42,0,1,1-2.43,2.4,2.4,2.4,0,0,1,2.43-2.4m0-.94a3.35,3.35,0,1,0,3.34,3.37,3.36,3.36,0,0,0-3.34-3.37Z"/><path class="cls-1" d="M177.05,308.58a1.77,1.77,0,1,0,1.77,1.78A1.77,1.77,0,0,0,177.05,308.58Z"/><path class="cls-29" d="M177.05,308.58a1.77,1.77,0,1,1-1.78,1.76,1.78,1.78,0,0,1,1.78-1.76m0-.94a2.71,2.71,0,1,0,2.69,2.73,2.71,2.71,0,0,0-2.69-2.73Z"/><path class="cls-1" d="M211.8,151.17a2.12,2.12,0,1,0,2.11,2.13A2.12,2.12,0,0,0,211.8,151.17Z"/><path class="cls-30" d="M211.8,151.17a2.12,2.12,0,1,1-2.13,2.11,2.12,2.12,0,0,1,2.13-2.11m0-.94a3.06,3.06,0,1,0,3,3.08,3.07,3.07,0,0,0-3-3.08Z"/><path class="cls-1" d="M266,168a1.58,1.58,0,1,0,1.57,1.58A1.57,1.57,0,0,0,266,168Z"/><path class="cls-31" d="M266,168a1.58,1.58,0,1,1-1.58,1.57A1.59,1.59,0,0,1,266,168m0-.94a2.52,2.52,0,1,0,2.5,2.53,2.53,2.53,0,0,0-2.5-2.53Z"/><path class="cls-1" d="M271.68,29.21a2.5,2.5,0,1,0,2.49,2.51A2.51,2.51,0,0,0,271.68,29.21Z"/><path class="cls-32" d="M271.68,29.21a2.5,2.5,0,1,1-2.52,2.49,2.51,2.51,0,0,1,2.52-2.49m0-.94a3.44,3.44,0,1,0,3.43,3.46,3.44,3.44,0,0,0-3.43-3.46Z"/><path class="cls-1" d="M266,120.44A3.39,3.39,0,1,0,262.6,117,3.38,3.38,0,0,0,266,120.44Z"/><path class="cls-33" d="M266,113.66a3.39,3.39,0,1,1-3.4,3.37,3.39,3.39,0,0,1,3.4-3.37m0-.94a4.33,4.33,0,1,0,4.3,4.35,4.33,4.33,0,0,0-4.3-4.35Z"/><path class="cls-1" d="M319.85,143.74a1.73,1.73,0,1,0,1.72,1.74A1.72,1.72,0,0,0,319.85,143.74Z"/><path class="cls-34" d="M319.85,143.74a1.73,1.73,0,1,1-1.73,1.72,1.72,1.72,0,0,1,1.73-1.72m0-.94a2.67,2.67,0,1,0,2.65,2.68,2.66,2.66,0,0,0-2.65-2.68Z"/><path class="cls-1" d="M294.17,36.88a1.93,1.93,0,1,0,1.91,1.93A1.94,1.94,0,0,0,294.17,36.88Z"/><path class="cls-35" d="M294.17,36.88a1.93,1.93,0,1,1-1.93,1.92,1.92,1.92,0,0,1,1.93-1.92m0-.94A2.87,2.87,0,1,0,297,38.82a2.86,2.86,0,0,0-2.85-2.88Z"/><path class="cls-1" d="M405.55,405.09a1.8,1.8,0,1,0,1.79,1.8A1.8,1.8,0,0,0,405.55,405.09Z"/><path class="cls-36" d="M405.55,405.09a1.8,1.8,0,1,1-1.81,1.79,1.8,1.8,0,0,1,1.81-1.79m0-.94a2.74,2.74,0,1,0,2.72,2.75,2.74,2.74,0,0,0-2.72-2.75Z"/><circle class="cls-1" cx="429.7" cy="328.62" r="2.24"/><path class="cls-37" d="M429.71,326.39a2.24,2.24,0,1,1-2.25,2.22,2.23,2.23,0,0,1,2.25-2.22m0-.94a3.18,3.18,0,1,0,3.16,3.19,3.17,3.17,0,0,0-3.16-3.19Z"/></g></g></svg>