<svg xmlns="http://www.w3.org/2000/svg" xmlns:xlink="http://www.w3.org/1999/xlink" width="552" height="798" viewBox="0 0 552 798">
  <defs>
    <clipPath id="clip-path">
      <rect id="Rectangle_1" data-name="Rectangle 1" width="798" height="552" transform="translate(3346 2602) rotate(90)" fill="#fff"/>
    </clipPath>
    <clipPath id="clip-path-2">
      <path id="Path_2" data-name="Path 2" d="M0,0H94c8.837,0,16,8.97,16,20.035V108.94c0,11.065-7.163,20.035-16,20.035H0Z" transform="translate(0 0)" fill="#fff"/>
    </clipPath>
  </defs>
  <g id="Mask_Group_1" data-name="Mask Group 1" transform="translate(-2794 -2602)" clip-path="url(#clip-path)">
    <g id="Group_9" data-name="Group 9" transform="translate(-2 58)">
      <g id="Group_8" data-name="Group 8" transform="translate(3518.503 2662.82) rotate(90)">
        <rect id="Rectangle_3" data-name="Rectangle 3" width="344" height="553.466" transform="translate(397.289 171.313)" fill="#fff"/>
        <g id="Group_7" data-name="Group 7" transform="translate(0 0)">
          <g id="Group_1" data-name="Group 1" transform="translate(208.362 679.893)" clip-path="url(#clip-path-2)">
            <path id="Path_1" data-name="Path 1" d="M30.914,59.453C28.493,34.755,11.669,9.792,0,0H110.437V128.885c4.156.123,2.59.72,0,1.213v-1.213c-3.7-.11-11.959.158-28.092,1.213C39.558,132.9,35,101.147,30.914,59.453Z" transform="translate(0.373 0)" fill="none"/>
          </g>
          <path id="wave_4_" data-name="wave (4)" d="M0,288l30.723-21.3c30.723-21.7,92.17-63.7,153.616-112C245.785,107,307.232,53,368.678,26.7,430.124,0,491.571,0,522.294,0h30.723V320H0Z" transform="translate(83.637 722.707) rotate(-90)" fill="#fff"/>
          <path id="wave_4_2" data-name="wave (4)" d="M.524,408.916l36.363-30.367c36.347-30.952,109.1-90.809,181.6-159.878,72.53-68.192,144.819-145.6,218.168-182.495C509.991-1.307,584.344.253,621.521,1.033l37.177.78,12.234,467.937-37.177-.78-185.884-3.9-223.061-4.68-185.884-3.9-37.177-.78Z" transform="matrix(-0.105, -0.995, 0.995, -0.105, -49.446, 772.512)" fill="rgba(255,255,255,0.25)"/>
          <path id="wave_4_3" data-name="wave (4)" d="M.474,648.3,37.54,600.558C74.621,551.94,148.729,457.788,223.08,349.751c74.328-106.714,148.9-227.314,222.4-286.863C519,2.457,591.485.873,627.729.081l36.243-.792L651.62,704.566l-36.243.792-181.217,3.96L216.7,714.071l-181.217,3.96-36.243.792Z" transform="translate(-118 73.021) rotate(-5)" fill="rgba(255,255,255,0.09)"/>
        </g>
      </g>
      <g id="Layer_2" data-name="Layer 2" transform="translate(2792.408 3061.011) rotate(87)">
        <g id="Layer_1" data-name="Layer 1" transform="translate(-176.098 -471.307)">
          <g id="triangle36" transform="translate(496.179 3.197)">
            <path id="Path_284" data-name="Path 284" d="M459.34,48.19l-56-31,15.07-13.5,41,30.14v-.58l-40.88-30a.24.24,0,0,0-.3,0l-15.5,13.88a.24.24,0,0,0-.07.2.23.23,0,0,0,.11.18l56.56,31.26Z" transform="translate(-402.658 -3.197)" fill="rgba(196,196,196,0.49)"/>
          </g>
          <g id="triangle36-2" data-name="triangle36" transform="translate(496.178 17.026)">
            <path id="Path_285" data-name="Path 285" d="M459.13,90.57,403.76,18l55.58,30.72v-.54L403,17.06a.22.22,0,0,0-.29.05.24.24,0,0,0,0,.3l56.41,73.93Z" transform="translate(-402.657 -17.026)" fill="rgba(196,196,196,0.49)"/>
          </g>
          <g id="triangle36-3" data-name="triangle36" transform="translate(286.702 462.166)">
            <path id="Path_286" data-name="Path 286" d="M230.63,437,306,403l7.39,34.42h.48l-7.47-34.8a.23.23,0,0,0-.13-.16.2.2,0,0,0-.2,0L229.5,437Z" transform="translate(-229.5 -402.433)" fill="rgba(196,196,196,0.49)"/>
          </g>
          <g id="triangle36-4" data-name="triangle36" transform="translate(501.501 481.823)">
            <path id="Path_287" data-name="Path 287" d="M457.44,422.09l-49.46,15.8,1.52.01,47.93-15.32Z" transform="translate(-407.98 -422.09)" fill="rgba(196,196,196,0.49)"/>
          </g>
          <g id="triangle36-5" data-name="triangle36" transform="translate(511.684 1.78)">
            <path id="Path_288" data-name="Path 288" d="M459.42,33.25,419.08,3.6l40.5-1.35V1.78L418.39,3.15a.23.23,0,0,0-.22.17.24.24,0,0,0,.09.25l41.16,30.26Z" transform="translate(-418.163 -1.78)" fill="rgba(196,196,196,0.49)"/>
          </g>
          <g id="triangle36-6" data-name="triangle36" transform="translate(496.489 196.96)">
            <path id="Path_289" data-name="Path 289" d="M458.56,202.19,404,199l44.1-26.74,10.6,8.25v-.6l-10.44-8.12a.23.23,0,0,0-.26,0L403.08,199a.22.22,0,0,0-.1.26.21.21,0,0,0,.21.17l55.37,3.27Z" transform="translate(-402.969 -171.75)" fill="rgba(196,196,196,0.49)"/>
          </g>
          <g id="triangle36-7" data-name="triangle36" transform="translate(52.92 479.529)">
            <path id="Path_290" data-name="Path 290" d="M53.47,436.08l9-15.34,1.81,15.39h.47L62.84,420a.22.22,0,0,0-.18-.2.24.24,0,0,0-.25.11l-9.49,16.18Z" transform="translate(-52.92 -419.796)" fill="rgba(196,196,196,0.49)"/>
          </g>
          <g id="triangle36-8" data-name="triangle36" transform="translate(490.981 466.386)">
            <path id="Path_291" data-name="Path 291" d="M457.44,422.09l-49.46,15.8,1.52.01,47.93-15.32Z" transform="translate(-397.46 -406.653)" fill="rgba(196,196,196,0.49)"/>
            <path id="Path_292" data-name="Path 292" d="M457.45,419.54,405.6,406.66a.24.24,0,0,0-.29.17l-7.85,31H398l7.76-30.67L457.45,420Z" transform="translate(-397.46 -406.653)" fill="rgba(196,196,196,0.49)"/>
          </g>
          <g id="triangle36-9" data-name="triangle36" transform="translate(500.799 347.076)">
            <path id="Path_293" data-name="Path 293" d="M458,312.11l-28.33,16.26-21.4-5.72,49.77-19v-.51l-50.61,19.38a.23.23,0,0,0-.15.24.22.22,0,0,0,.17.21l22.19,5.93h.06a.27.27,0,0,0,.12,0L458,312.65Z" transform="translate(-407.279 -303.14)" fill="rgba(196,196,196,0.49)"/>
          </g>
          <g id="triangle36-10" data-name="triangle36" transform="translate(372.507 462.111)">
            <path id="Path_294" data-name="Path 294" d="M313.89,437.41,306.51,403l28.61,10.15-12.36,24.28h.53l12.37-24.31a.23.23,0,0,0,0-.2.2.2,0,0,0-.14-.13l-29.26-10.38a.2.2,0,0,0-.31.23l7.45,34.7Z" transform="translate(-305.944 -402.378)" fill="rgba(196,196,196,0.49)"/>
          </g>
          <g id="triangle36-11" data-name="triangle36" transform="translate(392.769 472.54)">
            <path id="Path_295" data-name="Path 295" d="M323.29,437.46l12.18-23.94,15.17,24.08h.55l-15.54-24.68a.19.19,0,0,0-.21-.11.24.24,0,0,0-.2.12l-12.48,24.52Z" transform="translate(-322.76 -412.807)" fill="rgba(196,196,196,0.49)"/>
          </g>
          <g id="triangle36-12" data-name="triangle36" transform="translate(412.463 472.5)">
            <path id="Path_296" data-name="Path 296" d="M350.64,437.6h.55l-15.11-24,51.66,24.19h1.12l-53.31-25a.22.22,0,0,0-.27.06.24.24,0,0,0,0,.28Z" transform="translate(-335.235 -412.767)" fill="rgba(196,196,196,0.49)"/>
          </g>
          <g id="triangle36-13" data-name="triangle36" transform="translate(428.834 466.373)">
            <path id="Path_297" data-name="Path 297" d="M335.35,413.25l52.39,24.53h1.12L336.34,413.2l68.89-6.05-7.77,30.68H398l7.82-30.9a.27.27,0,0,0,0-.21.3.3,0,0,0-.2-.08l-70.09,6.16a.23.23,0,0,0-.08.44Z" transform="translate(-335.313 -406.64)" fill="rgba(196,196,196,0.49)"/>
          </g>
          <g id="triangle36-14" data-name="triangle36" transform="translate(62.377 479.51)">
            <path id="Path_298" data-name="Path 298" d="M64.74,436.14,62.9,420.49l24.37,15.76h.87l-25.4-16.44a.27.27,0,0,0-.26,0,.23.23,0,0,0-.1.23l1.89,16.08Z" transform="translate(-62.377 -419.777)" fill="rgba(196,196,196,0.49)"/>
          </g>
          <g id="triangle36-15" data-name="triangle36" transform="translate(268.753 295.942)">
            <path id="Path_299" data-name="Path 299" d="M220.41,278a.2.2,0,0,1-.11,0,.21.21,0,0,1-.11-.16l-2.41-11.64a.24.24,0,0,1,.2-.28l59.6-6.91a.236.236,0,0,1,.09.46L220.49,278Zm-2.12-11.67,2.3,11.13,54.7-17.74Z" transform="translate(-217.776 -259.009)" fill="rgba(196,196,196,0.49)"/>
          </g>
          <g id="triangle36-16" data-name="triangle36" transform="translate(31 461.492)">
            <path id="Path_300" data-name="Path 300" d="M31.43,436l3.08-33.6,27.78,17.7-9.37,16h.55l9.34-15.94a.24.24,0,0,0-.08-.32l-28.3-18.05a.247.247,0,0,0-.36.19L31,436Z" transform="translate(-31 -401.759)" fill="rgba(196,196,196,0.49)"/>
          </g>
          <g id="triangle36-17" data-name="triangle36" transform="translate(34.07 427.556)">
            <path id="Path_301" data-name="Path 301" d="M62.61,420.26a.279.279,0,0,1-.13,0L34.18,402.2a.27.27,0,0,1-.11-.19.26.26,0,0,1,.1-.2l48.32-33.94a.23.23,0,0,1,.28,0,.22.22,0,0,1,.07.26l-20,52a.24.24,0,0,1-.15.13ZM34.73,402l27.76,17.71,19.64-51Z" transform="translate(-34.07 -367.822)" fill="rgba(196,196,196,0.49)"/>
          </g>
          <g id="triangle36-18" data-name="triangle36" transform="translate(62.383 427.515)">
            <path id="Path_302" data-name="Path 302" d="M148.39,421.62h0L62.6,420.26a.27.27,0,0,1-.19-.11.22.22,0,0,1,0-.21l20-52a.22.22,0,0,1,.36-.1l65.77,53.37a.22.22,0,0,1,.07.26.23.23,0,0,1-.22.15ZM63,419.79l84.77,1.35-65-52.73Z" transform="translate(-62.383 -367.782)" fill="rgba(196,196,196,0.49)"/>
          </g>
          <g id="triangle36-19" data-name="triangle36" transform="translate(62.41 479.493)">
            <path id="Path_303" data-name="Path 303" d="M87.27,436.25h.87l-24.72-16,84.09,1.34L120.62,436.4h1l26.93-14.83a.24.24,0,0,0,.11-.27.23.23,0,0,0-.22-.17l-85.79-1.37h0a.232.232,0,0,0-.13.43Z" transform="translate(-62.41 -419.76)" fill="rgba(196,196,196,0.49)"/>
          </g>
          <g id="triangle36-20" data-name="triangle36" transform="translate(146.792 480.866)">
            <path id="Path_304" data-name="Path 304" d="M121.58,436.43,147.73,422l-8.9,14.49h.55l9.21-15a.21.21,0,0,0,0-.28.23.23,0,0,0-.28-.05L120.65,436.4Z" transform="translate(-120.65 -421.133)" fill="rgba(196,196,196,0.49)"/>
          </g>
          <g id="triangle36-21" data-name="triangle36" transform="translate(171.594 480.876)">
            <path id="Path_305" data-name="Path 305" d="M139.38,436.52l9.12-14.85,51.95,15.16h1.71l-53.7-15.68a.25.25,0,0,0-.27.11l-9.36,15.24Z" transform="translate(-138.83 -421.143)" fill="rgba(196,196,196,0.49)"/>
          </g>
          <g id="triangle36-22" data-name="triangle36" transform="translate(349.443 254.16)">
            <path id="Path_306" data-name="Path 306" d="M376.77,299.28h-.09l-99.16-39.81a.236.236,0,0,1-.07-.4l50.21-41.38a.19.19,0,0,1,.19,0,.23.23,0,0,1,.16.11l49,81.19a.24.24,0,0,1,0,.28A.25.25,0,0,1,376.77,299.28Zm-98.71-40.12,98.15,39.41L327.75,218.2Z" transform="translate(-277.368 -217.665)" fill="rgba(196,196,196,0.49)"/>
          </g>
          <g id="triangle36-23" data-name="triangle36" transform="translate(402.238 234.434)">
            <path id="Path_307" data-name="Path 307" d="M376.77,299.28a.22.22,0,0,1-.2-.12l-49-81.19a.22.22,0,0,1,0-.19.24.24,0,0,1,.13-.15l41.14-18.39a.22.22,0,0,1,.22,0,.27.27,0,0,1,.11.18L377,299a.23.23,0,0,1-.16.24ZM328.15,218l48.31,80.12-7.72-98.27Z" transform="translate(-327.548 -199.211)" fill="rgba(196,196,196,0.49)"/>
          </g>
          <g id="triangle36-24" data-name="triangle36" transform="translate(462.25 234.122)">
            <path id="Path_308" data-name="Path 308" d="M376.77,299.28h0a.24.24,0,0,1-.21-.22l-7.83-99.59a.28.28,0,0,1,.06-.18.24.24,0,0,1,.18-.07l34.25-.3a.44.44,0,0,1,.19.1.23.23,0,0,1,0,.2L377,299.1a.23.23,0,0,1-.23.18Zm-7.57-99.6,7.7,98,26-98.25Z" transform="translate(-368.73 -198.92)" fill="rgba(196,196,196,0.49)"/>
          </g>
          <g id="triangle36-25" data-name="triangle36" transform="translate(470.026 332.869)">
            <path id="Path_309" data-name="Path 309" d="M458,303.09l-50.49,19.34-30.17-23.22,80.73-8.65v-.47l-81.36,8.72a.24.24,0,0,0-.12.42l30.74,23.65a.24.24,0,0,0,.14.05h.09L458,303.6Z" transform="translate(-376.506 -290.09)" fill="rgba(196,196,196,0.49)"/>
          </g>
          <g id="triangle36-26" data-name="triangle36" transform="translate(462.264 191.209)">
            <path id="Path_310" data-name="Path 310" d="M369,199.68a.23.23,0,0,1-.22-.14.25.25,0,0,1,0-.26l34.12-32.62a.22.22,0,0,1,.25,0,.26.26,0,0,1,.15.22l.14,32.33a.23.23,0,0,1-.23.23l-34.26.29Zm33.88-32.31-33.29,31.84,33.43-.28Z" transform="translate(-368.743 -166.621)" fill="rgba(196,196,196,0.49)"/>
          </g>
          <g id="triangle36-27" data-name="triangle36" transform="translate(496.181 17.027)">
            <path id="Path_311" data-name="Path 311" d="M458.88,139.55l-55.59,26.9L403.13,18l56,73.38v-.77L403.08,17.12a.23.23,0,0,0-.26-.08.24.24,0,0,0-.16.22l.17,149.57a.174.174,0,0,0,.23.2h.1l55.72-27Z" transform="translate(-402.66 -17.027)" fill="rgba(196,196,196,0.49)"/>
          </g>
          <g id="triangle36-28" data-name="triangle36" transform="translate(496.35 191.187)">
            <path id="Path_312" data-name="Path 312" d="M403.2,199.39a.2.2,0,0,1-.11,0,.23.23,0,0,1-.12-.2l-.14-32.33a.24.24,0,0,1,.07-.18.31.31,0,0,1,.19-.06l45,5.12a.22.22,0,0,1,.2.18.23.23,0,0,1-.11.25L403.3,199.39a.28.28,0,0,1-.1,0Zm.1-32.3.14,31.65,43.94-26.64Z" transform="translate(-402.83 -166.62)" fill="rgba(196,196,196,0.49)"/>
          </g>
          <g id="triangle36-29" data-name="triangle36" transform="translate(496.385 160.118)">
            <path id="Path_313" data-name="Path 313" d="M458.78,158.87,448,171.69l-44.1-5,55-26.62v-.52L403,166.62a.22.22,0,0,0-.13.25.23.23,0,0,0,.2.19l45,5.11h0a.21.21,0,0,0,.18-.09l10.51-12.48Z" transform="translate(-402.865 -139.55)" fill="rgba(196,196,196,0.49)"/>
          </g>
          <g id="triangle36-30" data-name="triangle36" transform="translate(541.379 181.56)">
            <path id="Path_314" data-name="Path 314" d="M458.69,177l-10.23-5.09,10.32-12.25v-.74l-10.87,12.92a.29.29,0,0,0-.05.2.23.23,0,0,0,.13.16l10.69,5.32Z" transform="translate(-447.858 -158.92)" fill="rgba(196,196,196,0.49)"/>
          </g>
          <g id="triangle36-31" data-name="triangle36" transform="translate(541.368 195.663)">
            <path id="Path_315" data-name="Path 315" d="M458.67,179.88l-8.59-6.69,8.6,4.28V177l-10.49-5.22a.237.237,0,0,0-.25.4l10.72,8.34Z" transform="translate(-447.848 -171.756)" fill="rgba(196,196,196,0.49)"/>
          </g>
          <g id="triangle36-32" data-name="triangle36" transform="translate(186.244 431.853)">
            <path id="Path_316" data-name="Path 316" d="M148.33,421.61l52.12,15.22h1.71L149,421.33l94.26-48.52-22.77,64.12H221l22.92-64.52a.215.215,0,0,0-.33-.25l-95.3,49.06a.24.24,0,0,0-.13.23A.22.22,0,0,0,148.33,421.61Z" transform="translate(-148.159 -372.12)" fill="rgba(196,196,196,0.49)"/>
          </g>
          <g id="triangle36-33" data-name="triangle36" transform="translate(275.654 431.834)">
            <path id="Path_317" data-name="Path 317" d="M221,436.93l22.83-64.27,61.8,30L229.5,437h1.13l75.66-34.11a.23.23,0,0,0,0-.42L243.8,372.12a.25.25,0,0,0-.19,0,.32.32,0,0,0-.14.14l-23,64.68Z" transform="translate(-220.47 -372.101)" fill="rgba(196,196,196,0.49)"/>
          </g>
          <g id="triangle36-34" data-name="triangle36" transform="translate(269.715 317.36)">
            <path id="Path_318" data-name="Path 318" d="M247.78,298.62a.24.24,0,0,1-.14-.05L220.27,278a.233.233,0,0,1,.23-.4l43.43,15.8a.24.24,0,0,1,0,.45l-16.08,4.8Zm-26-20.09,26,19.6,15.28-4.57Z" transform="translate(-220.178 -277.582)" fill="rgba(196,196,196,0.49)"/>
          </g>
          <g id="triangle36-35" data-name="triangle36" transform="translate(271.411 297.37)">
            <path id="Path_319" data-name="Path 319" d="M263.85,293.82h-.08L220.33,278a.25.25,0,0,1-.15-.23.24.24,0,0,1,.16-.22L277.53,259a.22.22,0,0,1,.24.07.23.23,0,0,1,.05.25l-13.75,34.35a.25.25,0,0,1-.22.15Zm-42.71-16,42.58,15.49,13.48-33.67Z" transform="translate(-220.18 -258.989)" fill="rgba(196,196,196,0.49)"/>
          </g>
          <g id="triangle36-36" data-name="triangle36" transform="translate(295.364 353.09)">
            <path id="Path_320" data-name="Path 320" d="M243.69,372.57h0a.22.22,0,0,1-.2-.24l4.08-73.95a.23.23,0,0,1,.17-.21l16.07-4.8a.22.22,0,0,1,.23.05.25.25,0,0,1,.07.23L243.95,372.4A.23.23,0,0,1,243.69,372.57Zm4.31-74L244.06,370l19.46-76Z" transform="translate(-243.489 -293.357)" fill="rgba(196,196,196,0.49)"/>
          </g>
          <g id="triangle36-37" data-name="triangle36" transform="translate(334.859 297.904)">
            <path id="Path_321" data-name="Path 321" d="M376.77,299.28h0l-112.92-5.46a.27.27,0,0,1-.19-.11.22.22,0,0,1,0-.21l13.75-34.36a.27.27,0,0,1,.13-.13.28.28,0,0,1,.18,0l99.17,39.82a.23.23,0,0,1-.09.45Zm-112.58-5.92,111.2,5.38-97.66-39.21Z" transform="translate(-263.633 -258.995)" fill="rgba(196,196,196,0.49)"/>
          </g>
          <g id="triangle36-38" data-name="triangle36" transform="translate(328.355 198.473)">
            <path id="Path_322" data-name="Path 322" d="M277.6,259.46h-.08a.26.26,0,0,1-.15-.19l-11.58-89.61a.251.251,0,0,1,.38-.24L328,217.66a.23.23,0,0,1,.09.18.26.26,0,0,1-.08.19L277.8,259.41a.25.25,0,0,1-.2.05Zm-11.27-89.31,11.45,88.63,49.65-40.93Z" transform="translate(-265.789 -169.384)" fill="rgba(196,196,196,0.49)"/>
          </g>
          <g id="triangle36-39" data-name="triangle36" transform="translate(328.355 168.992)">
            <path id="Path_323" data-name="Path 323" d="M327.81,218.08a.23.23,0,0,1-.15-.05L265.88,169.8a.24.24,0,0,1-.09-.21.25.25,0,0,1,.14-.19l53.82-24.15a.26.26,0,0,1,.21,0,.25.25,0,0,1,.12.18l8,72.38a.21.21,0,0,1-.12.23.2.2,0,0,1-.15.04Zm-61.33-48.41,61,47.65-7.86-71.51Z" transform="translate(-265.789 -145.228)" fill="rgba(196,196,196,0.49)"/>
          </g>
          <g id="triangle36-40" data-name="triangle36" transform="translate(387.432 16.995)">
            <path id="Path_324" data-name="Path 324" d="M319.84,145.7h0a.24.24,0,0,1-.19-.18L293.93,38.86a.23.23,0,0,1,0-.18.24.24,0,0,1,.15-.11L402.85,17a.23.23,0,0,1,.24.1.21.21,0,0,1,0,.26L320,145.6a.25.25,0,0,1-.16.1ZM294.44,39,320,144.88,402.4,17.6Z" transform="translate(-293.912 -16.995)" fill="rgba(196,196,196,0.49)"/>
          </g>
          <g id="triangle36-41" data-name="triangle36" transform="translate(392.462 169.039)">
            <path id="Path_325" data-name="Path 325" d="M327.81,218.08a.27.27,0,0,1-.12,0,.26.26,0,0,1-.12-.18l-8-72.38a.24.24,0,0,1,.41-.18l49.1,54a.26.26,0,0,1,.06.21.25.25,0,0,1-.14.16l-41.14,18.4a.149.149,0,0,1-.05-.03Zm-7.65-71.92L328,217.5l40.55-18.13Z" transform="translate(-319.57 -145.269)" fill="rgba(196,196,196,0.49)"/>
          </g>
          <g id="triangle36-42" data-name="triangle36" transform="translate(413.206 167.834)">
            <path id="Path_326" data-name="Path 326" d="M369,199.68h0a.28.28,0,0,1-.17-.07l-49.1-54a.24.24,0,0,1,0-.28.23.23,0,0,1,.26-.11l83.22,21.36a.24.24,0,0,1,.17.17.25.25,0,0,1-.07.23L369.2,199.6A.23.23,0,0,1,369,199.68Zm-48.4-53.79L369,199.11,402.59,167Z" transform="translate(-319.685 -145.212)" fill="rgba(196,196,196,0.49)"/>
          </g>
          <g id="triangle36-43" data-name="triangle36" transform="translate(413.133 16.985)">
            <path id="Path_327" data-name="Path 327" d="M403.06,167.06H403L319.79,145.7a.24.24,0,0,1-.14-.36L402.7,17.14a.244.244,0,0,1,.47.08l.17,149.57a.22.22,0,0,1-.1.18.24.24,0,0,1-.18.09Zm-82.84-21.74,82.61,21.2-.17-148.46Z" transform="translate(-319.613 -16.985)" fill="rgba(196,196,196,0.49)"/>
          </g>
          <g id="triangle36-44" data-name="triangle36" transform="translate(307.876 353.071)">
            <path id="Path_328" data-name="Path 328" d="M243.69,372.57a.24.24,0,0,1-.22-.3l20.15-78.75a.24.24,0,0,1,.15-.16.26.26,0,0,1,.21,0l85.49,59.05a.24.24,0,0,1-.09.43L243.74,372.56ZM264,294l-20,78,104.73-19.52Z" transform="translate(-243.462 -293.338)" fill="rgba(196,196,196,0.49)"/>
          </g>
          <g id="triangle36-45" data-name="triangle36" transform="translate(307.873 412.131)">
            <path id="Path_329" data-name="Path 329" d="M306.19,402.89h-.1l-62.5-30.33a.23.23,0,0,1-.13-.24.25.25,0,0,1,.19-.2L349.3,352.4a.256.256,0,0,1,.24.39l-43.15,50A.27.27,0,0,1,306.19,402.89Zm-61.75-30.46,61.69,29.94L348.73,353Z" transform="translate(-243.458 -352.398)" fill="rgba(196,196,196,0.49)"/>
          </g>
          <g id="triangle36-46" data-name="triangle36" transform="translate(334.826 339.705)">
            <path id="Path_330" data-name="Path 330" d="M349.34,352.87a.28.28,0,0,1-.13,0l-85.49-59.05a.22.22,0,0,1-.09-.27.24.24,0,0,1,.23-.16l112.92,5.46a.23.23,0,0,1,.19.34l-27.43,53.59a.22.22,0,0,1-.15.12Zm-84.68-59,84.59,58.43,27.15-53Z" transform="translate(-263.614 -293.39)" fill="rgba(196,196,196,0.49)"/>
          </g>
          <g id="triangle36-47" data-name="triangle36" transform="translate(374.74 412.175)">
            <path id="Path_331" data-name="Path 331" d="M335.45,413.28h-.08L306.11,402.9a.26.26,0,0,1-.15-.16.25.25,0,0,1,.05-.22l43.15-50a.238.238,0,0,1,.41.21l-13.89,60.4a.26.26,0,0,1-.11.16Zm-28.86-10.73,28.69,10.18,13.62-59.22Z" transform="translate(-305.953 -352.442)" fill="rgba(196,196,196,0.49)"/>
          </g>
          <g id="triangle36-48" data-name="triangle36" transform="translate(428.739 412.135)">
            <path id="Path_332" data-name="Path 332" d="M335.45,413.28a.26.26,0,0,1-.23-.29l13.89-60.41a.23.23,0,0,1,.16-.17.24.24,0,0,1,.23.06l56.2,54.25a.22.22,0,0,1,.06.24.24.24,0,0,1-.2.16l-70.09,6.15Zm14-60.19-13.73,59.69L405,406.7Z" transform="translate(-335.218 -352.402)" fill="rgba(196,196,196,0.49)"/>
          </g>
          <g id="triangle36-49" data-name="triangle36" transform="translate(442.649 345.308)">
            <path id="Path_333" data-name="Path 333" d="M349.34,352.87a.23.23,0,0,1-.17-.07.24.24,0,0,1,0-.27l27.43-53.59a.23.23,0,0,1,.16-.13.25.25,0,0,1,.19.05l30.74,23.65a.23.23,0,0,1,.1.2.26.26,0,0,1-.13.19l-58.17,29.94a.23.23,0,0,1-.15.03Zm27.51-53.47-27,52.69,57.2-29.44Z" transform="translate(-349.128 -298.807)" fill="rgba(196,196,196,0.49)"/>
          </g>
          <g id="triangle36-50" data-name="triangle36" transform="translate(442.624 388.13)">
            <path id="Path_334" data-name="Path 334" d="M405.54,407.12a.2.2,0,0,1-.16-.07l-56.2-54.25a.22.22,0,0,1-.07-.22.23.23,0,0,1,.16-.17l80.36-24a.229.229,0,0,1,.29.29L405.76,407a.22.22,0,0,1-.16.16Zm-55.75-54.38,55.64,53.71L429.35,329Z" transform="translate(-349.103 -328.396)" fill="rgba(196,196,196,0.49)"/>
          </g>
          <g id="triangle36-51" data-name="triangle36" transform="translate(442.627 369.734)">
            <path id="Path_335" data-name="Path 335" d="M349.34,352.87a.25.25,0,0,1-.22-.15.24.24,0,0,1,.11-.29l58.17-29.95a.25.25,0,0,1,.17,0l22.19,5.92a.26.26,0,0,1,.18.23.25.25,0,0,1-.17.23l-80.36,24Zm58.2-29.93L351.7,351.69l77.14-23.06Z" transform="translate(-349.106 -322.465)" fill="rgba(196,196,196,0.49)"/>
          </g>
          <g id="triangle36-52" data-name="triangle36" transform="translate(2.075 403.015)">
            <path id="Path_336" data-name="Path 336" d="M2.31,382.73a.24.24,0,0,1-.22-.15.23.23,0,0,1,.1-.28l66.55-39a.23.23,0,0,1,.18,0,.28.28,0,0,1,.15.11l13.76,24.5a.22.22,0,0,1,0,.21.24.24,0,0,1-.17.13L2.35,382.73Zm66.46-38.88L3.57,382l78.69-14.18Z" transform="translate(-2.075 -343.282)" fill="rgba(196,196,196,0.49)"/>
          </g>
          <g id="triangle36-53" data-name="triangle36" transform="translate(84.646 384.592)">
            <path id="Path_337" data-name="Path 337" d="M82.62,368.26h0a.23.23,0,0,1-.18-.11l-13.76-24.5a.22.22,0,0,1,0-.21.21.21,0,0,1,.17-.13l41.08-8.17a.248.248,0,0,1,.25.38L82.8,368.17a.21.21,0,0,1-.18.09Zm-13.4-24.57,13.44,23.92,26.68-31.89Z" transform="translate(-68.653 -335.136)" fill="rgba(196,196,196,0.49)"/>
          </g>
          <g id="triangle36-54" data-name="triangle36" transform="translate(240.348 176.645)">
            <path id="Path_338" data-name="Path 338" d="M198.88,203.24h0a.24.24,0,0,1-.17-.29l12.91-49.71a.23.23,0,0,1,.28-.17.24.24,0,0,1,.17.29l-12.91,49.71a.23.23,0,0,1-.28.17Z" transform="translate(-198.703 -153.063)" fill="rgba(196,196,196,0.49)"/>
          </g>
          <g id="triangle36-55" data-name="triangle36" transform="translate(246.049 176.649)">
            <path id="Path_339" data-name="Path 339" d="M198.88,203.24a.2.2,0,0,1-.14-.06.24.24,0,0,1-.08-.24l12.91-49.71a.2.2,0,0,1,.29-.14l54.23,16.32a.25.25,0,0,1,.17.21.24.24,0,0,1-.13.23L199,203.21A.2.2,0,0,1,198.88,203.24ZM212,153.59l-12.72,49,66.15-32.89Z" transform="translate(-198.654 -153.067)" fill="rgba(196,196,196,0.49)"/>
          </g>
          <g id="triangle36-56" data-name="triangle36" transform="translate(247.477 235.125)">
            <path id="Path_340" data-name="Path 340" d="M218,266.37a.24.24,0,0,1-.23-.17l-19.12-63.13a.24.24,0,0,1,.09-.26.23.23,0,0,1,.27,0L277.74,259a.23.23,0,0,1,.09.25.22.22,0,0,1-.2.17Zm-18.7-62.78,18.86,62.29,58.8-6.82Z" transform="translate(-198.641 -202.766)" fill="rgba(196,196,196,0.49)"/>
          </g>
          <g id="triangle36-57" data-name="triangle36" transform="translate(247.488 198.514)">
            <path id="Path_341" data-name="Path 341" d="M277.6,259.46a.2.2,0,0,1-.13,0l-78.72-56.23a.25.25,0,0,1-.1-.21.26.26,0,0,1,.13-.19l67.14-33.38a.2.2,0,0,1,.21,0,.24.24,0,0,1,.13.18l11.58,89.61a.25.25,0,0,1-.12.23A.24.24,0,0,1,277.6,259.46ZM199.34,203l78,55.68L265.83,170Z" transform="translate(-198.65 -169.42)" fill="rgba(196,196,196,0.49)"/>
          </g>
          <g id="triangle36-58" data-name="triangle36" transform="translate(216.536 306.291)">
            <path id="Path_342" data-name="Path 342" d="M177,310.59a.25.25,0,0,1-.17-.08.24.24,0,0,1,0-.32l41-44.22a.23.23,0,0,1,.24-.06.24.24,0,0,1,.17.18l2.41,11.64a.24.24,0,0,1-.09.23l-43.37,32.58a.3.3,0,0,1-.19.05Zm40.83-44L179,308.6l41.17-30.92Z" transform="translate(-176.769 -265.898)" fill="rgba(196,196,196,0.49)"/>
          </g>
          <g id="triangle36-59" data-name="triangle36" transform="translate(219.336 318.498)">
            <path id="Path_343" data-name="Path 343" d="M177,310.59a.24.24,0,0,1-.21-.14.26.26,0,0,1,.07-.29l43.37-32.57a.26.26,0,0,1,.29,0l27.36,20.61a.22.22,0,0,1,.08.24.24.24,0,0,1-.18.18l-70.74,12Zm43.38-32.52L178,310l69.24-11.72Z" transform="translate(-176.772 -277.546)" fill="rgba(196,196,196,0.49)"/>
          </g>
          <g id="triangle36-60" data-name="triangle36" transform="translate(219.383 357.83)">
            <path id="Path_344" data-name="Path 344" d="M243.69,372.57a.23.23,0,0,1-.15-.07l-66.66-62a.22.22,0,0,1-.06-.23.26.26,0,0,1,.18-.17l70.74-12a.22.22,0,0,1,.19.06.24.24,0,0,1,.08.19l-4.08,74a.23.23,0,0,1-.15.2ZM177.55,310.5l65.94,61.32,4-73.15Z" transform="translate(-176.809 -298.097)" fill="rgba(196,196,196,0.49)"/>
          </g>
          <g id="triangle36-61" data-name="triangle36" transform="translate(470.052 234.121)">
            <path id="Path_345" data-name="Path 345" d="M458.33,247.43l-81.18,51.1,26.21-99,55.09,23.27v-.5L403.3,198.94a.27.27,0,0,0-.2,0,.2.2,0,0,0-.12.15L376.54,299a.23.23,0,0,0,.09.25.24.24,0,0,0,.14,0,.22.22,0,0,0,.13,0L458.32,248Z" transform="translate(-376.532 -198.921)" fill="rgba(196,196,196,0.49)"/>
          </g>
          <g id="triangle36-62" data-name="triangle36" transform="translate(470.044 285.726)">
            <path id="Path_346" data-name="Path 346" d="M458.11,290.09l-80.36,8.61L458.32,248v-.56l-81.68,51.42a.21.21,0,0,0-.1.27.22.22,0,0,0,.22.16h0l81.31-8.72Z" transform="translate(-376.523 -247.44)" fill="rgba(196,196,196,0.49)"/>
          </g>
          <g id="triangle36-63" data-name="triangle36" transform="translate(496.484 227.624)">
            <path id="Path_347" data-name="Path 347" d="M458.46,222.25l-53.91-22.78,54,3.19v-.47l-55.34-3.26a.21.21,0,0,0-.24.18.24.24,0,0,0,.13.27l55.34,23.37Z" transform="translate(-402.964 -198.928)" fill="rgba(196,196,196,0.49)"/>
          </g>
          <g id="triangle36-64" data-name="triangle36" transform="translate(102.78 384.391)">
            <path id="Path_348" data-name="Path 348" d="M82.62,368.26a.24.24,0,0,1-.18-.39l27.33-32.66a.23.23,0,0,1,.18-.08l54-.19h0a.24.24,0,0,1,.23.19.23.23,0,0,1-.15.26L82.71,368.24Zm27.44-32.66L83.41,367.45l79.33-32Z" transform="translate(-82.387 -334.94)" fill="rgba(196,196,196,0.49)"/>
          </g>
          <g id="triangle36-65" data-name="triangle36" transform="translate(102.781 394.702)">
            <path id="Path_349" data-name="Path 349" d="M148.39,421.62a.19.19,0,0,1-.14-.05L82.48,368.2a.22.22,0,0,1-.09-.21.23.23,0,0,1,.15-.19L163.87,335a.23.23,0,0,1,.23,0,.25.25,0,0,1,.09.23l-15.56,86.21a.27.27,0,0,1-.15.18ZM83.08,368.09,148.23,421l15.42-85.41Z" transform="translate(-82.388 -334.969)" fill="rgba(196,196,196,0.49)"/>
          </g>
          <g id="triangle36-66" data-name="triangle36" transform="translate(135.949 355.043)">
            <path id="Path_350" data-name="Path 350" d="M110,335.6a.23.23,0,0,1-.23-.19.24.24,0,0,1,.15-.27l67.09-25a.218.218,0,0,1,.26.33l-13.09,24.82a.23.23,0,0,1-.2.13l-54,.19Zm66.6-24.81-65.29,24.33,52.55-.18Z" transform="translate(-109.766 -310.125)" fill="rgba(196,196,196,0.49)"/>
          </g>
          <g id="triangle36-67" data-name="triangle36" transform="translate(186.24 394.717)">
            <path id="Path_351" data-name="Path 351" d="M148.39,421.62a.25.25,0,0,1-.14,0,.24.24,0,0,1-.09-.23l15.57-86.22a.2.2,0,0,1,.12-.16.22.22,0,0,1,.21,0l79.73,37.16a.231.231,0,0,1,.01.42L148.5,421.6a.2.2,0,0,1-.11.02Zm15.74-86.1L148.71,421l94.45-48.62Z" transform="translate(-148.157 -334.983)" fill="rgba(196,196,196,0.49)"/>
          </g>
          <g id="triangle36-68" data-name="triangle36" transform="translate(204.076 369.88)">
            <path id="Path_352" data-name="Path 352" d="M243.69,372.57h-.09l-79.74-37.15a.23.23,0,0,1-.11-.33l13.09-24.82a.22.22,0,0,1,.16-.12.23.23,0,0,1,.2.06l66.66,62a.24.24,0,0,1-.17.41Zm-79.41-37.51,78.17,36.43-65.34-60.76Z" transform="translate(-163.718 -310.146)" fill="rgba(196,196,196,0.49)"/>
          </g>
          <g id="triangle36-69" data-name="triangle36" transform="translate(522.989 357.51)">
            <path id="Path_353" data-name="Path 353" d="M457.86,338.86l-27.61-10.28L458,312.65v-.54l-28.42,16.31a.22.22,0,0,0-.11.22.21.21,0,0,0,.15.2l28.24,10.52Z" transform="translate(-429.468 -312.11)" fill="rgba(196,196,196,0.49)"/>
          </g>
          <g id="triangle36-70" data-name="triangle36" transform="translate(260.42 134.204)">
            <path id="Path_354" data-name="Path 354" d="M211.79,153.52a.22.22,0,0,1-.19-.1.23.23,0,0,1,.06-.32l54.19-36.25a.24.24,0,0,1,.33.07.23.23,0,0,1-.07.32l-54.19,36.25A.19.19,0,0,1,211.79,153.52Z" transform="translate(-211.56 -116.812)" fill="rgba(196,196,196,0.49)"/>
          </g>
          <g id="triangle36-71" data-name="triangle36" transform="translate(260.469 134.963)">
            <path id="Path_355" data-name="Path 355" d="M266,169.85h0l-54.24-16.33a.23.23,0,0,1-.16-.19.24.24,0,0,1,.1-.22l54.19-36.25a.26.26,0,0,1,.24,0,.23.23,0,0,1,.13.21v52.57a.22.22,0,0,1-.1.18A.19.19,0,0,1,266,169.85Zm-53.68-16.64,53.45,16.09V117.49Z" transform="translate(-211.599 -116.831)" fill="rgba(196,196,196,0.49)"/>
          </g>
          <g id="triangle36-72" data-name="triangle36" transform="translate(327.105 134.991)">
            <path id="Path_356" data-name="Path 356" d="M266,169.85a.19.19,0,0,1-.12,0,.21.21,0,0,1-.11-.19V117.09a.23.23,0,0,1,.11-.2.21.21,0,0,1,.23,0L320,145.26a.26.26,0,0,1,.12.22.22.22,0,0,1-.14.2l-53.82,24.15Zm.2-52.41v51.81l53.05-23.8Z" transform="translate(-265.77 -116.856)" fill="rgba(196,196,196,0.49)"/>
          </g>
          <g id="triangle36-73" data-name="triangle36" transform="translate(327.073 38.59)">
            <path id="Path_357" data-name="Path 357" d="M319.84,145.7h-.1l-53.87-28.42a.24.24,0,0,1-.11-.29l28.18-78.24a.23.23,0,0,1,.23-.16.26.26,0,0,1,.22.18l25.68,106.66a.22.22,0,0,1-.08.24A.2.2,0,0,1,319.84,145.7Zm-53.57-28.76L319.5,145,294.11,39.62Z" transform="translate(-265.746 -38.59)" fill="rgba(196,196,196,0.49)"/>
          </g>
          <g id="triangle36-74" data-name="triangle36" transform="translate(498.865 388.121)">
            <path id="Path_358" data-name="Path 358" d="M457.69,371.39,406,406.32l23.83-77.2,27.94,35.95v-.76l-27.84-35.83a.25.25,0,0,0-.23-.09.23.23,0,0,0-.18.16l-24.17,78.27a.25.25,0,0,0,.09.25.24.24,0,0,0,.14.05.22.22,0,0,0,.13,0l52-35.12Z" transform="translate(-405.344 -328.387)" fill="rgba(196,196,196,0.49)"/>
          </g>
          <g id="triangle36-75" data-name="triangle36" transform="translate(498.826 431.163)">
            <path id="Path_359" data-name="Path 359" d="M457.45,419.54l-51.34-12.76L457.69,372v-.57l-52.28,35.3a.23.23,0,0,0-.1.24.21.21,0,0,0,.17.18l52,12.91Z" transform="translate(-405.305 -371.43)" fill="rgba(196,196,196,0.49)"/>
          </g>
          <g id="triangle36-76" data-name="triangle36" transform="translate(522.982 377.275)">
            <path id="Path_360" data-name="Path 360" d="M457.73,364.31l-27.34-35.18,27.47,10.23v-.5L429.78,328.4a.23.23,0,0,0-.27.08.24.24,0,0,0,0,.29l28.21,36.3Z" transform="translate(-429.461 -328.384)" fill="rgba(196,196,196,0.49)"/>
          </g>
          <path id="Path_361" data-name="Path 361" d="M418.41.94a2.45,2.45,0,1,0,2.44,2.46A2.45,2.45,0,0,0,418.41.94Z" transform="translate(93.521)" fill="rgba(196,196,196,0.49)"/>
          <path id="Path_362" data-name="Path 362" d="M418.41.94A2.45,2.45,0,1,1,416,3.37,2.45,2.45,0,0,1,418.41.94m0-.94a3.355,3.355,0,1,0,.01,0Z" transform="translate(93.521)" fill="rgba(196,196,196,0.49)"/>
          <path id="Path_363" data-name="Path 363" d="M34.32,400.46a1.51,1.51,0,1,0,1.072.456,1.51,1.51,0,0,0-1.072-.456Z" transform="translate(0 59.733)" fill="rgba(196,196,196,0.49)"/>
          <path id="Path_364" data-name="Path 364" d="M34.32,400.46a.763.763,0,1,0,.02.01m0-.94a1.82,1.82,0,1,1-.02.01Z" transform="translate(0 59.733)" fill="rgba(196,196,196,0.49)"/>
          <path id="Path_365" data-name="Path 365" d="M62.62,417.93A2.09,2.09,0,1,0,64.7,420,2.09,2.09,0,0,0,62.62,417.93Z" transform="translate(0 59.733)" fill="rgba(196,196,196,0.49)"/>
          <path id="Path_366" data-name="Path 366" d="M62.62,417.93a2.09,2.09,0,1,1-2.09,2.09,2.09,2.09,0,0,1,2.09-2.09m0-.94a3,3,0,1,0,2.139.9,3,3,0,0,0-2.139-.9Z" transform="translate(0 59.733)" fill="rgba(196,196,196,0.49)"/>
          <path id="Path_367" data-name="Path 367" d="M448.1,170.13a1.8,1.8,0,1,0,1.28.534,1.81,1.81,0,0,0-1.28-.534Z" transform="translate(93.521 23.401)" fill="rgba(196,196,196,0.49)"/>
          <path id="Path_368" data-name="Path 368" d="M448.1,170.13a1.8,1.8,0,1,1-1.286.52,1.81,1.81,0,0,1,1.286-.52m0-.94a2.75,2.75,0,1,0,2.73,2.77A2.75,2.75,0,0,0,448.1,169.19Z" transform="translate(93.521 23.373)" fill="rgba(196,196,196,0.49)"/>
          <circle id="Ellipse_1" data-name="Ellipse 1" cx="3.11" cy="3.11" r="3.11" transform="translate(391.68 244.454)" fill="rgba(196,196,196,0.49)"/>
          <path id="Path_369" data-name="Path 369" d="M327.82,214.74a3.11,3.11,0,1,1-3.12,3.09,3.11,3.11,0,0,1,3.12-3.09m0-.94a4.05,4.05,0,1,0,4,4.07,4.05,4.05,0,0,0-4-4.07Z" transform="translate(67.055 29.714)" fill="rgba(196,196,196,0.49)"/>
          <path id="Path_370" data-name="Path 370" d="M370.28,199.46a1.334,1.334,0,1,0-1.34,1.34,1.33,1.33,0,0,0,1.34-1.34Z" transform="translate(68.9 27.192)" fill="rgba(196,196,196,0.49)"/>
          <path id="Path_371" data-name="Path 371" d="M369,198.12a1.33,1.33,0,1,1-1.33,1.33,1.33,1.33,0,0,1,1.33-1.33m0-.94a2.27,2.27,0,1,0,2.26,2.28,2.27,2.27,0,0,0-2.26-2.28Z" transform="translate(75.368 27.179)" fill="rgba(196,196,196,0.49)"/>
          <path id="Path_372" data-name="Path 372" d="M403,169.89a3.07,3.07,0,1,0-3-3.08,3.07,3.07,0,0,0,3,3.08Z" transform="translate(93.521 22.655)" fill="rgba(196,196,196,0.49)"/>
          <path id="Path_373" data-name="Path 373" d="M403.08,163.76a3.06,3.06,0,1,1-2.173.886,3.07,3.07,0,0,1,2.173-.886m0-.93a4,4,0,1,0,4,4A4,4,0,0,0,403.08,162.83Z" transform="translate(93.521 22.625)" fill="rgba(196,196,196,0.49)"/>
          <path id="Path_374" data-name="Path 374" d="M404.81,17.27a1.92,1.92,0,1,0-1.92,1.91,1.92,1.92,0,0,0,1.92-1.91Z" transform="translate(93.521)" fill="rgba(196,196,196,0.49)"/>
          <path id="Path_375" data-name="Path 375" d="M402.91,15.35a1.92,1.92,0,1,1-1.93,1.9,1.92,1.92,0,0,1,1.93-1.9m0-.94a2.85,2.85,0,1,0,2.016.845,2.85,2.85,0,0,0-2.016-.845Z" transform="translate(93.521)" fill="rgba(196,196,196,0.49)"/>
          <path id="Path_376" data-name="Path 376" d="M263.86,290.82a2.76,2.76,0,1,0,1.959.815,2.77,2.77,0,0,0-1.959-.815Z" transform="translate(53.775 40.179)" fill="rgba(196,196,196,0.49)"/>
          <path id="Path_377" data-name="Path 377" d="M263.86,290.82a2.77,2.77,0,1,1-2.78,2.75,2.77,2.77,0,0,1,2.78-2.75m0-.94a3.71,3.71,0,1,0,3.68,3.72,3.71,3.71,0,0,0-3.68-3.72Z" transform="translate(53.8 40.224)" fill="rgba(196,196,196,0.49)"/>
          <path id="Path_378" data-name="Path 378" d="M306.2,400.28a2.38,2.38,0,1,0,2.37,2.39,2.38,2.38,0,0,0-2.37-2.39Z" transform="translate(62.469 59.733)" fill="rgba(196,196,196,0.49)"/>
          <path id="Path_379" data-name="Path 379" d="M306.2,400.28a2.38,2.38,0,1,1-2.189,1.141,2.38,2.38,0,0,1,2.189-1.141m0-.94a3.32,3.32,0,1,0,3.29,3.33,3.32,3.32,0,0,0-3.29-3.33Z" transform="translate(62.53 59.733)" fill="rgba(196,196,196,0.49)"/>
          <path id="Path_380" data-name="Path 380" d="M335.47,410a3.08,3.08,0,1,0,2.178.913A3.08,3.08,0,0,0,335.47,410Z" transform="translate(68.555 59.733)" fill="rgba(196,196,196,0.49)"/>
          <path id="Path_381" data-name="Path 381" d="M335.47,410a3.08,3.08,0,1,1-3.1,3.06,3.08,3.08,0,0,1,3.1-3.06m0-.94a4,4,0,1,0,4,4A4,4,0,0,0,335.47,409.06Z" transform="translate(68.646 59.733)" fill="rgba(196,196,196,0.49)"/>
          <path id="Path_382" data-name="Path 382" d="M349.35,350.91a1.73,1.73,0,1,0,1.72,1.73,1.73,1.73,0,0,0-1.72-1.73Z" transform="translate(71.272 59.733)" fill="rgba(196,196,196,0.49)"/>
          <path id="Path_383" data-name="Path 383" d="M349.35,350.91a1.73,1.73,0,1,1-1.74,1.72,1.73,1.73,0,0,1,1.74-1.72m0-.94a2.65,2.65,0,1,0,1.884.787A2.67,2.67,0,0,0,349.35,349.97Z" transform="translate(71.371 42.818)" fill="rgba(196,196,196,0.49)"/>
          <path id="Path_384" data-name="Path 384" d="M407.53,319.35a3.34,3.34,0,1,0,3.32,3.36,3.34,3.34,0,0,0-3.32-3.36Z" transform="translate(93.521 44.237)" fill="rgba(196,196,196,0.49)"/>
          <path id="Path_385" data-name="Path 385" d="M407.53,319.35a3.34,3.34,0,1,1-3.36,3.33,3.34,3.34,0,0,1,3.36-3.33m0-.94a4.28,4.28,0,1,0,3.024,1.271,4.28,4.28,0,0,0-3.024-1.271Z" transform="translate(93.521 44.3)" fill="rgba(196,196,196,0.49)"/>
          <path id="Path_386" data-name="Path 386" d="M2.32,381.12a1.37,1.37,0,1,0,.972.4,1.38,1.38,0,0,0-.972-.4Z" transform="translate(0 59.733)" fill="rgba(196,196,196,0.49)"/>
          <path id="Path_387" data-name="Path 387" d="M2.32,381.12a1.38,1.38,0,1,1-1.293.651,1.38,1.38,0,0,1,1.293-.651m0-.93a2.31,2.31,0,1,0,1.637.68,2.31,2.31,0,0,0-1.637-.68Z" transform="translate(0 59.733)" fill="rgba(196,196,196,0.49)"/>
          <path id="Path_388" data-name="Path 388" d="M68.87,341.31a2.22,2.22,0,1,0,2.21,2.23,2.22,2.22,0,0,0-2.21-2.23Z" transform="translate(0 47.034)" fill="rgba(196,196,196,0.49)"/>
          <path id="Path_389" data-name="Path 389" d="M68.87,341.31a2.21,2.21,0,1,1-1.576.64,2.22,2.22,0,0,1,1.576-.64m0-.94a3.135,3.135,0,1,1-.01,0Z" transform="translate(0 47.109)" fill="rgba(196,196,196,0.49)"/>
          <path id="Path_390" data-name="Path 390" d="M198.89,201.66a1.34,1.34,0,1,0,1.34,1.35,1.34,1.34,0,0,0-1.34-1.35Z" transform="translate(40.434 27.678)" fill="rgba(196,196,196,0.49)"/>
          <path id="Path_391" data-name="Path 391" d="M198.89,201.66a1.34,1.34,0,1,1-1.35,1.33,1.34,1.34,0,0,1,1.35-1.33m0-.94a2.28,2.28,0,1,0,2.27,2.29,2.28,2.28,0,0,0-2.27-2.29Z" transform="translate(40.406 27.668)" fill="rgba(196,196,196,0.49)"/>
          <path id="Path_392" data-name="Path 392" d="M277.62,256.17a3.06,3.06,0,1,0,3,3.07A3.06,3.06,0,0,0,277.62,256.17Z" transform="translate(56.611 35.439)" fill="rgba(196,196,196,0.49)"/>
          <path id="Path_393" data-name="Path 393" d="M277.62,256.17a3.06,3.06,0,1,1-3.08,3,3.06,3.06,0,0,1,3.08-3m0-.94a4,4,0,1,0,4,4A4,4,0,0,0,277.62,255.23Z" transform="translate(56.665 35.463)" fill="rgba(196,196,196,0.49)"/>
          <path id="Path_394" data-name="Path 394" d="M218,267.66a1.53,1.53,0,1,0-1.52-1.53,1.53,1.53,0,0,0,1.52,1.53Z" transform="translate(44.346 36.348)" fill="rgba(196,196,196,0.49)"/>
          <path id="Path_395" data-name="Path 395" d="M218,264.61a1.52,1.52,0,1,1-1.081.442A1.53,1.53,0,0,1,218,264.61m0-.94a2.47,2.47,0,1,0,2.45,2.48A2.47,2.47,0,0,0,218,263.67Z" transform="translate(44.33 36.377)" fill="rgba(196,196,196,0.49)"/>
          <path id="Path_396" data-name="Path 396" d="M220.42,276.05a1.73,1.73,0,1,0,1.72,1.74,1.73,1.73,0,0,0-1.72-1.74Z" transform="translate(44.836 37.955)" fill="rgba(196,196,196,0.49)"/>
          <path id="Path_397" data-name="Path 397" d="M220.42,276.05a1.73,1.73,0,1,1-1.73,1.72,1.73,1.73,0,0,1,1.73-1.72m0-.94a2.67,2.67,0,1,0,2.65,2.68A2.67,2.67,0,0,0,220.42,275.11Z" transform="translate(44.826 37.991)" fill="rgba(196,196,196,0.49)"/>
          <path id="Path_398" data-name="Path 398" d="M247.78,297a1.35,1.35,0,1,0,1.265.637A1.35,1.35,0,0,0,247.78,297Z" transform="translate(50.444 40.764)" fill="rgba(196,196,196,0.49)"/>
          <path id="Path_399" data-name="Path 399" d="M247.78,297a1.35,1.35,0,1,1-1.265.637A1.35,1.35,0,0,1,247.78,297m0-.94a2.28,2.28,0,1,0,1.613.678A2.29,2.29,0,0,0,247.78,296.06Z" transform="translate(50.453 40.812)" fill="rgba(196,196,196,0.49)"/>
          <path id="Path_400" data-name="Path 400" d="M376.78,296.7a2.35,2.35,0,1,0,2.34,2.36,2.35,2.35,0,0,0-2.34-2.36Z" transform="translate(93.521 40.911)" fill="rgba(196,196,196,0.49)"/>
          <path id="Path_401" data-name="Path 401" d="M376.78,296.7a2.35,2.35,0,1,1-2.36,2.33,2.35,2.35,0,0,1,2.36-2.33m0-.94a3.29,3.29,0,1,0,3.27,3.3,3.29,3.29,0,0,0-3.27-3.3Z" transform="translate(93.521 40.96)" fill="rgba(196,196,196,0.49)"/>
          <path id="Path_402" data-name="Path 402" d="M403.22,196.46a2.7,2.7,0,1,0,2.68,2.71,2.7,2.7,0,0,0-2.68-2.71Z" transform="translate(93.521 27.133)" fill="rgba(196,196,196,0.49)"/>
          <path id="Path_403" data-name="Path 403" d="M403.22,196.46a2.69,2.69,0,1,1-1.915.781,2.7,2.7,0,0,1,1.915-.781m0-.94a3.64,3.64,0,1,0,3.62,3.66,3.64,3.64,0,0,0-3.62-3.66Z" transform="translate(93.521 27.121)" fill="rgba(196,196,196,0.49)"/>
          <path id="Path_404" data-name="Path 404" d="M82.64,365.1a2.93,2.93,0,1,0,2.91,2.9,2.93,2.93,0,0,0-2.91-2.9Z" transform="translate(0 59.733)" fill="rgba(196,196,196,0.49)"/>
          <path id="Path_405" data-name="Path 405" d="M82.64,365.1a1.207,1.207,0,1,1,0-.01m0-.94a1.6,1.6,0,1,0,0-.03Z" transform="translate(0 59.733)" fill="rgba(196,196,196,0.49)"/>
          <path id="Path_406" data-name="Path 406" d="M111.63,335.37a1.69,1.69,0,1,0-.8,1.571,1.69,1.69,0,0,0,.8-1.571Z" transform="translate(22.191 45.889)" fill="rgba(196,196,196,0.49)"/>
          <path id="Path_407" data-name="Path 407" d="M110,333.68a1.69,1.69,0,1,1-1.571.8,1.69,1.69,0,0,1,1.571-.8m0-.94a2.62,2.62,0,1,0,1.853.778A2.63,2.63,0,0,0,110,332.74Z" transform="translate(22.096 45.94)" fill="rgba(196,196,196,0.49)"/>
          <path id="Path_408" data-name="Path 408" d="M148.41,418.74A2.65,2.65,0,1,0,151,421.4a2.65,2.65,0,0,0-2.59-2.66Z" transform="translate(29.993 59.733)" fill="rgba(196,196,196,0.49)"/>
          <path id="Path_409" data-name="Path 409" d="M148.41,418.74a2.65,2.65,0,1,1-2.66,2.64,2.65,2.65,0,0,1,2.66-2.64m0-.94a3.59,3.59,0,1,0,3.57,3.61A3.59,3.59,0,0,0,148.41,417.8Z" transform="translate(29.932 59.733)" fill="rgba(196,196,196,0.49)"/>
          <path id="Path_410" data-name="Path 410" d="M164,332.41a2.76,2.76,0,1,0,1.952.819A2.77,2.77,0,0,0,164,332.41Z" transform="translate(33.204 45.925)" fill="rgba(196,196,196,0.49)"/>
          <path id="Path_411" data-name="Path 411" d="M164,332.41a2.75,2.75,0,1,1-1.964.795A2.77,2.77,0,0,1,164,332.41m0-.94a3.7,3.7,0,1,0,2.617,1.094A3.71,3.71,0,0,0,164,331.47Z" transform="translate(33.147 45.995)" fill="rgba(196,196,196,0.49)"/>
          <path id="Path_412" data-name="Path 412" d="M243.71,369.92a2.42,2.42,0,1,0,2.4,2.42A2.42,2.42,0,0,0,243.71,369.92Z" transform="translate(49.618 59.733)" fill="rgba(196,196,196,0.49)"/>
          <path id="Path_413" data-name="Path 413" d="M243.71,369.92a2.4,2.4,0,1,1-1.716.692,2.42,2.42,0,0,1,1.716-.692m0-.94a3.35,3.35,0,1,0,3.34,3.37,3.35,3.35,0,0,0-3.34-3.37Z" transform="translate(49.632 59.733)" fill="rgba(196,196,196,0.49)"/>
          <path id="Path_414" data-name="Path 414" d="M177.05,308.58a1.77,1.77,0,1,0,1.255.522,1.77,1.77,0,0,0-1.255-.522Z" transform="translate(35.944 42.436)" fill="rgba(196,196,196,0.49)"/>
          <path id="Path_415" data-name="Path 415" d="M177.05,308.58a1.77,1.77,0,1,1-1.78,1.76,1.77,1.77,0,0,1,1.78-1.76m0-.94a2.71,2.71,0,1,0,2.69,2.73,2.71,2.71,0,0,0-2.69-2.73Z" transform="translate(35.895 42.491)" fill="rgba(196,196,196,0.49)"/>
          <path id="Path_416" data-name="Path 416" d="M211.8,151.17a2.12,2.12,0,1,0,2.11,2.13,2.12,2.12,0,0,0-2.11-2.13Z" transform="translate(43.062 20.822)" fill="rgba(196,196,196,0.49)"/>
          <path id="Path_417" data-name="Path 417" d="M211.8,151.17a2.12,2.12,0,1,1-2.13,2.11,2.12,2.12,0,0,1,2.13-2.11m0-.94a3.06,3.06,0,1,0,3,3.08,3.06,3.06,0,0,0-3-3.08Z" transform="translate(43.037 20.783)" fill="rgba(196,196,196,0.49)"/>
          <path id="Path_418" data-name="Path 418" d="M266,168a1.57,1.57,0,1,0,1.114.463A1.58,1.58,0,0,0,266,168Z" transform="translate(54.177 23.083)" fill="rgba(196,196,196,0.49)"/>
          <path id="Path_419" data-name="Path 419" d="M266,168a1.58,1.58,0,1,1-1.58,1.57A1.58,1.58,0,0,1,266,168m0-.94a2.52,2.52,0,1,0,2.5,2.53,2.52,2.52,0,0,0-2.5-2.53Z" transform="translate(54.205 23.054)" fill="rgba(196,196,196,0.49)"/>
          <path id="Path_420" data-name="Path 420" d="M271.68,29.21a2.5,2.5,0,1,0,2.49,2.51,2.5,2.5,0,0,0-2.49-2.51Z" transform="translate(55.375)" fill="rgba(196,196,196,0.49)"/>
          <path id="Path_421" data-name="Path 421" d="M271.68,29.21a2.5,2.5,0,1,1-2.52,2.49,2.5,2.5,0,0,1,2.52-2.49m0-.94a3.44,3.44,0,1,0,2.433,1.018,3.44,3.44,0,0,0-2.433-1.018Z" transform="translate(55.411)" fill="rgba(196,196,196,0.49)"/>
          <path id="Path_422" data-name="Path 422" d="M266,120.44a3.38,3.38,0,1,0-2.424-1,3.39,3.39,0,0,0,2.424,1Z" transform="translate(54.236 15.748)" fill="rgba(196,196,196,0.49)"/>
          <path id="Path_423" data-name="Path 423" d="M266,113.66a3.39,3.39,0,1,1-3.4,3.37,3.39,3.39,0,0,1,3.4-3.37m0-.94a4.33,4.33,0,1,0,4.3,4.35A4.33,4.33,0,0,0,266,112.72Z" transform="translate(54.263 15.686)" fill="rgba(196,196,196,0.49)"/>
          <path id="Path_424" data-name="Path 424" d="M319.85,143.74a1.72,1.72,0,1,0,1.223.511,1.73,1.73,0,0,0-1.223-.511Z" transform="translate(65.223 19.764)" fill="rgba(196,196,196,0.49)"/>
          <path id="Path_425" data-name="Path 425" d="M319.85,143.74a1.72,1.72,0,1,1-1.223.5,1.73,1.73,0,0,1,1.223-.5m0-.94a2.66,2.66,0,1,0,1.882.79A2.67,2.67,0,0,0,319.85,142.8Z" transform="translate(65.297 19.72)" fill="rgba(196,196,196,0.49)"/>
          <path id="Path_426" data-name="Path 426" d="M294.17,36.88a1.93,1.93,0,1,0,1.91,1.93,1.93,1.93,0,0,0-1.91-1.93Z" transform="translate(59.967)" fill="rgba(196,196,196,0.49)"/>
          <path id="Path_427" data-name="Path 427" d="M294.17,36.88a1.92,1.92,0,1,1-1.364.559,1.93,1.93,0,0,1,1.364-.559m0-.94a2.815,2.815,0,1,1-.02,0Z" transform="translate(60.018)" fill="rgba(196,196,196,0.49)"/>
          <path id="Path_428" data-name="Path 428" d="M405.55,405.09a1.8,1.8,0,1,0,1.79,1.8A1.8,1.8,0,0,0,405.55,405.09Z" transform="translate(93.521 59.733)" fill="rgba(196,196,196,0.49)"/>
          <path id="Path_429" data-name="Path 429" d="M405.55,405.09a1.8,1.8,0,1,1-1.81,1.79,1.8,1.8,0,0,1,1.81-1.79m0-.94a2.74,2.74,0,1,0,2.72,2.75,2.74,2.74,0,0,0-2.72-2.75Z" transform="translate(93.521 59.733)" fill="rgba(196,196,196,0.49)"/>
          <circle id="Ellipse_2" data-name="Ellipse 2" cx="2.24" cy="2.24" r="2.24" transform="translate(520.981 371.361)" fill="rgba(196,196,196,0.49)"/>
          <path id="Path_430" data-name="Path 430" d="M429.71,326.39a2.23,2.23,0,1,1-1.586.642,2.24,2.24,0,0,1,1.586-.642m0-.94a3.17,3.17,0,1,0,2.242.939,3.18,3.18,0,0,0-2.242-.939Z" transform="translate(93.521 45.048)" fill="rgba(196,196,196,0.49)"/>
        </g>
      </g>
    </g>
  </g>
</svg>
