<svg xmlns="http://www.w3.org/2000/svg" xmlns:xlink="http://www.w3.org/1999/xlink" width="552" height="1297" viewBox="0 0 552 1297">
  <defs>
    <clipPath id="clip-path">
      <rect id="Rectangle_1" data-name="Rectangle 1" width="1297" height="552" transform="translate(4299 1543) rotate(90)" fill="#fff" stroke="#707070" stroke-width="1"/>
    </clipPath>
    <clipPath id="clip-path-2">
      <path id="Path_2" data-name="Path 2" d="M0,0H94c8.837,0,16,8.97,16,20.035V108.94c0,11.065-7.163,20.035-16,20.035H0Z" transform="translate(0 0)" fill="#fff"/>
    </clipPath>
  </defs>
  <g id="Mask_Group_1" data-name="Mask Group 1" transform="translate(-3747 -1543)" clip-path="url(#clip-path)">
    <g id="Group_11" data-name="Group 11" transform="translate(3655.634 1529.82)">
      <g id="Group_10" data-name="Group 10" transform="translate(0)">
        <g id="Group_9" data-name="Group 9">
          <g id="Group_8" data-name="Group 8" transform="translate(808.869 0) rotate(90)">
            <rect id="Rectangle_3" data-name="Rectangle 3" width="693" height="553.466" transform="translate(635.18 160.313)" fill="#fff"/>
            <g id="Group_7" data-name="Group 7" transform="translate(0 0)">
              <g id="Group_1" data-name="Group 1" transform="translate(208.362 679.893)" clip-path="url(#clip-path-2)">
                <path id="Path_1" data-name="Path 1" d="M30.914,59.453C28.493,34.755,11.669,9.792,0,0H110.437V128.885c4.156.123,2.59.72,0,1.213v-1.213c-3.7-.11-11.959.158-28.092,1.213C39.558,132.9,35,101.147,30.914,59.453Z" transform="translate(0.373 0)" fill="none"/>
              </g>
              <path id="wave_4_" data-name="wave (4)" d="M0,288l30.723-21.3c30.723-21.7,92.17-63.7,153.616-112C245.785,107,307.232,53,368.678,26.7,430.124,0,491.571,0,522.294,0h30.723V320H0Z" transform="translate(318.362 714.707) rotate(-90)" fill="#fff"/>
              <g id="Layer_1" data-name="Layer 1" transform="matrix(0.999, -0.052, 0.052, 0.999, 746.893, 61.883)">
                <g id="triangle36" transform="translate(512.922 3.671)">
                  <path id="Path_135" data-name="Path 135" d="M56.3,55.758.672,17.7,15.931.606l40.631,37.18.008-.726L16.057.054a.2.2,0,0,0-.3,0L.063,17.633a.354.354,0,0,0-.073.251.3.3,0,0,0,.108.224L56.285,56.484Z" transform="translate(0 0)" fill="rgba(196,196,196,0.26)"/>
                </g>
                <g id="triangle36-2" data-name="triangle36" transform="translate(512.91 21.172)">
                  <path id="Path_136" data-name="Path 136" d="M55.545,91.3,1.093,1.207,56.307,38.92l.007-.676L.345.041A.194.194,0,0,0,.054.107a.361.361,0,0,0,0,.375l55.475,91.78Z" transform="translate(0 0)" fill="rgba(196,196,196,0.26)"/>
                </g>
                <g id="triangle36-3" data-name="triangle36" transform="translate(292.101 664.558)">
                  <path id="Path_137" data-name="Path 137" d="M1.1,44.206,76.973.662l6.941,42.979.48-.006L77.378.181a.275.275,0,0,0-.128-.2.166.166,0,0,0-.2,0L-.028,44.221Z" transform="translate(0 0)" fill="rgba(196,196,196,0.26)"/>
                </g>
                <g id="triangle36-4" data-name="triangle36" transform="translate(511.029 686.615)">
                  <path id="Path_138" data-name="Path 138" d="M49.689-.032-.013,20.394l1.521-.008L49.673.581Z" transform="translate(0 0)" fill="rgba(196,196,196,0.26)"/>
                </g>
                <g id="triangle36-5" data-name="triangle36" transform="translate(528.611 1.371)">
                  <path id="Path_139" data-name="Path 139" d="M40.89,39.36.913,2.785,41.459.561l.006-.588L.228,2.231a.253.253,0,0,0-.222.216.337.337,0,0,0,.087.312l40.79,37.328Z" transform="translate(0 0)" fill="rgba(196,196,196,0.26)"/>
                </g>
                <g id="triangle36-6" data-name="triangle36" transform="translate(510.139 281.428)">
                  <path id="Path_140" data-name="Path 140" d="M55.568,37.929,1.012,34.656,45.5.61l10.5,10.185L56,10.044,45.661.019a.193.193,0,0,0-.26,0L.091,34.668a.315.315,0,0,0-.1.327A.221.221,0,0,0,.2,35.2l55.365,3.363Z" transform="translate(0 0)" fill="rgba(196,196,196,0.26)"/>
                </g>
                <g id="triangle36-7" data-name="triangle36" transform="translate(51.843 690.291)">
                  <path id="Path_141" data-name="Path 141" d="M.537,20.494,9.746,1.177l1.608,19.237.47-.006L10.126.246A.253.253,0,0,0,9.948,0,.23.23,0,0,0,9.7.139L-.013,20.514Z" transform="translate(0 0)" fill="rgba(196,196,196,0.26)"/>
                </g>
                <g id="triangle36-8" data-name="triangle36" transform="translate(500.514 667.953)">
                  <path id="Path_142" data-name="Path 142" d="M49.689-.032-.013,20.394l1.521-.008L49.673.581Z" transform="translate(10.515 18.662)" fill="rgba(196,196,196,0.26)"/>
                  <path id="Path_143" data-name="Path 143" d="M60.248,15.439,8.532,0a.247.247,0,0,0-.292.217l-8.264,38.9.54-.007L8.685.626,60.242,16.014Z" transform="translate(0 0)" fill="rgba(196,196,196,0.26)"/>
                </g>
                <g id="triangle36-9" data-name="triangle36" transform="translate(512.291 495.642)">
                  <path id="Path_144" data-name="Path 144" d="M50.88,11.194,22.316,31.916.977,25.04,51.032.605l.007-.638L.138,24.888a.307.307,0,0,0-.153.3.261.261,0,0,0,.167.261L22.279,32.58h.06a.217.217,0,0,0,.12,0L50.873,11.869Z" transform="translate(0)" fill="rgba(196,196,196,0.26)"/>
                </g>
                <g id="triangle36-10" data-name="triangle36" transform="translate(379.425 664.302)">
                  <path id="Path_145" data-name="Path 145" d="M7.493,43.74.561.774,29.057,13.1,16.368,43.648l.53-.007L29.6,13.055a.353.353,0,0,0,0-.25.219.219,0,0,0-.138-.161L.319.039a.2.2,0,0,0-.24,0A.356.356,0,0,0,.005.331L7,43.659Z" transform="translate(0 0)" fill="rgba(196,196,196,0.26)"/>
                </g>
                <g id="triangle36-11" data-name="triangle36" transform="translate(399.641 676.925)">
                  <path id="Path_146" data-name="Path 146" d="M.511,31.006,13.014.885,27.878,30.821l.55-.007L13.2.131A.18.18,0,0,0,12.994,0a.246.246,0,0,0-.2.153L-.02,31Z" transform="translate(0 0)" fill="rgba(196,196,196,0.26)"/>
                </g>
                <g id="triangle36-12" data-name="triangle36" transform="translate(420.448 676.762)">
                  <path id="Path_147" data-name="Path 147" d="M15.091,30.878l.55-.007L.837,1.034,52.214,30.627l1.121-.015L.318.027A.2.2,0,0,0,.047.106a.363.363,0,0,0,0,.35Z" transform="translate(0 0)" fill="rgba(196,196,196,0.26)"/>
                </g>
                <g id="triangle36-13" data-name="triangle36" transform="translate(438.632 667.976)">
                  <path id="Path_148" data-name="Path 148" d="M.028,9.153l52.1,30.009,1.121-.015L1.02,9.077,70.037.6l-8.18,38.5.54-.007L70.63.315a.417.417,0,0,0,0-.263.265.265,0,0,0-.2-.1L.215,8.588A.263.263,0,0,0,0,8.826a.3.3,0,0,0,.13.313Z" transform="translate(0 0)" fill="rgba(196,196,196,0.26)"/>
                </g>
                <g id="triangle36-14" data-name="triangle36" transform="translate(61.505 690.261)">
                  <path id="Path_149" data-name="Path 149" d="M2.152,20.45.517.889,24.7,20.291l.871-.011L.366.04a.224.224,0,0,0-.26,0A.328.328,0,0,0,0,.332l1.679,20.1Z" transform="translate(0 0)" fill="rgba(196,196,196,0.26)"/>
                </g>
                <g id="triangle36-15" data-name="triangle36" transform="translate(276.322 424.756)">
                  <path id="Path_150" data-name="Path 150" d="M2.473,24.483a.162.162,0,0,1-.11,0,.262.262,0,0,1-.108-.2L0,9.75A.366.366,0,0,1,.04,9.521.247.247,0,0,1,.2,9.4L59.933-.037A.238.238,0,0,1,60.181.2a.308.308,0,0,1-.164.34L2.553,24.482ZM.506,9.906,2.661,23.8,57.632.882Z" transform="translate(0 0)" fill="rgba(196,196,196,0.26)"/>
                </g>
                <g id="triangle36-16" data-name="triangle36" transform="translate(29.923 668.087)">
                  <path id="Path_151" data-name="Path 151" d="M.4,42.888,3.928.8,31.494,22.582,21.906,42.73l.55-.007,9.557-20.072a.343.343,0,0,0-.076-.4L3.856.035a.191.191,0,0,0-.23,0,.3.3,0,0,0-.133.24L-.027,42.894Z" transform="translate(0 0)" fill="rgba(196,196,196,0.26)"/>
                </g>
                <g id="triangle36-17" data-name="triangle36" transform="translate(33.444 625.008)">
                  <path id="Path_152" data-name="Path 152" d="M28.292,65.858a.224.224,0,0,1-.13,0L.08,43.63a.353.353,0,0,1-.108-.236.367.367,0,0,1,.1-.252L48.876.03a.2.2,0,0,1,.28,0,.316.316,0,0,1,.067.324l-20.7,65.341a.274.274,0,0,1-.152.165ZM.633,43.373l27.546,21.8L48.5,1.086Z" transform="translate(0 0)" fill="rgba(196,196,196,0.26)"/>
                </g>
                <g id="triangle36-18" data-name="triangle36" transform="translate(61.553 624.939)">
                  <path id="Path_153" data-name="Path 153" d="M86,66.5h0L.172,65.926a.257.257,0,0,1-.189-.135.337.337,0,0,1,0-.263L20.685.187A.261.261,0,0,1,20.84,0a.186.186,0,0,1,.207.06L86.159,65.983a.316.316,0,0,1,.067.324A.245.245,0,0,1,86,66.5ZM.579,65.333l84.811.572L21.04.771Z" transform="translate(0 0)" fill="rgba(196,196,196,0.26)"/>
                </g>
                <g id="triangle36-19" data-name="triangle36" transform="translate(61.539 690.239)">
                  <path id="Path_154" data-name="Path 154" d="M24.663,20.312l.871-.011L1.007.6l84.13.569-27.1,18.889,1-.013L86.178,1.133a.343.343,0,0,0,.114-.339.239.239,0,0,0-.218-.21L.243,0h0A.257.257,0,0,0,.011.2a.335.335,0,0,0,.1.337Z" transform="translate(0 0)" fill="rgba(196,196,196,0.26)"/>
                </g>
                <g id="triangle36-20" data-name="triangle36" transform="translate(148.66 690.462)">
                  <path id="Path_155" data-name="Path 155" d="M.918,19.48l26.358-18.4-9.1,18.251.55-.007L28.143.427a.314.314,0,0,0,0-.35.2.2,0,0,0-.28-.059L-.012,19.455Z" transform="translate(0 0)" fill="rgba(196,196,196,0.26)"/>
                </g>
                <g id="triangle36-21" data-name="triangle36" transform="translate(174.208 690.367)">
                  <path id="Path_156" data-name="Path 156" d="M.538,19.357,9.86.652,61.646,18.94l1.711-.022L9.827,0a.237.237,0,0,0-.272.141l-9.567,19.2Z" transform="translate(0 0)" fill="rgba(196,196,196,0.26)"/>
                </g>
                <g id="triangle36-22" data-name="triangle36" transform="translate(359.528 370.871)">
                  <path id="Path_157" data-name="Path 157" d="M98.909,101.463h-.09L.115,52.949a.288.288,0,0,1-.148-.236.35.35,0,0,1,.083-.264L50.841,0a.158.158,0,0,1,.19,0,.23.23,0,0,1,.159.136L99.153,101.1a.363.363,0,0,1,0,.35A.208.208,0,0,1,98.909,101.463ZM.66,52.554l97.7,48.028L50.924.637Z" transform="translate(0 0)" fill="rgba(196,196,196,0.26)"/>
                </g>
                <g id="triangle36-23" data-name="triangle36" transform="translate(413.21 343.798)">
                  <path id="Path_158" data-name="Path 158" d="M48.167,125.107a.213.213,0,0,1-.2-.148L.005,24a.338.338,0,0,1,0-.238.3.3,0,0,1,.132-.189L41.551.011a.183.183,0,0,1,.22,0,.349.349,0,0,1,.108.224L48.4,124.753a.3.3,0,0,1-.163.3ZM.585,24.026l47.287,99.633L41.442.776Z" transform="translate(0 0)" fill="rgba(196,196,196,0.26)"/>
                </g>
                <g id="triangle36-24" data-name="triangle36" transform="translate(475.57 342.646)">
                  <path id="Path_159" data-name="Path 159" d="M6.729,125.926h0a.271.271,0,0,1-.207-.273L0,1.121A.418.418,0,0,1,.062.895.222.222,0,0,1,.243.8L34.52-.022A.407.407,0,0,1,34.709.1a.354.354,0,0,1,0,.25L6.962,125.7a.254.254,0,0,1-.233.228ZM.467,1.377,6.88,123.922,34.193.62Z" transform="translate(0 0)" fill="rgba(196,196,196,0.26)"/>
                </g>
                <g id="triangle36-25" data-name="triangle36" transform="translate(481.834 476.245)">
                  <path id="Path_160" data-name="Path 160" d="M81.49,16.218,30.71,41.087.825,12.425,81.725.535l.006-.588L.2,11.933a.275.275,0,0,0-.2.217.344.344,0,0,0,.072.31L30.524,41.653a.207.207,0,0,0,.139.061h.09l50.73-24.856Z" transform="translate(0 0)" fill="rgba(196,196,196,0.26)"/>
                </g>
                <g id="triangle36-26" data-name="triangle36" transform="translate(475.908 273.938)">
                  <path id="Path_161" data-name="Path 161" d="M.227,41.8a.226.226,0,0,1-.218-.172.381.381,0,0,1,0-.325L34.585.028a.185.185,0,0,1,.25,0A.325.325,0,0,1,34.983.3L34.7,40.757a.271.271,0,0,1-.233.291L.176,41.862ZM34.556.917.823,41.2l33.457-.791Z" transform="translate(0 0)" fill="rgba(196,196,196,0.26)"/>
                </g>
                <g id="triangle36-27" data-name="triangle36" transform="translate(511.231 21.174)">
                  <path id="Path_162" data-name="Path 162" d="M56.329,152.6.346,187,2.142,1.213l55.072,91.1.01-.964L2.1.112a.2.2,0,0,0-.259-.1.311.311,0,0,0-.163.277l-1.8,187.184a.316.316,0,0,0,.107.249.194.194,0,0,0,.12,0h.1L56.322,153.2Z" transform="translate(0 0)" fill="rgba(196,196,196,0.26)"/>
                </g>
                <g id="triangle36-28" data-name="triangle36" transform="translate(510.162 273.86)">
                  <path id="Path_163" data-name="Path 163" d="M.2,41.01a.162.162,0,0,1-.11,0,.3.3,0,0,1-.117-.249L.26.3A.351.351,0,0,1,.332.077.277.277,0,0,1,.523,0L45.487,5.814a.238.238,0,0,1,.2.223.326.326,0,0,1-.113.314L.3,41.008a.225.225,0,0,1-.1,0ZM.727.585.45,40.193,44.772,6.274Z" transform="translate(0 0)" fill="rgba(196,196,196,0.26)"/>
                </g>
                <g id="triangle36-29" data-name="triangle36" transform="translate(510.591 228.624)">
                  <path id="Path_164" data-name="Path 164" d="M56.036,24.144,45.08,40.33,1.015,34.654,56.4.614l.007-.651L.116,34.578a.3.3,0,0,0-.133.315.253.253,0,0,0,.2.235l44.964,5.8h0a.206.206,0,0,0,.181-.115L56.007,25.058Z" transform="translate(0 0)" fill="rgba(196,196,196,0.26)"/>
                </g>
                <g id="triangle36-30" data-name="triangle36" transform="translate(555.478 258.359)">
                  <path id="Path_165" data-name="Path 165" d="M10.763,22.621.593,16.386,11.082.919l.01-.926L.044,16.305a.441.441,0,0,0-.053.251.274.274,0,0,0,.128.2l10.627,6.517Z" transform="translate(0 0)" fill="rgba(196,196,196,0.26)"/>
                </g>
                <g id="triangle36-31" data-name="triangle36" transform="translate(555.421 277.935)">
                  <path id="Path_166" data-name="Path 166" d="M10.726,10.028,2.218,1.769l8.55,5.243.006-.588L.345.029A.22.22,0,0,0,.034.146.349.349,0,0,0,.09.533l10.617,10.3Z" transform="translate(0 0)" fill="rgba(196,196,196,0.26)"/>
                </g>
                <g id="triangle36-32" data-name="triangle36" transform="translate(189.681 627.736)">
                  <path id="Path_167" data-name="Path 167" d="M.128,63.132,52.084,81.493l1.711-.022L.8,62.773,95.767.808,72.136,81.354l.51-.007L96.433.3a.331.331,0,0,0-.067-.312.193.193,0,0,0-.26,0L.093,62.644a.329.329,0,0,0-.133.29A.241.241,0,0,0,.128,63.132Z" transform="translate(0)" fill="rgba(196,196,196,0.26)"/>
                </g>
                <g id="triangle36-33" data-name="triangle36" transform="translate(280.848 627.416)">
                  <path id="Path_168" data-name="Path 168" d="M.479,81.417,24.171.682l61.447,36.73L8.984,81.392l1.131-.015L86.276,37.692a.307.307,0,0,0,.139-.265.29.29,0,0,0-.134-.261L24.149.007a.2.2,0,0,0-.19,0,.384.384,0,0,0-.142.177L-.052,81.436Z" transform="translate(0 0)" fill="rgba(196,196,196,0.26)"/>
                </g>
                <g id="triangle36-34" data-name="triangle36" transform="translate(276.887 456.318)">
                  <path id="Path_169" data-name="Path 169" d="M27.346,25.968a.207.207,0,0,1-.139-.061L.089.525A.334.334,0,0,1,.033.15.215.215,0,0,1,.324.021l43.252,19.2a.3.3,0,0,1,.154.28.314.314,0,0,1-.16.284L27.416,26ZM1.593,1.168l25.76,24.187L42.7,19.434Z" transform="translate(0 0)" fill="rgba(196,196,196,0.26)"/>
                </g>
                <g id="triangle36-35" data-name="triangle36" transform="translate(278.826 428.584)">
                  <path id="Path_170" data-name="Path 170" d="M43.473,43.735h-.08L.132,24.51a.315.315,0,0,1-.147-.286.311.311,0,0,1,.163-.277L57.622-.022a.191.191,0,0,1,.239.084.339.339,0,0,1,.047.312L43.7,43.544a.266.266,0,0,1-.222.191ZM.945,24.274,43.35,43.1,57.283.783Z" transform="translate(0 0)" fill="rgba(196,196,196,0.26)"/>
                </g>
                <g id="triangle36-36" data-name="triangle36" transform="translate(301.069 528.648)">
                  <path id="Path_171" data-name="Path 171" d="M.135,99.388h0a.2.2,0,0,1-.149-.1.319.319,0,0,1-.048-.2L5,6.488a.29.29,0,0,1,.173-.265L21.313,0a.187.187,0,0,1,.23.06.36.36,0,0,1,.067.287L.4,99.171A.243.243,0,0,1,.135,99.388ZM5.423,6.72.539,96.166,21.014.8Z" transform="translate(0 0)" fill="rgba(196,196,196,0.26)"/>
                </g>
                <g id="triangle36-37" data-name="triangle36" transform="translate(344.313 429.677)">
                  <path id="Path_172" data-name="Path 172" d="M113.112,49.1h0L.186,43.755A.257.257,0,0,1,0,43.62a.337.337,0,0,1,0-.263L14.213.175A.324.324,0,0,1,14.345.01a.228.228,0,0,1,.18,0l98.714,48.527a.29.29,0,0,1,.162.332.248.248,0,0,1-.258.232ZM.533,43.175l111.206,5.267L14.528.659Z" transform="translate(0 0)" fill="rgba(196,196,196,0.26)"/>
                </g>
                <g id="triangle36-38" data-name="triangle36" transform="translate(338.732 291.629)">
                  <path id="Path_173" data-name="Path 173" d="M10.635,112.578h-.08a.313.313,0,0,1-.148-.236L0,.349a.35.35,0,0,1,.123-.3.208.208,0,0,1,.26,0L61.621,59.6a.31.31,0,0,1,.088.224.378.378,0,0,1-.083.239l-50.79,52.449a.218.218,0,0,1-.2.065ZM.535.955l10.29,110.769L61.048,59.846Z" transform="translate(0 0)" fill="rgba(196,196,196,0.26)"/>
                </g>
                <g id="triangle36-39" data-name="triangle36" transform="translate(338.9 246.531)">
                  <path id="Path_174" data-name="Path 174" d="M61.405,91.034a.2.2,0,0,1-.149-.061L.069,31.428a.332.332,0,0,1-.087-.262.325.325,0,0,1,.143-.24L54.3-.006a.213.213,0,0,1,.21,0,.315.315,0,0,1,.118.224l7.052,90.478a.29.29,0,0,1-.123.289.175.175,0,0,1-.151.052ZM.671,31.258l60.414,58.83L54.162.7Z" transform="translate(0 0)" fill="rgba(196,196,196,0.26)"/>
                </g>
                <g id="triangle36-40" data-name="triangle36" transform="translate(403.824 21.203)">
                  <path id="Path_175" data-name="Path 175" d="M24.519,162.1h0a.264.264,0,0,1-.188-.223L0,28.73A.355.355,0,0,1,0,28.5a.261.261,0,0,1,.152-.14L109.282-.064a.208.208,0,0,1,.239.122.316.316,0,0,1,0,.325L24.68,161.971a.259.259,0,0,1-.161.127ZM.507,28.9,24.69,161.069,108.824.693Z" transform="translate(0 0)" fill="rgba(196,196,196,0.26)"/>
                </g>
                <g id="triangle36-41" data-name="triangle36" transform="translate(404.489 246.413)">
                  <path id="Path_176" data-name="Path 176" d="M7.289,91.017a.218.218,0,0,1-.12,0,.328.328,0,0,1-.118-.224L0,.317A.322.322,0,0,1,.146.026a.2.2,0,0,1,.266.06L48.835,67.02a.379.379,0,0,1,.057.262.311.311,0,0,1-.142.2L7.339,91.054a.142.142,0,0,1-.05-.037ZM.582,1.11,7.487,90.288,48.3,67.064Z" transform="translate(0 0)" fill="rgba(196,196,196,0.26)"/>
                </g>
                <g id="triangle36-42" data-name="triangle36" transform="translate(427.556 242.98)">
                  <path id="Path_177" data-name="Path 177" d="M48.634,67.519h0a.247.247,0,0,1-.169-.085L.043.5a.363.363,0,0,1,0-.35A.22.22,0,0,1,.308.009l83,25.635a.268.268,0,0,1,.168.211.371.371,0,0,1-.073.289L48.836,67.417A.215.215,0,0,1,48.634,67.519ZM.91.839,48.642,66.806,82.678,26.178Z" transform="translate(0 0)" fill="rgba(196,196,196,0.26)"/>
                </g>
                <g id="triangle36-43" data-name="triangle36" transform="translate(428.222 21.174)">
                  <path id="Path_178" data-name="Path 178" d="M83.117,187.762h-.06L.071,162.128a.26.26,0,0,1-.159-.179.368.368,0,0,1,.024-.27L84.733.142a.284.284,0,0,1,.122-.169.189.189,0,0,1,.18-.01A.276.276,0,0,1,85.2.236L83.4,187.42a.3.3,0,0,1-.1.227.235.235,0,0,1-.181.115ZM.507,161.646l82.388,25.443L84.681,1.294Z" transform="translate(0 0)" fill="rgba(196,196,196,0.26)"/>
                </g>
                <g id="triangle36-44" data-name="triangle36" transform="translate(314.973 528.441)">
                  <path id="Path_179" data-name="Path 179" d="M.162,99.411a.225.225,0,0,1-.18-.12.359.359,0,0,1-.036-.253L21.147.218a.292.292,0,0,1,.152-.2.213.213,0,0,1,.21,0L106.28,72.787a.334.334,0,0,1,.092.3.286.286,0,0,1-.188.235L.212,99.4ZM21.521.813.479,98.693l105.06-25.81Z" transform="translate(0 0)" fill="rgba(196,196,196,0.26)"/>
                </g>
                <g id="triangle36-45" data-name="triangle36" transform="translate(314.924 601.283)">
                  <path id="Path_180" data-name="Path 180" d="M62.356,63.691h-.1L.113,26.558a.3.3,0,0,1-.127-.3.3.3,0,0,1,.193-.253L106.162-.066a.224.224,0,0,1,.239.147.364.364,0,0,1,0,.338L62.558,63.563A.264.264,0,0,1,62.356,63.691ZM.965,26.384,62.3,63.041,105.583.693Z" transform="translate(0 0)" fill="rgba(196,196,196,0.26)"/>
                </g>
                <g id="triangle36-46" data-name="triangle36" transform="translate(344.043 492.633)">
                  <path id="Path_181" data-name="Path 181" d="M85,73.312a.225.225,0,0,1-.13,0L.1.54A.308.308,0,0,1,.017.2.257.257,0,0,1,.249,0L113.175,5.345a.215.215,0,0,1,.189.148.336.336,0,0,1,0,.275L85.205,73.2a.246.246,0,0,1-.152.152ZM1.043.59,84.922,72.6,112.789,5.913Z" transform="translate(0 0)" fill="rgba(196,196,196,0.26)"/>
                </g>
                <g id="triangle36-47" data-name="triangle36" transform="translate(381.943 601.234)">
                  <path id="Path_182" data-name="Path 182" d="M29.338,76.293h-.08L.114,63.69a.3.3,0,0,1-.148-.2.379.379,0,0,1,.053-.276L43.858.072a.21.21,0,0,1,.291-.066.324.324,0,0,1,.117.324L29.57,76.1a.346.346,0,0,1-.112.2ZM.6,63.245,29.175,75.607,43.585,1.314Z" transform="translate(0 0)" fill="rgba(196,196,196,0.26)"/>
                </g>
                <g id="triangle36-48" data-name="triangle36" transform="translate(438.58 600.803)">
                  <path id="Path_183" data-name="Path 183" d="M.18,76.362a.245.245,0,0,1-.175-.119A.38.38,0,0,1-.046,76L14.65.216A.279.279,0,0,1,14.812,0a.2.2,0,0,1,.229.072L70.565,67.226a.32.32,0,0,1,.057.3.267.267,0,0,1-.2.2L.2,76.349ZM14.983.85.457,75.733l69.408-8.522Z" transform="translate(0 0)" fill="rgba(196,196,196,0.26)"/>
                </g>
                <g id="triangle36-49" data-name="triangle36" transform="translate(453.662 498.112)">
                  <path id="Path_184" data-name="Path 184" d="M.166,68A.2.2,0,0,1,0,67.917a.364.364,0,0,1,0-.338L28.156.15a.258.258,0,0,1,.162-.165.211.211,0,0,1,.189.06l30.45,29.193a.309.309,0,0,1,.1.249.344.344,0,0,1-.133.239L.316,67.963A.2.2,0,0,1,.166,68ZM28.4.723.687,67.02l57.628-37.6Z" transform="translate(0 0)" fill="rgba(196,196,196,0.26)"/>
                </g>
                <g id="triangle36-50" data-name="triangle36" transform="translate(453.242 569.744)">
                  <path id="Path_185" data-name="Path 185" d="M55.737,98.788a.18.18,0,0,1-.159-.086L.054,31.55a.314.314,0,0,1-.067-.274.279.279,0,0,1,.162-.215L80.882-.034a.189.189,0,0,1,.239.072.323.323,0,0,1,.047.287L55.959,98.635a.262.262,0,0,1-.162.2ZM.666,31.467,55.636,97.951,80.594.708Z" transform="translate(0 0)" fill="rgba(196,196,196,0.26)"/>
                </g>
                <g id="triangle36-51" data-name="triangle36" transform="translate(453.599 529.381)">
                  <path id="Path_186" data-name="Path 186" d="M.206,38.78A.25.25,0,0,1-.012,38.6.344.344,0,0,1,.1,38.231L58.707-.018a.2.2,0,0,1,.17,0L81,7.1a.312.312,0,0,1,.177.285.322.322,0,0,1-.173.29L.277,38.767ZM58.841.556,2.584,37.272,80.081,7.4Z" transform="translate(0 0)" fill="rgba(196,196,196,0.26)"/>
                </g>
                <g id="triangle36-52" data-name="triangle36" transform="translate(1.688 594.489)">
                  <path id="Path_187" data-name="Path 187" d="M.2,50.2a.24.24,0,0,1-.218-.185.331.331,0,0,1,.1-.352L67.2-.019a.188.188,0,0,1,.18,0,.284.284,0,0,1,.149.136l13.447,30.48a.337.337,0,0,1,0,.263.264.264,0,0,1-.172.165L.24,50.2ZM67.218.669,1.471,49.273,80.4,30.489Z" transform="translate(0 0)" fill="rgba(196,196,196,0.26)"/>
                </g>
                <g id="triangle36-53" data-name="triangle36" transform="translate(69.089 556.346)">
                  <path id="Path_188" data-name="Path 188" d="M13.644,41.789h0a.223.223,0,0,1-.179-.135L.018,11.173a.337.337,0,0,1,0-.263.231.231,0,0,1,.172-.165L41.409-.021a.219.219,0,0,1,.249.134.364.364,0,0,1,0,.338L13.825,41.674a.206.206,0,0,1-.181.115ZM.558,11.216,13.692,40.975,40.811.713Z" transform="translate(0 0)" fill="rgba(196,196,196,0.26)"/>
                </g>
                <g id="triangle36-54" data-name="triangle36" transform="translate(248.109 257.555)">
                  <path id="Path_189" data-name="Path 189" d="M.134,62.958h0A.306.306,0,0,1-.032,62.6L13.542.216a.3.3,0,0,1,.106-.181A.194.194,0,0,1,13.825,0a.306.306,0,0,1,.166.361L.417,62.742a.3.3,0,0,1-.106.181A.194.194,0,0,1,.134,62.958Z" transform="translate(0 0)" fill="rgba(196,196,196,0.26)"/>
                </g>
                <g id="triangle36-55" data-name="triangle36" transform="translate(254.449 257.477)">
                  <path id="Path_190" data-name="Path 190" d="M.184,62.952a.179.179,0,0,1-.139-.073.341.341,0,0,1-.077-.3L13.541.2a.243.243,0,0,1,.112-.177.157.157,0,0,1,.18,0l54.052,19.71a.3.3,0,0,1,.167.261.329.329,0,0,1-.133.29L.3,62.913A.173.173,0,0,1,.184,62.952ZM13.967.642.592,62.133,67.222,20.1Z" transform="translate(0 0)" fill="rgba(196,196,196,0.26)"/>
                </g>
                <g id="triangle36-56" data-name="triangle36" transform="translate(255.751 343.208)">
                  <path id="Path_191" data-name="Path 191" d="M18.537,79.348a.246.246,0,0,1-.228-.21L.008.383A.35.35,0,0,1,.1.056a.194.194,0,0,1,.27,0L78.416,69.337a.322.322,0,0,1,.087.312.249.249,0,0,1-.2.215ZM.652,1.025,18.7,78.732l58.931-9.31Z" transform="translate(0 0)" fill="rgba(196,196,196,0.26)"/>
                </g>
                <g id="triangle36-57" data-name="triangle36" transform="translate(255.88 291.93)">
                  <path id="Path_192" data-name="Path 192" d="M78.234,112.488a.163.163,0,0,1-.13,0L.07,43.156a.339.339,0,0,1-.1-.261.345.345,0,0,1,.133-.24L67.732-.005a.167.167,0,0,1,.21,0,.3.3,0,0,1,.128.224L78.477,112.21a.348.348,0,0,1-.123.289A.194.194,0,0,1,78.234,112.488ZM.664,42.86l77.32,68.655L67.635.684Z" transform="translate(0 0)" fill="rgba(196,196,196,0.26)"/>
                </g>
                <g id="triangle36-58" data-name="triangle36" transform="translate(222.183 443.536)">
                  <path id="Path_193" data-name="Path 193" d="M.192,56.445a.227.227,0,0,1-.169-.1.358.358,0,0,1,0-.4L41.639.065a.2.2,0,0,1,.241-.078.273.273,0,0,1,.168.223l2.258,14.536a.348.348,0,0,1-.093.289L.383,56.38a.262.262,0,0,1-.191.065ZM41.63.841,2.22,53.928,43.826,14.689Z" transform="translate(0 0)" fill="rgba(196,196,196,0.26)"/>
                </g>
                <g id="triangle36-59" data-name="triangle36" transform="translate(225.269 459.534)">
                  <path id="Path_194" data-name="Path 194" d="M.2,41.9a.238.238,0,0,1-.208-.172.388.388,0,0,1,.074-.364L43.893.029a.218.218,0,0,1,.29,0L71.291,25.458a.311.311,0,0,1,.077.3.286.286,0,0,1-.182.228L.238,41.935ZM44.037.628,1.207,41.146l69.442-15.58Z" transform="translate(0 0)" fill="rgba(196,196,196,0.26)"/>
                </g>
                <g id="triangle36-60" data-name="triangle36" transform="translate(224.773 534.961)">
                  <path id="Path_195" data-name="Path 195" d="M66.1,93.211a.208.208,0,0,1-.149-.086L.058,16.411A.319.319,0,0,1,0,16.124a.3.3,0,0,1,.182-.215L71.131-.042a.19.19,0,0,1,.189.073A.333.333,0,0,1,71.4.268L66.34,92.932a.3.3,0,0,1-.153.252ZM.729,16.4,65.906,92.275,70.873.675Z" transform="translate(0 0)" fill="rgba(196,196,196,0.26)"/>
                </g>
                <g id="triangle36-61" data-name="triangle36" transform="translate(482.144 342.638)">
                  <path id="Path_196" data-name="Path 196" d="M82.455,59.964.546,124.986,28.079.742,82.9,29.139l.007-.626L28.026,0a.221.221,0,0,0-.2,0A.254.254,0,0,0,27.7.2L-.071,125.582a.322.322,0,0,0,.087.312.2.2,0,0,0,.14,0,.179.179,0,0,0,.13,0L82.438,60.678Z" transform="translate(0 0)" fill="rgba(196,196,196,0.26)"/>
                </g>
                <g id="triangle36-62" data-name="triangle36" transform="translate(482.011 410.893)">
                  <path id="Path_197" data-name="Path 197" d="M81.719,53.326,1.19,65.16,82.484.648l.007-.7L.078,65.375a.3.3,0,0,0-.1.339.225.225,0,0,0,.218.2h0L81.673,53.927Z" transform="translate(0 0)" fill="rgba(196,196,196,0.26)"/>
                </g>
                <g id="triangle36-63" data-name="triangle36" transform="translate(510.014 325.296)">
                  <path id="Path_198" data-name="Path 198" d="M55.23,28.459,1.583.661l54,3.281.006-.588L.249,0A.183.183,0,0,0,.091.054.289.289,0,0,0,.007.231.321.321,0,0,0,.133.567L55.2,29.085Z" transform="translate(0 0)" fill="rgba(196,196,196,0.26)"/>
                </g>
                <g id="triangle36-64" data-name="triangle36" transform="translate(105.188 555.105)">
                  <path id="Path_199" data-name="Path 199" d="M.2,42.719a.238.238,0,0,1-.209-.172.365.365,0,0,1,.034-.314L27.807,1a.219.219,0,0,1,.181-.1l54.04-.95h0a.254.254,0,0,1,.228.235A.31.31,0,0,1,82.1.509L.293,42.693ZM28.092,1.483,1,41.695,80.811.6Z" transform="translate(0 0)" fill="rgba(196,196,196,0.26)"/>
                </g>
                <g id="triangle36-65" data-name="triangle36" transform="translate(104.9 582.543)">
                  <path id="Path_200" data-name="Path 200" d="M65.314,108.6a.165.165,0,0,1-.139-.061L.063,42.61a.3.3,0,0,1-.087-.262.293.293,0,0,1,.153-.24L81.947-.013a.191.191,0,0,1,.23,0,.349.349,0,0,1,.087.287l-16.707,108.1a.34.34,0,0,1-.152.227ZM.665,42.464l64.5,65.358L81.719.728Z" transform="translate(0 0)" fill="rgba(196,196,196,0.26)"/>
                </g>
                <g id="triangle36-66" data-name="triangle36" transform="translate(139.569 511.699)">
                  <path id="Path_201" data-name="Path 201" d="M.211,32.722a.243.243,0,0,1-.228-.235.326.326,0,0,1,.154-.34L67.6-.024a.2.2,0,0,1,.259.084.349.349,0,0,1,0,.325L54.432,31.62a.241.241,0,0,1-.2.165l-54.04.949ZM67.184.8,1.528,32.1l52.589-.918Z" transform="translate(0 0)" fill="rgba(196,196,196,0.26)"/>
                </g>
                <g id="triangle36-67" data-name="triangle36" transform="translate(189.707 582.26)">
                  <path id="Path_202" data-name="Path 202" d="M.162,108.62a.2.2,0,0,1-.14,0,.335.335,0,0,1-.087-.287L16.652.226a.258.258,0,0,1,.122-.2.182.182,0,0,1,.21,0l79.3,45.455a.288.288,0,0,1,.137.261.31.31,0,0,1-.133.264L.272,108.593a.168.168,0,0,1-.11.027ZM17.048.658.49,107.84,95.646,45.747Z" transform="translate(0 0)" fill="rgba(196,196,196,0.26)"/>
                </g>
                <g id="triangle36-68" data-name="triangle36" transform="translate(208.893 550.969)">
                  <path id="Path_203" data-name="Path 203" d="M79.515,77.236h-.09L.119,31.795a.263.263,0,0,1-.129-.173.354.354,0,0,1,.023-.238L13.44.149A.241.241,0,0,1,13.6,0a.2.2,0,0,1,.2.073L79.69,76.783a.354.354,0,0,1,.049.327.254.254,0,0,1-.224.188ZM.544,31.339,78.288,75.9,13.7.721Z" transform="translate(0 0)" fill="rgba(196,196,196,0.26)"/>
                </g>
                <g id="triangle36-69" data-name="triangle36" transform="translate(534.375 510.754)">
                  <path id="Path_204" data-name="Path 204" d="M28.263,33.461.769,20.959,28.749.657l.007-.676L.1,20.768a.307.307,0,0,0-.113.277.255.255,0,0,0,.147.248L28.256,34.087Z" transform="translate(0 0)" fill="rgba(196,196,196,0.26)"/>
                </g>
                <g id="triangle36-70" data-name="triangle36" transform="translate(269.81 194.899)">
                  <path id="Path_205" data-name="Path 205" d="M.2,46.619A.206.206,0,0,1,.009,46.5a.343.343,0,0,1-.034-.215.309.309,0,0,1,.1-.186L54.779.014A.21.21,0,0,1,55.108.1a.345.345,0,0,1,.03.218.3.3,0,0,1-.1.183L.328,46.579A.164.164,0,0,1,.2,46.619Z" transform="translate(0 0)" fill="rgba(196,196,196,0.26)"/>
                </g>
                <g id="triangle36-71" data-name="triangle36" transform="translate(269.839 196.894)">
                  <path id="Path_206" data-name="Path 206" d="M54.191,66.318h0L.129,46.6a.271.271,0,0,1-.158-.236.342.342,0,0,1,.1-.277L54.78,0a.215.215,0,0,1,.24,0,.294.294,0,0,1,.127.261l-.693,65.791a.3.3,0,0,1-.1.227A.163.163,0,0,1,54.191,66.318ZM.693,46.2,53.968,65.633,54.651.793Z" transform="translate(0 0)" fill="rgba(196,196,196,0.26)"/>
                </g>
                <g id="triangle36-72" data-name="triangle36" transform="translate(337.693 196.716)">
                  <path id="Path_207" data-name="Path 207" d="M.186,66.322a.155.155,0,0,1-.12,0,.273.273,0,0,1-.108-.236L.651.3A.318.318,0,0,1,.764.044a.176.176,0,0,1,.23,0L54.547,34.835a.343.343,0,0,1,.117.274.288.288,0,0,1-.143.252L.346,66.294ZM1.077.728.394,65.568l53.4-30.485Z" transform="translate(0 0)" fill="rgba(196,196,196,0.26)"/>
                </g>
                <g id="triangle36-73" data-name="triangle36" transform="translate(338.883 50.082)">
                  <path id="Path_208" data-name="Path 208" d="M53.691,133.691h-.1L.058,98.834a.332.332,0,0,1-.106-.361L29.183.185a.246.246,0,0,1,.232-.2A.274.274,0,0,1,29.633.2L53.925,133.35a.322.322,0,0,1-.083.3A.171.171,0,0,1,53.691,133.691ZM.463,98.4l52.9,34.415L29.341,1.271Z" transform="translate(0 0)" fill="rgba(196,196,196,0.26)"/>
                </g>
                <g id="triangle36-74" data-name="triangle36" transform="translate(508.85 569.696)">
                  <path id="Path_209" data-name="Path 209" d="M52.787,53.433.6,97.829,25.465.9,52.95,45.522l.01-.951L25.573.1a.222.222,0,0,0-.229-.11.264.264,0,0,0-.182.2L-.056,98.463a.352.352,0,0,0,.087.312.207.207,0,0,0,.14.061.178.178,0,0,0,.13,0L52.8,54.2Z" transform="translate(0 0)" fill="rgba(196,196,196,0.26)"/>
                </g>
                <g id="triangle36-75" data-name="triangle36" transform="translate(508.776 623.213)">
                  <path id="Path_210" data-name="Path 210" d="M51.986,60.179.779,44.886,52.853.679l.008-.713L.079,44.833a.329.329,0,0,0-.1.3.238.238,0,0,0,.168.223L52.009,60.829Z" transform="translate(0 0)" fill="rgba(196,196,196,0.26)"/>
                </g>
                <g id="triangle36-76" data-name="triangle36" transform="translate(534.257 540.779)">
                  <path id="Path_211" data-name="Path 211" d="M27.818,44.591.923.924,28.277,13.365l.007-.626L.322.018a.209.209,0,0,0-.271.1.362.362,0,0,0,0,.363L27.8,45.542Z" transform="translate(0 0)" fill="rgba(196,196,196,0.26)"/>
                </g>
                <path id="Path_212" data-name="Path 212" d="M2.492,0C1.138.009.022,1.391,0,3.085S1.054,6.142,2.408,6.131,4.878,4.738,4.9,3.045,3.846-.013,2.492,0Z" transform="translate(526.397 0.837)" fill="rgba(196,196,196,0.26)"/>
                <path id="Path_213" data-name="Path 213" d="M3.452,1.174A2.421,2.421,0,0,1,5.728,3.008a3.688,3.688,0,0,1-.55,3.368,2.138,2.138,0,0,1-2.69.707A3.076,3.076,0,0,1,1.009,4.247,2.912,2.912,0,0,1,3.452,1.174M3.465,0A3.569,3.569,0,0,0,.283,2.629,5,5,0,0,0,.946,7.255a2.88,2.88,0,0,0,3.687.9A4.474,4.474,0,0,0,6.782,4.209C6.812,1.88,5.336,0,3.475,0Z" transform="translate(525.437 -0.339)" fill="rgba(196,196,196,0.26)"/>
                <path id="Path_214" data-name="Path 214" d="M1.356,0A1.843,1.843,0,0,0,0,1.894a1.741,1.741,0,0,0,1.318,1.86,1.783,1.783,0,0,0,1.52-1.847A2.125,2.125,0,0,0,2.423.556,1.347,1.347,0,0,0,1.356,0Z" transform="translate(32.33 666.46)" fill="rgba(196,196,196,0.26)"/>
                <path id="Path_215" data-name="Path 215" d="M2.48,1.163a1.687,1.687,0,0,1,1.481,1.87,2.129,2.129,0,0,1-.715,1.825,1.261,1.261,0,0,1-1.61.021A2.037,2.037,0,0,1,.959,3.072,2.181,2.181,0,0,1,1.42,1.73,1.4,1.4,0,0,1,2.5,1.175M2.512,0a2.574,2.574,0,0,0-2.3,1.891A3.619,3.619,0,0,0,.676,5.234,2.084,2.084,0,0,0,3.337,5.9,3.226,3.226,0,0,0,4.9,3.058C4.925,1.364,3.846,0,2.492.011Z" transform="translate(31.207 665.296)" fill="rgba(196,196,196,0.26)"/>
                <path id="Path_216" data-name="Path 216" d="M2.127,0A2.207,2.207,0,0,0,.169,1.636,3.078,3.078,0,0,0,.6,4.488a1.773,1.773,0,0,0,2.281.526A2.774,2.774,0,0,0,4.182,2.562,2.328,2.328,0,0,0,2.127,0Z" transform="translate(59.648 687.951)" fill="rgba(196,196,196,0.26)"/>
                <path id="Path_217" data-name="Path 217" d="M3.027,1.175A2.331,2.331,0,0,1,5.091,3.763,2.467,2.467,0,0,1,2.972,6.406,2.331,2.331,0,0,1,.908,3.818,2.467,2.467,0,0,1,3.027,1.175M3.039,0C1.388.02.029,1.706,0,3.771S1.276,7.506,2.927,7.507,5.952,5.841,6,3.776a4.213,4.213,0,0,0-.833-2.684A2.669,2.669,0,0,0,3.039,0Z" transform="translate(58.749 686.775)" fill="rgba(196,196,196,0.26)"/>
                <path id="Path_218" data-name="Path 218" d="M1.844,0A2.13,2.13,0,0,0,0,2.276,2.025,2.025,0,0,0,1.776,4.529,2.13,2.13,0,0,0,3.621,2.253a2.523,2.523,0,0,0-.5-1.6A1.6,1.6,0,0,0,1.844,0Z" transform="translate(553.869 274.551)" fill="rgba(196,196,196,0.26)"/>
                <path id="Path_219" data-name="Path 219" d="M2.794,1.175A2.025,2.025,0,0,1,4.571,3.429,2.13,2.13,0,0,1,2.726,5.705,2.025,2.025,0,0,1,.949,3.451,2.618,2.618,0,0,1,1.5,1.842a1.679,1.679,0,0,1,1.293-.668M2.806,0C1.286,0,.029,1.55,0,3.451s1.176,3.437,2.7,3.431S5.47,5.33,5.5,3.429,4.323,0,2.806,0Z" transform="translate(552.92 273.3)" fill="rgba(196,196,196,0.26)"/>
                <path id="Path_282" data-name="Path 282" d="M3.151,0C4.87-.024,6.245,1.7,6.222,3.849S4.788,7.76,3.069,7.782-.025,6.081,0,3.931,1.432.021,3.151,0Z" transform="translate(401.935 349.181)" fill="rgba(196,196,196,0.26)"/>
                <path id="Path_220" data-name="Path 220" d="M4.141,1.174A3.1,3.1,0,0,1,6.985,3.553,4.674,4.674,0,0,1,6.251,7.8a2.708,2.708,0,0,1-3.406.867A3.908,3.908,0,0,1,.978,5.082c.034-2.145,1.448-3.893,3.163-3.908M4.153,0A4.255,4.255,0,0,0,.343,3.127a5.98,5.98,0,0,0,.779,5.531,3.443,3.443,0,0,0,4.4,1.085A5.34,5.34,0,0,0,8.1,5.038C8.137,2.256,6.377.009,4.153,0Z" transform="translate(401.04 348.003)" fill="rgba(196,196,196,0.26)"/>
                <path id="Path_221" data-name="Path 221" d="M2.661,1.646A1.483,1.483,0,0,0,1.348,0,1.57,1.57,0,0,0,0,1.681,1.853,1.853,0,0,0,.367,2.861a1.174,1.174,0,0,0,.936.48A1.582,1.582,0,0,0,2.661,1.646Z" transform="translate(447.225 321.103)" fill="rgba(196,196,196,0.26)"/>
                <path id="Path_222" data-name="Path 222" d="M2.3,1.175A1.484,1.484,0,0,1,3.611,2.822,1.57,1.57,0,0,1,2.262,4.5,1.483,1.483,0,0,1,.949,2.857,1.57,1.57,0,0,1,2.3,1.175M2.31,0A2.673,2.673,0,0,0,0,2.857,2.538,2.538,0,0,0,2.23,5.681,2.673,2.673,0,0,0,4.541,2.822,2.538,2.538,0,0,0,2.31,0Z" transform="translate(453.618 319.781)" fill="rgba(196,196,196,0.26)"/>
                <path id="Path_223" data-name="Path 223" d="M2.96,7.682A3.209,3.209,0,0,0,5.871,5.337,4.538,4.538,0,0,0,5.3,1.131,2.612,2.612,0,0,0,1.956.294,4.047,4.047,0,0,0,0,3.867c-.033,2.1,1.286,3.8,2.961,3.815Z" transform="translate(507.646 265.173)" fill="rgba(196,196,196,0.26)"/>
                <path id="Path_224" data-name="Path 224" d="M4.04,1.162A3.062,3.062,0,0,1,6.848,3.51a4.614,4.614,0,0,1-.725,4.195,2.673,2.673,0,0,1-3.362.855A3.858,3.858,0,0,1,.918,5.019,4.449,4.449,0,0,1,1.854,2.3,2.857,2.857,0,0,1,4.04,1.162M4.053,0C1.842.027.026,2.292,0,5.056s1.739,4.982,3.95,4.953S7.974,7.716,8,4.951,6.263-.031,4.053,0Z" transform="translate(506.727 263.942)" fill="rgba(196,196,196,0.26)"/>
                <path id="Path_225" data-name="Path 225" d="M3.841,2.389A2.411,2.411,0,0,0,2.686.176a1.673,1.673,0,0,0-2.1.54A2.887,2.887,0,0,0,.134,3.342,1.912,1.912,0,0,0,1.895,4.8,2.264,2.264,0,0,0,3.841,2.389Z" transform="translate(511.223 19.063)" fill="rgba(196,196,196,0.26)"/>
                <path id="Path_226" data-name="Path 226" d="M2.885,1.175A1.918,1.918,0,0,1,4.639,2.649a2.884,2.884,0,0,1-.46,2.623,1.67,1.67,0,0,1-2.1.527A2.417,2.417,0,0,1,.929,3.578a2.257,2.257,0,0,1,1.956-2.4M2.9,0C1.324.012.026,1.618,0,3.586S1.222,7.141,2.8,7.132,5.67,5.521,5.7,3.553A3.993,3.993,0,0,0,4.9,1.03,2.535,2.535,0,0,0,2.9,0Z" transform="translate(510.303 17.899)" fill="rgba(196,196,196,0.26)"/>
                <path id="Path_227" data-name="Path 227" d="M2.816,0C1.286.012.024,1.574,0,3.489S1.193,6.945,2.723,6.932,5.516,5.356,5.542,3.441A3.865,3.865,0,0,0,4.766.993,2.452,2.452,0,0,0,2.816,0Z" transform="translate(322.308 473.319)" fill="rgba(196,196,196,0.26)"/>
                <path id="Path_228" data-name="Path 228" d="M3.777,1.174A2.764,2.764,0,0,1,6.309,3.295,4.163,4.163,0,0,1,5.653,7.08a2.412,2.412,0,0,1-3.034.77,3.482,3.482,0,0,1-1.661-3.2C.989,2.742,2.25,1.187,3.777,1.174M3.789,0A3.907,3.907,0,0,0,.309,2.88a5.473,5.473,0,0,0,.728,5.061,3.152,3.152,0,0,0,4.035.978A4.9,4.9,0,0,0,7.422,4.6C7.455,2.05,5.831-.009,3.789,0Z" transform="translate(321.375 472.263)" fill="rgba(196,196,196,0.26)"/>
                <path id="Path_229" data-name="Path 229" d="M2.421,0A2.8,2.8,0,0,0,0,3c-.023,1.645,1.025,2.97,2.34,2.96a2.8,2.8,0,0,0,2.423-3C4.784,1.313,3.737-.012,2.421,0Z" transform="translate(372.741 661.737)" fill="rgba(196,196,196,0.26)"/>
                <path id="Path_230" data-name="Path 230" d="M3.381,1.174a2.229,2.229,0,0,1,2.176,1.4,3.629,3.629,0,0,1-.033,3.089A2.359,2.359,0,0,1,3.319,7.119a2.229,2.229,0,0,1-2.176-1.4,3.629,3.629,0,0,1,.033-3.089A2.359,2.359,0,0,1,3.381,1.174M3.394,0A3.5,3.5,0,0,0,.277,2.574,4.9,4.9,0,0,0,.926,7.1a2.821,2.821,0,0,0,3.611.878,4.382,4.382,0,0,0,2.105-3.86C6.672,1.837,5.22-.006,3.394,0Z" transform="translate(371.849 660.561)" fill="rgba(196,196,196,0.26)"/>
                <path id="Path_231" data-name="Path 231" d="M3.13,0C1.43.014.028,1.749,0,3.877S1.322,7.718,3.023,7.708s3.106-1.743,3.139-3.87A4.314,4.314,0,0,0,5.3,1.112,2.739,2.739,0,0,0,3.13,0Z" transform="translate(407.955 673.428)" fill="rgba(196,196,196,0.26)"/>
                <path id="Path_232" data-name="Path 232" d="M4.04,1.174c1.7-.009,3.055,1.71,3.021,3.839s-1.44,3.862-3.142,3.87S.864,7.173.9,5.044,2.34,1.19,4.04,1.174M4.053,0C1.842.027.026,2.292,0,5.056s1.739,4.982,3.95,4.953S7.974,7.716,8,4.951,6.263-.031,4.053,0Z" transform="translate(407.146 672.25)" fill="rgba(196,196,196,0.26)"/>
                <path id="Path_233" data-name="Path 233" d="M1.763,0A1.825,1.825,0,0,0,.142,1.348,2.551,2.551,0,0,0,.486,3.707a1.469,1.469,0,0,0,1.883.45A2.287,2.287,0,0,0,3.461,2.141,1.933,1.933,0,0,0,1.763,0Z" transform="translate(427.01 599.253)" fill="rgba(196,196,196,0.26)"/>
                <path id="Path_234" data-name="Path 234" d="M2.713,1.175a1.936,1.936,0,0,1,1.7,2.155A2.036,2.036,0,0,1,2.647,5.505,1.936,1.936,0,0,1,.949,3.35,2.036,2.036,0,0,1,2.713,1.175M2.725,0a2.813,2.813,0,0,0-2.5,2.075A3.939,3.939,0,0,0,.745,5.715a2.269,2.269,0,0,0,2.9.705,3.523,3.523,0,0,0,1.693-3.1A3.716,3.716,0,0,0,4.6.958,2.356,2.356,0,0,0,2.725,0Z" transform="translate(426.411 575.237)" fill="rgba(196,196,196,0.26)"/>
                <path id="Path_235" data-name="Path 235" d="M3.4,0C1.558.008.033,1.888,0,4.2S1.43,8.369,3.276,8.358s3.371-1.89,3.406-4.2S5.25-.013,3.4,0Z" transform="translate(509.159 517.365)" fill="rgba(196,196,196,0.26)"/>
                <path id="Path_236" data-name="Path 236" d="M4.344,1.174c1.844-.01,3.311,1.85,3.278,4.157s-1.555,4.188-3.4,4.2S.908,7.692.938,5.385,2.5,1.191,4.344,1.174M4.356,0C1.992.015.041,2.424,0,5.381s1.836,5.342,4.2,5.329S8.515,8.292,8.562,5.335a6,6,0,0,0-1.2-3.787A3.809,3.809,0,0,0,4.356,0Z" transform="translate(508.217 516.357)" fill="rgba(196,196,196,0.26)"/>
                <path id="Path_237" data-name="Path 237" d="M1.408,0A1.454,1.454,0,0,0,.114,1.074,2.035,2.035,0,0,0,.387,2.956a1.172,1.172,0,0,0,1.5.36,1.824,1.824,0,0,0,.872-1.608A1.919,1.919,0,0,0,2.376.493,1.217,1.217,0,0,0,1.408,0Z" transform="translate(0.511 642.677)" fill="rgba(196,196,196,0.26)"/>
                <path id="Path_238" data-name="Path 238" d="M2.328,1.162a1.577,1.577,0,0,1,1.245,1.7A1.67,1.67,0,0,1,2.292,4.6a1.284,1.284,0,0,1-1.285-.8,2.1,2.1,0,0,1,.019-1.811,1.358,1.358,0,0,1,1.3-.832M2.34,0A2.726,2.726,0,0,0,0,2.916,2.58,2.58,0,0,0,2.273,5.781,2.722,2.722,0,0,0,4.621,2.872,3.232,3.232,0,0,0,3.969.828,2.052,2.052,0,0,0,2.34,0Z" transform="translate(-0.409 641.514)" fill="rgba(196,196,196,0.26)"/>
                <path id="Path_239" data-name="Path 239" d="M2.259,0A2.614,2.614,0,0,0,0,2.794,2.482,2.482,0,0,0,2.181,5.555a2.614,2.614,0,0,0,2.261-2.8A2.482,2.482,0,0,0,2.259,0Z" transform="translate(67.137 558.135)" fill="rgba(196,196,196,0.26)"/>
                <path id="Path_240" data-name="Path 240" d="M3.219,1.174A2.482,2.482,0,0,1,5.4,3.936a2.614,2.614,0,0,1-2.261,2.8A2.482,2.482,0,0,1,.959,3.97,3.215,3.215,0,0,1,1.634,2a2.062,2.062,0,0,1,1.585-.822M3.232,0A3.325,3.325,0,0,0,.264,2.449,4.663,4.663,0,0,0,.881,6.761,2.685,2.685,0,0,0,4.318,7.6a4.17,4.17,0,0,0,2-3.674C6.345,1.747,4.961,0,3.221,0Z" transform="translate(66.175 557.159)" fill="rgba(196,196,196,0.26)"/>
                <path id="Path_241" data-name="Path 241" d="M1.358,0A1.581,1.581,0,0,0,0,1.69,1.5,1.5,0,0,0,1.316,3.353,1.577,1.577,0,0,0,2.681,1.671,1.509,1.509,0,0,0,1.358,0Z" transform="translate(245.457 329.47)" fill="rgba(196,196,196,0.26)"/>
                <path id="Path_242" data-name="Path 242" d="M2.308,1.175A1.5,1.5,0,0,1,3.621,2.847,1.575,1.575,0,0,1,2.252,4.529,1.5,1.5,0,0,1,.939,2.857,1.588,1.588,0,0,1,2.308,1.175M2.32,0A2.685,2.685,0,0,0,0,2.87,2.549,2.549,0,0,0,2.24,5.706,2.685,2.685,0,0,0,4.561,2.835,2.549,2.549,0,0,0,2.32,0Z" transform="translate(244.476 328.269)" fill="rgba(196,196,196,0.26)"/>
                <path id="Path_243" data-name="Path 243" d="M3.16,0A3.2,3.2,0,0,0,.266,2.344,4.522,4.522,0,0,0,.842,6.533a2.6,2.6,0,0,0,3.331.828A4.035,4.035,0,0,0,6.122,3.8C6.15,1.71,4.831.017,3.16,0Z" transform="translate(339.475 417.101)" fill="rgba(196,196,196,0.26)"/>
                <path id="Path_244" data-name="Path 244" d="M4.04,1.174A3.061,3.061,0,0,1,6.835,3.536a4.594,4.594,0,0,1-.748,4.183,2.657,2.657,0,0,1-3.363.814A3.87,3.87,0,0,1,.919,4.969c.049-2.1,1.444-3.794,3.122-3.8M4.053,0C1.842.027.026,2.292,0,5.056s1.739,4.982,3.95,4.953S7.973,7.716,8,4.951,6.263-.031,4.053,0Z" transform="translate(338.654 415.989)" fill="rgba(196,196,196,0.26)"/>
                <path id="Path_245" data-name="Path 245" d="M1.5,3.829A1.613,1.613,0,0,0,2.934,2.637,2.256,2.256,0,0,0,2.63.55,1.3,1.3,0,0,0,.965.151,2.022,2.022,0,0,0,0,1.934,1.71,1.71,0,0,0,1.5,3.829Z" transform="translate(267.67 431.037)" fill="rgba(196,196,196,0.26)"/>
                <path id="Path_246" data-name="Path 246" d="M2.51,1.175a1.524,1.524,0,0,1,1.4,1.166,2.3,2.3,0,0,1-.358,2.093,1.333,1.333,0,0,1-1.676.429A1.922,1.922,0,0,1,.959,3.1a2.211,2.211,0,0,1,.463-1.355A1.42,1.42,0,0,1,2.51,1.175M2.523,0A2.6,2.6,0,0,0,.206,1.917,3.645,3.645,0,0,0,.689,5.285a2.1,2.1,0,0,0,2.685.654A3.259,3.259,0,0,0,4.942,3.07C4.965,1.367,3.884-.006,2.523,0Z" transform="translate(266.681 429.952)" fill="rgba(196,196,196,0.26)"/>
                <path id="Path_247" data-name="Path 247" d="M1.763,0A2.036,2.036,0,0,0,0,2.174,1.936,1.936,0,0,0,1.7,4.329,2.036,2.036,0,0,0,3.461,2.154,1.936,1.936,0,0,0,1.763,0Z" transform="translate(270.218 449.612)" fill="rgba(196,196,196,0.26)"/>
                <path id="Path_248" data-name="Path 248" d="M2.713,1.175A1.723,1.723,0,0,1,4.3,2.493a2.6,2.6,0,0,1-.4,2.366A1.507,1.507,0,0,1,2,5.345a2.173,2.173,0,0,1-1.041-2A2.039,2.039,0,0,1,2.713,1.175M2.725,0a2.813,2.813,0,0,0-2.5,2.075A3.939,3.939,0,0,0,.745,5.714a2.269,2.269,0,0,0,2.9.705,3.523,3.523,0,0,0,1.693-3.1C5.367,1.477,4.2-.007,2.725,0Z" transform="translate(269.256 448.53)" fill="rgba(196,196,196,0.26)"/>
                <path id="Path_249" data-name="Path 249" d="M1.484.007A1.328,1.328,0,0,0,.209.82,2.057,2.057,0,0,0,.191,2.593a1.256,1.256,0,0,0,1.258.78A1.328,1.328,0,0,0,2.723,2.56,2.057,2.057,0,0,0,2.742.787,1.256,1.256,0,0,0,1.484.007Z" transform="translate(303.751 482.866)" fill="rgba(196,196,196,0.26)"/>
                <path id="Path_250" data-name="Path 250" d="M2.328,1.175a1.256,1.256,0,0,1,1.258.78,2.057,2.057,0,0,1-.019,1.773,1.328,1.328,0,0,1-1.275.814,1.256,1.256,0,0,1-1.258-.78,2.057,2.057,0,0,1,.019-1.773,1.328,1.328,0,0,1,1.275-.814M2.34,0A2.411,2.411,0,0,0,.191,1.775,3.379,3.379,0,0,0,.638,4.9a1.946,1.946,0,0,0,2.49.608,3.021,3.021,0,0,0,1.454-2.66A3.2,3.2,0,0,0,3.945.826,2.029,2.029,0,0,0,2.34,0Z" transform="translate(302.916 481.825)" fill="rgba(196,196,196,0.26)"/>
                <path id="Path_251" data-name="Path 251" d="M2.391,0A2.768,2.768,0,0,0,0,2.958C-.024,4.582,1.01,5.891,2.309,5.881A2.768,2.768,0,0,0,4.7,2.921C4.724,1.3,3.69-.012,2.391,0Z" transform="translate(479.793 480.561)" fill="rgba(196,196,196,0.26)"/>
                <path id="Path_252" data-name="Path 252" d="M3.341,1.174a2.346,2.346,0,0,1,2.148,1.8A3.531,3.531,0,0,1,4.93,6.187a2.045,2.045,0,0,1-2.575.65A2.956,2.956,0,0,1,.949,4.121,2.765,2.765,0,0,1,3.341,1.174M3.353,0A3.468,3.468,0,0,0,.272,2.56,4.852,4.852,0,0,0,.921,7.044,2.8,2.8,0,0,0,4.5,7.909,4.343,4.343,0,0,0,6.582,4.085C6.612,1.815,5.168-.012,3.353,0Z" transform="translate(478.841 479.514)" fill="rgba(196,196,196,0.26)"/>
                <path id="Path_253" data-name="Path 253" d="M2.756,0A2.844,2.844,0,0,0,.224,2.1a3.983,3.983,0,0,0,.53,3.682,2.294,2.294,0,0,0,2.936.713A3.563,3.563,0,0,0,5.4,3.355C5.427,1.493,4.244-.008,2.756,0Z" transform="translate(507.594 318.043)" fill="rgba(196,196,196,0.26)"/>
                <path id="Path_254" data-name="Path 254" d="M3.7,1.174c1.492-.013,2.681,1.49,2.656,3.356S5.1,7.92,3.6,7.932.923,6.443.948,4.576a3.913,3.913,0,0,1,.821-2.4,2.512,2.512,0,0,1,1.927-1M3.708,0C1.7.01.035,2.06,0,4.576S1.56,9.122,3.572,9.109,7.245,7.046,7.282,4.53,5.719-.015,3.708,0Z" transform="translate(506.655 316.835)" fill="rgba(196,196,196,0.26)"/>
                <path id="Path_255" data-name="Path 255" d="M2.988,0A3.091,3.091,0,0,0,.239,2.289a4.316,4.316,0,0,0,.594,4,2.486,2.486,0,0,0,3.2.74,3.889,3.889,0,0,0,1.83-3.44C5.872,1.586,4.59-.016,2.988,0Z" transform="translate(79.518 621.571)" fill="rgba(196,196,196,0.26)"/>
                <path id="Path_256" data-name="Path 256" d="M3.908,1.224A2.924,2.924,0,0,1,6.589,3.47a4.4,4.4,0,0,1-.7,4,2.55,2.55,0,0,1-3.212.807A3.688,3.688,0,0,1,.928,4.892a4.245,4.245,0,0,1,.894-2.6A2.726,2.726,0,0,1,3.908,1.212M3.921.035A4.078,4.078,0,0,0,.313,3.059a5.687,5.687,0,0,0,.78,5.259,3.276,3.276,0,0,0,4.2.989A5.109,5.109,0,0,0,7.723,4.8,5.4,5.4,0,0,0,6.638,1.39,3.432,3.432,0,0,0,3.921,0Z" transform="translate(78.598 620.345)" fill="rgba(196,196,196,0.26)"/>
                <path id="Path_257" data-name="Path 257" d="M3.378,1.929A1.846,1.846,0,0,0,1.712,0,1.956,1.956,0,0,0,.006,1.974,2.254,2.254,0,0,0,.788,3.93a1.409,1.409,0,0,0,1.766-.023,2.362,2.362,0,0,0,.824-1.977Z" transform="translate(133.573 544.829)" fill="rgba(196,196,196,0.26)"/>
                <path id="Path_258" data-name="Path 258" d="M2.672,1.175A1.926,1.926,0,0,1,4.211,3.263,2.04,2.04,0,0,1,2.628,5.392a1.577,1.577,0,0,1-1.562-.984A2.576,2.576,0,0,1,1.089,2.2,1.668,1.668,0,0,1,2.672,1.175M2.685,0A2.77,2.77,0,0,0,.219,2.042,3.88,3.88,0,0,0,.734,5.629a2.235,2.235,0,0,0,2.859.7A3.47,3.47,0,0,0,5.262,3.268,3.671,3.671,0,0,0,4.529.948,2.331,2.331,0,0,0,2.685,0Z" transform="translate(132.564 543.629)" fill="rgba(196,196,196,0.26)"/>
                <path id="Path_259" data-name="Path 259" d="M2.745,0A2.77,2.77,0,0,0,.233,2.023,3.918,3.918,0,0,0,.726,5.654a2.255,2.255,0,0,0,2.885.723A3.493,3.493,0,0,0,5.3,3.293C5.327,1.486,4.189.02,2.745,0Z" transform="translate(178.193 687.395)" fill="rgba(196,196,196,0.26)"/>
                <path id="Path_260" data-name="Path 260" d="M3.645,1.174c1.464-.012,2.632,1.462,2.607,3.294s-1.232,3.327-2.7,3.339S.923,6.345.948,4.513s1.232-3.327,2.7-3.339M3.657,0C1.673.01.035,2.032,0,4.513S1.539,9,3.523,8.984,7.145,6.95,7.182,4.469,5.641-.015,3.657,0Z" transform="translate(177.225 686.22)" fill="rgba(196,196,196,0.26)"/>
                <path id="Path_261" data-name="Path 261" d="M2.826,0A2.918,2.918,0,0,0,.23,2.152,4.086,4.086,0,0,0,.774,5.929a2.353,2.353,0,0,0,3.012.731A3.655,3.655,0,0,0,5.542,3.441,3.867,3.867,0,0,0,4.769,1,2.455,2.455,0,0,0,2.826,0Z" transform="translate(198.805 542.3)" fill="rgba(196,196,196,0.26)"/>
                <path id="Path_262" data-name="Path 262" d="M3.766,1.174A2.764,2.764,0,0,1,6.3,3.295,4.163,4.163,0,0,1,5.643,7.08a2.412,2.412,0,0,1-3.034.77,3.482,3.482,0,0,1-1.661-3.2,4,4,0,0,1,.842-2.458,2.565,2.565,0,0,1,1.976-1.02M3.779,0C1.727.011.034,2.1,0,4.669S1.6,9.3,3.648,9.284,7.39,7.171,7.422,4.6A5.18,5.18,0,0,0,6.383,1.333,3.29,3.29,0,0,0,3.779,0Z" transform="translate(197.8 541.311)" fill="rgba(196,196,196,0.26)"/>
                <path id="Path_263" data-name="Path 263" d="M2.472,0A2.549,2.549,0,0,0,.2,1.88a3.569,3.569,0,0,0,.477,3.3,2.056,2.056,0,0,0,2.634.633A3.2,3.2,0,0,0,4.842,3C4.865,1.33,3.8-.012,2.472,0Z" transform="translate(296.279 624.754)" fill="rgba(196,196,196,0.26)"/>
                <path id="Path_264" data-name="Path 264" d="M3.392,1.174A2.415,2.415,0,0,1,5.6,3.029a3.637,3.637,0,0,1-.575,3.306,2.106,2.106,0,0,1-2.651.67A3.044,3.044,0,0,1,.928,4.21a3.49,3.49,0,0,1,.737-2.147,2.237,2.237,0,0,1,1.727-.889M3.4,0C1.554.015.03,1.9,0,4.218S1.439,8.4,3.289,8.383,6.666,6.485,6.7,4.171,5.257-.013,3.4,0Z" transform="translate(295.375 623.578)" fill="rgba(196,196,196,0.26)"/>
                <path id="Path_265" data-name="Path 265" d="M1.793,0A2.088,2.088,0,0,0,0,2.233a1.977,1.977,0,0,0,1.741,2.2A2.084,2.084,0,0,0,3.541,2.2a2.477,2.477,0,0,0-.5-1.568A1.572,1.572,0,0,0,1.793,0Z" transform="translate(216.353 502.966)" fill="rgba(196,196,196,0.26)"/>
                <path id="Path_266" data-name="Path 266" d="M2.753,1.175a1.98,1.98,0,0,1,1.738,2.2,2.083,2.083,0,0,1-1.8,2.226A1.98,1.98,0,0,1,.949,3.4a2.1,2.1,0,0,1,1.8-2.226M2.766,0C1.268,0,.029,1.528,0,3.4S1.157,6.788,2.654,6.782s2.736-1.529,2.767-3.4S4.263-.008,2.766,0Z" transform="translate(215.337 501.937)" fill="rgba(196,196,196,0.26)"/>
                <path id="Path_267" data-name="Path 267" d="M2.158,0A2.5,2.5,0,0,0,0,2.667,2.371,2.371,0,0,0,2.082,5.305,2.5,2.5,0,0,0,4.241,2.637,2.371,2.371,0,0,0,2.158,0Z" transform="translate(261.353 247.804)" fill="rgba(196,196,196,0.26)"/>
                <path id="Path_268" data-name="Path 268" d="M3.148,1.175A2.371,2.371,0,0,1,5.231,3.812,2.5,2.5,0,0,1,3.072,6.481,2.371,2.371,0,0,1,.989,3.843,2.5,2.5,0,0,1,3.148,1.175M3.16,0A3.2,3.2,0,0,0,.267,2.342,4.523,4.523,0,0,0,.838,6.529a2.6,2.6,0,0,0,3.328.836A4.029,4.029,0,0,0,6.122,3.813C6.15,1.72,4.833.024,3.16,0Z" transform="translate(260.335 246.524)" fill="rgba(196,196,196,0.26)"/>
                <path id="Path_269" data-name="Path 269" d="M1.611,0A1.666,1.666,0,0,0,.13,1.23,2.33,2.33,0,0,0,.444,3.385a1.342,1.342,0,0,0,1.72.412,2.088,2.088,0,0,0,1-1.841A2.2,2.2,0,0,0,2.719.564,1.4,1.4,0,0,0,1.611,0Z" transform="translate(328.201 274.015)" fill="rgba(196,196,196,0.26)"/>
                <path id="Path_270" data-name="Path 270" d="M2.561,1.175a1.573,1.573,0,0,1,1.449,1.2A2.375,2.375,0,0,1,3.64,4.54a1.376,1.376,0,0,1-1.731.443A1.985,1.985,0,0,1,.959,3.16a1.874,1.874,0,0,1,1.6-1.986M2.573,0A2.654,2.654,0,0,0,.21,1.956,3.718,3.718,0,0,0,.7,5.393a2.141,2.141,0,0,0,2.74.667,3.325,3.325,0,0,0,1.6-2.928C5.06,1.4,3.959,0,2.573,0Z" transform="translate(327.283 272.76)" fill="rgba(196,196,196,0.26)"/>
                <path id="Path_271" data-name="Path 271" d="M2.543,0C1.161.01.022,1.42,0,3.148s1.077,3.12,2.459,3.108S4.978,4.835,5,3.107,3.922-.006,2.543,0Z" transform="translate(336.761 38.709)" fill="rgba(196,196,196,0.26)"/>
                <path id="Path_272" data-name="Path 272" d="M3.483,1.174c1.38,0,2.476,1.39,2.448,3.117S4.764,7.423,3.384,7.432.9,6.05.928,4.324,2.1,1.186,3.483,1.174M3.5,0C1.6.016.03,1.956,0,4.332s1.48,4.29,3.38,4.277,3.468-1.949,3.5-4.326A4.817,4.817,0,0,0,5.916,1.24,3.059,3.059,0,0,0,3.5,0Z" transform="translate(335.861 37.533)" fill="rgba(196,196,196,0.26)"/>
                <path id="Path_273" data-name="Path 273" d="M3.356,8.483c1.866-.032,3.4-1.942,3.427-4.275S5.33-.006,3.465,0,.051,1.889,0,4.223A4.745,4.745,0,0,0,.943,7.259,3,3,0,0,0,3.356,8.483Z" transform="translate(327.354 186.46)" fill="rgba(196,196,196,0.26)"/>
                <path id="Path_274" data-name="Path 274" d="M4.4,1.174c1.875-.018,3.369,1.87,3.337,4.215S6.163,9.646,4.288,9.659.922,7.781.958,5.436,2.535,1.191,4.4,1.174M4.417,0C2.023.008.044,2.446,0,5.44s1.858,5.411,4.252,5.4S8.62,8.379,8.663,5.385,6.806-.014,4.417,0Z" transform="translate(326.427 185.119)" fill="rgba(196,196,196,0.26)"/>
                <path id="Path_275" data-name="Path 275" d="M1.763,0A2.036,2.036,0,0,0,0,2.174,1.936,1.936,0,0,0,1.7,4.329,2.036,2.036,0,0,0,3.461,2.154,2.412,2.412,0,0,0,2.98.622,1.529,1.529,0,0,0,1.763,0Z" transform="translate(394.622 233.935)" fill="rgba(196,196,196,0.26)"/>
                <path id="Path_276" data-name="Path 276" d="M2.713,1.175A1.723,1.723,0,0,1,4.3,2.493a2.6,2.6,0,0,1-.4,2.366A1.507,1.507,0,0,1,2,5.345a2.173,2.173,0,0,1-1.041-2,2.5,2.5,0,0,1,.524-1.533,1.607,1.607,0,0,1,1.23-.642M2.725,0a2.813,2.813,0,0,0-2.5,2.075A3.939,3.939,0,0,0,.745,5.714a2.269,2.269,0,0,0,2.9.705,3.523,3.523,0,0,0,1.693-3.1A3.727,3.727,0,0,0,4.6.962,2.367,2.367,0,0,0,2.725,0Z" transform="translate(393.756 232.641)" fill="rgba(196,196,196,0.26)"/>
                <path id="Path_277" data-name="Path 277" d="M1.975,0A2.031,2.031,0,0,0,.161,1.5,2.847,2.847,0,0,0,.539,4.131a1.64,1.64,0,0,0,2.1.507,2.55,2.55,0,0,0,1.22-2.25A2.17,2.17,0,0,0,1.975,0Z" transform="translate(364.835 47.944)" fill="rgba(196,196,196,0.26)"/>
                <path id="Path_278" data-name="Path 278" d="M2.935,1.175A1.922,1.922,0,0,1,4.7,2.645a2.9,2.9,0,0,1-.451,2.639,1.682,1.682,0,0,1-2.114.543A2.423,2.423,0,0,1,.979,3.6a2.794,2.794,0,0,1,.584-1.711,1.8,1.8,0,0,1,1.372-.717M2.948,0a3.013,3.013,0,0,0-2.7,2.215A4.238,4.238,0,0,0,.795,6.135,2.44,2.44,0,0,0,3.918,6.9,3.786,3.786,0,0,0,5.742,3.565a4.007,4.007,0,0,0-.8-2.532A2.544,2.544,0,0,0,2.928,0Z" transform="translate(363.931 46.767)" fill="rgba(196,196,196,0.26)"/>
                <path id="Path_279" data-name="Path 279" d="M1.834,0A1.9,1.9,0,0,0,.148,1.4,2.654,2.654,0,0,0,.506,3.857a1.529,1.529,0,0,0,1.959.468A2.379,2.379,0,0,0,3.6,2.228,2.011,2.011,0,0,0,1.834,0Z" transform="translate(507.183 665.993)" fill="rgba(196,196,196,0.26)"/>
                <path id="Path_280" data-name="Path 280" d="M2.784,1.175A2.014,2.014,0,0,1,4.551,3.416,2.118,2.118,0,0,1,2.716,5.68,2.014,2.014,0,0,1,.949,3.439,2.118,2.118,0,0,1,2.784,1.175M2.8,0A2.887,2.887,0,0,0,.228,2.128,4.042,4.042,0,0,0,.765,5.865a2.328,2.328,0,0,0,2.979.723A3.616,3.616,0,0,0,5.482,3.4C5.507,1.515,4.306-.008,2.8,0Z" transform="translate(506.233 664.817)" fill="rgba(196,196,196,0.26)"/>
                <path id="Path_283" data-name="Path 283" d="M2.269,0A2.5,2.5,0,0,1,4.481,2.773,2.644,2.644,0,0,1,2.21,5.605,2.5,2.5,0,0,1,0,2.832,2.644,2.644,0,0,1,2.269,0Z" transform="translate(532.365 527.854)" fill="rgba(196,196,196,0.26)"/>
                <path id="Path_281" data-name="Path 281" d="M3.229,1.174A2.236,2.236,0,0,1,5.277,2.892a3.366,3.366,0,0,1-.533,3.06,1.949,1.949,0,0,1-2.454.618A2.818,2.818,0,0,1,.949,3.982,3.24,3.24,0,0,1,1.634,2a2.08,2.08,0,0,1,1.6-.825M3.242,0A3.352,3.352,0,0,0,.263,2.473,4.69,4.69,0,0,0,.89,6.808a2.7,2.7,0,0,0,3.458.836,4.2,4.2,0,0,0,2.015-3.7,4.44,4.44,0,0,0-.889-2.8A2.819,2.819,0,0,0,3.242,0Z" transform="translate(531.413 526.87)" fill="rgba(196,196,196,0.26)"/>
              </g>
              <path id="wave_4_2" data-name="wave (4)" d="M.524,408.916l36.363-30.367c36.347-30.952,109.1-90.809,181.6-159.878,72.53-68.192,144.819-145.6,218.168-182.495C509.991-1.307,584.344.253,621.521,1.033l37.177.78,12.234,467.937-37.177-.78-185.884-3.9-223.061-4.68-185.884-3.9-37.177-.78Z" transform="matrix(-0.105, -0.995, 0.995, -0.105, 192.348, 755.274)" fill="rgba(255,255,255,0.25)"/>
              <path id="wave_4_3" data-name="wave (4)" d="M.474,648.3,37.54,600.558C74.621,551.94,148.729,457.788,223.08,349.751c74.328-106.714,148.9-227.314,222.4-286.863C519,2.457,591.485.873,627.729.081l36.243-.792L651.62,704.566l-36.243.792-181.217,3.96L216.7,714.071l-181.217,3.96-36.243.792Z" transform="translate(0 58.578) rotate(-5)" fill="rgba(255,255,255,0.09)"/>
            </g>
          </g>
        </g>
      </g>
    </g>
  </g>
</svg>
