<svg xmlns="http://www.w3.org/2000/svg" xmlns:xlink="http://www.w3.org/1999/xlink" width="2630.501" height="514.12" viewBox="0 0 2630.501 514.12">
  <defs>
    <clipPath id="clip-path">
      <rect id="Rectangle_1" data-name="Rectangle 1" width="2630.501" height="514.12" transform="translate(3468.735 4039.309) rotate(180)" fill="#fff"/>
    </clipPath>
    <clipPath id="clip-path-2">
      <rect id="Rectangle_5" data-name="Rectangle 5" width="881.75" height="548.762" transform="translate(548.762 0) rotate(90)" fill="#fff"/>
    </clipPath>
    <clipPath id="clip-path-3">
      <path id="Path_434" data-name="Path 434" d="M0,0H103.865c9.764,0,17.679,9.451,17.679,21.108v93.668c0,11.658-7.915,21.108-17.679,21.108H0Z" transform="translate(0 0)" fill="#fff"/>
    </clipPath>
  </defs>
  <g id="Mask_Group_3" data-name="Mask Group 3" transform="translate(-838.233 -3525.189)" clip-path="url(#clip-path)">
    <g id="Group_14" data-name="Group 14" transform="translate(807.234 3512.189)">
      <g id="Mask_Group_2" data-name="Mask Group 2" transform="translate(2584.501 -2.616) rotate(90)" clip-path="url(#clip-path-2)">
        <g id="Group_13" data-name="Group 13" transform="translate(-200.973 -204.083)">
          <g id="Group_12" data-name="Group 12" transform="translate(963.674 172.623) rotate(90)">
            <rect id="Rectangle_4" data-name="Rectangle 4" width="380.103" height="583.118" transform="translate(569.214 190.877)" fill="#fff"/>
            <g id="Group_11" data-name="Group 11" transform="translate(-0.435 0)">
              <g id="Group_10" data-name="Group 10" transform="translate(360.894 726.704)" clip-path="url(#clip-path-3)">
                <path id="Path_433" data-name="Path 433" d="M34.158,62.639C31.484,36.617,12.894,10.317,0,0H122.027V135.79c4.592.129,2.862.759,0,1.278V135.79c-4.094-.116-13.214.166-31.041,1.278C43.709,140.016,38.673,106.566,34.158,62.639Z" transform="translate(0.412 0)" fill="none"/>
              </g>
              <path id="wave_4_" data-name="wave (4)" d="M0,318.226,32.369,294.69c32.369-23.977,97.107-70.385,161.846-123.754C258.953,118.23,323.691,58.562,388.43,29.5,453.168,0,517.906,0,550.275,0h32.369V353.584H0Z" transform="translate(223.079 771.811) rotate(-90)" fill="#fff"/>
              <path id="wave_4_2" data-name="wave (4)" d="M1.6,454.143,41.26,420.535c39.647-34.254,119-100.5,198.1-176.926,79.126-75.455,158-161.088,237.97-201.973C557.279.1,638.277,1.707,678.776,2.508l40.5.8,12.563,516.947-40.5-.8-202.5-4.005-242.995-4.806-202.5-4.005-40.5-.8Z" transform="matrix(-0.105, -0.995, 0.995, -0.105, 73.836, 826.155)" fill="rgba(255,255,255,0.25)"/>
              <path id="wave_4_3" data-name="wave (4)" d="M-.8,702.268l40.874-51.82c40.89-52.778,122.616-154.98,204.588-272.272,81.949-115.855,164.144-246.8,245.255-311.4C571.038,1.222,651.12-.385,691.161-1.188l40.041-.8L718.678,764.457l-40.041.8-200.2,4.016-240.245,4.819-200.2,4.016-40.041.8Z" transform="translate(2.83 65.712) rotate(-5)" fill="rgba(255,255,255,0.09)"/>
            </g>
          </g>
          <g id="Layer_2" data-name="Layer 2" transform="matrix(-0.875, -0.485, 0.485, -0.875, 629.945, 853.033)">
            <g id="Layer_1" data-name="Layer 1" transform="translate(0 0)">
              <g id="triangle36" transform="translate(648.859 -6.38)">
                <path id="Path_435" data-name="Path 435" d="M64.431,44.5.569,14.2,18.127.23,64.756,29.953l.01-.587L18.272-.218a.306.306,0,0,0-.345.006L-.131,14.148a.234.234,0,0,0-.084.2.221.221,0,0,0,.123.18l64.5,30.554Z" transform="translate(0 0)" fill="rgba(196,196,196,0.49)"/>
              </g>
              <g id="triangle36-2" data-name="triangle36" transform="translate(648.645 7.663)">
                <path id="Path_436" data-name="Path 436" d="M63.682,73.379,1.252.965,64.635,30.991l.009-.547L.394.028A.28.28,0,0,0,.059.084a.221.221,0,0,0-.005.3l63.6,73.771Z" transform="translate(0 0)" fill="rgba(196,196,196,0.49)"/>
              </g>
              <g id="triangle36-3" data-name="triangle36" transform="translate(368.438 553.876)">
                <path id="Path_437" data-name="Path 437" d="M.768,35.176,88.007-.73l7.911,34.715.552-.009-8-35.1a.231.231,0,0,0-.147-.16.257.257,0,0,0-.23,0L-.532,35.2Z" transform="translate(0 0)" fill="rgba(196,196,196,0.49)"/>
              </g>
              <g id="triangle36-4" data-name="triangle36" transform="translate(644.795 569.007)">
                <path id="Path_438" data-name="Path 438" d="M56.895-.843-.244,16.125l1.748-.02L56.875-.347Z" transform="translate(0 0)" fill="rgba(196,196,196,0.49)"/>
              </g>
              <g id="triangle36-5" data-name="triangle36" transform="translate(666.733 -8.183)">
                <path id="Path_439" data-name="Path 439" d="M46.9,31.169,1.024,1.929,47.615-.23l.008-.476L.239,1.486a.272.272,0,0,0-.256.176.222.222,0,0,0,.1.251L46.894,31.756Z" transform="translate(0 0)" fill="rgba(196,196,196,0.49)"/>
              </g>
              <g id="triangle36-6" data-name="triangle36" transform="translate(645.036 228.155)">
                <path id="Path_440" data-name="Path 440" d="M63.447,29.854.767,27.69,51.929-.253,63.977,7.9l.01-.608L52.121-.732a.294.294,0,0,0-.3.005L-.29,27.708a.218.218,0,0,0-.119.265.227.227,0,0,0,.239.168l63.609,2.23Z" transform="translate(0 0)" fill="rgba(196,196,196,0.49)"/>
              </g>
              <g id="triangle36-7" data-name="triangle36" transform="translate(52.011 577.229)">
                <path id="Path_441" data-name="Path 441" d="M.383,16.505,10.992.794l1.819,15.551.54-.009L11.43.037a.225.225,0,0,0-.2-.2.3.3,0,0,0-.289.116L-.25,16.526Z" transform="translate(0 0)" fill="rgba(196,196,196,0.49)"/>
              </g>
              <g id="triangle36-8" data-name="triangle36" transform="translate(632.933 553.682)">
                <path id="Path_442" data-name="Path 442" d="M56.895-.843-.244,16.125l1.748-.02L56.875-.347Z" transform="translate(11.861 15.325)" fill="rgba(196,196,196,0.49)"/>
                <path id="Path_443" data-name="Path 443" d="M68.811,11.9,9.413-.132a.291.291,0,0,0-.336.178L-.477,31.594l.621-.011L9.588.371,68.8,12.365Z" transform="translate(0 0)" fill="rgba(196,196,196,0.49)"/>
              </g>
              <g id="triangle36-9" data-name="triangle36" transform="translate(646.813 408.553)">
                <path id="Path_444" data-name="Path 444" d="M58.2,8.22,25.348,25.241.84,19.866,58.389-.349,58.4-.866-.124,19.751A.243.243,0,0,0-.3,20a.222.222,0,0,0,.192.209L25.3,25.778h.069a.352.352,0,0,0,.138,0L58.19,8.767Z" transform="translate(0 0)" fill="rgba(196,196,196,0.49)"/>
              </g>
              <g id="triangle36-10" data-name="triangle36" transform="translate(474.851 552.166)">
                <path id="Path_445" data-name="Path 445" d="M8.541,35.324.641.62l32.723,9.72L18.74,35.171l.609-.01L33.986,10.3a.208.208,0,0,0,0-.2.211.211,0,0,0-.159-.129L.363.027a.309.309,0,0,0-.276,0A.232.232,0,0,0,0,.266l7.976,35Z" transform="translate(0 0)" fill="rgba(196,196,196,0.49)"/>
              </g>
              <g id="triangle36-11" data-name="triangle36" transform="translate(500.798 562.238)">
                <path id="Path_446" data-name="Path 446" d="M.232,24.989,14.644.505,31.677,24.6l.632-.011L14.861-.106a.219.219,0,0,0-.24-.107.3.3,0,0,0-.232.125L-.377,24.989Z" transform="translate(0 0)" fill="rgba(196,196,196,0.49)"/>
              </g>
              <g id="triangle36-12" data-name="triangle36" transform="translate(529.463 561.714)">
                <path id="Path_447" data-name="Path 447" d="M17.291,24.849l.632-.011L.958.828,59.945,24.317l1.288-.022L.362.018A.281.281,0,0,0,.051.084a.22.22,0,0,0,0,.284Z" transform="translate(0 0)" fill="rgba(196,196,196,0.49)"/>
              </g>
              <g id="triangle36-13" data-name="triangle36" transform="translate(561.521 554.727)">
                <path id="Path_448" data-name="Path 448" d="M-.062,6.869,59.76,30.688l1.288-.022L1.078,6.8,80.391-.674,70.935,30.549l.621-.011L81.073-.909a.244.244,0,0,0,0-.213.361.361,0,0,0-.229-.077L.153,6.41A.267.267,0,0,0-.1,6.6a.22.22,0,0,0,.149.252Z" transform="translate(0 0)" fill="rgba(196,196,196,0.49)"/>
              </g>
              <g id="triangle36-14" data-name="triangle36" transform="translate(62.912 577.048)">
                <path id="Path_449" data-name="Path 449" d="M2.439,16.527.59.713,28.343,16.2l1-.017L.417.027a.348.348,0,0,0-.3.005A.23.23,0,0,0,0,.267L1.9,16.515Z" transform="translate(0 0)" fill="rgba(196,196,196,0.49)"/>
              </g>
              <g id="triangle36-15" data-name="triangle36" transform="translate(346.144 351.143)">
                <path id="Path_450" data-name="Path 450" d="M2.715,19.331a.26.26,0,0,1-.126,0,.205.205,0,0,1-.124-.16L-.108,7.432a.226.226,0,0,1,.05-.185.3.3,0,0,1,.185-.1L68.773-1.018a.251.251,0,0,1,.284.188.241.241,0,0,1-.189.277L2.807,19.33ZM.476,7.554,2.931,18.781,66.128-.254Z" transform="translate(0 0)" fill="rgba(196,196,196,0.49)"/>
              </g>
              <g id="triangle36-16" data-name="triangle36" transform="translate(27.083 559.407)">
                <path id="Path_451" data-name="Path 451" d="M-.029,34.677,4.084.588,35.724,17.971,24.678,34.358l.632-.011,11.01-16.326a.222.222,0,0,0-.087-.322L4-.028a.3.3,0,0,0-.264,0,.246.246,0,0,0-.153.195L-.524,34.685Z" transform="translate(0 0)" fill="rgba(196,196,196,0.49)"/>
              </g>
              <g id="triangle36-17" data-name="triangle36" transform="translate(31.192 524.864)">
                <path id="Path_452" data-name="Path 452" d="M31.98,52.669a.363.363,0,0,1-.149,0L-.4,34.934a.257.257,0,0,1-.123-.19.265.265,0,0,1,.118-.2L55.73-.778a.293.293,0,0,1,.322-.005.2.2,0,0,1,.076.262L32.247,52.533a.281.281,0,0,1-.175.135ZM.234,34.721,31.852,52.115,55.3.08Z" transform="translate(0 0)" fill="rgba(196,196,196,0.49)"/>
              </g>
              <g id="triangle36-18" data-name="triangle36" transform="translate(63.716 524.341)">
                <path id="Path_453" data-name="Path 453" d="M98.064,52.894h0l-98.619.3a.309.309,0,0,1-.217-.108.2.2,0,0,1,0-.213L23.113-.182a.252.252,0,0,1,.178-.155.273.273,0,0,1,.238.047L98.244,52.475a.2.2,0,0,1,.076.262.277.277,0,0,1-.256.156ZM-.087,52.709,97.36,52.42,23.519.287Z" transform="translate(0 0)" fill="rgba(196,196,196,0.49)"/>
              </g>
              <g id="triangle36-19" data-name="triangle36" transform="translate(62.951 577.03)">
                <path id="Path_454" data-name="Path 454" d="M28.3,16.215l1-.017L1.153.477,97.818.191,66.648,15.715l1.15-.02L99.014.15a.239.239,0,0,0,.131-.276.25.25,0,0,0-.25-.168L.276,0h0A.288.288,0,0,0,.009.162a.223.223,0,0,0,.11.271Z" transform="translate(0 0)" fill="rgba(196,196,196,0.49)"/>
              </g>
              <g id="triangle36-20" data-name="triangle36" transform="translate(181.575 576.231)">
                <path id="Path_455" data-name="Path 455" d="M.834,15.543,31.147.418,20.667,15.267l.632-.011L32.145-.115a.194.194,0,0,0,0-.284.286.286,0,0,0-.321-.045L-.235,15.531Z" transform="translate(0 0)" fill="rgba(196,196,196,0.49)"/>
              </g>
              <g id="triangle36-21" data-name="triangle36" transform="translate(215.58 575.683)">
                <path id="Path_456" data-name="Path 456" d="M.4,15.586,11.136.368,70.61,14.707l1.966-.033L11.1-.158a.315.315,0,0,0-.312.117L-.235,15.576Z" transform="translate(0 0)" fill="rgba(196,196,196,0.49)"/>
              </g>
              <g id="triangle36-22" data-name="triangle36" transform="translate(457.068 306.358)">
                <path id="Path_457" data-name="Path 457" d="M112.974,80.839l-.1,0L-.467,42.461a.24.24,0,0,1-.169-.19.236.236,0,0,1,.1-.214L57.9-.832a.244.244,0,0,1,.218,0,.256.256,0,0,1,.182.108l54.959,81.268a.22.22,0,0,1,0,.284A.323.323,0,0,1,112.974,80.839ZM.159,42.136,112.342,80.131,57.99-.317Z" transform="translate(0 0)" fill="rgba(196,196,196,0.49)"/>
              </g>
              <g id="triangle36-23" data-name="triangle36" transform="translate(520.329 283.408)">
                <path id="Path_458" data-name="Path 458" d="M54.923,100.487a.25.25,0,0,1-.228-.118L-.264,19.1a.2.2,0,0,1,0-.192.268.268,0,0,1,.152-.154L47.507-.674a.283.283,0,0,1,.253,0,.259.259,0,0,1,.123.18l7.309,100.7a.245.245,0,0,1-.188.246ZM.4,19.12l54.184,80.2L47.382-.054Z" transform="translate(0 0)" fill="rgba(196,196,196,0.49)"/>
              </g>
              <g id="triangle36-24" data-name="triangle36" transform="translate(604.742 281.61)">
                <path id="Path_459" data-name="Path 459" d="M7.537,101.57h0a.249.249,0,0,1-.238-.219L-.01.643A.271.271,0,0,1,.062.46.306.306,0,0,1,.271.385L39.657-.588a.512.512,0,0,1,.217.1.208.208,0,0,1,0,.2L7.8,101.383a.271.271,0,0,1-.267.187ZM.527.847l7.186,99.1L39.28-.065Z" transform="translate(0 0)" fill="rgba(196,196,196,0.49)"/>
              </g>
              <g id="triangle36-25" data-name="triangle36" transform="translate(611.731 392.913)">
                <path id="Path_460" data-name="Path 460" d="M93.494,11.777,35.111,32.35.816,9.424,93.788-.914,93.8-1.39.1,9.031a.279.279,0,0,0-.227.177.22.22,0,0,0,.082.25L34.9,32.81a.292.292,0,0,0,.16.048l.1,0L93.485,12.293Z" transform="translate(0 0)" fill="rgba(196,196,196,0.49)"/>
              </g>
              <g id="triangle36-26" data-name="triangle36" transform="translate(605.795 222.012)">
                <path id="Path_461" data-name="Path 461" d="M-.212,33.561a.259.259,0,0,1-.251-.137.228.228,0,0,1,0-.263L39.328-.543a.282.282,0,0,1,.288,0,.254.254,0,0,1,.169.22l-.389,32.74a.261.261,0,0,1-.268.237l-39.4.963ZM39.293.176.474,33.073l38.443-.937Z" transform="translate(0 0)" fill="rgba(196,196,196,0.49)"/>
              </g>
              <g id="triangle36-27" data-name="triangle36" transform="translate(648.587 7.665)">
                <path id="Path_462" data-name="Path 462" d="M62.62,122.987-1.756,151.317.586.976,63.727,74.2l.013-.78L.543.085a.28.28,0,0,0-.3-.076A.259.259,0,0,0,.058.235L-2.291,151.71a.228.228,0,0,0,.123.2.312.312,0,0,0,.138,0l.115,0,64.527-28.433Z" transform="translate(0 0)" fill="rgba(196,196,196,0.49)"/>
              </g>
              <g id="triangle36-28" data-name="triangle36" transform="translate(645.043 221.393)">
                <path id="Path_463" data-name="Path 463" d="M-.131,33.182a.26.26,0,0,1-.126,0,.221.221,0,0,1-.135-.2L0,.244A.236.236,0,0,1,.08.06.4.4,0,0,1,.3,0L51.954,4.3a.234.234,0,0,1,.227.178.231.231,0,0,1-.131.255L-.016,33.18a.365.365,0,0,1-.115,0ZM.533.467.156,32.519,51.131,4.68Z" transform="translate(0 0)" fill="rgba(196,196,196,0.49)"/>
              </g>
              <g id="triangle36-29" data-name="triangle36" transform="translate(645.702 183.761)">
                <path id="Path_464" data-name="Path 464" d="M64.008,18.613,51.395,31.807.773,27.605,64.466-.429l.009-.527L-.26,27.552a.226.226,0,0,0-.154.256A.242.242,0,0,0-.187,28l51.654,4.3h0a.263.263,0,0,0,.208-.095l12.3-12.845Z" transform="translate(0 0)" fill="rgba(196,196,196,0.49)"/>
              </g>
              <g id="triangle36-30" data-name="triangle36" transform="translate(697.023 207.862)">
                <path id="Path_465" data-name="Path 465" d="M12.169,18.126.493,13.171,12.568.563l.013-.749L-.138,13.111a.275.275,0,0,0-.061.2.231.231,0,0,0,.147.159l12.2,5.179Z" transform="translate(0 0)" fill="rgba(196,196,196,0.49)"/>
              </g>
              <g id="triangle36-31" data-name="triangle36" transform="translate(696.75 224.093)">
                <path id="Path_466" data-name="Path 466" d="M12.306,8.017,2.543,1.41l9.816,4.167.008-.476L.394.019a.3.3,0,0,0-.358.1A.221.221,0,0,0,.1.429L12.284,8.666Z" transform="translate(0 0)" fill="rgba(196,196,196,0.49)"/>
              </g>
              <g id="triangle36-32" data-name="triangle36" transform="translate(237.585 525.438)">
                <path id="Path_467" data-name="Path 467" d="M-.565,50.356,59.1,64.751l1.966-.033L.21,50.059,109.417-.922,82.145,64.461l.586-.01L110.183-1.34a.211.211,0,0,0-.076-.252.294.294,0,0,0-.3.005L-.6,49.962a.249.249,0,0,0-.153.236A.232.232,0,0,0-.565,50.356Z" transform="translate(0)" fill="rgba(196,196,196,0.49)"/>
              </g>
              <g id="triangle36-33" data-name="triangle36" transform="translate(354.513 523.544)">
                <path id="Path_468" data-name="Path 468" d="M-.383,65.7,26.961.166,97.508,29.341,9.389,65.607l1.3-.022L98.263,29.561a.244.244,0,0,0,.16-.215.224.224,0,0,0-.153-.21L26.935-.38a.323.323,0,0,0-.218,0,.366.366,0,0,0-.163.145L-.993,65.722Z" transform="translate(0 0)" fill="rgba(196,196,196,0.49)"/>
              </g>
              <g id="triangle36-34" data-name="triangle36" transform="translate(345.626 377.311)">
                <path id="Path_469" data-name="Path 469" d="M31.379,20.768a.292.292,0,0,1-.16-.048L.1.422a.212.212,0,0,1-.064-.3A.29.29,0,0,1,.37.013L50.037,15.165a.236.236,0,0,1,.176.225.257.257,0,0,1-.184.231L31.459,20.8ZM1.826.929,31.387,20.271l17.647-4.927Z" transform="translate(0 0)" fill="rgba(196,196,196,0.49)"/>
              </g>
              <g id="triangle36-35" data-name="triangle36" transform="translate(349.322 354.762)">
                <path id="Path_470" data-name="Path 470" d="M49.65,34.565l-.092,0L-.121,19.394a.244.244,0,0,1-.169-.23A.259.259,0,0,1-.1,18.938L65.972-.966a.269.269,0,0,1,.275.066.209.209,0,0,1,.053.252L49.905,34.409a.3.3,0,0,1-.255.156ZM.814,19.2l48.7,14.856L65.581-.312Z" transform="translate(0 0)" fill="rgba(196,196,196,0.49)"/>
              </g>
              <g id="triangle36-36" data-name="triangle36" transform="translate(375.666 443.479)">
                <path id="Path_471" data-name="Path 471" d="M-.982,80.269h0a.255.255,0,0,1-.171-.076.2.2,0,0,1-.055-.163L4.742,5.057a.253.253,0,0,1,.2-.216L23.5-.335a.274.274,0,0,1,.264.046.228.228,0,0,1,.077.232L-.68,80.092A.277.277,0,0,1-.982,80.269ZM5.233,5.241-.512,77.659,23.156.309Z" transform="translate(0 0)" fill="rgba(196,196,196,0.49)"/>
              </g>
              <g id="triangle36-37" data-name="triangle36" transform="translate(438.793 354.712)">
                <path id="Path_472" data-name="Path 472" d="M129.459,38.622h0L-.284,35.3A.309.309,0,0,1-.5,35.191a.2.2,0,0,1,0-.213L15.9-.088a.309.309,0,0,1,.152-.134.364.364,0,0,1,.207,0L129.6,38.164a.225.225,0,0,1,.185.267.273.273,0,0,1-.3.19ZM.114,34.826,127.882,38.1,16.258.3Z" transform="translate(0 0)" fill="rgba(196,196,196,0.49)"/>
              </g>
              <g id="triangle36-38" data-name="triangle36" transform="translate(426.143 239.287)">
                <path id="Path_473" data-name="Path 473" d="M12.049,91l-.092,0a.26.26,0,0,1-.169-.189L0,.281A.255.255,0,0,1,.139.035.321.321,0,0,1,.438.03L70.71,47.677a.216.216,0,0,1,.1.181.258.258,0,0,1-.1.194L12.279,90.941a.323.323,0,0,1-.231.055ZM.61.766,12.267,90.3,70.052,47.881Z" transform="translate(0 0)" fill="rgba(196,196,196,0.49)"/>
              </g>
              <g id="triangle36-39" data-name="triangle36" transform="translate(426.779 201.265)">
                <path id="Path_474" data-name="Path 474" d="M70.113,72.7a.281.281,0,0,1-.172-.048L-.274,25.018a.223.223,0,0,1-.1-.211.271.271,0,0,1,.164-.2L62.084-.9a.336.336,0,0,1,.241,0,.243.243,0,0,1,.135.18l7.967,73.147a.216.216,0,0,1-.142.235.259.259,0,0,1-.173.043ZM.418,24.875,69.746,71.941,61.925-.328Z" transform="translate(0 0)" fill="rgba(196,196,196,0.49)"/>
              </g>
              <g id="triangle36-40" data-name="triangle36" transform="translate(523.576 9.486)">
                <path id="Path_475" data-name="Path 475" d="M27.656,130.112h0a.252.252,0,0,1-.215-.179L-.318,22.415a.208.208,0,0,1,0-.182.289.289,0,0,1,.174-.114L125.292-1.852a.273.273,0,0,1,.274.1.193.193,0,0,1,0,.263l-97.719,131.5a.307.307,0,0,1-.186.1ZM.266,22.547,27.854,129.278,124.764-1.236Z" transform="translate(0)" fill="rgba(196,196,196,0.49)"/>
              </g>
              <g id="triangle36-41" data-name="triangle36" transform="translate(509.055 200.029)">
                <path id="Path_476" data-name="Path 476" d="M8.236,73.579a.352.352,0,0,1-.138,0,.253.253,0,0,1-.135-.18L0,.255A.253.253,0,0,1,.165.018.3.3,0,0,1,.471.064l55.537,53.73a.236.236,0,0,1,.065.212.279.279,0,0,1-.164.165L8.293,73.609a.17.17,0,0,1-.057-.029ZM.664.891l7.8,72.1L55.4,53.835Z" transform="translate(0 0)" fill="rgba(196,196,196,0.49)"/>
              </g>
              <g id="triangle36-42" data-name="triangle36" transform="translate(549.907 196.334)">
                <path id="Path_477" data-name="Path 477" d="M55.777,54.2h0a.335.335,0,0,1-.194-.068L.045.4a.22.22,0,0,1,0-.284A.288.288,0,0,1,.351,0L95.675,20.009a.25.25,0,0,1,.193.169.241.241,0,0,1-.084.234l-39.775,33.7A.292.292,0,0,1,55.777,54.2ZM1.041.669,55.786,53.622,94.955,20.446Z" transform="translate(0 0)" fill="rgba(196,196,196,0.49)"/>
              </g>
              <g id="triangle36-43" data-name="triangle36" transform="translate(552.943 9.04)">
                <path id="Path_478" data-name="Path 478" d="M93.613,150.564h-.069L-1.768,130.559a.254.254,0,0,1-.183-.143.22.22,0,0,1,.028-.219L95.75-1.262A.258.258,0,0,1,95.89-1.4a.3.3,0,0,1,.207-.01.23.23,0,0,1,.192.219L93.939,150.285a.227.227,0,0,1-.118.184.3.3,0,0,1-.208.095Zm-94.88-20.4,94.625,19.856L95.688-.329Z" transform="translate(0 0)" fill="rgba(196,196,196,0.49)"/>
              </g>
              <g id="triangle36-44" data-name="triangle36" transform="translate(400.473 442.988)">
                <path id="Path_479" data-name="Path 479" d="M-.951,80.288a.277.277,0,0,1-.207-.1.216.216,0,0,1-.041-.2L23.309-.16a.271.271,0,0,1,.175-.165.337.337,0,0,1,.241,0L121.019,57.8a.223.223,0,0,1,.105.246.273.273,0,0,1-.216.192L-.894,80.276ZM23.738.318-.585,79.7,120.167,57.889Z" transform="translate(0 0)" fill="rgba(196,196,196,0.49)"/>
              </g>
              <g id="triangle36-45" data-name="triangle36" transform="translate(399.571 502.587)">
                <path id="Path_480" data-name="Path 480" d="M71.3,50.174l-.115,0L-.161,20.681a.22.22,0,0,1-.145-.241.282.282,0,0,1,.222-.206L121.729-1.8a.279.279,0,0,1,.274.117.22.22,0,0,1,0,.273L71.533,50.069A.338.338,0,0,1,71.3,50.174ZM.819,20.532,71.241,49.649,121.063-1.183Z" transform="translate(0 0)" fill="rgba(196,196,196,0.49)"/>
              </g>
              <g id="triangle36-46" data-name="triangle36" transform="translate(437.845 408.327)">
                <path id="Path_481" data-name="Path 481" d="M97.557,58.564a.364.364,0,0,1-.149,0L.115.434a.2.2,0,0,1-.1-.272A.288.288,0,0,1,.283,0L130.027,3.319a.248.248,0,0,1,.216.118.2.2,0,0,1,0,.223L97.788,58.469a.261.261,0,0,1-.175.124ZM1.195.466,97.463,57.989,129.582,3.782Z" transform="translate(0 0)" fill="rgba(196,196,196,0.49)"/>
              </g>
              <g id="triangle36-47" data-name="triangle36" transform="translate(479.995 501.403)">
                <path id="Path_482" data-name="Path 482" d="M32.966,61.145l-.092,0L-.593,51.206a.267.267,0,0,1-.17-.159A.236.236,0,0,1-.7,50.823L49.764-.658A.308.308,0,0,1,50.1-.714a.226.226,0,0,1,.134.261l-17,61.442a.278.278,0,0,1-.129.164Zm-33-10.3L32.78,60.591,49.448.35Z" transform="translate(0 0)" fill="rgba(196,196,196,0.49)"/>
              </g>
              <g id="triangle36-48" data-name="triangle36" transform="translate(562.24 499.94)">
                <path id="Path_483" data-name="Path 483" d="M-.665,61.684a.3.3,0,0,1-.2-.095.235.235,0,0,1-.059-.194l17-61.452a.26.26,0,0,1,.187-.175.3.3,0,0,1,.263.056l63.7,53.844a.2.2,0,0,1,.065.242.283.283,0,0,1-.233.166l-80.695,7.6ZM16.456.453l-16.8,60.72,79.762-7.511Z" transform="translate(0 0)" fill="rgba(196,196,196,0.49)"/>
              </g>
              <g id="triangle36-49" data-name="triangle36" transform="translate(579.836 411.769)">
                <path id="Path_484" data-name="Path 484" d="M-.585,54.816a.275.275,0,0,1-.194-.068.22.22,0,0,1,0-.273L31.676-.335a.272.272,0,0,1,.186-.135.31.31,0,0,1,.218.047L67.023,22.928a.217.217,0,0,1,.112.2.278.278,0,0,1-.153.195L-.412,54.783a.3.3,0,0,1-.173.033ZM31.956.126.015,54.016l66.27-30.933Z" transform="translate(0 0)" fill="rgba(196,196,196,0.49)"/>
              </g>
              <g id="triangle36-50" data-name="triangle36" transform="translate(578.679 475.191)">
                <path id="Path_485" data-name="Path 485" d="M63.591,78.826a.237.237,0,0,1-.183-.068L-.289,24.914a.2.2,0,0,1-.077-.221.26.26,0,0,1,.187-.175L92.629-1.359A.271.271,0,0,1,92.9-1.3a.2.2,0,0,1,.054.232L63.846,78.7a.251.251,0,0,1-.187.165ZM.414,24.841,63.475,78.149,92.3-.756Z" transform="translate(0 0)" fill="rgba(196,196,196,0.49)"/>
              </g>
              <g id="triangle36-51" data-name="triangle36" transform="translate(579.41 437.607)">
                <path id="Path_486" data-name="Path 486" d="M-.2,30.933a.278.278,0,0,1-.25-.148.238.238,0,0,1,.131-.3L67.076-.979a.324.324,0,0,1,.2,0L92.685,4.58a.26.26,0,0,1,.2.229.271.271,0,0,1-.2.236L-.118,30.922ZM67.229-.516,2.535,29.692,91.623,4.831Z" transform="translate(0 0)" fill="rgba(196,196,196,0.49)"/>
              </g>
              <g id="triangle36-52" data-name="triangle36" transform="translate(-5.186 500.59)">
                <path id="Path_487" data-name="Path 487" d="M-.336,40.113a.267.267,0,0,1-.25-.148.227.227,0,0,1,.12-.286l77.183-40.8a.3.3,0,0,1,.207,0,.309.309,0,0,1,.171.108L92.5,23.53a.2.2,0,0,1,0,.213.286.286,0,0,1-.2.135L-.29,40.112ZM76.741-.562,1.125,39.349l90.72-15.9Z" transform="translate(0 0)" fill="rgba(196,196,196,0.49)"/>
              </g>
              <g id="triangle36-53" data-name="triangle36" transform="translate(103.237 464.044)">
                <path id="Path_488" data-name="Path 488" d="M15.508,33.377h0a.261.261,0,0,1-.205-.108L-.1,8.725a.2.2,0,0,1,0-.213.25.25,0,0,1,.2-.135L47.473-.7a.283.283,0,0,1,.286.106.22.22,0,0,1,0,.273l-32.037,33.6a.263.263,0,0,1-.209.095ZM.519,8.755,15.565,32.718,46.785-.1Z" transform="translate(0 0)" fill="rgba(196,196,196,0.49)"/>
              </g>
              <g id="triangle36-54" data-name="triangle36" transform="translate(308.11 210.793)">
                <path id="Path_489" data-name="Path 489" d="M-.565,50.845h0a.233.233,0,0,1-.191-.29l15.69-50.6a.248.248,0,0,1,.123-.147.3.3,0,0,1,.2-.03.233.233,0,0,1,.191.29L-.24,50.668a.249.249,0,0,1-.123.147A.3.3,0,0,1-.565,50.845Z" transform="translate(0 0)" fill="rgba(196,196,196,0.49)"/>
              </g>
              <g id="triangle36-55" data-name="triangle36" transform="translate(319.419 210.589)">
                <path id="Path_490" data-name="Path 490" d="M-.508,50.84a.238.238,0,0,1-.16-.058.221.221,0,0,1-.088-.241l15.69-50.6A.208.208,0,0,1,15.063-.2a.245.245,0,0,1,.207,0L77.346,15.265a.231.231,0,0,1,.039.445L-.369,50.807A.26.26,0,0,1-.508,50.84ZM15.422.3-.037,50.174l76.619-34.6Z" transform="translate(0 0)" fill="rgba(196,196,196,0.49)"/>
              </g>
              <g id="triangle36-56" data-name="triangle36" transform="translate(321.088 283.134)">
                <path id="Path_491" data-name="Path 491" d="M21.178,64.038a.263.263,0,0,1-.262-.168L.006.308A.235.235,0,0,1,.114.043.294.294,0,0,1,.424.038L89.993,55.406a.213.213,0,0,1,.1.251.257.257,0,0,1-.233.176ZM.744.822,21.37,63.538l67.725-8.056Z" transform="translate(0 0)" fill="rgba(196,196,196,0.49)"/>
              </g>
              <g id="triangle36-57" data-name="triangle36" transform="translate(321.776 240.978)">
                <path id="Path_492" data-name="Path 492" d="M89.3,89.813a.26.26,0,0,1-.149,0L-.4,34.407A.234.234,0,0,1-.516,34.2.278.278,0,0,1-.364,34L77.4-1.117a.257.257,0,0,1,.241,0,.236.236,0,0,1,.146.18l11.79,90.527a.256.256,0,0,1-.142.235A.309.309,0,0,1,89.3,89.813ZM.277,34.162,89.015,89.028,77.29-.558Z" transform="translate(0 0)" fill="rgba(196,196,196,0.49)"/>
              </g>
              <g id="triangle36-58" data-name="triangle36" transform="translate(276.507 368.075)">
                <path id="Path_493" data-name="Path 493" d="M-.42,45.359a.3.3,0,0,1-.194-.078.222.222,0,0,1,.005-.324L47.286-.628a.3.3,0,0,1,.277-.066.247.247,0,0,1,.192.179l2.573,11.741a.237.237,0,0,1-.107.235L-.2,45.305a.39.39,0,0,1-.219.054ZM47.276,0,1.914,43.3,49.777,11.186Z" transform="translate(0 0)" fill="rgba(196,196,196,0.49)"/>
              </g>
              <g id="triangle36-59" data-name="triangle36" transform="translate(281.843 381.188)">
                <path id="Path_494" data-name="Path 494" d="M-.245,33.569a.268.268,0,0,1-.239-.138.248.248,0,0,1,.085-.3L50.022-.7A.333.333,0,0,1,50.356-.7L81.464,19.636a.2.2,0,0,1,.088.242.274.274,0,0,1-.21.186L-.2,33.6ZM50.187-.213.915,32.952,80.727,19.73Z" transform="translate(0 0)" fill="rgba(196,196,196,0.49)"/>
              </g>
              <g id="triangle36-60" data-name="triangle36" transform="translate(280.639 449.805)">
                <path id="Path_495" data-name="Path 495" d="M75.652,74.293a.272.272,0,0,1-.171-.068L-.111,12.737A.2.2,0,0,1-.176,12.5a.3.3,0,0,1,.21-.176L81.575-1.206a.269.269,0,0,1,.217.057.222.222,0,0,1,.089.191l-5.95,75.024a.25.25,0,0,1-.176.205ZM.659,12.724,75.434,73.538,81.278-.624Z" transform="translate(0 0)" fill="rgba(196,196,196,0.49)"/>
              </g>
              <g id="triangle36-61" data-name="triangle36" transform="translate(613.541 281.476)">
                <path id="Path_496" data-name="Path 496" d="M93.4,47.594-.813,100.932,31.008.157l62.947,22.49.009-.506L30.949-.44a.35.35,0,0,0-.23,0,.22.22,0,0,0-.141.154l-32.1,101.7a.213.213,0,0,0,.1.251.312.312,0,0,0,.161,0,.286.286,0,0,0,.149,0L93.377,48.171Z" transform="translate(0 0)" fill="rgba(196,196,196,0.49)"/>
              </g>
              <g id="triangle36-62" data-name="triangle36" transform="translate(612.633 338.318)">
                <path id="Path_497" data-name="Path 497" d="M93.169,41.8.624,52.093,94.127-.828l.01-.567L-.655,52.277a.208.208,0,0,0-.12.275.242.242,0,0,0,.25.158h0L93.115,42.29Z" transform="translate(0 0)" fill="rgba(196,196,196,0.49)"/>
              </g>
              <g id="triangle36-63" data-name="triangle36" transform="translate(644.435 264.6)">
                <path id="Path_498" data-name="Path 498" d="M63.414,22.536,1.815.519,63.85,2.694l.008-.476L.283,0A.272.272,0,0,0,.1.041.219.219,0,0,0,0,.185.228.228,0,0,0,.149.456L63.382,23.043Z" transform="translate(0 0)" fill="rgba(196,196,196,0.49)"/>
              </g>
              <g id="triangle36-64" data-name="triangle36" transform="translate(128.134 463.301)">
                <path id="Path_499" data-name="Path 499" d="M-.245,33.943a.268.268,0,0,1-.24-.137.223.223,0,0,1,.04-.254L31.534-.059a.291.291,0,0,1,.208-.085L93.835-1.391h0A.258.258,0,0,1,94.1-1.2a.24.24,0,0,1-.177.266L-.142,33.921ZM31.861.331.677,33.108,92.435-.851Z" transform="translate(0 0)" fill="rgba(196,196,196,0.49)"/>
              </g>
              <g id="triangle36-65" data-name="triangle36" transform="translate(127.609 489.799)">
                <path id="Path_500" data-name="Path 500" d="M74.469,86.67a.23.23,0,0,1-.16-.048L-.406,33.856a.205.205,0,0,1-.1-.211.252.252,0,0,1,.176-.2L93.742-1.358a.3.3,0,0,1,.264,0,.231.231,0,0,1,.1.231L74.748,86.483a.3.3,0,0,1-.176.185ZM.286,33.733,74.3,86.045,93.479-.756Z" transform="translate(0 0)" fill="rgba(196,196,196,0.49)"/>
              </g>
              <g id="triangle36-66" data-name="triangle36" transform="translate(171.695 426.029)">
                <path id="Path_501" data-name="Path 501" d="M-.123,25.963a.248.248,0,0,1-.261-.188A.249.249,0,0,1-.207,25.5L77.359-1.131a.282.282,0,0,1,.3.066.211.211,0,0,1,0,.263L62.179,24.59a.279.279,0,0,1-.232.136L-.146,25.973Zm77-26.428L1.391,25.451l60.426-1.209Z" transform="translate(0 0)" fill="rgba(196,196,196,0.49)"/>
              </g>
              <g id="triangle36-67" data-name="triangle36" transform="translate(238.145 488.028)">
                <path id="Path_502" data-name="Path 502" d="M-1.058,87.775a.325.325,0,0,1-.161,0,.222.222,0,0,1-.1-.231L18.051-.078a.217.217,0,0,1,.141-.164.284.284,0,0,1,.241,0L109.475,35.83a.225.225,0,0,1,.157.21.242.242,0,0,1-.153.215L-.931,87.752a.262.262,0,0,1-.127.022ZM18.505.269-.679,87.141,108.748,36.055Z" transform="translate(0 0)" fill="rgba(196,196,196,0.49)"/>
              </g>
              <g id="triangle36-68" data-name="triangle36" transform="translate(261.015 462.49)">
                <path id="Path_503" data-name="Path 503" d="M90.933,61.69l-.1,0L-.224,25.626a.236.236,0,0,1-.148-.139.211.211,0,0,1,.027-.193L15.129-.1a.263.263,0,0,1,.186-.125.282.282,0,0,1,.229.057L91.135,61.322a.218.218,0,0,1,.056.264.29.29,0,0,1-.258.154ZM.265,25.253,89.526,60.62,15.431.362Z" transform="translate(0 0)" fill="rgba(196,196,196,0.49)"/>
              </g>
              <g id="triangle36-69" data-name="triangle36" transform="translate(672.103 420.99)">
                <path id="Path_504" data-name="Path 504" d="M32.217,26.607.646,16.736,32.824.06l.009-.547L-.122,16.587a.224.224,0,0,0-.13.225.209.209,0,0,0,.169.2l32.292,10.1Z" transform="translate(0 0)" fill="rgba(196,196,196,0.49)"/>
              </g>
              <g id="triangle36-70" data-name="triangle36" transform="translate(338.068 157.836)">
                <path id="Path_505" data-name="Path 505" d="M-.3,37.307a.255.255,0,0,1-.217-.1.207.207,0,0,1-.039-.174.244.244,0,0,1,.113-.151L62.483-.887a.3.3,0,0,1,.378.064.206.206,0,0,1,.034.176.247.247,0,0,1-.12.149L-.149,37.274A.247.247,0,0,1-.3,37.307Z" transform="translate(0 0)" fill="rgba(196,196,196,0.49)"/>
              </g>
              <g id="triangle36-71" data-name="triangle36" transform="translate(338.115 159.738)">
                <path id="Path_506" data-name="Path 506" d="M61.71,52.768h0L-.378,37.289A.233.233,0,0,1-.559,37.1a.241.241,0,0,1,.119-.225L62.485-.9a.335.335,0,0,1,.276,0,.222.222,0,0,1,.146.21L62.012,52.55a.227.227,0,0,1-.118.184A.247.247,0,0,1,61.71,52.768ZM.271,36.964,61.455,52.215,62.336-.256Z" transform="translate(0 0)" fill="rgba(196,196,196,0.49)"/>
              </g>
              <g id="triangle36-72" data-name="triangle36" transform="translate(424.989 158.394)">
                <path id="Path_507" data-name="Path 507" d="M-.546,53.665a.247.247,0,0,1-.138,0,.2.2,0,0,1-.123-.19L.087.237a.238.238,0,0,1,.13-.2.269.269,0,0,1,.264,0L61.962,27.706a.247.247,0,0,1,.134.22.236.236,0,0,1-.164.205L-.362,53.642ZM.575.583-.306,53.054l61.4-25.14Z" transform="translate(0 0)" fill="rgba(196,196,196,0.49)"/>
              </g>
              <g id="triangle36-73" data-name="triangle36" transform="translate(427.143 33.318)">
                <path id="Path_508" data-name="Path 508" d="M60.509,107.489l-.115,0L-1.063,79.761a.224.224,0,0,1-.122-.292L32.549-.32a.276.276,0,0,1,.267-.167.28.28,0,0,1,.25.178L60.778,107.211a.215.215,0,0,1-.1.245A.26.26,0,0,1,60.509,107.489ZM-.6,79.409,60.13,106.786,32.729.558Z" transform="translate(0 0)" fill="rgba(196,196,196,0.49)"/>
              </g>
              <g id="triangle36-74" data-name="triangle36" transform="translate(643.25 474.224)">
                <path id="Path_509" data-name="Path 509" d="M59.59,42.587-.438,78.973,28.275.322,59.79,36.185l.013-.77L28.4-.328a.3.3,0,0,0-.263-.087.267.267,0,0,0-.21.165L-1.194,79.492a.231.231,0,0,0,.1.251.292.292,0,0,0,.16.048.286.286,0,0,0,.149,0L59.6,43.2Z" transform="translate(0 0)" fill="rgba(196,196,196,0.49)"/>
              </g>
              <g id="triangle36-75" data-name="triangle36" transform="translate(642.547 517.746)">
                <path id="Path_510" data-name="Path 510" d="M59.2,47.835.383,35.915,60.282-.316l.01-.577L-.421,35.878a.229.229,0,0,0-.119.245.217.217,0,0,0,.192.179l59.57,12.059Z" transform="translate(0 0)" fill="rgba(196,196,196,0.49)"/>
              </g>
              <g id="triangle36-76" data-name="triangle36" transform="translate(671.667 446.382)">
                <path id="Path_511" data-name="Path 511" d="M31.893,35.832,1.056.738l31.411,9.824.009-.506L.367.01A.293.293,0,0,0,.055.1.22.22,0,0,0,.05.39L31.868,36.6Z" transform="translate(0 0)" fill="rgba(196,196,196,0.49)"/>
              </g>
              <path id="Path_512" data-name="Path 512" d="M2.833-.042A2.78,2.78,0,0,0-.037,2.477,2.556,2.556,0,0,0,2.726,4.921,2.78,2.78,0,0,0,5.6,2.4,2.556,2.556,0,0,0,2.833-.042Z" transform="translate(664.199 -8.893)" fill="rgba(196,196,196,0.49)"/>
              <path id="Path_513" data-name="Path 513" d="M3.922.894A2.745,2.745,0,0,1,6.534,2.357,2.31,2.31,0,0,1,5.9,5.087a3.151,3.151,0,0,1-3.092.6A2.392,2.392,0,0,1,1.11,3.4,2.785,2.785,0,0,1,3.922.894m.016-.952A4.106,4.106,0,0,0,.278,2.1a3.084,3.084,0,0,0,.755,3.737,4.221,4.221,0,0,0,4.235.692A3.615,3.615,0,0,0,7.744,3.319,3.533,3.533,0,0,0,3.95-.059Z" transform="translate(663.11 -9.829)" fill="rgba(196,196,196,0.49)"/>
              <path id="Path_514" data-name="Path 514" d="M1.539-.023A1.683,1.683,0,0,0-.023,1.522,1.548,1.548,0,0,0,1.488,3.015a1.731,1.731,0,0,0,1.75-1.508A1.387,1.387,0,0,0,2.764.418,1.8,1.8,0,0,0,1.539-.023Z" transform="translate(29.442 558.056)" fill="rgba(196,196,196,0.49)"/>
              <path id="Path_515" data-name="Path 515" d="M2.817.9a1.576,1.576,0,0,1,1.7,1.5,1.531,1.531,0,0,1-.824,1.483,1.938,1.938,0,0,1-1.85.031,1.421,1.421,0,0,1-.775-1.456A1.489,1.489,0,0,1,1.6,1.368,1.913,1.913,0,0,1,2.84.91m.016-.952A2.97,2.97,0,0,0,.206,1.508a2.228,2.228,0,0,0,.533,2.7,3.048,3.048,0,0,0,3.057.512A2.617,2.617,0,0,0,5.6,2.412,2.556,2.556,0,0,0,2.832-.032Z" transform="translate(28.164 557.134)" fill="rgba(196,196,196,0.49)"/>
              <path id="Path_516" data-name="Path 516" d="M2.418-.036A2.528,2.528,0,0,0,.166,1.306a1.9,1.9,0,0,0,.485,2.3,2.607,2.607,0,0,0,2.62.406,2.22,2.22,0,0,0,1.5-2A2.185,2.185,0,0,0,2.418-.036Z" transform="translate(60.806 575.209)" fill="rgba(196,196,196,0.49)"/>
              <path id="Path_517" data-name="Path 517" d="M3.438.9A2.183,2.183,0,0,1,5.806,2.977,2.368,2.368,0,0,1,3.367,5.134,2.183,2.183,0,0,1,1,3.058,2.368,2.368,0,0,1,3.438.9m.016-.952a3.4,3.4,0,0,0-3.5,3.08,3.126,3.126,0,0,0,3.36,3A3.414,3.414,0,0,0,6.852,2.979,2.758,2.758,0,0,0,5.9.815,3.582,3.582,0,0,0,3.454-.051Z" transform="translate(59.786 574.273)" fill="rgba(196,196,196,0.49)"/>
              <path id="Path_518" data-name="Path 518" d="M2.1-.031A2.054,2.054,0,0,0-.028,1.827,1.888,1.888,0,0,0,2.011,3.635,2.054,2.054,0,0,0,4.134,1.777,1.656,1.656,0,0,0,3.558.485,2.15,2.15,0,0,0,2.1-.031Z" transform="translate(694.998 221.185)" fill="rgba(196,196,196,0.49)"/>
              <path id="Path_519" data-name="Path 519" d="M3.174.9A1.888,1.888,0,0,1,5.212,2.713,2.054,2.054,0,0,1,3.089,4.571,1.888,1.888,0,0,1,1.05,2.763a1.787,1.787,0,0,1,.636-1.307A2.294,2.294,0,0,1,3.174.9M3.19-.047A3.123,3.123,0,0,0-.042,2.772,2.866,2.866,0,0,0,3.05,5.524,3.123,3.123,0,0,0,6.281,2.7,2.877,2.877,0,0,0,3.19-.047Z" transform="translate(693.922 220.178)" fill="rgba(196,196,196,0.49)"/>
              <path id="Path_520" data-name="Path 520" d="M3.581-.053A3.249,3.249,0,0,1,7.1,3.036a3.524,3.524,0,0,1-3.629,3.21A3.249,3.249,0,0,1-.048,3.157,3.524,3.524,0,0,1,3.581-.053Z" transform="translate(501.799 285.579)" fill="rgba(196,196,196,0.49)"/>
              <path id="Path_521" data-name="Path 521" d="M4.705.882a3.465,3.465,0,0,1,3.265,1.9,2.94,2.94,0,0,1-.851,3.445A4,4,0,0,1,3.2,6.959a3.036,3.036,0,0,1-2.14-2.886A3.529,3.529,0,0,1,4.705.882M4.721-.07A4.909,4.909,0,0,0,.339,2.5a3.684,3.684,0,0,0,.887,4.468A5.04,5.04,0,0,0,6.284,7.8,4.322,4.322,0,0,0,9.251,3.974,4.229,4.229,0,0,0,4.721-.07Z" transform="translate(500.837 284.639)" fill="rgba(196,196,196,0.49)"/>
              <path id="Path_522" data-name="Path 522" d="M3.038,1.3A1.389,1.389,0,0,0,1.532-.023,1.507,1.507,0,0,0-.02,1.35,1.214,1.214,0,0,0,.4,2.3a1.576,1.576,0,0,0,1.075.38A1.518,1.518,0,0,0,3.038,1.3Z" transform="translate(559.695 261.411)" fill="rgba(196,196,196,0.49)"/>
              <path id="Path_523" data-name="Path 523" d="M2.609.913A1.389,1.389,0,0,1,4.116,2.234,1.507,1.507,0,0,1,2.564,3.607,1.389,1.389,0,0,1,1.058,2.286,1.507,1.507,0,0,1,2.609.913m.016-.952A2.576,2.576,0,0,0-.035,2.294a2.368,2.368,0,0,0,2.56,2.265,2.576,2.576,0,0,0,2.66-2.333A2.368,2.368,0,0,0,2.625-.039Z" transform="translate(581.996 259.962)" fill="rgba(196,196,196,0.49)"/>
              <path id="Path_524" data-name="Path 524" d="M3.35,6.167A3.729,3.729,0,0,0,6.7,4.243a2.792,2.792,0,0,0-.65-3.4A3.818,3.818,0,0,0,2.208.2,3.276,3.276,0,0,0-.047,3.106a3.183,3.183,0,0,0,3.4,3.061Z" transform="translate(641.931 213.69)" fill="rgba(196,196,196,0.49)"/>
              <path id="Path_525" data-name="Path 525" d="M4.59.874A3.42,3.42,0,0,1,7.813,2.749a2.9,2.9,0,0,1-.84,3.4,3.95,3.95,0,0,1-3.864.722A3,3,0,0,1,1,4.023a3.038,3.038,0,0,1,1.08-2.21A3.9,3.9,0,0,1,4.59.874m.016-.942A4.533,4.533,0,0,0-.061,4.061,4.179,4.179,0,0,0,4.47,8.034,4.533,4.533,0,0,0,9.137,3.9,4.179,4.179,0,0,0,4.606-.068Z" transform="translate(640.889 212.697)" fill="rgba(196,196,196,0.49)"/>
              <path id="Path_526" data-name="Path 526" d="M4.386,1.884A1.875,1.875,0,0,0,3.061.1,2.47,2.47,0,0,0,.644.56,1.814,1.814,0,0,0,.125,2.688a2.141,2.141,0,0,0,2.02,1.168,2.178,2.178,0,0,0,2.24-1.972Z" transform="translate(646.731 5.984)" fill="rgba(196,196,196,0.49)"/>
              <path id="Path_527" data-name="Path 527" d="M3.277.9A2.137,2.137,0,0,1,5.29,2.081a1.816,1.816,0,0,1-.532,2.126,2.471,2.471,0,0,1-2.419.445A1.872,1.872,0,0,1,1.026,2.865,2.181,2.181,0,0,1,3.277.9m.016-.952A3.233,3.233,0,0,0-.043,2.88,2.972,2.972,0,0,0,3.166,5.724,3.236,3.236,0,0,0,6.51,2.8,2.623,2.623,0,0,0,5.6.768a3.4,3.4,0,0,0-2.3-.817Z" transform="translate(645.688 5.058)" fill="rgba(196,196,196,0.49)"/>
              <path id="Path_528" data-name="Path 528" d="M3.2-.047A3.142,3.142,0,0,0-.042,2.8,2.89,2.89,0,0,0,3.084,5.564,3.142,3.142,0,0,0,6.327,2.714,2.541,2.541,0,0,0,5.439.74,3.3,3.3,0,0,0,3.2-.047Z" transform="translate(400.783 390.804)" fill="rgba(196,196,196,0.49)"/>
              <path id="Path_529" data-name="Path 529" d="M4.291.888A3.086,3.086,0,0,1,7.2,2.582a2.619,2.619,0,0,1-.76,3.068,3.564,3.564,0,0,1-3.487.65,2.7,2.7,0,0,1-1.9-2.572A3.144,3.144,0,0,1,4.291.888m.016-.952A4.492,4.492,0,0,0,.3,2.3a3.375,3.375,0,0,0,.828,4.088,4.62,4.62,0,0,0,4.635.756A3.956,3.956,0,0,0,8.475,3.632a3.869,3.869,0,0,0-4.168-3.7Z" transform="translate(399.741 389.981)" fill="rgba(196,196,196,0.49)"/>
              <path id="Path_530" data-name="Path 530" d="M2.752-.041A2.7,2.7,0,0,0-.036,2.406,2.483,2.483,0,0,0,2.648,4.78,2.7,2.7,0,0,0,5.436,2.333,2.483,2.483,0,0,0,2.752-.041Z" transform="translate(464.322 550.232)" fill="rgba(196,196,196,0.49)"/>
              <path id="Path_531" data-name="Path 531" d="M3.842.895a2.756,2.756,0,0,1,2.5,1.113,2.169,2.169,0,0,1-.042,2.5,2.958,2.958,0,0,1-2.536,1.2,2.756,2.756,0,0,1-2.5-1.113,2.169,2.169,0,0,1,.042-2.5A2.958,2.958,0,0,1,3.842.895m.016-.952A4.021,4.021,0,0,0,.273,2.055a3.02,3.02,0,0,0,.738,3.66,4.134,4.134,0,0,0,4.148.678A3.54,3.54,0,0,0,7.584,3.251,3.462,3.462,0,0,0,3.858-.057Z" transform="translate(463.354 549.294)" fill="rgba(196,196,196,0.49)"/>
              <path id="Path_532" data-name="Path 532" d="M3.558-.053A3.494,3.494,0,0,0-.047,3.113a3.213,3.213,0,0,0,3.47,3.073A3.5,3.5,0,0,0,7.035,3.027a2.835,2.835,0,0,0-.988-2.2A3.678,3.678,0,0,0,3.558-.053Z" transform="translate(509.041 559.287)" fill="rgba(196,196,196,0.49)"/>
              <path id="Path_533" data-name="Path 533" d="M4.59.884a3.211,3.211,0,0,1,3.466,3.08A3.5,3.5,0,0,1,4.439,7.123,3.211,3.211,0,0,1,.974,4.043,3.509,3.509,0,0,1,4.59.884m.016-.952A4.533,4.533,0,0,0-.061,4.061,4.179,4.179,0,0,0,4.47,8.034,4.533,4.533,0,0,0,9.137,3.9,4.179,4.179,0,0,0,4.606-.068Z" transform="translate(508.19 558.347)" fill="rgba(196,196,196,0.49)"/>
              <path id="Path_534" data-name="Path 534" d="M2-.03A2.094,2.094,0,0,0,.14,1.076,1.574,1.574,0,0,0,.531,2.982a2.155,2.155,0,0,0,2.163.348A1.843,1.843,0,0,0,3.952,1.689,1.806,1.806,0,0,0,2-.03Z" transform="translate(532.887 499.048)" fill="rgba(196,196,196,0.49)"/>
              <path id="Path_535" data-name="Path 535" d="M3.082.906A1.8,1.8,0,0,1,5.03,2.635,1.964,1.964,0,0,1,3,4.411,1.8,1.8,0,0,1,1.052,2.682,1.964,1.964,0,0,1,3.082.906M3.1-.046a3.233,3.233,0,0,0-2.879,1.7A2.429,2.429,0,0,0,.814,4.6a3.324,3.324,0,0,0,3.334.545A2.848,2.848,0,0,0,6.1,2.617a2.439,2.439,0,0,0-.848-1.9A3.165,3.165,0,0,0,3.1-.046Z" transform="translate(532.696 462.531)" fill="rgba(196,196,196,0.49)"/>
              <path id="Path_536" data-name="Path 536" d="M3.869-.057A3.791,3.791,0,0,0-.051,3.371a3.483,3.483,0,0,0,3.76,3.338,3.791,3.791,0,0,0,3.92-3.428A3.483,3.483,0,0,0,3.869-.057Z" transform="translate(642.974 425.879)" fill="rgba(196,196,196,0.49)"/>
              <path id="Path_537" data-name="Path 537" d="M4.935.879A3.483,3.483,0,0,1,8.7,4.213,3.79,3.79,0,0,1,4.783,7.644,3.485,3.485,0,0,1,1.015,4.317,3.8,3.8,0,0,1,4.935.879m.016-.952c-2.716.035-4.961,2-5.016,4.4S2.036,8.628,4.752,8.6s4.965-2,5.024-4.388A3.939,3.939,0,0,0,8.407,1.155,5.109,5.109,0,0,0,4.951-.073Z" transform="translate(641.905 425.103)" fill="rgba(196,196,196,0.49)"/>
              <path id="Path_538" data-name="Path 538" d="M1.6-.024A1.671,1.671,0,0,0,.112.857,1.256,1.256,0,0,0,.423,2.378a1.719,1.719,0,0,0,1.725.278,1.47,1.47,0,0,0,1-1.309,1.261,1.261,0,0,0-.441-.98A1.637,1.637,0,0,0,1.6-.024Z" transform="translate(-7.084 539.096)" fill="rgba(196,196,196,0.49)"/>
              <path id="Path_539" data-name="Path 539" d="M2.644.9A1.421,1.421,0,0,1,4.072,2.27,1.545,1.545,0,0,1,2.6,3.687a1.6,1.6,0,0,1-1.475-.634,1.258,1.258,0,0,1,.025-1.466A1.72,1.72,0,0,1,2.644.9M2.66-.039a2.618,2.618,0,0,0-2.7,2.381,2.412,2.412,0,0,0,2.609,2.3,2.62,2.62,0,0,0,2.7-2.375A2.128,2.128,0,0,0,4.531.617,2.761,2.761,0,0,0,2.66-.039Z" transform="translate(-8.128 538.17)" fill="rgba(196,196,196,0.49)"/>
              <path id="Path_540" data-name="Path 540" d="M2.568-.038a2.519,2.519,0,0,0-2.6,2.282,2.316,2.316,0,0,0,2.5,2.215,2.519,2.519,0,0,0,2.6-2.282,2.316,2.316,0,0,0-2.5-2.215Z" transform="translate(69.805 464.878)" fill="rgba(196,196,196,0.49)"/>
              <path id="Path_541" data-name="Path 541" d="M3.657.9a2.316,2.316,0,0,1,2.5,2.215,2.519,2.519,0,0,1-2.6,2.282,2.316,2.316,0,0,1-2.5-2.215,2.193,2.193,0,0,1,.779-1.6A2.817,2.817,0,0,1,3.657.9m.016-.952A3.827,3.827,0,0,0,.26,1.955a2.875,2.875,0,0,0,.7,3.484,3.934,3.934,0,0,0,3.948.647A3.37,3.37,0,0,0,7.218,3.095,3.306,3.306,0,0,0,3.662-.054Z" transform="translate(68.712 464.13)" fill="rgba(196,196,196,0.49)"/>
              <path id="Path_542" data-name="Path 542" d="M1.543-.023A1.519,1.519,0,0,0-.02,1.357,1.4,1.4,0,0,0,1.49,2.691,1.521,1.521,0,0,0,3.061,1.318,1.409,1.409,0,0,0,1.543-.023Z" transform="translate(303.457 270.503)" fill="rgba(196,196,196,0.49)"/>
              <path id="Path_543" data-name="Path 543" d="M2.621.913A1.4,1.4,0,0,1,4.127,2.254,1.522,1.522,0,0,1,2.552,3.627,1.4,1.4,0,0,1,1.046,2.286,1.534,1.534,0,0,1,2.621.913m.016-.952A2.587,2.587,0,0,0-.035,2.3,2.379,2.379,0,0,0,2.536,4.579,2.587,2.587,0,0,0,5.208,2.236,2.379,2.379,0,0,0,2.637-.039Z" transform="translate(302.324 269.543)" fill="rgba(196,196,196,0.49)"/>
              <path id="Path_544" data-name="Path 544" d="M3.593-.053A3.715,3.715,0,0,0,.263,1.871,2.783,2.783,0,0,0,.919,5.256,3.806,3.806,0,0,0,4.745,5.9,3.265,3.265,0,0,0,6.99,3,3.185,3.185,0,0,0,3.593-.053Z" transform="translate(422.623 343.35)" fill="rgba(196,196,196,0.49)"/>
              <path id="Path_545" data-name="Path 545" d="M4.59.884A3.4,3.4,0,0,1,7.8,2.77a2.9,2.9,0,0,1-.866,3.391,3.939,3.939,0,0,1-3.865.689A2.977,2.977,0,0,1,1,3.982,3.47,3.47,0,0,1,4.59.884m.016-.952A4.533,4.533,0,0,0-.061,4.061,4.179,4.179,0,0,0,4.47,8.034,4.533,4.533,0,0,0,9.137,3.9,4.179,4.179,0,0,0,4.606-.068Z" transform="translate(421.731 342.473)" fill="rgba(196,196,196,0.49)"/>
              <path id="Path_546" data-name="Path 546" d="M1.7,3.073A1.852,1.852,0,0,0,3.348,2.1,1.392,1.392,0,0,0,3,.41,1.906,1.906,0,0,0,1.089.1,1.63,1.63,0,0,0-.023,1.553,1.6,1.6,0,0,0,1.7,3.073Z" transform="translate(331.489 355.718)" fill="rgba(196,196,196,0.49)"/>
              <path id="Path_547" data-name="Path 547" d="M2.851.91a1.706,1.706,0,0,1,1.61.931,1.446,1.446,0,0,1-.415,1.7A1.969,1.969,0,0,1,2.12,3.9a1.494,1.494,0,0,1-1.054-1.42,1.508,1.508,0,0,1,.534-1.1A1.937,1.937,0,0,1,2.851.91m.016-.952A2.991,2.991,0,0,0,.2,1.53a2.247,2.247,0,0,0,.55,2.722,3.075,3.075,0,0,0,3.085.505A2.635,2.635,0,0,0,5.642,2.421,2.575,2.575,0,0,0,2.867-.042Z" transform="translate(330.355 354.867)" fill="rgba(196,196,196,0.49)"/>
              <path id="Path_548" data-name="Path 548" d="M2-.03A1.964,1.964,0,0,0-.026,1.746,1.8,1.8,0,0,0,1.922,3.475,1.964,1.964,0,0,0,3.952,1.7,1.8,1.8,0,0,0,2-.03Z" transform="translate(334.719 371.328)" fill="rgba(196,196,196,0.49)"/>
              <path id="Path_549" data-name="Path 549" d="M3.082.906A1.929,1.929,0,0,1,4.9,1.959a1.635,1.635,0,0,1-.468,1.918,2.226,2.226,0,0,1-2.178.41A1.689,1.689,0,0,1,1.063,2.682,1.962,1.962,0,0,1,3.082.906M3.1-.046a3.233,3.233,0,0,0-2.879,1.7A2.429,2.429,0,0,0,.814,4.6a3.324,3.324,0,0,0,3.334.545A2.848,2.848,0,0,0,6.1,2.617,2.784,2.784,0,0,0,3.1-.046Z" transform="translate(333.62 370.481)" fill="rgba(196,196,196,0.49)"/>
              <path id="Path_550" data-name="Path 550" d="M1.688-.02A1.683,1.683,0,0,0,.222.65,1.231,1.231,0,0,0,.2,2.085a1.57,1.57,0,0,0,1.444.62,1.682,1.682,0,0,0,1.466-.67A1.231,1.231,0,0,0,3.132.6,1.57,1.57,0,0,0,1.688-.02Z" transform="translate(377.092 398.939)" fill="rgba(196,196,196,0.49)"/>
              <path id="Path_551" data-name="Path 551" d="M2.644.913a1.57,1.57,0,0,1,1.444.62,1.231,1.231,0,0,1-.024,1.435,1.682,1.682,0,0,1-1.466.67,1.57,1.57,0,0,1-1.444-.62,1.231,1.231,0,0,1,.024-1.435A1.683,1.683,0,0,1,2.644.913M2.66-.039A2.774,2.774,0,0,0,.188,1.417,2.083,2.083,0,0,0,.7,3.941a2.851,2.851,0,0,0,2.86.47A2.443,2.443,0,0,0,5.231,2.246,2.1,2.1,0,0,0,4.5.616,2.721,2.721,0,0,0,2.66-.039Z" transform="translate(376.152 398.127)" fill="rgba(196,196,196,0.49)"/>
              <path id="Path_552" data-name="Path 552" d="M2.717-.04A2.666,2.666,0,0,0-.036,2.376,2.452,2.452,0,0,0,2.615,4.72,2.666,2.666,0,0,0,5.368,2.3,2.452,2.452,0,0,0,2.717-.04Z" transform="translate(609.325 395.068)" fill="rgba(196,196,196,0.49)"/>
              <path id="Path_553" data-name="Path 553" d="M3.8.9A2.617,2.617,0,0,1,6.261,2.334a2.222,2.222,0,0,1-.647,2.6,3.024,3.024,0,0,1-2.959.549A2.292,2.292,0,0,1,1.042,3.3,2.668,2.668,0,0,1,3.8.9m.016-.952a3.982,3.982,0,0,0-3.544,2.1,2.993,2.993,0,0,0,.739,3.623,4.1,4.1,0,0,0,4.109.668,3.508,3.508,0,0,0,2.4-3.113,3.432,3.432,0,0,0-3.7-3.278Z" transform="translate(608.245 394.254)" fill="rgba(196,196,196,0.49)"/>
              <path id="Path_554" data-name="Path 554" d="M3.132-.046A3.269,3.269,0,0,0,.221,1.674a2.456,2.456,0,0,0,.6,2.974A3.362,3.362,0,0,0,4.2,5.2,2.88,2.88,0,0,0,6.167,2.646,2.816,2.816,0,0,0,3.132-.046Z" transform="translate(641.721 258.155)" fill="rgba(196,196,196,0.49)"/>
              <path id="Path_555" data-name="Path 555" d="M4.2.89A2.817,2.817,0,0,1,7.245,3.582,3.063,3.063,0,0,1,4.084,6.359,2.817,2.817,0,0,1,1.037,3.667a2.668,2.668,0,0,1,.947-1.949A3.427,3.427,0,0,1,4.2.89m.016-.952A4.131,4.131,0,0,0-.055,3.675a3.8,3.8,0,0,0,4.1,3.636,4.131,4.131,0,0,0,4.27-3.738,3.8,3.8,0,0,0-4.1-3.636Z" transform="translate(640.655 257.189)" fill="rgba(196,196,196,0.49)"/>
              <path id="Path_556" data-name="Path 556" d="M3.4-.05A3.545,3.545,0,0,0,.234,1.828,2.667,2.667,0,0,0,.911,5.06a3.654,3.654,0,0,0,3.675.57,3.112,3.112,0,0,0,2.107-2.8A3.052,3.052,0,0,0,3.4-.05Z" transform="translate(83.745 521.329)" fill="rgba(196,196,196,0.49)"/>
              <path id="Path_557" data-name="Path 557" d="M4.44.926A3.264,3.264,0,0,1,7.516,2.72a2.771,2.771,0,0,1-.808,3.247,3.77,3.77,0,0,1-3.692.682A2.857,2.857,0,0,1,1.01,3.921,2.9,2.9,0,0,1,2.041,1.812a3.721,3.721,0,0,1,2.4-.9m.016-.952A4.667,4.667,0,0,0,.306,2.443a3.512,3.512,0,0,0,.888,4.249,4.811,4.811,0,0,0,4.828.763,4.108,4.108,0,0,0,2.8-3.666A3.554,3.554,0,0,0,7.576,1.036a4.61,4.61,0,0,0-3.12-1.1Z" transform="translate(82.702 520.352)" fill="rgba(196,196,196,0.49)"/>
              <path id="Path_558" data-name="Path 558" d="M3.857,1.518A1.786,1.786,0,0,0,1.946-.029,1.94,1.94,0,0,0-.018,1.584a1.6,1.6,0,0,0,.9,1.576,2.171,2.171,0,0,0,2.029-.034,1.728,1.728,0,0,0,.95-1.607Z" transform="translate(161.655 452.799)" fill="rgba(196,196,196,0.49)"/>
              <path id="Path_559" data-name="Path 559" d="M3.035.907A1.743,1.743,0,0,1,4.8,2.583,1.894,1.894,0,0,1,2.978,4.32a1.962,1.962,0,0,1-1.793-.782,1.54,1.54,0,0,1,.03-1.787A2.1,2.1,0,0,1,3.035.907m.016-.952A3.184,3.184,0,0,0,.215,1.63,2.393,2.393,0,0,0,.8,4.528a3.274,3.274,0,0,0,3.284.537A2.805,2.805,0,0,0,6.008,2.578,2.411,2.411,0,0,0,5.169.706,3.128,3.128,0,0,0,3.051-.045Z" transform="translate(160.442 451.864)" fill="rgba(196,196,196,0.49)"/>
              <path id="Path_560" data-name="Path 560" d="M3.12-.046a3.219,3.219,0,0,0-2.89,1.66A2.41,2.41,0,0,0,.792,4.548a3.3,3.3,0,0,0,3.314.56A2.828,2.828,0,0,0,6.053,2.6,2.756,2.756,0,0,0,3.12-.046Z" transform="translate(218.038 573.236)" fill="rgba(196,196,196,0.49)"/>
              <path id="Path_561" data-name="Path 561" d="M4.141.89a2.765,2.765,0,0,1,2.99,2.642,3.006,3.006,0,0,1-3.1,2.726,2.765,2.765,0,0,1-2.99-2.642A3.006,3.006,0,0,1,4.141.89m.016-.952A4.075,4.075,0,0,0-.055,3.624,3.744,3.744,0,0,0,3.989,7.211,4.075,4.075,0,0,0,8.2,3.525,3.744,3.744,0,0,0,4.157-.062Z" transform="translate(216.897 572.302)" fill="rgba(196,196,196,0.49)"/>
              <path id="Path_562" data-name="Path 562" d="M3.213-.048A3.353,3.353,0,0,0,.226,1.718,2.52,2.52,0,0,0,.845,4.769,3.449,3.449,0,0,0,4.3,5.334a2.954,2.954,0,0,0,2.023-2.62A2.54,2.54,0,0,0,5.444.744,3.3,3.3,0,0,0,3.213-.048Z" transform="translate(244.329 450.085)" fill="rgba(196,196,196,0.49)"/>
              <path id="Path_563" data-name="Path 563" d="M4.279.888A3.086,3.086,0,0,1,7.186,2.582,2.619,2.619,0,0,1,6.427,5.65a3.564,3.564,0,0,1-3.487.65,2.7,2.7,0,0,1-1.9-2.572,2.729,2.729,0,0,1,.972-2A3.505,3.505,0,0,1,4.279.888M4.3-.064A4.21,4.21,0,0,0-.057,3.75a3.871,3.871,0,0,0,4.187,3.7,4.208,4.208,0,0,0,4.344-3.82A3.407,3.407,0,0,0,7.285.993,4.419,4.419,0,0,0,4.3-.064Z" transform="translate(243.148 449.328)" fill="rgba(196,196,196,0.49)"/>
              <path id="Path_564" data-name="Path 564" d="M2.81-.042A2.93,2.93,0,0,0,.2,1.5,2.2,2.2,0,0,0,.741,4.169a3.014,3.014,0,0,0,3.026.489,2.578,2.578,0,0,0,1.761-2.3A2.514,2.514,0,0,0,2.81-.042Z" transform="translate(367.509 521.19)" fill="rgba(196,196,196,0.49)"/>
              <path id="Path_565" data-name="Path 565" d="M3.853.895A2.7,2.7,0,0,1,6.392,2.376a2.288,2.288,0,0,1-.666,2.68,3.114,3.114,0,0,1-3.047.565A2.361,2.361,0,0,1,1.018,3.373a2.382,2.382,0,0,1,.85-1.744A3.06,3.06,0,0,1,3.853.895m.016-.952A3.8,3.8,0,0,0-.051,3.388,3.5,3.5,0,0,0,3.724,6.729,3.8,3.8,0,0,0,7.652,3.29,3.505,3.505,0,0,0,3.869-.057Z" transform="translate(366.493 520.253)" fill="rgba(196,196,196,0.49)"/>
              <path id="Path_566" data-name="Path 566" d="M2.038-.03A2.006,2.006,0,0,0-.027,1.794a1.847,1.847,0,0,0,2,1.761A2.009,2.009,0,0,0,4.043,1.738,1.63,1.63,0,0,0,3.472.474a2.115,2.115,0,0,0-1.434-.5Z" transform="translate(266.487 416.755)" fill="rgba(196,196,196,0.49)"/>
              <path id="Path_567" data-name="Path 567" d="M3.127.905A1.846,1.846,0,0,1,5.121,2.674,2.009,2.009,0,0,1,3.044,4.491,1.846,1.846,0,0,1,1.051,2.723,2.021,2.021,0,0,1,3.127.905m.016-.952A3.078,3.078,0,0,0-.041,2.731,2.824,2.824,0,0,0,3.005,5.443,3.078,3.078,0,0,0,6.19,2.666,2.825,2.825,0,0,0,3.143-.047Z" transform="translate(265.298 415.958)" fill="rgba(196,196,196,0.49)"/>
              <path id="Path_568" data-name="Path 568" d="M2.453-.036A2.406,2.406,0,0,0-.032,2.142a2.211,2.211,0,0,0,2.39,2.116A2.406,2.406,0,0,0,4.843,2.08,2.211,2.211,0,0,0,2.453-.036Z" transform="translate(323.755 201.678)" fill="rgba(196,196,196,0.49)"/>
              <path id="Path_569" data-name="Path 569" d="M3.577.9a2.211,2.211,0,0,1,2.39,2.116A2.406,2.406,0,0,1,3.481,5.194a2.211,2.211,0,0,1-2.39-2.116A2.406,2.406,0,0,1,3.577.9m.016-.952A3.715,3.715,0,0,0,.264,1.869,2.783,2.783,0,0,0,.915,5.252,3.8,3.8,0,0,0,4.737,5.9,3.268,3.268,0,0,0,6.99,3.008a3.193,3.193,0,0,0-3.4-3.061Z" transform="translate(322.582 200.642)" fill="rgba(196,196,196,0.49)"/>
              <path id="Path_570" data-name="Path 570" d="M1.831-.027A1.912,1.912,0,0,0,.128.982,1.437,1.437,0,0,0,.485,2.723a1.968,1.968,0,0,0,1.975.318,1.683,1.683,0,0,0,1.149-1.5A1.446,1.446,0,0,0,3.1.42,1.876,1.876,0,0,0,1.831-.027Z" transform="translate(408.273 223.031)" fill="rgba(196,196,196,0.49)"/>
              <path id="Path_571" data-name="Path 571" d="M2.909.909a1.762,1.762,0,0,1,1.663.962,1.493,1.493,0,0,1-.428,1.752A2.033,2.033,0,0,1,2.154,4,1.542,1.542,0,0,1,1.065,2.53,1.8,1.8,0,0,1,2.909.909m.016-.952a3.051,3.051,0,0,0-2.718,1.6A2.292,2.292,0,0,0,.768,4.338a3.138,3.138,0,0,0,3.147.515A2.688,2.688,0,0,0,5.756,2.47,2.638,2.638,0,0,0,2.925-.043Z" transform="translate(407.253 222.019)" fill="rgba(196,196,196,0.49)"/>
              <path id="Path_572" data-name="Path 572" d="M2.89-.043A2.836,2.836,0,0,0-.038,2.528a2.608,2.608,0,0,0,2.82,2.493A2.836,2.836,0,0,0,5.71,2.451,2.619,2.619,0,0,0,2.89-.043Z" transform="translate(419.538 24.039)" fill="rgba(196,196,196,0.49)"/>
              <path id="Path_573" data-name="Path 573" d="M3.957.893a2.606,2.606,0,0,1,2.809,2.5A2.838,2.838,0,0,1,3.833,5.957,2.608,2.608,0,0,1,1.017,3.464,2.849,2.849,0,0,1,3.957.893m.016-.952A3.9,3.9,0,0,0-.052,3.479a3.589,3.589,0,0,0,3.877,3.43A3.9,3.9,0,0,0,7.858,3.378,3.167,3.167,0,0,0,6.753.925a4.108,4.108,0,0,0-2.78-.984Z" transform="translate(418.542 23.102)" fill="rgba(196,196,196,0.49)"/>
              <path id="Path_574" data-name="Path 574" d="M3.8,6.808A3.842,3.842,0,0,0,7.744,3.319,3.535,3.535,0,0,0,3.938-.058,3.855,3.855,0,0,0-.05,3.391,3.108,3.108,0,0,0,1.03,5.839,4.04,4.04,0,0,0,3.8,6.808Z" transform="translate(407.563 149.441)" fill="rgba(196,196,196,0.49)"/>
              <path id="Path_575" data-name="Path 575" d="M5,.878A3.538,3.538,0,0,1,8.833,4.258,3.846,3.846,0,0,1,4.858,7.745,3.535,3.535,0,0,1,1.038,4.357,3.847,3.847,0,0,1,5,.878M5.02-.074C2.27-.044-.008,1.946-.066,4.369S2.061,8.731,4.812,8.7s5.025-2.026,5.079-4.45S7.765-.1,5.02-.074Z" transform="translate(406.531 148.346)" fill="rgba(196,196,196,0.49)"/>
              <path id="Path_576" data-name="Path 576" d="M2-.03A1.964,1.964,0,0,0-.026,1.746,1.8,1.8,0,0,0,1.922,3.475,1.964,1.964,0,0,0,3.952,1.7,1.582,1.582,0,0,0,3.4.464,2.054,2.054,0,0,0,2-.03Z" transform="translate(492.412 188.651)" fill="rgba(196,196,196,0.49)"/>
              <path id="Path_577" data-name="Path 577" d="M3.082.906A1.929,1.929,0,0,1,4.9,1.959a1.634,1.634,0,0,1-.468,1.918,2.226,2.226,0,0,1-2.178.41A1.689,1.689,0,0,1,1.063,2.682a1.706,1.706,0,0,1,.6-1.245A2.191,2.191,0,0,1,3.082.906M3.1-.046a3.233,3.233,0,0,0-2.879,1.7A2.429,2.429,0,0,0,.814,4.6a3.324,3.324,0,0,0,3.334.545A2.848,2.848,0,0,0,6.1,2.617a2.448,2.448,0,0,0-.851-1.9A3.176,3.176,0,0,0,3.1-.046Z" transform="translate(491.483 187.601)" fill="rgba(196,196,196,0.49)"/>
              <path id="Path_578" data-name="Path 578" d="M2.245-.033A2.338,2.338,0,0,0,.159,1.194a1.756,1.756,0,0,0,.43,2.129A2.4,2.4,0,0,0,3,3.715,2.056,2.056,0,0,0,4.409,1.884,2.023,2.023,0,0,0,2.245-.033Z" transform="translate(454.992 31.185)" fill="rgba(196,196,196,0.49)"/>
              <path id="Path_579" data-name="Path 579" d="M3.335.9A2.152,2.152,0,0,1,5.366,2.077a1.823,1.823,0,0,1-.522,2.14,2.483,2.483,0,0,1-2.429.458,1.885,1.885,0,0,1-1.331-1.79A1.9,1.9,0,0,1,1.757,1.5,2.446,2.446,0,0,1,3.335.9m.016-.952A3.48,3.48,0,0,0,.241,1.766,2.611,2.611,0,0,0,.868,4.935a3.572,3.572,0,0,0,3.587.594,3.062,3.062,0,0,0,2.1-2.717A2.632,2.632,0,0,0,5.639.77a3.415,3.415,0,0,0-2.312-.82Z" transform="translate(454.002 30.248)" fill="rgba(196,196,196,0.49)"/>
              <path id="Path_580" data-name="Path 580" d="M2.084-.031A2.178,2.178,0,0,0,.145,1.12,1.638,1.638,0,0,0,.553,3.1a2.243,2.243,0,0,0,2.25.361A1.917,1.917,0,0,0,4.112,1.757,1.879,1.879,0,0,0,2.084-.031Z" transform="translate(640.231 551.991)" fill="rgba(196,196,196,0.49)"/>
              <path id="Path_581" data-name="Path 581" d="M3.162.9A1.877,1.877,0,0,1,5.189,2.7,2.043,2.043,0,0,1,3.078,4.551a1.877,1.877,0,0,1-2.027-1.8A2.043,2.043,0,0,1,3.162.9m.016-.952A3.317,3.317,0,0,0,.224,1.7,2.493,2.493,0,0,0,.836,4.718a3.412,3.412,0,0,0,3.422.559,2.922,2.922,0,0,0,2-2.592A2.857,2.857,0,0,0,3.178-.047Z" transform="translate(639.153 551.055)" fill="rgba(196,196,196,0.49)"/>
              <path id="Path_582" data-name="Path 582" d="M2.579-.038A2.34,2.34,0,0,1,5.117,2.187,2.538,2.538,0,0,1,2.5,4.5,2.34,2.34,0,0,1-.034,2.274,2.538,2.538,0,0,1,2.579-.038Z" transform="translate(669.597 434.455)" fill="rgba(196,196,196,0.49)"/>
              <path id="Path_583" data-name="Path 583" d="M3.669.9a2.494,2.494,0,0,1,2.35,1.372A2.118,2.118,0,0,1,5.4,4.75a2.883,2.883,0,0,1-2.821.522A2.185,2.185,0,0,1,1.044,3.19a2.215,2.215,0,0,1,.79-1.611A2.843,2.843,0,0,1,3.669.9m.016-.952A3.849,3.849,0,0,0,.258,1.975a2.893,2.893,0,0,0,.714,3.5,3.96,3.96,0,0,0,3.972.646,3.391,3.391,0,0,0,2.32-3.009A2.918,2.918,0,0,0,6.247.853,3.785,3.785,0,0,0,3.685-.055Z" transform="translate(668.515 433.7)" fill="rgba(196,196,196,0.49)"/>
            </g>
          </g>
        </g>
      </g>
      <rect id="Rectangle_6" data-name="Rectangle 6" width="1748.75" height="535.237" transform="translate(1748.75 546.146) rotate(180)" fill="#fff"/>
    </g>
  </g>
</svg>
