<svg xmlns="http://www.w3.org/2000/svg" xmlns:xlink="http://www.w3.org/1999/xlink" width="677" height="441" viewBox="0 0 677 441">
  <defs>
    <clipPath id="clip-path">
      <rect id="Rectangle_1" data-name="Rectangle 1" width="677" height="441" transform="translate(2659 545)" fill="#fff" stroke="#707070" stroke-width="1"/>
    </clipPath>
    <clipPath id="clip-path-2">
      <path id="Path_2" data-name="Path 2" d="M3,0H97a16,16,0,0,1,16,16V87a16,16,0,0,1-16,16H3Z" fill="#fff"/>
    </clipPath>
  </defs>
  <g id="Mask_Group_1" data-name="Mask Group 1" transform="translate(-2659 -545)" clip-path="url(#clip-path)">
    <g id="Group_8" data-name="Group 8" transform="translate(2708 544)">
      <g id="Group_7" data-name="Group 7" transform="translate(-2094.817 -1394.062)">
        <g id="wave_2_" data-name="wave (2)" transform="translate(2289 1811)">
          <g id="Group_1" data-name="Group 1" clip-path="url(#clip-path-2)">
            <path id="Path_1" data-name="Path 1" d="M34.287,47.48C31.867,27.755,15.042,7.82,3.373,0H113.81V102.928c4.156.1,2.59.575,0,.969v-.969c-3.7-.088-11.959.126-28.092.969C42.931,106.131,38.373,80.776,34.287,47.48Z" fill="none"/>
          </g>
        </g>
        <path id="wave_4_" data-name="wave (4)" d="M0,288l24.536-21.3C49.071,245,98.142,203,147.214,154.7,196.285,107,245.356,53,294.427,26.7,343.5,0,392.57,0,417.105,0h24.536V320H0Z" transform="translate(2402 1836.382) rotate(-90)" fill="#248277"/>
        <g id="Layer_2" data-name="Layer 2" transform="translate(2194.564 1276.278)">
          <g id="Layer_1" data-name="Layer 1" transform="translate(0.01 0)">
            <g id="triangle36" transform="translate(506.481 3.197)">
              <path id="Path_135" data-name="Path 135" d="M459.34,48.19l-56-31,15.07-13.5,41,30.14v-.58l-40.88-30a.24.24,0,0,0-.3,0l-15.5,13.88a.24.24,0,0,0-.07.2.23.23,0,0,0,.11.18l56.56,31.26Z" transform="translate(-402.658 -3.197)" fill="#c4c4c4"/>
            </g>
            <g id="triangle36-2" data-name="triangle36" transform="translate(506.48 17.026)">
              <path id="Path_136" data-name="Path 136" d="M459.13,90.57,403.76,18l55.58,30.72v-.54L403,17.06a.22.22,0,0,0-.29.05.24.24,0,0,0,0,.3l56.41,73.93Z" transform="translate(-402.657 -17.026)" fill="#c4c4c4"/>
            </g>
            <g id="triangle36-3" data-name="triangle36" transform="translate(292.999 529.637)">
              <path id="Path_137" data-name="Path 137" d="M230.63,437,306,403l7.39,34.42h.48l-7.47-34.8a.23.23,0,0,0-.13-.16.2.2,0,0,0-.2,0L229.5,437Z" transform="translate(-229.5 -402.433)" fill="#c4c4c4"/>
            </g>
            <g id="triangle36-4" data-name="triangle36" transform="translate(511.803 549.294)">
              <path id="Path_138" data-name="Path 138" d="M457.44,422.09l-49.46,15.8,1.52.01,47.93-15.32Z" transform="translate(-407.98 -422.09)" fill="#c4c4c4"/>
            </g>
            <g id="triangle36-5" data-name="triangle36" transform="translate(521.986 1.78)">
              <path id="Path_139" data-name="Path 139" d="M459.42,33.25,419.08,3.6l40.5-1.35V1.78L418.39,3.15a.23.23,0,0,0-.22.17.24.24,0,0,0,.09.25l41.16,30.26Z" transform="translate(-418.163 -1.78)" fill="#c4c4c4"/>
            </g>
            <g id="triangle36-6" data-name="triangle36" transform="translate(506.792 225.435)">
              <path id="Path_140" data-name="Path 140" d="M458.56,202.19,404,199l44.1-26.74,10.6,8.25v-.6l-10.44-8.12a.23.23,0,0,0-.26,0L403.08,199a.22.22,0,0,0-.1.26.21.21,0,0,0,.21.17l55.37,3.27Z" transform="translate(-402.969 -171.75)" fill="#c4c4c4"/>
            </g>
            <g id="triangle36-7" data-name="triangle36" transform="translate(52.91 546.999)">
              <path id="Path_141" data-name="Path 141" d="M53.47,436.08l9-15.34,1.81,15.39h.47L62.84,420a.22.22,0,0,0-.18-.2.24.24,0,0,0-.25.11l-9.49,16.18Z" transform="translate(-52.92 -419.796)" fill="#c4c4c4"/>
            </g>
            <g id="triangle36-8" data-name="triangle36" transform="translate(501.283 533.857)">
              <path id="Path_142" data-name="Path 142" d="M457.44,422.09l-49.46,15.8,1.52.01,47.93-15.32Z" transform="translate(-397.46 -406.653)" fill="#c4c4c4"/>
              <path id="Path_143" data-name="Path 143" d="M457.45,419.54,405.6,406.66a.24.24,0,0,0-.29.17l-7.85,31H398l7.76-30.67L457.45,420Z" transform="translate(-397.46 -406.653)" fill="#c4c4c4"/>
            </g>
            <g id="triangle36-9" data-name="triangle36" transform="translate(511.102 396.703)">
              <path id="Path_144" data-name="Path 144" d="M458,312.11l-28.33,16.26-21.4-5.72,49.77-19v-.51l-50.61,19.38a.23.23,0,0,0-.15.24.22.22,0,0,0,.17.21l22.19,5.93h.06a.27.27,0,0,0,.12,0L458,312.65Z" transform="translate(-407.279 -303.14)" fill="#c4c4c4"/>
            </g>
            <g id="triangle36-10" data-name="triangle36" transform="translate(379.837 529.582)">
              <path id="Path_145" data-name="Path 145" d="M313.89,437.41,306.51,403l28.61,10.15-12.36,24.28h.53l12.37-24.31a.23.23,0,0,0,0-.2.2.2,0,0,0-.14-.13l-29.26-10.38a.2.2,0,0,0-.31.23l7.45,34.7Z" transform="translate(-305.944 -402.378)" fill="#c4c4c4"/>
            </g>
            <g id="triangle36-11" data-name="triangle36" transform="translate(400.479 540.01)">
              <path id="Path_146" data-name="Path 146" d="M323.29,437.46l12.18-23.94,15.17,24.08h.55l-15.54-24.68a.19.19,0,0,0-.21-.11.24.24,0,0,0-.2.12l-12.48,24.52Z" transform="translate(-322.76 -412.807)" fill="#c4c4c4"/>
            </g>
            <g id="triangle36-12" data-name="triangle36" transform="translate(420.969 539.971)">
              <path id="Path_147" data-name="Path 147" d="M350.64,437.6h.55l-15.11-24,51.66,24.19h1.12l-53.31-25a.22.22,0,0,0-.27.06.24.24,0,0,0,0,.28Z" transform="translate(-335.235 -412.767)" fill="#c4c4c4"/>
            </g>
            <g id="triangle36-13" data-name="triangle36" transform="translate(439.136 533.844)">
              <path id="Path_148" data-name="Path 148" d="M335.35,413.25l52.39,24.53h1.12L336.34,413.2l68.89-6.05-7.77,30.68H398l7.82-30.9a.27.27,0,0,0,0-.21.3.3,0,0,0-.2-.08l-70.09,6.16a.23.23,0,0,0-.08.44Z" transform="translate(-335.313 -406.64)" fill="#c4c4c4"/>
            </g>
            <g id="triangle36-14" data-name="triangle36" transform="translate(62.367 546.98)">
              <path id="Path_149" data-name="Path 149" d="M64.74,436.14,62.9,420.49l24.37,15.76h.87l-25.4-16.44a.27.27,0,0,0-.26,0,.23.23,0,0,0-.1.23l1.89,16.08Z" transform="translate(-62.377 -419.777)" fill="#c4c4c4"/>
            </g>
            <g id="triangle36-15" data-name="triangle36" transform="translate(274.364 337.66)">
              <path id="Path_150" data-name="Path 150" d="M220.41,278a.2.2,0,0,1-.11,0,.21.21,0,0,1-.11-.16l-2.41-11.64a.24.24,0,0,1,.2-.28l59.6-6.91a.236.236,0,0,1,.09.46L220.49,278Zm-2.12-11.67,2.3,11.13,54.7-17.74Z" transform="translate(-217.776 -259.009)" fill="#c4c4c4"/>
            </g>
            <g id="triangle36-16" data-name="triangle36" transform="translate(30.99 528.963)">
              <path id="Path_151" data-name="Path 151" d="M31.43,436l3.08-33.6,27.78,17.7-9.37,16h.55l9.34-15.94a.24.24,0,0,0-.08-.32l-28.3-18.05a.247.247,0,0,0-.36.19L31,436Z" transform="translate(-31 -401.759)" fill="#c4c4c4"/>
            </g>
            <g id="triangle36-17" data-name="triangle36" transform="translate(34.06 495.026)">
              <path id="Path_152" data-name="Path 152" d="M62.61,420.26a.279.279,0,0,1-.13,0L34.18,402.2a.27.27,0,0,1-.11-.19.26.26,0,0,1,.1-.2l48.32-33.94a.23.23,0,0,1,.28,0,.22.22,0,0,1,.07.26l-20,52a.24.24,0,0,1-.15.13ZM34.73,402l27.76,17.71,19.64-51Z" transform="translate(-34.07 -367.822)" fill="#c4c4c4"/>
            </g>
            <g id="triangle36-18" data-name="triangle36" transform="translate(62.373 494.986)">
              <path id="Path_153" data-name="Path 153" d="M148.39,421.62h0L62.6,420.26a.27.27,0,0,1-.19-.11.22.22,0,0,1,0-.21l20-52a.22.22,0,0,1,.36-.1l65.77,53.37a.22.22,0,0,1,.07.26.23.23,0,0,1-.22.15ZM63,419.79l84.77,1.35-65-52.73Z" transform="translate(-62.383 -367.782)" fill="#c4c4c4"/>
            </g>
            <g id="triangle36-19" data-name="triangle36" transform="translate(62.4 546.964)">
              <path id="Path_154" data-name="Path 154" d="M87.27,436.25h.87l-24.72-16,84.09,1.34L120.62,436.4h1l26.93-14.83a.24.24,0,0,0,.11-.27.23.23,0,0,0-.22-.17l-85.79-1.37h0a.232.232,0,0,0-.13.43Z" transform="translate(-62.41 -419.76)" fill="#c4c4c4"/>
            </g>
            <g id="triangle36-20" data-name="triangle36" transform="translate(149.665 548.337)">
              <path id="Path_155" data-name="Path 155" d="M121.58,436.43,147.73,422l-8.9,14.49h.55l9.21-15a.21.21,0,0,0,0-.28.23.23,0,0,0-.28-.05L120.65,436.4Z" transform="translate(-120.65 -421.133)" fill="#c4c4c4"/>
            </g>
            <g id="triangle36-21" data-name="triangle36" transform="translate(175.197 548.347)">
              <path id="Path_156" data-name="Path 156" d="M139.38,436.52l9.12-14.85,51.95,15.16h1.71l-53.7-15.68a.25.25,0,0,0-.27.11l-9.36,15.24Z" transform="translate(-138.83 -421.143)" fill="#c4c4c4"/>
            </g>
            <g id="triangle36-22" data-name="triangle36" transform="translate(357.381 295.383)">
              <path id="Path_157" data-name="Path 157" d="M376.77,299.28h-.09l-99.16-39.81a.236.236,0,0,1-.07-.4l50.21-41.38a.19.19,0,0,1,.19,0,.23.23,0,0,1,.16.11l49,81.19a.24.24,0,0,1,0,.28A.25.25,0,0,1,376.77,299.28Zm-98.71-40.12,98.15,39.41L327.75,218.2Z" transform="translate(-277.368 -217.665)" fill="#c4c4c4"/>
            </g>
            <g id="triangle36-23" data-name="triangle36" transform="translate(410.464 274.22)">
              <path id="Path_158" data-name="Path 158" d="M376.77,299.28a.22.22,0,0,1-.2-.12l-49-81.19a.22.22,0,0,1,0-.19.24.24,0,0,1,.13-.15l41.14-18.39a.22.22,0,0,1,.22,0,.27.27,0,0,1,.11.18L377,299a.23.23,0,0,1-.16.24ZM328.15,218l48.31,80.12-7.72-98.27Z" transform="translate(-327.548 -199.211)" fill="#c4c4c4"/>
            </g>
            <g id="triangle36-24" data-name="triangle36" transform="translate(472.553 273.884)">
              <path id="Path_159" data-name="Path 159" d="M376.77,299.28h0a.24.24,0,0,1-.21-.22l-7.83-99.59a.28.28,0,0,1,.06-.18.24.24,0,0,1,.18-.07l34.25-.3a.44.44,0,0,1,.19.1.23.23,0,0,1,0,.2L377,299.1a.23.23,0,0,1-.23.18Zm-7.57-99.6,7.7,98,26-98.25Z" transform="translate(-368.73 -198.92)" fill="#c4c4c4"/>
            </g>
            <g id="triangle36-25" data-name="triangle36" transform="translate(480.329 381.189)">
              <path id="Path_160" data-name="Path 160" d="M458,303.09l-50.49,19.34-30.17-23.22,80.73-8.65v-.47l-81.36,8.72a.24.24,0,0,0-.12.42l30.74,23.65a.24.24,0,0,0,.14.05h.09L458,303.6Z" transform="translate(-376.506 -290.09)" fill="#c4c4c4"/>
            </g>
            <g id="triangle36-26" data-name="triangle36" transform="translate(472.566 218.981)">
              <path id="Path_161" data-name="Path 161" d="M369,199.68a.23.23,0,0,1-.22-.14.25.25,0,0,1,0-.26l34.12-32.62a.22.22,0,0,1,.25,0,.26.26,0,0,1,.15.22l.14,32.33a.23.23,0,0,1-.23.23l-34.26.29Zm33.88-32.31-33.29,31.84,33.43-.28Z" transform="translate(-368.743 -166.621)" fill="#c4c4c4"/>
            </g>
            <g id="triangle36-27" data-name="triangle36" transform="translate(506.483 17.027)">
              <path id="Path_162" data-name="Path 162" d="M458.88,139.55l-55.59,26.9L403.13,18l56,73.38v-.77L403.08,17.12a.23.23,0,0,0-.26-.08.24.24,0,0,0-.16.22l.17,149.57a.174.174,0,0,0,.23.2h.1l55.72-27Z" transform="translate(-402.66 -17.027)" fill="#c4c4c4"/>
            </g>
            <g id="triangle36-28" data-name="triangle36" transform="translate(506.653 218.937)">
              <path id="Path_163" data-name="Path 163" d="M403.2,199.39a.2.2,0,0,1-.11,0,.23.23,0,0,1-.12-.2l-.14-32.33a.24.24,0,0,1,.07-.18.31.31,0,0,1,.19-.06l45,5.12a.22.22,0,0,1,.2.18.23.23,0,0,1-.11.25L403.3,199.39a.28.28,0,0,1-.1,0Zm.1-32.3.14,31.65,43.94-26.64Z" transform="translate(-402.83 -166.62)" fill="#c4c4c4"/>
            </g>
            <g id="triangle36-29" data-name="triangle36" transform="translate(506.688 183.35)">
              <path id="Path_164" data-name="Path 164" d="M458.78,158.87,448,171.69l-44.1-5,55-26.62v-.52L403,166.62a.22.22,0,0,0-.13.25.23.23,0,0,0,.2.19l45,5.11h0a.21.21,0,0,0,.18-.09l10.51-12.48Z" transform="translate(-402.865 -139.55)" fill="#c4c4c4"/>
            </g>
            <g id="triangle36-30" data-name="triangle36" transform="translate(551.681 207.132)">
              <path id="Path_165" data-name="Path 165" d="M458.69,177l-10.23-5.09,10.32-12.25v-.74l-10.87,12.92a.29.29,0,0,0-.05.2.23.23,0,0,0,.13.16l10.69,5.32Z" transform="translate(-447.858 -158.92)" fill="#c4c4c4"/>
            </g>
            <g id="triangle36-31" data-name="triangle36" transform="translate(551.67 222.667)">
              <path id="Path_166" data-name="Path 166" d="M458.67,179.88l-8.59-6.69,8.6,4.28V177l-10.49-5.22a.237.237,0,0,0-.25.4l10.72,8.34Z" transform="translate(-447.848 -171.756)" fill="#c4c4c4"/>
            </g>
            <g id="triangle36-32" data-name="triangle36" transform="translate(190.433 499.324)">
              <path id="Path_167" data-name="Path 167" d="M148.33,421.61l52.12,15.22h1.71L149,421.33l94.26-48.52-22.77,64.12H221l22.92-64.52a.215.215,0,0,0-.33-.25l-95.3,49.06a.24.24,0,0,0-.13.23A.22.22,0,0,0,148.33,421.61Z" transform="translate(-148.159 -372.12)" fill="#c4c4c4"/>
            </g>
            <g id="triangle36-33" data-name="triangle36" transform="translate(281.729 499.305)">
              <path id="Path_168" data-name="Path 168" d="M221,436.93l22.83-64.27,61.8,30L229.5,437h1.13l75.66-34.11a.23.23,0,0,0,0-.42L243.8,372.12a.25.25,0,0,0-.19,0,.32.32,0,0,0-.14.14l-23,64.68Z" transform="translate(-220.47 -372.101)" fill="#c4c4c4"/>
            </g>
            <g id="triangle36-34" data-name="triangle36" transform="translate(275.167 362.291)">
              <path id="Path_169" data-name="Path 169" d="M247.78,298.62a.24.24,0,0,1-.14-.05L220.27,278a.233.233,0,0,1,.23-.4l43.43,15.8a.24.24,0,0,1,0,.45l-16.08,4.8Zm-26-20.09,26,19.6,15.28-4.57Z" transform="translate(-220.178 -277.582)" fill="#c4c4c4"/>
            </g>
            <g id="triangle36-35" data-name="triangle36" transform="translate(277.05 340.723)">
              <path id="Path_170" data-name="Path 170" d="M263.85,293.82h-.08L220.33,278a.25.25,0,0,1-.15-.23.24.24,0,0,1,.16-.22L277.53,259a.22.22,0,0,1,.24.07.23.23,0,0,1,.05.25l-13.75,34.35a.25.25,0,0,1-.22.15Zm-42.71-16,42.58,15.49,13.48-33.67Z" transform="translate(-220.18 -258.989)" fill="#c4c4c4"/>
            </g>
            <g id="triangle36-36" data-name="triangle36" transform="translate(301.074 420.56)">
              <path id="Path_171" data-name="Path 171" d="M243.69,372.57h0a.22.22,0,0,1-.2-.24l4.08-73.95a.23.23,0,0,1,.17-.21l16.07-4.8a.22.22,0,0,1,.23.05.25.25,0,0,1,.07.23L243.95,372.4A.23.23,0,0,1,243.69,372.57Zm4.31-74L244.06,370l19.46-76Z" transform="translate(-243.489 -293.357)" fill="#c4c4c4"/>
            </g>
            <g id="triangle36-37" data-name="triangle36" transform="translate(342.703 341.853)">
              <path id="Path_172" data-name="Path 172" d="M376.77,299.28h0l-112.92-5.46a.27.27,0,0,1-.19-.11.22.22,0,0,1,0-.21l13.75-34.36a.27.27,0,0,1,.13-.13.28.28,0,0,1,.18,0l99.17,39.82a.23.23,0,0,1-.09.45Zm-112.58-5.92,111.2,5.38-97.66-39.21Z" transform="translate(-263.633 -258.995)" fill="#c4c4c4"/>
            </g>
            <g id="triangle36-38" data-name="triangle36" transform="translate(335.244 231.33)">
              <path id="Path_173" data-name="Path 173" d="M277.6,259.46h-.08a.26.26,0,0,1-.15-.19l-11.58-89.61a.251.251,0,0,1,.38-.24L328,217.66a.23.23,0,0,1,.09.18.26.26,0,0,1-.08.19L277.8,259.41a.25.25,0,0,1-.2.05Zm-11.27-89.31,11.45,88.63,49.65-40.93Z" transform="translate(-265.789 -169.384)" fill="#c4c4c4"/>
            </g>
            <g id="triangle36-39" data-name="triangle36" transform="translate(335.244 195.834)">
              <path id="Path_174" data-name="Path 174" d="M327.81,218.08a.23.23,0,0,1-.15-.05L265.88,169.8a.24.24,0,0,1-.09-.21.25.25,0,0,1,.14-.19l53.82-24.15a.26.26,0,0,1,.21,0,.25.25,0,0,1,.12.18l8,72.38a.21.21,0,0,1-.12.23.2.2,0,0,1-.15.04Zm-61.33-48.41,61,47.65-7.86-71.51Z" transform="translate(-265.789 -145.228)" fill="#c4c4c4"/>
            </g>
            <g id="triangle36-40" data-name="triangle36" transform="translate(397.734 16.995)">
              <path id="Path_175" data-name="Path 175" d="M319.84,145.7h0a.24.24,0,0,1-.19-.18L293.93,38.86a.23.23,0,0,1,0-.18.24.24,0,0,1,.15-.11L402.85,17a.23.23,0,0,1,.24.1.21.21,0,0,1,0,.26L320,145.6a.25.25,0,0,1-.16.1ZM294.44,39,320,144.88,402.4,17.6Z" transform="translate(-293.912 -16.995)" fill="#c4c4c4"/>
            </g>
            <g id="triangle36-41" data-name="triangle36" transform="translate(400.489 195.888)">
              <path id="Path_176" data-name="Path 176" d="M327.81,218.08a.27.27,0,0,1-.12,0,.26.26,0,0,1-.12-.18l-8-72.38a.24.24,0,0,1,.41-.18l49.1,54a.26.26,0,0,1,.06.21.25.25,0,0,1-.14.16l-41.14,18.4a.149.149,0,0,1-.05-.03Zm-7.65-71.92L328,217.5l40.55-18.13Z" transform="translate(-319.57 -145.269)" fill="#c4c4c4"/>
            </g>
            <g id="triangle36-42" data-name="triangle36" transform="translate(423.508 193.387)">
              <path id="Path_177" data-name="Path 177" d="M369,199.68h0a.28.28,0,0,1-.17-.07l-49.1-54a.24.24,0,0,1,0-.28.23.23,0,0,1,.26-.11l83.22,21.36a.24.24,0,0,1,.17.17.25.25,0,0,1-.07.23L369.2,199.6A.23.23,0,0,1,369,199.68Zm-48.4-53.79L369,199.11,402.59,167Z" transform="translate(-319.685 -145.212)" fill="#c4c4c4"/>
            </g>
            <g id="triangle36-43" data-name="triangle36" transform="translate(423.436 16.985)">
              <path id="Path_178" data-name="Path 178" d="M403.06,167.06H403L319.79,145.7a.24.24,0,0,1-.14-.36L402.7,17.14a.244.244,0,0,1,.47.08l.17,149.57a.22.22,0,0,1-.1.18.24.24,0,0,1-.18.09Zm-82.84-21.74,82.61,21.2-.17-148.46Z" transform="translate(-319.613 -16.985)" fill="#c4c4c4"/>
            </g>
            <g id="triangle36-44" data-name="triangle36" transform="translate(314.969 420.542)">
              <path id="Path_179" data-name="Path 179" d="M243.69,372.57a.24.24,0,0,1-.22-.3l20.15-78.75a.24.24,0,0,1,.15-.16.26.26,0,0,1,.21,0l85.49,59.05a.24.24,0,0,1-.09.43L243.74,372.56ZM264,294l-20,78,104.73-19.52Z" transform="translate(-243.462 -293.338)" fill="#c4c4c4"/>
            </g>
            <g id="triangle36-45" data-name="triangle36" transform="translate(314.966 479.602)">
              <path id="Path_180" data-name="Path 180" d="M306.19,402.89h-.1l-62.5-30.33a.23.23,0,0,1-.13-.24.25.25,0,0,1,.19-.2L349.3,352.4a.256.256,0,0,1,.24.39l-43.15,50A.27.27,0,0,1,306.19,402.89Zm-61.75-30.46,61.69,29.94L348.73,353Z" transform="translate(-243.458 -352.398)" fill="#c4c4c4"/>
            </g>
            <g id="triangle36-46" data-name="triangle36" transform="translate(342.668 392.019)">
              <path id="Path_181" data-name="Path 181" d="M349.34,352.87a.28.28,0,0,1-.13,0l-85.49-59.05a.22.22,0,0,1-.09-.27.24.24,0,0,1,.23-.16l112.92,5.46a.23.23,0,0,1,.19.34l-27.43,53.59a.22.22,0,0,1-.15.12Zm-84.68-59,84.59,58.43,27.15-53Z" transform="translate(-263.614 -293.39)" fill="#c4c4c4"/>
            </g>
            <g id="triangle36-47" data-name="triangle36" transform="translate(382.315 479.646)">
              <path id="Path_182" data-name="Path 182" d="M335.45,413.28h-.08L306.11,402.9a.26.26,0,0,1-.15-.16.25.25,0,0,1,.05-.22l43.15-50a.238.238,0,0,1,.41.21l-13.89,60.4a.26.26,0,0,1-.11.16Zm-28.86-10.73,28.69,10.18,13.62-59.22Z" transform="translate(-305.953 -352.442)" fill="#c4c4c4"/>
            </g>
            <g id="triangle36-48" data-name="triangle36" transform="translate(439.041 479.606)">
              <path id="Path_183" data-name="Path 183" d="M335.45,413.28a.26.26,0,0,1-.23-.29l13.89-60.41a.23.23,0,0,1,.16-.17.24.24,0,0,1,.23.06l56.2,54.25a.22.22,0,0,1,.06.24.24.24,0,0,1-.2.16l-70.09,6.15Zm14-60.19-13.73,59.69L405,406.7Z" transform="translate(-335.218 -352.402)" fill="#c4c4c4"/>
            </g>
            <g id="triangle36-49" data-name="triangle36" transform="translate(452.951 397.833)">
              <path id="Path_184" data-name="Path 184" d="M349.34,352.87a.23.23,0,0,1-.17-.07.24.24,0,0,1,0-.27l27.43-53.59a.23.23,0,0,1,.16-.13.25.25,0,0,1,.19.05l30.74,23.65a.23.23,0,0,1,.1.2.26.26,0,0,1-.13.19l-58.17,29.94a.23.23,0,0,1-.15.03Zm27.51-53.47-27,52.69,57.2-29.44Z" transform="translate(-349.128 -298.807)" fill="#c4c4c4"/>
            </g>
            <g id="triangle36-50" data-name="triangle36" transform="translate(452.926 455.6)">
              <path id="Path_185" data-name="Path 185" d="M405.54,407.12a.2.2,0,0,1-.16-.07l-56.2-54.25a.22.22,0,0,1-.07-.22.23.23,0,0,1,.16-.17l80.36-24a.229.229,0,0,1,.29.29L405.76,407a.22.22,0,0,1-.16.16Zm-55.75-54.38,55.64,53.71L429.35,329Z" transform="translate(-349.103 -328.396)" fill="#c4c4c4"/>
            </g>
            <g id="triangle36-51" data-name="triangle36" transform="translate(452.929 423.126)">
              <path id="Path_186" data-name="Path 186" d="M349.34,352.87a.25.25,0,0,1-.22-.15.24.24,0,0,1,.11-.29l58.17-29.95a.25.25,0,0,1,.17,0l22.19,5.92a.26.26,0,0,1,.18.23.25.25,0,0,1-.17.23l-80.36,24Zm58.2-29.93L351.7,351.69l77.14-23.06Z" transform="translate(-349.106 -322.465)" fill="#c4c4c4"/>
            </g>
            <g id="triangle36-52" data-name="triangle36" transform="translate(2.065 470.485)">
              <path id="Path_187" data-name="Path 187" d="M2.31,382.73a.24.24,0,0,1-.22-.15.23.23,0,0,1,.1-.28l66.55-39a.23.23,0,0,1,.18,0,.28.28,0,0,1,.15.11l13.76,24.5a.22.22,0,0,1,0,.21.24.24,0,0,1-.17.13L2.35,382.73Zm66.46-38.88L3.57,382l78.69-14.18Z" transform="translate(-2.075 -343.282)" fill="#c4c4c4"/>
            </g>
            <g id="triangle36-53" data-name="triangle36" transform="translate(68.643 440.455)">
              <path id="Path_188" data-name="Path 188" d="M82.62,368.26h0a.23.23,0,0,1-.18-.11l-13.76-24.5a.22.22,0,0,1,0-.21.21.21,0,0,1,.17-.13l41.08-8.17a.248.248,0,0,1,.25.38L82.8,368.17a.21.21,0,0,1-.18.09Zm-13.4-24.57,13.44,23.92,26.68-31.89Z" transform="translate(-68.653 -335.136)" fill="#c4c4c4"/>
            </g>
            <g id="triangle36-54" data-name="triangle36" transform="translate(244.93 203.281)">
              <path id="Path_189" data-name="Path 189" d="M198.88,203.24h0a.24.24,0,0,1-.17-.29l12.91-49.71a.23.23,0,0,1,.28-.17.24.24,0,0,1,.17.29l-12.91,49.71a.23.23,0,0,1-.28.17Z" transform="translate(-198.703 -153.063)" fill="#c4c4c4"/>
            </g>
            <g id="triangle36-55" data-name="triangle36" transform="translate(251.265 203.285)">
              <path id="Path_190" data-name="Path 190" d="M198.88,203.24a.2.2,0,0,1-.14-.06.24.24,0,0,1-.08-.24l12.91-49.71a.2.2,0,0,1,.29-.14l54.23,16.32a.25.25,0,0,1,.17.21.24.24,0,0,1-.13.23L199,203.21A.2.2,0,0,1,198.88,203.24ZM212,153.59l-12.72,49,66.15-32.89Z" transform="translate(-198.654 -153.067)" fill="#c4c4c4"/>
            </g>
            <g id="triangle36-56" data-name="triangle36" transform="translate(252.852 271.676)">
              <path id="Path_191" data-name="Path 191" d="M218,266.37a.24.24,0,0,1-.23-.17l-19.12-63.13a.24.24,0,0,1,.09-.26.23.23,0,0,1,.27,0L277.74,259a.23.23,0,0,1,.09.25.22.22,0,0,1-.2.17Zm-18.7-62.78,18.86,62.29,58.8-6.82Z" transform="translate(-198.641 -202.766)" fill="#c4c4c4"/>
            </g>
            <g id="triangle36-57" data-name="triangle36" transform="translate(252.863 231.375)">
              <path id="Path_192" data-name="Path 192" d="M277.6,259.46a.2.2,0,0,1-.13,0l-78.72-56.23a.25.25,0,0,1-.1-.21.26.26,0,0,1,.13-.19l67.14-33.38a.2.2,0,0,1,.21,0,.24.24,0,0,1,.13.18l11.58,89.61a.25.25,0,0,1-.12.23A.24.24,0,0,1,277.6,259.46ZM199.34,203l78,55.68L265.83,170Z" transform="translate(-198.65 -169.42)" fill="#c4c4c4"/>
            </g>
            <g id="triangle36-58" data-name="triangle36" transform="translate(220.911 351.917)">
              <path id="Path_193" data-name="Path 193" d="M177,310.59a.25.25,0,0,1-.17-.08.24.24,0,0,1,0-.32l41-44.22a.23.23,0,0,1,.24-.06.24.24,0,0,1,.17.18l2.41,11.64a.24.24,0,0,1-.09.23l-43.37,32.58a.3.3,0,0,1-.19.05Zm40.83-44L179,308.6l41.17-30.92Z" transform="translate(-176.769 -265.898)" fill="#c4c4c4"/>
            </g>
            <g id="triangle36-59" data-name="triangle36" transform="translate(224.02 364.756)">
              <path id="Path_194" data-name="Path 194" d="M177,310.59a.24.24,0,0,1-.21-.14.26.26,0,0,1,.07-.29l43.37-32.57a.26.26,0,0,1,.29,0l27.36,20.61a.22.22,0,0,1,.08.24.24.24,0,0,1-.18.18l-70.74,12Zm43.38-32.52L178,310l69.24-11.72Z" transform="translate(-176.772 -277.546)" fill="#c4c4c4"/>
            </g>
            <g id="triangle36-60" data-name="triangle36" transform="translate(224.068 425.301)">
              <path id="Path_195" data-name="Path 195" d="M243.69,372.57a.23.23,0,0,1-.15-.07l-66.66-62a.22.22,0,0,1-.06-.23.26.26,0,0,1,.18-.17l70.74-12a.22.22,0,0,1,.19.06.24.24,0,0,1,.08.19l-4.08,74a.23.23,0,0,1-.15.2ZM177.55,310.5l65.94,61.32,4-73.15Z" transform="translate(-176.809 -298.097)" fill="#c4c4c4"/>
            </g>
            <g id="triangle36-61" data-name="triangle36" transform="translate(480.354 273.881)">
              <path id="Path_196" data-name="Path 196" d="M458.33,247.43l-81.18,51.1,26.21-99,55.09,23.27v-.5L403.3,198.94a.27.27,0,0,0-.2,0,.2.2,0,0,0-.12.15L376.54,299a.23.23,0,0,0,.09.25.24.24,0,0,0,.14,0,.22.22,0,0,0,.13,0L458.32,248Z" transform="translate(-376.532 -198.921)" fill="#c4c4c4"/>
            </g>
            <g id="triangle36-62" data-name="triangle36" transform="translate(480.346 328.972)">
              <path id="Path_197" data-name="Path 197" d="M458.11,290.09l-80.36,8.61L458.32,248v-.56l-81.68,51.42a.21.21,0,0,0-.1.27.22.22,0,0,0,.22.16h0l81.31-8.72Z" transform="translate(-376.523 -247.44)" fill="#c4c4c4"/>
            </g>
            <g id="triangle36-63" data-name="triangle36" transform="translate(506.787 260.038)">
              <path id="Path_198" data-name="Path 198" d="M458.46,222.25l-53.91-22.78,54,3.19v-.47l-55.34-3.26a.21.21,0,0,0-.24.18.24.24,0,0,0,.13.27l55.34,23.37Z" transform="translate(-402.964 -198.928)" fill="#c4c4c4"/>
            </g>
            <g id="triangle36-64" data-name="triangle36" transform="translate(105.019 440.248)">
              <path id="Path_199" data-name="Path 199" d="M82.62,368.26a.24.24,0,0,1-.18-.39l27.33-32.66a.23.23,0,0,1,.18-.08l54-.19h0a.24.24,0,0,1,.23.19.23.23,0,0,1-.15.26L82.71,368.24Zm27.44-32.66L83.41,367.45l79.33-32Z" transform="translate(-82.387 -334.94)" fill="#c4c4c4"/>
            </g>
            <g id="triangle36-65" data-name="triangle36" transform="translate(105.02 462.173)">
              <path id="Path_200" data-name="Path 200" d="M148.39,421.62a.19.19,0,0,1-.14-.05L82.48,368.2a.22.22,0,0,1-.09-.21.23.23,0,0,1,.15-.19L163.87,335a.23.23,0,0,1,.23,0,.25.25,0,0,1,.09.23l-15.56,86.21a.27.27,0,0,1-.15.18ZM83.08,368.09,148.23,421l15.42-85.41Z" transform="translate(-82.388 -334.969)" fill="#c4c4c4"/>
            </g>
            <g id="triangle36-66" data-name="triangle36" transform="translate(138.826 405.779)">
              <path id="Path_201" data-name="Path 201" d="M110,335.6a.23.23,0,0,1-.23-.19.24.24,0,0,1,.15-.27l67.09-25a.218.218,0,0,1,.26.33l-13.09,24.82a.23.23,0,0,1-.2.13l-54,.19Zm66.6-24.81-65.29,24.33,52.55-.18Z" transform="translate(-109.766 -310.125)" fill="#c4c4c4"/>
            </g>
            <g id="triangle36-67" data-name="triangle36" transform="translate(190.43 462.187)">
              <path id="Path_202" data-name="Path 202" d="M148.39,421.62a.25.25,0,0,1-.14,0,.24.24,0,0,1-.09-.23l15.57-86.22a.2.2,0,0,1,.12-.16.22.22,0,0,1,.21,0l79.73,37.16a.231.231,0,0,1,.01.42L148.5,421.6a.2.2,0,0,1-.11.02Zm15.74-86.1L148.71,421l94.45-48.62Z" transform="translate(-148.157 -334.983)" fill="#c4c4c4"/>
            </g>
            <g id="triangle36-68" data-name="triangle36" transform="translate(208.516 437.35)">
              <path id="Path_203" data-name="Path 203" d="M243.69,372.57h-.09l-79.74-37.15a.23.23,0,0,1-.11-.33l13.09-24.82a.22.22,0,0,1,.16-.12.23.23,0,0,1,.2.06l66.66,62a.24.24,0,0,1-.17.41Zm-79.41-37.51,78.17,36.43-65.34-60.76Z" transform="translate(-163.718 -310.146)" fill="#c4c4c4"/>
            </g>
            <g id="triangle36-69" data-name="triangle36" transform="translate(533.291 408.79)">
              <path id="Path_204" data-name="Path 204" d="M457.86,338.86l-27.61-10.28L458,312.65v-.54l-28.42,16.31a.22.22,0,0,0-.11.22.21.21,0,0,0,.15.2l28.24,10.52Z" transform="translate(-429.468 -312.11)" fill="#c4c4c4"/>
            </g>
            <g id="triangle36-70" data-name="triangle36" transform="translate(265.798 153.849)">
              <path id="Path_205" data-name="Path 205" d="M211.79,153.52a.22.22,0,0,1-.19-.1.23.23,0,0,1,.06-.32l54.19-36.25a.24.24,0,0,1,.33.07.23.23,0,0,1-.07.32l-54.19,36.25A.19.19,0,0,1,211.79,153.52Z" transform="translate(-211.56 -116.812)" fill="#c4c4c4"/>
            </g>
            <g id="triangle36-71" data-name="triangle36" transform="translate(265.848 155.444)">
              <path id="Path_206" data-name="Path 206" d="M266,169.85h0l-54.24-16.33a.23.23,0,0,1-.16-.19.24.24,0,0,1,.1-.22l54.19-36.25a.26.26,0,0,1,.24,0,.23.23,0,0,1,.13.21v52.57a.22.22,0,0,1-.1.18A.19.19,0,0,1,266,169.85Zm-53.68-16.64,53.45,16.09V117.49Z" transform="translate(-211.599 -116.831)" fill="#c4c4c4"/>
            </g>
            <g id="triangle36-72" data-name="triangle36" transform="translate(333.858 155.475)">
              <path id="Path_207" data-name="Path 207" d="M266,169.85a.19.19,0,0,1-.12,0,.21.21,0,0,1-.11-.19V117.09a.23.23,0,0,1,.11-.2.21.21,0,0,1,.23,0L320,145.26a.26.26,0,0,1,.12.22.22.22,0,0,1-.14.2l-53.82,24.15Zm.2-52.41v51.81l53.05-23.8Z" transform="translate(-265.77 -116.856)" fill="#c4c4c4"/>
            </g>
            <g id="triangle36-73" data-name="triangle36" transform="translate(333.825 38.59)">
              <path id="Path_208" data-name="Path 208" d="M319.84,145.7h-.1l-53.87-28.42a.24.24,0,0,1-.11-.29l28.18-78.24a.23.23,0,0,1,.23-.16.26.26,0,0,1,.22.18l25.68,106.66a.22.22,0,0,1-.08.24A.2.2,0,0,1,319.84,145.7Zm-53.57-28.76L319.5,145,294.11,39.62Z" transform="translate(-265.746 -38.59)" fill="#c4c4c4"/>
            </g>
            <g id="triangle36-74" data-name="triangle36" transform="translate(509.167 455.591)">
              <path id="Path_209" data-name="Path 209" d="M457.69,371.39,406,406.32l23.83-77.2,27.94,35.95v-.76l-27.84-35.83a.25.25,0,0,0-.23-.09.23.23,0,0,0-.18.16l-24.17,78.27a.25.25,0,0,0,.09.25.24.24,0,0,0,.14.05.22.22,0,0,0,.13,0l52-35.12Z" transform="translate(-405.344 -328.387)" fill="#c4c4c4"/>
            </g>
            <g id="triangle36-75" data-name="triangle36" transform="translate(509.128 498.634)">
              <path id="Path_210" data-name="Path 210" d="M457.45,419.54l-51.34-12.76L457.69,372v-.57l-52.28,35.3a.23.23,0,0,0-.1.24.21.21,0,0,0,.17.18l52,12.91Z" transform="translate(-405.305 -371.43)" fill="#c4c4c4"/>
            </g>
            <g id="triangle36-76" data-name="triangle36" transform="translate(533.284 432.498)">
              <path id="Path_211" data-name="Path 211" d="M457.73,364.31l-27.34-35.18,27.47,10.23v-.5L429.78,328.4a.23.23,0,0,0-.27.08.24.24,0,0,0,0,.29l28.21,36.3Z" transform="translate(-429.461 -328.384)" fill="#c4c4c4"/>
            </g>
            <path id="Path_212" data-name="Path 212" d="M418.41.94a2.45,2.45,0,1,0,2.44,2.46A2.45,2.45,0,0,0,418.41.94Z" transform="translate(103.823 0)" fill="#c4c4c4"/>
            <path id="Path_213" data-name="Path 213" d="M418.41.94A2.45,2.45,0,1,1,416,3.37,2.45,2.45,0,0,1,418.41.94m0-.94a3.355,3.355,0,1,0,.01,0Z" transform="translate(103.823 0)" fill="#fff"/>
            <path id="Path_214" data-name="Path 214" d="M34.32,400.46a1.51,1.51,0,1,0,1.072.456,1.51,1.51,0,0,0-1.072-.456Z" transform="translate(-0.01 127.204)" fill="#c4c4c4"/>
            <path id="Path_215" data-name="Path 215" d="M34.32,400.46a.763.763,0,1,0,.02.01m0-.94a1.82,1.82,0,1,1-.02.01Z" transform="translate(-0.01 127.204)" fill="#fff"/>
            <path id="Path_216" data-name="Path 216" d="M62.62,417.93A2.09,2.09,0,1,0,64.7,420,2.09,2.09,0,0,0,62.62,417.93Z" transform="translate(-0.01 127.204)" fill="#c4c4c4"/>
            <path id="Path_217" data-name="Path 217" d="M62.62,417.93a2.09,2.09,0,1,1-2.09,2.09,2.09,2.09,0,0,1,2.09-2.09m0-.94a3,3,0,1,0,2.139.9,3,3,0,0,0-2.139-.9Z" transform="translate(-0.01 127.204)" fill="#fff"/>
            <path id="Path_218" data-name="Path 218" d="M448.1,170.13a1.8,1.8,0,1,0,1.28.534,1.81,1.81,0,0,0-1.28-.534Z" transform="translate(103.823 49.832)" fill="#c4c4c4"/>
            <path id="Path_219" data-name="Path 219" d="M448.1,170.13a1.8,1.8,0,1,1-1.286.52,1.81,1.81,0,0,1,1.286-.52m0-.94a2.75,2.75,0,1,0,2.73,2.77A2.75,2.75,0,0,0,448.1,169.19Z" transform="translate(103.823 49.773)" fill="#fff"/>
            <circle id="Ellipse_1" data-name="Ellipse 1" cx="3.11" cy="3.11" r="3.11" transform="translate(399.055 278.018)" fill="#c4c4c4"/>
            <path id="Path_220" data-name="Path 220" d="M327.82,214.74a3.11,3.11,0,1,1-3.12,3.09,3.11,3.11,0,0,1,3.12-3.09m0-.94a4.05,4.05,0,1,0,4,4.07,4.05,4.05,0,0,0-4-4.07Z" transform="translate(74.44 63.276)" fill="#fff"/>
            <path id="Path_221" data-name="Path 221" d="M370.28,199.46a1.334,1.334,0,1,0-1.34,1.34,1.33,1.33,0,0,0,1.34-1.34Z" transform="translate(76.383 57.907)" fill="#c4c4c4"/>
            <path id="Path_222" data-name="Path 222" d="M369,198.12a1.33,1.33,0,1,1-1.33,1.33,1.33,1.33,0,0,1,1.33-1.33m0-.94a2.27,2.27,0,1,0,2.26,2.28,2.27,2.27,0,0,0-2.26-2.28Z" transform="translate(83.669 57.878)" fill="#fff"/>
            <path id="Path_223" data-name="Path 223" d="M403,169.89a3.07,3.07,0,1,0-3-3.08,3.07,3.07,0,0,0,3,3.08Z" transform="translate(103.823 48.244)" fill="#c4c4c4"/>
            <path id="Path_224" data-name="Path 224" d="M403.08,163.76a3.06,3.06,0,1,1-2.173.886,3.07,3.07,0,0,1,2.173-.886m0-.93a4,4,0,1,0,4,4A4,4,0,0,0,403.08,162.83Z" transform="translate(103.823 48.18)" fill="#fff"/>
            <path id="Path_225" data-name="Path 225" d="M404.81,17.27a1.92,1.92,0,1,0-1.92,1.91,1.92,1.92,0,0,0,1.92-1.91Z" transform="translate(103.823 0)" fill="#c4c4c4"/>
            <path id="Path_226" data-name="Path 226" d="M402.91,15.35a1.92,1.92,0,1,1-1.93,1.9,1.92,1.92,0,0,1,1.93-1.9m0-.94a2.85,2.85,0,1,0,2.016.845,2.85,2.85,0,0,0-2.016-.845Z" transform="translate(103.823 0)" fill="#fff"/>
            <path id="Path_227" data-name="Path 227" d="M263.86,290.82a2.76,2.76,0,1,0,1.959.815,2.77,2.77,0,0,0-1.959-.815Z" transform="translate(59.695 85.562)" fill="#c4c4c4"/>
            <path id="Path_228" data-name="Path 228" d="M263.86,290.82a2.77,2.77,0,1,1-2.78,2.75,2.77,2.77,0,0,1,2.78-2.75m0-.94a3.71,3.71,0,1,0,3.68,3.72,3.71,3.71,0,0,0-3.68-3.72Z" transform="translate(59.722 85.658)" fill="#fff"/>
            <path id="Path_229" data-name="Path 229" d="M306.2,400.28a2.38,2.38,0,1,0,2.37,2.39,2.38,2.38,0,0,0-2.37-2.39Z" transform="translate(69.347 127.204)" fill="#c4c4c4"/>
            <path id="Path_230" data-name="Path 230" d="M306.2,400.28a2.38,2.38,0,1,1-2.189,1.141,2.38,2.38,0,0,1,2.189-1.141m0-.94a3.32,3.32,0,1,0,3.29,3.33,3.32,3.32,0,0,0-3.29-3.33Z" transform="translate(69.415 127.204)" fill="#fff"/>
            <path id="Path_231" data-name="Path 231" d="M335.47,410a3.08,3.08,0,1,0,2.178.913A3.08,3.08,0,0,0,335.47,410Z" transform="translate(76.104 127.204)" fill="#c4c4c4"/>
            <path id="Path_232" data-name="Path 232" d="M335.47,410a3.08,3.08,0,1,1-3.1,3.06,3.08,3.08,0,0,1,3.1-3.06m0-.94a4,4,0,1,0,4,4A4,4,0,0,0,335.47,409.06Z" transform="translate(76.205 127.204)" fill="#fff"/>
            <path id="Path_233" data-name="Path 233" d="M349.35,350.91a1.73,1.73,0,1,0,1.72,1.73,1.73,1.73,0,0,0-1.72-1.73Z" transform="translate(79.121 127.204)" fill="#c4c4c4"/>
            <path id="Path_234" data-name="Path 234" d="M349.35,350.91a1.73,1.73,0,1,1-1.74,1.72,1.73,1.73,0,0,1,1.74-1.72m0-.94a2.65,2.65,0,1,0,1.884.787A2.67,2.67,0,0,0,349.35,349.97Z" transform="translate(79.231 108.955)" fill="#fff"/>
            <path id="Path_235" data-name="Path 235" d="M407.53,319.35a3.34,3.34,0,1,0,3.32,3.36,3.34,3.34,0,0,0-3.32-3.36Z" transform="translate(103.823 94.204)" fill="#c4c4c4"/>
            <path id="Path_236" data-name="Path 236" d="M407.53,319.35a3.34,3.34,0,1,1-3.36,3.33,3.34,3.34,0,0,1,3.36-3.33m0-.94a4.28,4.28,0,1,0,3.024,1.271,4.28,4.28,0,0,0-3.024-1.271Z" transform="translate(103.823 94.338)" fill="#fff"/>
            <path id="Path_237" data-name="Path 237" d="M2.32,381.12a1.37,1.37,0,1,0,.972.4,1.38,1.38,0,0,0-.972-.4Z" transform="translate(-0.01 127.204)" fill="#c4c4c4"/>
            <path id="Path_238" data-name="Path 238" d="M2.32,381.12a1.38,1.38,0,1,1-1.293.651,1.38,1.38,0,0,1,1.293-.651m0-.93a2.31,2.31,0,1,0,1.637.68,2.31,2.31,0,0,0-1.637-.68Z" transform="translate(-0.01 127.204)" fill="#fff"/>
            <path id="Path_239" data-name="Path 239" d="M68.87,341.31a2.22,2.22,0,1,0,2.21,2.23,2.22,2.22,0,0,0-2.21-2.23Z" transform="translate(-0.01 100.161)" fill="#c4c4c4"/>
            <path id="Path_240" data-name="Path 240" d="M68.87,341.31a2.21,2.21,0,1,1-1.576.64,2.22,2.22,0,0,1,1.576-.64m0-.94a3.135,3.135,0,1,1-.01,0Z" transform="translate(-0.01 100.321)" fill="#fff"/>
            <path id="Path_241" data-name="Path 241" d="M198.89,201.66a1.34,1.34,0,1,0,1.34,1.35,1.34,1.34,0,0,0-1.34-1.35Z" transform="translate(44.883 58.94)" fill="#c4c4c4"/>
            <path id="Path_242" data-name="Path 242" d="M198.89,201.66a1.34,1.34,0,1,1-1.35,1.33,1.34,1.34,0,0,1,1.35-1.33m0-.94a2.28,2.28,0,1,0,2.27,2.29,2.28,2.28,0,0,0-2.27-2.29Z" transform="translate(44.852 58.92)" fill="#fff"/>
            <path id="Path_243" data-name="Path 243" d="M277.62,256.17a3.06,3.06,0,1,0,3,3.07A3.06,3.06,0,0,0,277.62,256.17Z" transform="translate(62.844 75.468)" fill="#c4c4c4"/>
            <path id="Path_244" data-name="Path 244" d="M277.62,256.17a3.06,3.06,0,1,1-3.08,3,3.06,3.06,0,0,1,3.08-3m0-.94a4,4,0,1,0,4,4A4,4,0,0,0,277.62,255.23Z" transform="translate(62.903 75.52)" fill="#fff"/>
            <path id="Path_245" data-name="Path 245" d="M218,267.66a1.53,1.53,0,1,0-1.52-1.53,1.53,1.53,0,0,0,1.52,1.53Z" transform="translate(49.226 77.404)" fill="#c4c4c4"/>
            <path id="Path_246" data-name="Path 246" d="M218,264.61a1.52,1.52,0,1,1-1.081.442A1.53,1.53,0,0,1,218,264.61m0-.94a2.47,2.47,0,1,0,2.45,2.48A2.47,2.47,0,0,0,218,263.67Z" transform="translate(49.208 77.466)" fill="#fff"/>
            <path id="Path_247" data-name="Path 247" d="M220.42,276.05a1.73,1.73,0,1,0,1.72,1.74,1.73,1.73,0,0,0-1.72-1.74Z" transform="translate(49.77 80.827)" fill="#c4c4c4"/>
            <path id="Path_248" data-name="Path 248" d="M220.42,276.05a1.73,1.73,0,1,1-1.73,1.72,1.73,1.73,0,0,1,1.73-1.72m0-.94a2.67,2.67,0,1,0,2.65,2.68A2.67,2.67,0,0,0,220.42,275.11Z" transform="translate(49.759 80.902)" fill="#fff"/>
            <path id="Path_249" data-name="Path 249" d="M247.78,297a1.35,1.35,0,1,0,1.265.637A1.35,1.35,0,0,0,247.78,297Z" transform="translate(55.996 86.808)" fill="#c4c4c4"/>
            <path id="Path_250" data-name="Path 250" d="M247.78,297a1.35,1.35,0,1,1-1.265.637A1.35,1.35,0,0,1,247.78,297m0-.94a2.28,2.28,0,1,0,1.613.678A2.29,2.29,0,0,0,247.78,296.06Z" transform="translate(56.006 86.91)" fill="#fff"/>
            <path id="Path_251" data-name="Path 251" d="M376.78,296.7a2.35,2.35,0,1,0,2.34,2.36,2.35,2.35,0,0,0-2.34-2.36Z" transform="translate(103.823 87.122)" fill="#c4c4c4"/>
            <path id="Path_252" data-name="Path 252" d="M376.78,296.7a2.35,2.35,0,1,1-2.36,2.33,2.35,2.35,0,0,1,2.36-2.33m0-.94a3.29,3.29,0,1,0,3.27,3.3,3.29,3.29,0,0,0-3.27-3.3Z" transform="translate(103.823 87.225)" fill="#fff"/>
            <path id="Path_253" data-name="Path 253" d="M403.22,196.46a2.7,2.7,0,1,0,2.68,2.71,2.7,2.7,0,0,0-2.68-2.71Z" transform="translate(103.823 57.781)" fill="#c4c4c4"/>
            <path id="Path_254" data-name="Path 254" d="M403.22,196.46a2.69,2.69,0,1,1-1.915.781,2.7,2.7,0,0,1,1.915-.781m0-.94a3.64,3.64,0,1,0,3.62,3.66,3.64,3.64,0,0,0-3.62-3.66Z" transform="translate(103.823 57.756)" fill="#fff"/>
            <path id="Path_255" data-name="Path 255" d="M82.64,365.1a2.93,2.93,0,1,0,2.91,2.9,2.93,2.93,0,0,0-2.91-2.9Z" transform="translate(-0.01 127.204)" fill="#c4c4c4"/>
            <path id="Path_256" data-name="Path 256" d="M82.64,365.1a1.207,1.207,0,1,1,0-.01m0-.94a1.6,1.6,0,1,0,0-.03Z" transform="translate(-0.01 127.204)" fill="#fff"/>
            <path id="Path_257" data-name="Path 257" d="M111.63,335.37a1.69,1.69,0,1,0-.8,1.571,1.69,1.69,0,0,0,.8-1.571Z" transform="translate(24.627 97.721)" fill="#c4c4c4"/>
            <path id="Path_258" data-name="Path 258" d="M110,333.68a1.69,1.69,0,1,1-1.571.8,1.69,1.69,0,0,1,1.571-.8m0-.94a2.62,2.62,0,1,0,1.853.778A2.63,2.63,0,0,0,110,332.74Z" transform="translate(24.523 97.831)" fill="#fff"/>
            <path id="Path_259" data-name="Path 259" d="M148.41,418.74A2.65,2.65,0,1,0,151,421.4a2.65,2.65,0,0,0-2.59-2.66Z" transform="translate(33.29 127.204)" fill="#c4c4c4"/>
            <path id="Path_260" data-name="Path 260" d="M148.41,418.74a2.65,2.65,0,1,1-2.66,2.64,2.65,2.65,0,0,1,2.66-2.64m0-.94a3.59,3.59,0,1,0,3.57,3.61A3.59,3.59,0,0,0,148.41,417.8Z" transform="translate(33.222 127.204)" fill="#fff"/>
            <path id="Path_261" data-name="Path 261" d="M164,332.41a2.76,2.76,0,1,0,1.952.819A2.77,2.77,0,0,0,164,332.41Z" transform="translate(36.855 97.798)" fill="#c4c4c4"/>
            <path id="Path_262" data-name="Path 262" d="M164,332.41a2.75,2.75,0,1,1-1.964.795A2.77,2.77,0,0,1,164,332.41m0-.94a3.7,3.7,0,1,0,2.617,1.094A3.71,3.71,0,0,0,164,331.47Z" transform="translate(36.792 97.947)" fill="#fff"/>
            <path id="Path_263" data-name="Path 263" d="M243.71,369.92a2.42,2.42,0,1,0,2.4,2.42A2.42,2.42,0,0,0,243.71,369.92Z" transform="translate(55.079 127.204)" fill="#c4c4c4"/>
            <path id="Path_264" data-name="Path 264" d="M243.71,369.92a2.4,2.4,0,1,1-1.716.692,2.42,2.42,0,0,1,1.716-.692m0-.94a3.35,3.35,0,1,0,3.34,3.37,3.35,3.35,0,0,0-3.34-3.37Z" transform="translate(55.095 127.204)" fill="#fff"/>
            <path id="Path_265" data-name="Path 265" d="M177.05,308.58a1.77,1.77,0,1,0,1.255.522,1.77,1.77,0,0,0-1.255-.522Z" transform="translate(39.897 90.369)" fill="#c4c4c4"/>
            <path id="Path_266" data-name="Path 266" d="M177.05,308.58a1.77,1.77,0,1,1-1.78,1.76,1.77,1.77,0,0,1,1.78-1.76m0-.94a2.71,2.71,0,1,0,2.69,2.73,2.71,2.71,0,0,0-2.69-2.73Z" transform="translate(39.843 90.485)" fill="#fff"/>
            <path id="Path_267" data-name="Path 267" d="M211.8,151.17a2.12,2.12,0,1,0,2.11,2.13,2.12,2.12,0,0,0-2.11-2.13Z" transform="translate(47.801 44.342)" fill="#c4c4c4"/>
            <path id="Path_268" data-name="Path 268" d="M211.8,151.17a2.12,2.12,0,1,1-2.13,2.11,2.12,2.12,0,0,1,2.13-2.11m0-.94a3.06,3.06,0,1,0,3,3.08,3.06,3.06,0,0,0-3-3.08Z" transform="translate(47.772 44.258)" fill="#fff"/>
            <path id="Path_269" data-name="Path 269" d="M266,168a1.57,1.57,0,1,0,1.114.463A1.58,1.58,0,0,0,266,168Z" transform="translate(60.141 49.156)" fill="#c4c4c4"/>
            <path id="Path_270" data-name="Path 270" d="M266,168a1.58,1.58,0,1,1-1.58,1.57A1.58,1.58,0,0,1,266,168m0-.94a2.52,2.52,0,1,0,2.5,2.53,2.52,2.52,0,0,0-2.5-2.53Z" transform="translate(60.173 49.094)" fill="#fff"/>
            <path id="Path_271" data-name="Path 271" d="M271.68,29.21a2.5,2.5,0,1,0,2.49,2.51,2.5,2.5,0,0,0-2.49-2.51Z" transform="translate(61.472 0)" fill="#c4c4c4"/>
            <path id="Path_272" data-name="Path 272" d="M271.68,29.21a2.5,2.5,0,1,1-2.52,2.49,2.5,2.5,0,0,1,2.52-2.49m0-.94a3.44,3.44,0,1,0,2.433,1.018,3.44,3.44,0,0,0-2.433-1.018Z" transform="translate(61.511 0)" fill="#fff"/>
            <path id="Path_273" data-name="Path 273" d="M266,120.44a3.38,3.38,0,1,0-2.424-1,3.39,3.39,0,0,0,2.424,1Z" transform="translate(60.206 33.536)" fill="#c4c4c4"/>
            <path id="Path_274" data-name="Path 274" d="M266,113.66a3.39,3.39,0,1,1-3.4,3.37,3.39,3.39,0,0,1,3.4-3.37m0-.94a4.33,4.33,0,1,0,4.3,4.35A4.33,4.33,0,0,0,266,112.72Z" transform="translate(60.237 33.404)" fill="#fff"/>
            <path id="Path_275" data-name="Path 275" d="M319.85,143.74a1.72,1.72,0,1,0,1.223.511,1.73,1.73,0,0,0-1.223-.511Z" transform="translate(72.405 42.087)" fill="#c4c4c4"/>
            <path id="Path_276" data-name="Path 276" d="M319.85,143.74a1.72,1.72,0,1,1-1.223.5,1.73,1.73,0,0,1,1.223-.5m0-.94a2.66,2.66,0,1,0,1.882.79A2.67,2.67,0,0,0,319.85,142.8Z" transform="translate(72.488 41.994)" fill="#fff"/>
            <path id="Path_277" data-name="Path 277" d="M294.17,36.88a1.93,1.93,0,1,0,1.91,1.93,1.93,1.93,0,0,0-1.91-1.93Z" transform="translate(66.57 0)" fill="#c4c4c4"/>
            <path id="Path_278" data-name="Path 278" d="M294.17,36.88a1.92,1.92,0,1,1-1.364.559,1.93,1.93,0,0,1,1.364-.559m0-.94a2.815,2.815,0,1,1-.02,0Z" transform="translate(66.626 0)" fill="#fff"/>
            <path id="Path_279" data-name="Path 279" d="M405.55,405.09a1.8,1.8,0,1,0,1.79,1.8A1.8,1.8,0,0,0,405.55,405.09Z" transform="translate(103.823 127.204)" fill="#c4c4c4"/>
            <path id="Path_280" data-name="Path 280" d="M405.55,405.09a1.8,1.8,0,1,1-1.81,1.79,1.8,1.8,0,0,1,1.81-1.79m0-.94a2.74,2.74,0,1,0,2.72,2.75,2.74,2.74,0,0,0-2.72-2.75Z" transform="translate(103.823 127.204)" fill="#fff"/>
            <circle id="Ellipse_2" data-name="Ellipse 2" cx="2.24" cy="2.24" r="2.24" transform="translate(531.283 422.169)" fill="#c4c4c4"/>
            <path id="Path_281" data-name="Path 281" d="M429.71,326.39a2.23,2.23,0,1,1-1.586.642,2.24,2.24,0,0,1,1.586-.642m0-.94a3.17,3.17,0,1,0,2.242.939,3.18,3.18,0,0,0-2.242-.939Z" transform="translate(103.823 95.932)" fill="#fff"/>
          </g>
        </g>
        <path id="wave_4_2" data-name="wave (4)" d="M0,419.986l29.755-31.061C59.51,357.28,119.02,296.032,178.53,225.6c59.51-69.56,119.02-148.308,178.53-186.661C416.571,0,476.081,0,505.836,0h29.755V466.652H0Z" transform="matrix(-0.105, -0.995, 0.995, -0.105, 2336.545, 1927.229)" fill="rgba(36,130,119,0.25)"/>
        <path id="wave_4_3" data-name="wave (4)" d="M0,507.69l36.174-37.548C72.348,431.889,144.7,357.851,217.045,272.707c72.348-84.086,144.7-179.278,217.045-225.64C506.438,0,578.786,0,614.96,0h36.174V564.1H0Z" transform="translate(2284.071 1988.965) rotate(-101)" fill="rgba(36,130,119,0.09)"/>
      </g>
    </g>
  </g>
</svg>
