<svg xmlns="http://www.w3.org/2000/svg" viewBox="0 0 1882.89 595.43"><defs><style>.cls-1{fill:#333;}.cls-2{fill:#666;}.cls-3{fill:#969696;}.cls-4{fill:#c9c9c9;}.cls-5{fill:#fff;}.cls-6{fill:#e3e3e3;}.cls-7{fill:#4d4d4d;}</style></defs><g id="Layer_2" data-name="Layer 2"><g id="Object"><polygon class="cls-1" points="930.53 485.4 865.95 448.12 930.53 410.79 930.53 485.4"/><polygon class="cls-1" points="930.53 595.37 865.95 558.09 930.53 520.76 930.53 595.37"/><polygon class="cls-1" points="951.34 595.37 1015.91 558.09 951.34 520.76 951.34 595.37"/><polygon class="cls-1" points="760.87 485.4 825.44 448.12 760.87 410.79 760.87 485.4"/><polygon class="cls-1" points="739.55 485.4 674.97 448.12 739.55 410.79 739.55 485.4"/><polygon class="cls-1" points="570.65 485.4 635.23 448.12 570.65 410.79 570.65 485.4"/><polygon class="cls-1" points="549.33 485.4 484.75 448.12 549.33 410.79 549.33 485.4"/><polygon class="cls-1" points="380.43 485.4 445.01 448.12 380.43 410.79 380.43 485.4"/><polygon class="cls-1" points="359.11 485.4 294.54 448.12 359.11 410.79 359.11 485.4"/><polygon class="cls-1" points="190.22 485.4 254.79 448.12 190.22 410.79 190.22 485.4"/><polygon class="cls-1" points="168.9 485.4 104.32 448.12 168.9 410.79 168.9 485.4"/><polygon class="cls-1" points="0 485.4 64.57 448.12 0 410.79 0 485.4"/><polygon class="cls-1" points="760.87 595.37 825.44 558.09 760.87 520.76 760.87 595.37"/><polygon class="cls-1" points="739.55 595.37 674.97 558.09 739.55 520.76 739.55 595.37"/><polygon class="cls-1" points="570.65 595.37 635.23 558.09 570.65 520.76 570.65 595.37"/><polygon class="cls-1" points="549.33 595.37 484.75 558.09 549.33 520.76 549.33 595.37"/><polygon class="cls-1" points="380.43 595.37 445.01 558.09 380.43 520.76 380.43 595.37"/><polygon class="cls-1" points="359.11 595.37 294.54 558.09 359.11 520.76 359.11 595.37"/><polygon class="cls-1" points="190.22 595.37 254.79 558.09 190.22 520.76 190.22 595.37"/><polygon class="cls-1" points="168.9 595.37 104.32 558.09 168.9 520.76 168.9 595.37"/><polygon class="cls-1" points="0 595.37 64.57 558.09 0 520.76 0 595.37"/><polygon class="cls-1" points="1121 485.4 1056.42 448.12 1121 410.79 1121 485.4"/><polygon class="cls-1" points="951.34 485.4 1015.91 448.12 951.34 410.79 951.34 485.4"/><polygon class="cls-1" points="1311.47 485.4 1246.9 448.12 1311.47 410.79 1311.47 485.4"/><polygon class="cls-1" points="1141.81 485.4 1206.39 448.12 1141.81 410.79 1141.81 485.4"/><polygon class="cls-1" points="1121 595.37 1056.42 558.09 1121 520.76 1121 595.37"/><polygon class="cls-1" points="1141.81 595.37 1206.39 558.09 1141.81 520.76 1141.81 595.37"/><polygon class="cls-1" points="1501.94 485.4 1437.37 448.12 1501.94 410.79 1501.94 485.4"/><polygon class="cls-1" points="1332.28 485.4 1396.86 448.12 1332.28 410.79 1332.28 485.4"/><polygon class="cls-2" points="924.39 368.21 872.09 338.02 924.39 307.78 924.39 368.21"/><polygon class="cls-3" points="1114.86 368.21 1062.56 338.02 1114.86 307.78 1114.86 368.21"/><polygon class="cls-3" points="957.47 368.21 1009.78 338.02 957.47 307.78 957.47 368.21"/><polygon class="cls-2" points="767 307.78 819.31 337.98 767 368.21 767 307.78"/><polygon class="cls-3" points="733.92 307.78 681.62 337.98 733.92 368.21 733.92 307.78"/><polygon class="cls-3" points="1305.34 368.21 1253.03 338.02 1305.34 307.78 1305.34 368.21"/><polygon class="cls-2" points="1147.95 368.21 1200.25 338.02 1147.95 307.78 1147.95 368.21"/><polygon class="cls-2" points="1338.42 368.21 1390.72 338.02 1338.42 307.78 1338.42 368.21"/><polygon class="cls-3" points="769.35 252.38 811.71 227.92 769.35 203.43 769.35 252.38"/><polygon class="cls-3" points="922.05 252.38 879.68 227.92 922.05 203.43 922.05 252.38"/><polygon class="cls-4" points="959.82 252.38 1002.19 227.92 959.82 203.43 959.82 252.38"/><polygon class="cls-3" points="1112.52 252.38 1070.15 227.92 1112.52 203.43 1112.52 252.38"/><polygon class="cls-4" points="1150.29 252.38 1192.66 227.92 1150.29 203.43 1150.29 252.38"/><polygon class="cls-3" points="1302.99 252.38 1260.63 227.92 1302.99 203.43 1302.99 252.38"/><polygon class="cls-3" points="1340.77 252.38 1383.13 227.92 1340.77 203.43 1340.77 252.38"/><polygon class="cls-4" points="1493.47 252.38 1451.1 227.92 1493.47 203.43 1493.47 252.38"/><polygon class="cls-3" points="1531.24 252.38 1573.61 227.92 1531.24 203.43 1531.24 252.38"/><polygon class="cls-3" points="1683.94 252.38 1641.57 227.92 1683.94 203.43 1683.94 252.38"/><polygon class="cls-4" points="1721.71 252.38 1764.08 227.92 1721.71 203.43 1721.71 252.38"/><polygon class="cls-4" points="1874.41 252.38 1832.05 227.92 1874.41 203.43 1874.41 252.38"/><polygon class="cls-3" points="774.72 133.56 801.42 118.15 774.72 102.72 774.72 133.56"/><polygon class="cls-4" points="916.67 133.56 889.98 118.15 916.67 102.72 916.67 133.56"/><polygon class="cls-3" points="965.25 133.56 991.94 118.15 965.25 102.72 965.25 133.56"/><polygon class="cls-4" points="1107.19 133.56 1080.5 118.15 1107.19 102.72 1107.19 133.56"/><polygon class="cls-3" points="1155.77 133.56 1182.46 118.15 1155.77 102.72 1155.77 133.56"/><polygon class="cls-4" points="1297.72 133.56 1271.03 118.15 1297.72 102.72 1297.72 133.56"/><polygon class="cls-4" points="1346.3 133.56 1372.99 118.15 1346.3 102.72 1346.3 133.56"/><polygon class="cls-3" points="1488.24 133.56 1461.55 118.15 1488.24 102.72 1488.24 133.56"/><polygon class="cls-4" points="1536.82 133.56 1563.51 118.15 1536.82 102.72 1536.82 133.56"/><polygon class="cls-4" points="1678.77 133.56 1652.08 118.15 1678.77 102.72 1678.77 133.56"/><polygon class="cls-5" points="1727.35 133.56 1754.04 118.15 1727.35 102.72 1727.35 133.56"/><polygon class="cls-4" points="1869.29 133.56 1842.6 118.15 1869.29 102.72 1869.29 133.56"/><polygon class="cls-6" points="778.28 15.42 791.63 7.71 778.28 0 778.28 15.42"/><polygon class="cls-6" points="968.79 15.42 982.13 7.71 968.79 0 968.79 15.42"/><polygon class="cls-6" points="1103.55 15.42 1090.21 7.71 1103.55 0 1103.55 15.42"/><polygon class="cls-5" points="1159.29 15.42 1172.63 7.71 1159.29 0 1159.29 15.42"/><polygon class="cls-6" points="1349.79 15.42 1363.14 7.71 1349.79 0 1349.79 15.42"/><polygon class="cls-6" points="1484.56 15.42 1471.21 7.71 1484.56 0 1484.56 15.42"/><polygon class="cls-6" points="1675.06 15.42 1661.71 7.71 1675.06 0 1675.06 15.42"/><polygon class="cls-6" points="1730.8 15.42 1744.14 7.71 1730.8 0 1730.8 15.42"/><polygon class="cls-6" points="1865.56 15.42 1852.22 7.71 1865.56 0 1865.56 15.42"/><polygon class="cls-1" points="1692.41 485.4 1627.84 448.12 1692.41 410.79 1692.41 485.4"/><polygon class="cls-1" points="1522.76 485.4 1587.33 448.12 1522.76 410.79 1522.76 485.4"/><polygon class="cls-1" points="1882.89 485.4 1818.31 448.12 1882.89 410.79 1882.89 485.4"/><polygon class="cls-1" points="1713.23 485.4 1777.8 448.12 1713.23 410.79 1713.23 485.4"/><polygon class="cls-1" points="1311.47 595.43 1246.9 558.14 1311.47 520.82 1311.47 595.43"/><polygon class="cls-1" points="1501.94 595.43 1437.37 558.14 1501.94 520.82 1501.94 595.43"/><polygon class="cls-1" points="1332.28 595.43 1396.86 558.14 1332.28 520.82 1332.28 595.43"/><polygon class="cls-1" points="1692.41 595.43 1627.84 558.14 1692.41 520.82 1692.41 595.43"/><polygon class="cls-1" points="1522.76 595.43 1587.33 558.14 1522.76 520.82 1522.76 595.43"/><polygon class="cls-1" points="1882.89 595.43 1818.31 558.14 1882.89 520.82 1882.89 595.43"/><polygon class="cls-1" points="1713.23 595.43 1777.8 558.14 1713.23 520.82 1713.23 595.43"/><polygon class="cls-2" points="1495.81 368.28 1443.5 338.08 1495.81 307.85 1495.81 368.28"/><polygon class="cls-3" points="1686.28 368.28 1633.97 338.08 1686.28 307.85 1686.28 368.28"/><polygon class="cls-2" points="1528.89 368.28 1581.19 338.08 1528.89 307.85 1528.89 368.28"/><polygon class="cls-3" points="576.53 307.85 628.84 338.05 576.53 368.28 576.53 307.85"/><polygon class="cls-3" points="386.06 307.85 438.37 338.05 386.06 368.28 386.06 307.85"/><polygon class="cls-2" points="543.45 307.85 491.14 338.05 543.45 368.28 543.45 307.85"/><polygon class="cls-2" points="352.98 307.85 300.67 338.05 352.98 368.28 352.98 307.85"/><polygon class="cls-2" points="195.59 307.78 247.89 337.98 195.59 368.21 195.59 307.78"/><polygon class="cls-2" points="162.5 307.78 110.2 337.98 162.5 368.21 162.5 307.78"/><polygon class="cls-3" points="5.12 307.78 57.42 337.98 5.12 368.21 5.12 307.78"/><polygon class="cls-2" points="1876.75 368.28 1824.45 338.08 1876.75 307.85 1876.75 368.28"/><polygon class="cls-2" points="1719.36 368.28 1771.67 338.08 1719.36 307.85 1719.36 368.28"/><polygon class="cls-1" points="1022.53 426.83 964.42 393.28 1022.53 359.69 1022.53 426.83"/><polygon class="cls-1" points="1025.76 540.59 961.19 503.31 1025.76 465.99 1025.76 540.59"/><polygon class="cls-3" points="1017.01 310.43 969.94 283.25 1017.01 256.04 1017.01 310.43"/><polygon class="cls-7" points="1049.81 426.83 1107.92 393.28 1049.81 359.69 1049.81 426.83"/><polygon class="cls-1" points="1046.58 540.59 1111.15 503.31 1046.58 465.99 1046.58 540.59"/><polygon class="cls-2" points="1055.33 310.43 1102.4 283.25 1055.33 256.04 1055.33 310.43"/><polygon class="cls-1" points="1213.01 426.83 1154.89 393.28 1213.01 359.69 1213.01 426.83"/><polygon class="cls-1" points="1216.23 540.59 1151.66 503.31 1216.23 465.99 1216.23 540.59"/><polygon class="cls-2" points="1207.48 310.43 1160.41 283.25 1207.48 256.04 1207.48 310.43"/><polygon class="cls-7" points="1240.28 426.83 1298.39 393.28 1240.28 359.69 1240.28 426.83"/><polygon class="cls-1" points="1237.05 540.59 1301.62 503.31 1237.05 465.99 1237.05 540.59"/><polygon class="cls-4" points="1245.8 310.43 1292.87 283.25 1245.8 256.04 1245.8 310.43"/><polygon class="cls-1" points="1403.48 426.83 1345.36 393.28 1403.48 359.69 1403.48 426.83"/><polygon class="cls-1" points="1406.71 540.59 1342.13 503.31 1406.71 465.99 1406.71 540.59"/><polygon class="cls-2" points="1397.96 310.43 1350.88 283.25 1397.96 256.04 1397.96 310.43"/><polygon class="cls-3" points="1430.75 426.83 1488.87 393.28 1430.75 359.69 1430.75 426.83"/><polygon class="cls-1" points="451.12 426.83 393 393.28 451.12 359.69 451.12 426.83"/><polygon class="cls-7" points="478.39 426.83 536.51 393.28 478.39 359.69 478.39 426.83"/><polygon class="cls-1" points="641.59 426.83 583.47 393.28 641.59 359.69 641.59 426.83"/><polygon class="cls-3" points="668.86 426.83 726.98 393.28 668.86 359.69 668.86 426.83"/><polygon class="cls-1" points="1427.52 540.59 1492.09 503.31 1427.52 465.99 1427.52 540.59"/><polygon class="cls-3" points="1436.27 310.43 1483.34 283.25 1436.27 256.04 1436.27 310.43"/><polygon class="cls-1" points="1593.95 426.83 1535.83 393.28 1593.95 359.69 1593.95 426.83"/><polygon class="cls-1" points="1597.18 540.59 1532.6 503.31 1597.18 465.99 1597.18 540.59"/><polygon class="cls-2" points="1588.43 310.43 1541.35 283.25 1588.43 256.04 1588.43 310.43"/><polygon class="cls-7" points="1621.22 426.83 1679.34 393.28 1621.22 359.69 1621.22 426.83"/><polygon class="cls-1" points="1617.99 540.59 1682.57 503.31 1617.99 465.99 1617.99 540.59"/><polygon class="cls-4" points="1626.74 310.43 1673.82 283.25 1626.74 256.04 1626.74 310.43"/><polygon class="cls-1" points="1784.42 426.83 1726.31 393.28 1784.42 359.69 1784.42 426.83"/><polygon class="cls-1" points="1787.65 540.59 1723.08 503.31 1787.65 465.99 1787.65 540.59"/><polygon class="cls-2" points="1778.9 310.43 1731.83 283.25 1778.9 256.04 1778.9 310.43"/><polygon class="cls-3" points="1811.69 426.83 1869.81 393.28 1811.69 359.69 1811.69 426.83"/><polygon class="cls-1" points="287.92 359.69 346.04 393.24 287.92 426.83 287.92 359.69"/><polygon class="cls-7" points="260.65 359.69 202.53 393.24 260.65 426.83 260.65 359.69"/><polygon class="cls-1" points="97.45 359.69 155.56 393.24 97.45 426.83 97.45 359.69"/><polygon class="cls-3" points="70.18 359.69 12.06 393.24 70.17 426.83 70.18 359.69"/><polygon class="cls-1" points="1808.46 540.59 1873.04 503.31 1808.46 465.99 1808.46 540.59"/><polygon class="cls-4" points="1817.21 310.43 1864.29 283.25 1817.21 256.04 1817.21 310.43"/><polygon class="cls-3" points="832.06 426.83 773.95 393.28 832.06 359.69 832.06 426.83"/><polygon class="cls-1" points="835.29 540.59 770.72 503.31 835.29 465.99 835.29 540.59"/><polygon class="cls-4" points="826.54 310.43 779.47 283.25 826.54 256.04 826.54 310.43"/><polygon class="cls-4" points="818.39 70.88 805.04 63.18 818.39 55.47 818.39 70.88"/><polygon class="cls-4" points="873.01 70.88 886.35 63.18 873.01 55.47 873.01 70.88"/><polygon class="cls-4" points="57.01 70.88 43.66 63.18 57.01 55.47 57.01 70.88"/><polygon class="cls-4" points="111.63 70.88 124.98 63.18 111.63 55.47 111.63 70.88"/><polygon class="cls-4" points="1063.48 70.88 1076.83 63.18 1063.48 55.47 1063.48 70.88"/><polygon class="cls-4" points="1253.95 70.88 1267.3 63.18 1253.95 55.47 1253.95 70.88"/><polygon class="cls-4" points="1389.8 70.88 1376.46 63.18 1389.8 55.47 1389.8 70.88"/><polygon class="cls-4" points="1580.28 70.88 1566.93 63.18 1580.28 55.47 1580.28 70.88"/><polygon class="cls-4" points="1825.37 70.88 1838.71 63.18 1825.37 55.47 1825.37 70.88"/><polygon class="cls-6" points="206.36 15.42 219.7 7.71 206.36 0 206.36 15.42"/><polygon class="cls-6" points="341.13 15.42 327.78 7.71 341.13 0 341.13 15.42"/><polygon class="cls-6" points="531.63 15.42 518.28 7.71 531.63 0 531.63 15.42"/><polygon class="cls-6" points="587.36 15.42 600.71 7.71 587.36 0 587.36 15.42"/><polygon class="cls-6" points="722.13 15.42 708.78 7.71 722.13 0 722.13 15.42"/><polygon class="cls-4" points="246.37 70.88 233.02 63.18 246.37 55.47 246.37 70.88"/><polygon class="cls-4" points="436.84 70.88 423.5 63.18 436.84 55.47 436.84 70.88"/><polygon class="cls-4" points="681.93 70.88 695.28 63.18 681.93 55.47 681.93 70.88"/><polygon class="cls-1" points="859.33 426.83 917.45 393.28 859.33 359.69 859.33 426.83"/><polygon class="cls-1" points="856.1 540.59 920.68 503.31 856.1 465.99 856.1 540.59"/><polygon class="cls-1" points="644.82 540.59 580.25 503.31 644.82 465.99 644.82 540.59"/><polygon class="cls-1" points="665.63 540.59 730.21 503.31 665.63 465.99 665.63 540.59"/><polygon class="cls-1" points="454.35 540.59 389.77 503.31 454.35 465.99 454.35 540.59"/><polygon class="cls-1" points="475.16 540.59 539.74 503.31 475.16 465.99 475.16 540.59"/><polygon class="cls-1" points="263.88 540.59 199.3 503.31 263.88 465.99 263.88 540.59"/><polygon class="cls-1" points="284.69 540.59 349.26 503.31 284.69 465.99 284.69 540.59"/><polygon class="cls-1" points="73.4 540.59 8.83 503.31 73.4 465.99 73.4 540.59"/><polygon class="cls-1" points="94.22 540.59 158.79 503.31 94.22 465.99 94.22 540.59"/><polygon class="cls-2" points="864.85 310.43 911.93 283.25 864.85 256.04 864.85 310.43"/><polygon class="cls-4" points="64.65 310.43 17.58 283.25 64.65 256.04 64.65 310.43"/><polygon class="cls-2" points="102.97 310.43 150.04 283.25 102.97 256.04 102.97 310.43"/><polygon class="cls-3" points="482.41 256.04 529.49 283.22 482.41 310.43 482.41 256.04"/><polygon class="cls-2" points="447.35 256.04 400.27 283.22 447.35 310.43 447.35 256.04"/><polygon class="cls-2" points="291.94 256.04 339.01 283.22 291.94 310.43 291.94 256.04"/><polygon class="cls-4" points="257.38 256.04 210.3 283.22 257.38 310.43 257.38 256.04"/><polygon class="cls-4" points="674.38 256.04 721.46 283.22 674.38 310.43 674.38 256.04"/><polygon class="cls-2" points="636.07 256.04 589 283.22 636.07 310.43 636.07 256.04"/><polygon class="cls-3" points="865.19 195.23 903.33 173.22 865.19 151.18 865.19 195.23"/><polygon class="cls-5" points="826.2 195.23 788.07 173.22 826.2 151.18 826.2 195.23"/><polygon class="cls-3" points="1055.67 195.23 1093.8 173.22 1055.67 151.18 1055.67 195.23"/><polygon class="cls-5" points="1016.67 195.23 978.54 173.22 1016.67 151.18 1016.67 195.23"/><polygon class="cls-5" points="1246.14 195.23 1284.27 173.22 1246.14 151.18 1246.14 195.23"/><polygon class="cls-3" points="1207.15 195.23 1169.02 173.22 1207.15 151.18 1207.15 195.23"/><polygon class="cls-3" points="1436.61 195.23 1474.74 173.22 1436.61 151.18 1436.61 195.23"/><polygon class="cls-5" points="1397.62 195.23 1359.49 173.22 1397.62 151.18 1397.62 195.23"/><polygon class="cls-3" points="160.16 252.38 117.79 227.92 160.16 203.43 160.16 252.38"/><polygon class="cls-4" points="7.46 252.38 49.83 227.92 7.46 203.43 7.46 252.38"/><polygon class="cls-4" points="197.93 252.38 240.3 227.92 197.93 203.43 197.93 252.38"/><polygon class="cls-3" points="350.63 252.38 308.26 227.92 350.63 203.43 350.63 252.38"/><polygon class="cls-3" points="388.4 252.38 430.77 227.92 388.4 203.43 388.4 252.38"/><polygon class="cls-4" points="154.83 133.56 128.14 118.15 154.83 102.72 154.83 133.56"/><polygon class="cls-3" points="203.41 133.56 230.1 118.15 203.41 102.72 203.41 133.56"/><polygon class="cls-3" points="13.18 133.56 39.87 118.15 13.18 102.72 13.18 133.56"/><polygon class="cls-4" points="345.36 133.56 318.67 118.15 345.36 102.72 345.36 133.56"/><polygon class="cls-4" points="393.94 133.56 420.63 118.15 393.94 102.72 393.94 133.56"/><polygon class="cls-3" points="103.31 195.23 141.44 173.22 103.31 151.18 103.31 195.23"/><polygon class="cls-5" points="293.78 195.23 331.91 173.22 293.78 151.18 293.78 195.23"/><polygon class="cls-3" points="254.79 195.23 216.66 173.22 254.79 151.18 254.79 195.23"/><polygon class="cls-3" points="64.65 195.23 26.52 173.22 64.65 151.18 64.65 195.23"/><polygon class="cls-5" points="445.26 195.23 407.13 173.22 445.26 151.18 445.26 195.23"/><polygon class="cls-3" points="1627.09 195.23 1665.22 173.22 1627.09 151.18 1627.09 195.23"/><polygon class="cls-5" points="1588.09 195.23 1549.96 173.22 1588.09 151.18 1588.09 195.23"/><polygon class="cls-4" points="541.68 252.38 499.31 227.92 541.68 203.43 541.68 252.38"/><polygon class="cls-3" points="579.45 252.38 621.82 227.92 579.45 203.43 579.45 252.38"/><polygon class="cls-3" points="732.15 252.38 689.79 227.92 732.15 203.43 732.15 252.38"/><polygon class="cls-3" points="536.46 133.56 509.77 118.15 536.46 102.72 536.46 133.56"/><polygon class="cls-4" points="585.04 133.56 611.73 118.15 585.04 102.72 585.04 133.56"/><polygon class="cls-4" points="726.98 133.56 700.29 118.15 726.98 102.72 726.98 133.56"/><polygon class="cls-3" points="484.83 195.23 522.96 173.22 484.83 151.18 484.83 195.23"/><polygon class="cls-3" points="675.3 195.23 713.43 173.22 675.3 151.18 675.3 195.23"/><polygon class="cls-5" points="636.31 195.23 598.18 173.22 636.31 151.18 636.31 195.23"/><polygon class="cls-3" points="1817.56 195.23 1855.69 173.22 1817.56 151.18 1817.56 195.23"/><polygon class="cls-5" points="1778.57 195.23 1740.43 173.22 1778.57 151.18 1778.57 195.23"/></g></g></svg>