<svg xmlns="http://www.w3.org/2000/svg" viewBox="0 0 92.67 92.67"><defs><style>.cls-1{fill:#625f6e;}</style></defs><g id="Layer_2" data-name="Layer 2"><g id="Layer_1-2" data-name="Layer 1"><path class="cls-1" d="M91,42.11,50.13,1.66a5.66,5.66,0,0,0-8,0L1.66,42.54a5.67,5.67,0,0,0,0,8L42.11,91a5.67,5.67,0,0,0,8,0L91,50.13a5.66,5.66,0,0,0,0-8ZM88.18,47.3,47.3,88.18a1.71,1.71,0,0,1-2.36,0h0L4.49,47.73a1.65,1.65,0,0,1,0-2.36L44.94,4.49a1.67,1.67,0,0,1,2.37,0L88.18,44.94a1.67,1.67,0,0,1,0,2.36Z"/><path class="cls-1" d="M57.4,44.34H48.55V35.49a2,2,0,1,0-4,0v8.85H35.71a2,2,0,0,0,0,4h8.84v8.84a2,2,0,0,0,4,0V48.34H57.4a2,2,0,1,0,0-4Z"/></g></g></svg>