<svg xmlns="http://www.w3.org/2000/svg" viewBox="0 0 92.67 92.67"><defs><style>.cls-1{fill:#625f6e;}</style></defs><g id="Layer_2" data-name="Layer 2"><g id="Layer_1-2" data-name="Layer 1"><path class="cls-1" d="M91,42.1,50.12,1.66a5.68,5.68,0,0,0-8,0L1.66,42.54a5.68,5.68,0,0,0,0,8L42.11,91a5.66,5.66,0,0,0,8,0L91,50.12a5.66,5.66,0,0,0,0-8Zm-2.82,5.2L47.3,88.18a1.67,1.67,0,0,1-2.36,0L4.49,47.73a1.68,1.68,0,0,1,0-2.37L44.94,4.48a1.67,1.67,0,0,1,2.36,0L88.18,44.94a1.62,1.62,0,0,1,.49,1.18A1.66,1.66,0,0,1,88.18,47.3Z"/><path class="cls-1" d="M46.38,42.07A11.1,11.1,0,1,0,35.28,31,11.11,11.11,0,0,0,46.38,42.07Zm0-17.43A6.34,6.34,0,1,1,40,31,6.34,6.34,0,0,1,46.38,24.64Z"/><path class="cls-1" d="M52.19,43.89H40.56a14,14,0,0,0-13.09,9A7.27,7.27,0,0,0,27,55.22a8,8,0,0,0,2.32,6.06L40.59,72.53a8.21,8.21,0,0,0,11.58,0l11-11a8.39,8.39,0,0,0,2.46-5.65A8.54,8.54,0,0,0,64.9,52,14,14,0,0,0,52.19,43.89Zm7.65,14.25h0l-11,11a3.45,3.45,0,0,1-4.86,0L32.7,57.92a3.25,3.25,0,0,1-.94-2.45,3,3,0,0,1,.15-.85,9.29,9.29,0,0,1,8.65-6H52.19A9.28,9.28,0,0,1,60.59,54a3.72,3.72,0,0,1-.75,4.13Z"/></g></g></svg>