<svg xmlns="http://www.w3.org/2000/svg" viewBox="0 0 92.82 91.93"><defs><style>.cls-1{fill:#625f6e;}</style></defs><g id="Layer_2" data-name="Layer 2"><g id="Layer_1-2" data-name="Layer 1"><path class="cls-1" d="M43.14,38.1a5.38,5.38,0,0,0,7.64,0L65.23,23.66a5.41,5.41,0,0,0,0-7.64L50.78,1.58a5.4,5.4,0,0,0-7.64,0L28.7,16a5.4,5.4,0,0,0,0,7.64ZM31.53,18.85,46,4.41A1.42,1.42,0,0,1,47,4a1.44,1.44,0,0,1,1,.41L62.4,18.85a1.41,1.41,0,0,1,0,2L48,35.28a1.44,1.44,0,0,1-2,0L31.53,20.84a1.41,1.41,0,0,1,0-2Z"/><path class="cls-1" d="M39.69,46.23a5.32,5.32,0,0,0-1.59-3.82L23.66,28A5.42,5.42,0,0,0,16,28L1.58,42.41a5.4,5.4,0,0,0,0,7.64L16,64.49a5.41,5.41,0,0,0,7.64,0L38.1,50.05A5.34,5.34,0,0,0,39.69,46.23Zm-4.41,1L20.84,61.66a1.44,1.44,0,0,1-2,0L4.41,47.22a1.41,1.41,0,0,1,0-2L18.85,30.79a1.41,1.41,0,0,1,1-.41,1.43,1.43,0,0,1,1,.41L35.28,45.23a1.41,1.41,0,0,1,0,2Z"/><path class="cls-1" d="M91.24,42.41,76.8,28a5.42,5.42,0,0,0-7.64,0L54.71,42.41a5.42,5.42,0,0,0,0,7.64L69.16,64.49a5.41,5.41,0,0,0,7.64,0L91.24,50.05A5.4,5.4,0,0,0,91.24,42.41Zm-2.83,4.81L74,61.66a1.41,1.41,0,0,1-2,0L57.54,47.22a1.41,1.41,0,0,1,0-2L72,30.79a1.44,1.44,0,0,1,1-.41,1.4,1.4,0,0,1,1,.41L88.41,45.23a1.41,1.41,0,0,1,0,2Z"/><path class="cls-1" d="M50.78,53.82a5.4,5.4,0,0,0-7.64,0L28.7,68.26a5.41,5.41,0,0,0,0,7.64L43.14,90.35a5.41,5.41,0,0,0,7.64,0L65.23,75.9a5.41,5.41,0,0,0,0-7.64ZM62.4,73.08,48,87.52a1.44,1.44,0,0,1-2,0L31.53,73.08a1.41,1.41,0,0,1,0-2L46,56.65a1.41,1.41,0,0,1,2,0L62.4,71.09a1.41,1.41,0,0,1,0,2Z"/></g></g></svg>