<svg xmlns="http://www.w3.org/2000/svg" viewBox="0 0 27.67 27.67"><defs><style>.cls-1{fill:#625f6e;}</style></defs><g id="Layer_2" data-name="Layer 2"><g id="Layer_1-2" data-name="Layer 1"><path class="cls-1" d="M13.83,27.67A13.84,13.84,0,1,1,27.67,13.83,13.86,13.86,0,0,1,13.83,27.67ZM13.83,2A11.84,11.84,0,1,0,25.67,13.83,11.85,11.85,0,0,0,13.83,2Z"/><path class="cls-1" d="M12,18.5a1,1,0,0,1-.71-.29L7.63,14.54A1,1,0,0,1,9,13.13l3,3,6.63-6.63A1,1,0,1,1,20,10.87l-7.33,7.34A1,1,0,0,1,12,18.5Z"/></g></g></svg>