<svg xmlns="http://www.w3.org/2000/svg" viewBox="0 0 48.21 61.17"><defs><style>.cls-1{fill:#625f6e;}</style></defs><g id="Layer_2" data-name="Layer 2"><g id="Layer_1-2" data-name="Layer 1"><path class="cls-1" d="M12,44.84a8.34,8.34,0,1,1,8.33-8.33A8.34,8.34,0,0,1,12,44.84Zm0-14.67a6.34,6.34,0,1,0,6.33,6.34A6.35,6.35,0,0,0,12,30.17Z"/><path class="cls-1" d="M47.21,61.17a1,1,0,0,1-1-1V56.51a6.35,6.35,0,0,0-6.33-6.34H32.54a6.37,6.37,0,0,0-6.27,5.44,2.18,2.18,0,0,1-4.33,0,6.37,6.37,0,0,0-6.27-5.44H8.33A6.35,6.35,0,0,0,2,56.51v3.66a1,1,0,0,1-2,0V56.51a8.35,8.35,0,0,1,8.33-8.34h7.34a8.38,8.38,0,0,1,8.25,7.16.19.19,0,0,0,.37,0,8.38,8.38,0,0,1,8.25-7.16h7.34a8.35,8.35,0,0,1,8.33,8.34v3.66A1,1,0,0,1,47.21,61.17Z"/><path class="cls-1" d="M36.21,44.84a8.34,8.34,0,1,1,8.33-8.33A8.34,8.34,0,0,1,36.21,44.84Zm0-14.67a6.34,6.34,0,1,0,6.33,6.34A6.35,6.35,0,0,0,36.21,30.17Z"/><path class="cls-1" d="M23.62,16.67A8.34,8.34,0,1,1,32,8.33,8.35,8.35,0,0,1,23.62,16.67ZM23.62,2A6.34,6.34,0,1,0,30,8.33,6.34,6.34,0,0,0,23.62,2Z"/><path class="cls-1" d="M34.26,26.06a1,1,0,0,1-.95-.69,6.33,6.33,0,0,0-6-4.37H20A6.34,6.34,0,0,0,14,25.17a1,1,0,0,1-1.29.6,1,1,0,0,1-.59-1.28A8.36,8.36,0,0,1,20,19h7.33a8.32,8.32,0,0,1,7.93,5.75A1,1,0,0,1,34.57,26,1.18,1.18,0,0,1,34.26,26.06Z"/><path class="cls-1" d="M43.54,16.67H35a1,1,0,1,1,0-2h8.57a1,1,0,0,1,0,2Z"/><path class="cls-1" d="M39.26,21a1,1,0,0,1-1-1V11.38a1,1,0,0,1,2,0V20A1,1,0,0,1,39.26,21Z"/></g></g></svg>