<svg xmlns="http://www.w3.org/2000/svg" viewBox="0 0 35 35"><defs><style>.cls-1{fill:#625f6e;}</style></defs><g id="Layer_2" data-name="Layer 2"><g id="Layer_1-2" data-name="Layer 1"><path class="cls-1" d="M34.71,16.79,18.21.29a1,1,0,0,0-1.42,0L.29,16.79a1,1,0,0,0-.21,1.09A1,1,0,0,0,1,18.5H3.67V30.33A4.67,4.67,0,0,0,8.33,35H26.67a4.67,4.67,0,0,0,4.66-4.67V18.5H34a1,1,0,0,0,.92-.62A1,1,0,0,0,34.71,16.79ZM22,33H13V23a2.68,2.68,0,0,1,2.67-2.67h3.66A2.68,2.68,0,0,1,22,23Zm8.33-16.5a1,1,0,0,0-1,1V30.33A2.67,2.67,0,0,1,26.67,33H24V23a4.68,4.68,0,0,0-4.67-4.67H15.67A4.68,4.68,0,0,0,11,23V33H8.33a2.67,2.67,0,0,1-2.66-2.67V17.5a1,1,0,0,0-1-1H3.41L17.5,2.41,31.59,16.5Z"/></g></g></svg>