<svg xmlns="http://www.w3.org/2000/svg" viewBox="0 0 35 31.33"><defs><style>.cls-1{fill:#625f6e;}</style></defs><g id="Layer_2" data-name="Layer 2"><g id="Layer_1-2" data-name="Layer 1"><path class="cls-1" d="M17.5,31.33H4.67A4.67,4.67,0,0,1,0,26.67v-22A4.67,4.67,0,0,1,4.67,0H17.5a4.68,4.68,0,0,1,4.67,4.67V8.33a1,1,0,0,1-2,0V4.67A2.68,2.68,0,0,0,17.5,2H4.67A2.68,2.68,0,0,0,2,4.67v22a2.67,2.67,0,0,0,2.67,2.66H17.5a2.67,2.67,0,0,0,2.67-2.66V23a1,1,0,0,1,2,0v3.67A4.67,4.67,0,0,1,17.5,31.33Z"/><path class="cls-1" d="M28.5,22.17a1,1,0,0,1-.71-1.71l3.8-3.79H8.33a1,1,0,1,1,0-2H31.59l-3.8-3.8a1,1,0,0,1,0-1.41,1,1,0,0,1,1.42,0l5.5,5.5h0a1,1,0,0,1,.28.63,1.41,1.41,0,0,1,0,.2.94.94,0,0,1-.23.52l-.06.06-5.49,5.49A1,1,0,0,1,28.5,22.17Z"/></g></g></svg>