<svg xmlns="http://www.w3.org/2000/svg" viewBox="0 0 35 35"><defs><style>.cls-1{fill:#625f6e;}</style></defs><g id="Layer_2" data-name="Layer 2"><g id="Layer_1-2" data-name="Layer 1"><path class="cls-1" d="M17.5,35A17.5,17.5,0,1,1,35,17.5,17.52,17.52,0,0,1,17.5,35Zm0-33A15.5,15.5,0,1,0,33,17.5,15.51,15.51,0,0,0,17.5,2Z"/><path class="cls-1" d="M17.51,11.17a1,1,0,0,1-1-1,1,1,0,0,1,1-1h0a1,1,0,0,1,0,2Z"/><path class="cls-1" d="M19.33,25.83H17.5a1,1,0,0,1-1-1V16.17h-.83a1,1,0,1,1,0-2H17.5a1,1,0,0,1,1,1v8.66h.83a1,1,0,0,1,0,2Z"/></g></g></svg>