<svg xmlns="http://www.w3.org/2000/svg" viewBox="0 0 45.21 46.49"><defs><style>.cls-1{fill:#625f6e;}</style></defs><g id="Layer_2" data-name="Layer 2"><g id="Layer_1-2" data-name="Layer 1"><path class="cls-1" d="M27.84,46.49h-22A5.83,5.83,0,0,1,0,40.67v-22a5.8,5.8,0,0,1,2-4.39,1,1,0,1,1,1.31,1.5A3.85,3.85,0,0,0,2,18.66v22a3.82,3.82,0,0,0,3.82,3.82h22a3.82,3.82,0,0,0,2.82-1.24,1,1,0,1,1,1.47,1.35A5.83,5.83,0,0,1,27.84,46.49Z"/><path class="cls-1" d="M33,40.05H11a5.83,5.83,0,0,1-5.82-5.82v-22a5.8,5.8,0,0,1,3.1-5.14A1,1,0,1,1,9.2,8.83a3.82,3.82,0,0,0-2,3.38v22A3.83,3.83,0,0,0,11,38.05H33a3.81,3.81,0,0,0,3.17-1.69,1,1,0,0,1,1.39-.26,1,1,0,0,1,.27,1.38A5.82,5.82,0,0,1,33,40.05Z"/><path class="cls-1" d="M39.39,33.66h-22a5.83,5.83,0,0,1-5.82-5.82v-22A5.83,5.83,0,0,1,17.38,0h22a5.83,5.83,0,0,1,5.82,5.82v22A5.83,5.83,0,0,1,39.39,33.66ZM17.38,2a3.82,3.82,0,0,0-3.82,3.82v22a3.83,3.83,0,0,0,3.82,3.82h22a3.83,3.83,0,0,0,3.82-3.82v-22A3.82,3.82,0,0,0,39.39,2Z"/><path class="cls-1" d="M24.76,24.22a1,1,0,0,1-.71-.29L19,18.88a1,1,0,0,1,1.42-1.42l4.34,4.35,13-13a1,1,0,1,1,1.41,1.41L25.47,23.93A1,1,0,0,1,24.76,24.22Z"/></g></g></svg>