<svg xmlns="http://www.w3.org/2000/svg" viewBox="0 0 36.83 32.17"><defs><style>.cls-1{fill:#625f6e;}</style></defs><g id="Layer_2" data-name="Layer 2"><g id="Layer_1-2" data-name="Layer 1"><path class="cls-1" d="M12,16.67a8.34,8.34,0,1,1,8.33-8.34A8.34,8.34,0,0,1,12,16.67ZM12,2a6.34,6.34,0,1,0,6.33,6.33A6.34,6.34,0,0,0,12,2Z"/><path class="cls-1" d="M23,32.17a1,1,0,0,1-1-1V27.5a6.34,6.34,0,0,0-6.33-6.33H8.33A6.34,6.34,0,0,0,2,27.5v3.67a1,1,0,0,1-2,0V27.5a8.34,8.34,0,0,1,8.33-8.33h7.34A8.34,8.34,0,0,1,24,27.5v3.67A1,1,0,0,1,23,32.17Z"/><path class="cls-1" d="M28.5,17.5a1,1,0,0,1-.71-.29l-3.66-3.67a1,1,0,0,1,1.41-1.41l3,3,6.63-6.63a1,1,0,0,1,1.41,0,1,1,0,0,1,0,1.42l-7.33,7.33A1,1,0,0,1,28.5,17.5Z"/></g></g></svg>