<svg xmlns="http://www.w3.org/2000/svg" viewBox="0 0 35 35"><defs><style>.cls-1{fill:#625f6e;}</style></defs><g id="Layer_2" data-name="Layer 2"><g id="Layer_1-2" data-name="Layer 1"><path class="cls-1" d="M17.5,35h0a4.09,4.09,0,0,1-4-3.18,2.17,2.17,0,0,0-2.61-1.59,2,2,0,0,0-.62.26,4.09,4.09,0,0,1-5.1-.62,4.09,4.09,0,0,1-.62-5.1,2.16,2.16,0,0,0-.72-3,2.2,2.2,0,0,0-.61-.26,4.16,4.16,0,0,1,0-8.08,2.16,2.16,0,0,0,1.59-2.61,2.24,2.24,0,0,0-.25-.62,4.08,4.08,0,0,1,.61-5.1,4.09,4.09,0,0,1,5.1-.62,2.15,2.15,0,0,0,3.23-1.33h0a4.16,4.16,0,0,1,8.08,0,2.16,2.16,0,0,0,2.61,1.59,2.24,2.24,0,0,0,.62-.25,4.16,4.16,0,0,1,5.72,5.71,2.2,2.2,0,0,0-.26,1.64,2.17,2.17,0,0,0,1,1.33,1.94,1.94,0,0,0,.61.26,4.16,4.16,0,0,1,0,8.08,2.17,2.17,0,0,0-1.33,1,2.12,2.12,0,0,0-.26,1.63,2.24,2.24,0,0,0,.25.62,4.16,4.16,0,0,1-5.71,5.72,2.16,2.16,0,0,0-3,.72,2.34,2.34,0,0,0-.26.61A4.09,4.09,0,0,1,17.5,35Zm-6.14-6.83a4.17,4.17,0,0,1,4,3.18A2.08,2.08,0,0,0,17.5,33h0a2.08,2.08,0,0,0,2.1-1.65,4.16,4.16,0,0,1,6.21-2.57,2.16,2.16,0,0,0,3-3,4,4,0,0,1-.49-1.19,4.08,4.08,0,0,1,.49-3.14,4.13,4.13,0,0,1,2.57-1.88,2.16,2.16,0,0,0,0-4.2,4.17,4.17,0,0,1-3.06-3.06,4.14,4.14,0,0,1,.49-3.15,2.08,2.08,0,0,0-.32-2.65,2.08,2.08,0,0,0-2.65-.32,4,4,0,0,1-1.19.49,4.16,4.16,0,0,1-5-3.06,2.16,2.16,0,0,0-4.2,0h0A4.16,4.16,0,0,1,9.19,6.22a2.08,2.08,0,0,0-2.65.32,2.08,2.08,0,0,0-.32,2.65,4,4,0,0,1,.49,1.19,4.16,4.16,0,0,1-3.06,5,2.16,2.16,0,0,0,0,4.2,4.09,4.09,0,0,1,1.18.49,4.17,4.17,0,0,1,1.39,5.72,2.08,2.08,0,0,0,.32,2.65,2.08,2.08,0,0,0,2.65.32,4,4,0,0,1,1.19-.49A4.11,4.11,0,0,1,11.36,28.17ZM14.43,3.42h0Z"/><path class="cls-1" d="M17.5,24A6.5,6.5,0,1,1,24,17.5,6.51,6.51,0,0,1,17.5,24Zm0-11A4.5,4.5,0,1,0,22,17.5,4.51,4.51,0,0,0,17.5,13Z"/></g></g></svg>